<?xml version="1.0" standalone="no"?>
<!DOCTYPE svg PUBLIC "-//W3C//DTD SVG 1.1//EN" "http://www.w3.org/Graphics/SVG/1.1/DTD/svg11.dtd" >
<svg xmlns="http://www.w3.org/2000/svg">
<metadata>Generated by IcoMoon</metadata>
<defs>
<font id="font-gorilla" horiz-adv-x="1024">
<font-face units-per-em="1024" ascent="960" descent="-64" />
<missing-glyph horiz-adv-x="1024" />
<glyph unicode="&#x20;" horiz-adv-x="512" d="" />
<glyph unicode="&#xe900;" glyph-name="ic_arorw_last" d="M340.907 661.333l213.675-213.333-213.675-213.333-42.24 42.155 171.392 171.179-171.392 171.179 42.24 42.155zM511.573 661.333l213.675-213.333-213.675-213.333-42.24 42.155 171.392 171.179-171.392 171.179 42.24 42.155z" />
<glyph unicode="&#xe901;" glyph-name="ic_arrow_bottom" d="M298.667 533.76l213.333-213.675 213.333 213.675-42.155 42.24-171.179-171.392-171.179 171.392-42.155-42.24z" />
<glyph unicode="&#xe902;" glyph-name="ic_arrow_first" d="M683.008 661.333l42.24-42.155-171.392-171.179 171.392-171.179-42.24-42.155-213.675 213.333 213.675 213.333zM512.341 661.333l42.24-42.155-171.392-171.179 171.392-171.179-42.24-42.155-213.675 213.333 213.675 213.333z" />
<glyph unicode="&#xe903;" glyph-name="ic_arrow_left" d="M597.717 661.376l42.24-42.155-171.392-171.179 171.392-171.179-42.24-42.155-213.675 213.333z" />
<glyph unicode="&#xe904;" glyph-name="ic_arrow_right" d="M426.283 234.709l-42.24 42.155 171.392 171.179-171.392 171.179 42.24 42.155 213.675-213.333z" />
<glyph unicode="&#xe905;" glyph-name="ic_arrow_top" d="M725.333 362.325l-42.155-42.24-171.179 171.392-171.179-171.392-42.155 42.24 213.333 213.675z" />
<glyph unicode="&#xe906;" glyph-name="ic_back" d="M853.333 704v-512l-341.333 255.958 341.333 256.042zM512 704v-512l-341.333 255.958 341.333 256.042z" />
<glyph unicode="&#xe907;" glyph-name="ic_bell" d="M237.2 234.667h549.608c-6.805 9.472-14.272 18.987-21.397 28.032-5.845 7.403-11.563 14.677-16.853 21.781-9.365 12.587-14.336 27.328-14.336 42.645v138.667c0 88.661-48.576 154.987-133.29 181.888-18.091 5.781-37.184 9.771-56.768 11.883-21.952 2.325-42.346 2.325-64.32 0-19.541-2.112-38.656-6.101-56.768-11.883-84.714-26.923-133.311-93.227-133.311-181.888v-138.667c0-15.317-4.949-30.059-14.315-42.624-5.291-7.125-11.008-14.379-16.832-21.781-7.147-9.067-14.613-18.581-21.419-28.053zM511.993 832v0c-23.531 0-42.666-19.136-42.666-42.667s19.136-42.667 42.666-42.667c23.531 0 42.666 19.136 42.666 42.667s-19.136 42.667-42.666 42.667zM895.607 197.781c1.664-12.203-2.005-24.533-10.112-33.813-8.107-9.301-19.84-14.635-32.171-14.635h-682.664c-12.309 0-24.043 5.333-32.149 14.635-8.107 9.28-11.797 21.611-10.112 33.813 6.208 45.355 36.48 83.797 63.168 117.717 4.416 5.611 8.747 11.136 12.864 16.533v133.76c0 126.443 72.064 224.853 192.767 263.232 0.576 0.192 1.173 0.277 1.749 0.448-9.515 17.877-14.955 38.229-14.955 59.861 0 70.592 57.429 128 127.999 128 70.592 0 127.999-57.408 127.999-128 0-21.632-5.44-42.005-14.933-59.883 0.576-0.149 1.173-0.256 1.749-0.448 120.682-38.357 192.746-136.747 192.746-263.211v-133.76c4.117-5.397 8.469-10.923 12.907-16.555 26.688-33.92 56.917-72.341 63.146-117.696zM405.327 85.333v21.333h213.332v-21.333c0-58.816-47.85-106.667-106.666-106.667-58.794 0-106.666 47.851-106.666 106.667zM572.345 64h-120.682c8.789-24.832 32.533-42.667 60.33-42.667 27.819 0 51.541 17.835 60.352 42.667z" />
<glyph unicode="&#xe908;" glyph-name="ic_box" d="M213.333 192h597.333v192h-597.333v-192zM307.392 661.333l-83.819-234.667h576.853l-83.819 234.667h-409.216zM893.525 419.691c1.643-4.608 2.475-9.472 2.475-14.357v-256c0-23.552-19.115-42.667-42.667-42.667h-682.667c-23.552 0-42.667 19.115-42.667 42.667v256c0 4.885 0.832 9.749 2.475 14.357l106.667 298.667c6.059 16.981 22.144 28.309 40.192 28.309h469.333c18.048 0 34.133-11.328 40.192-28.309l106.667-298.667zM256 251.093h42.667v85.333h-42.667v-85.333zM341.333 251.093h42.667v85.333h-42.667v-85.333zM426.667 251.093h42.667v85.333h-42.667v-85.333z" />
<glyph unicode="&#xe909;" glyph-name="ic_box_product" d="M213.333 149.333v213.333h597.333v-213.333h-597.333zM170.667 448v106.667h682.667v-106.667h-682.667zM261.035 746.667h501.931l74.667-149.333h-651.264l74.667 149.333zM934.165 595.093l-106.667 213.333c-7.232 14.443-21.995 23.573-38.165 23.573h-554.667c-16.171 0-30.933-9.131-38.165-23.573l-106.667-213.333c-2.965-5.931-4.501-12.459-4.501-19.093v-170.667c0-23.552 19.115-42.667 42.667-42.667v-256c0-23.552 19.115-42.667 42.667-42.667h682.667c23.552 0 42.667 19.115 42.667 42.667v256c23.552 0 42.667 19.115 42.667 42.667v170.667c0 6.635-1.536 13.163-4.501 19.093v0zM256 208.427h42.667v85.333h-42.667v-85.333zM341.333 208.427h42.667v85.333h-42.667v-85.333zM426.667 208.427h42.667v85.333h-42.667v-85.333z" />
<glyph unicode="&#xe90a;" glyph-name="ic_box_vemo" d="M213.333 147.345v187.525h597.333v-187.525h-597.333zM725.333 309.233c-35.349 0-64-27.983-64-62.508s28.651-62.508 64-62.508c35.349 0 64 27.983 64 62.508s-28.651 62.508-64 62.508zM256 205.052h42.667v83.345h-42.667v-83.345zM341.333 205.052h42.667v83.345h-42.667v-83.345zM426.667 205.052v83.345h42.667v-83.345h-42.667zM448 727.819c0 34.526 28.651 62.508 64 62.508s64-27.983 64-62.508c0-34.526-28.651-62.508-64-62.508s-64 27.983-64 62.508zM794.965 376.542h-565.931l74.667 145.853h416.597l74.667-145.853zM616.491 706.983h279.509v41.672h-279.509c-9.877 47.486-52.971 83.345-104.491 83.345s-94.613-35.859-104.491-83.345h-279.509v-41.672h279.509c8.491-40.756 41.429-72.927 83.157-81.24v-20.003h-213.333c-16.171 0-30.933-8.939-38.165-23.045l-106.667-208.362c-2.965-5.792-4.501-12.168-4.501-18.628v-250.034c0-23.024 19.115-41.672 42.667-41.672h682.667c23.552 0 42.667 18.648 42.667 41.672v250.034c0 6.459-1.536 12.835-4.501 18.628l-106.667 208.362c-7.232 14.106-21.995 23.045-38.165 23.045h-213.333v20.003c41.728 8.314 74.667 40.485 83.157 81.24v0z" />
<glyph unicode="&#xe90b;" glyph-name="ic_calendar" d="M661.333 191.996h128v85.333h-128v-85.333zM448 191.996h128v85.333h-128v-85.333zM234.667 191.996h128v85.333h-128v-85.333zM661.333 319.996h128v85.333h-128v-85.333zM448 319.996h128v85.333h-128v-85.333zM234.667 319.996h128v85.333h-128v-85.333zM853.333 533.308h-682.667v128.021c0 23.531 19.136 42.667 42.667 42.667h64v-85.333c0-23.552 19.115-42.667 42.667-42.667s42.667 19.115 42.667 42.667v85.333h298.667v-85.333c0-23.552 19.115-42.667 42.667-42.667s42.667 19.115 42.667 42.667v85.333h64c23.531 0 42.667-19.136 42.667-42.667v-128.021zM853.333 149.329c0-23.531-19.136-42.667-42.667-42.667h-597.333c-23.531 0-42.667 19.136-42.667 42.667v341.312h682.667v-341.312zM810.667 789.329h-64v42.667c0 23.552-19.115 42.667-42.667 42.667s-42.667-19.115-42.667-42.667v-42.667h-298.667v42.667c0 23.552-19.115 42.667-42.667 42.667s-42.667-19.115-42.667-42.667v-42.667h-64c-70.592 0-128-57.408-128-128v-512c0-70.592 57.408-128 128-128h597.333c70.592 0 128 57.408 128 128v512c0 70.592-57.408 128-128 128v0z" />
<glyph unicode="&#xe90c;" glyph-name="ic_calendar_2" d="M661.333 191.996h128v85.333h-128v-85.333zM448 191.996h-213.333v85.333h341.333v-85.333h-128zM661.333 319.996h-213.333v85.333h341.333v-85.333h-128zM234.667 319.996h128v85.333h-128v-85.333zM853.333 533.308h-682.667v128.021c0 23.531 19.136 42.667 42.667 42.667h64v-85.333c0-23.552 19.115-42.667 42.667-42.667s42.667 19.115 42.667 42.667v85.333h298.667v-85.333c0-23.552 19.115-42.667 42.667-42.667s42.667 19.115 42.667 42.667v85.333h64c23.531 0 42.667-19.136 42.667-42.667v-128.021zM853.333 149.329c0-23.531-19.136-42.667-42.667-42.667h-597.333c-23.531 0-42.667 19.136-42.667 42.667v341.312h682.667v-341.312zM810.667 789.329h-64v42.667c0 23.552-19.115 42.667-42.667 42.667s-42.667-19.115-42.667-42.667v-42.667h-298.667v42.667c0 23.552-19.115 42.667-42.667 42.667s-42.667-19.115-42.667-42.667v-42.667h-64c-70.592 0-128-57.408-128-128v-512c0-70.592 57.408-128 128-128h597.333c70.592 0 128 57.408 128 128v512c0 70.592-57.408 128-128 128v0z" />
<glyph unicode="&#xe90d;" glyph-name="ic_cam_1" d="M85.333 704h853.333v85.333h-853.333v-85.333zM853.333 490.667c0-188.203-153.131-341.333-341.333-341.333s-341.333 153.131-341.333 341.333v85.333h682.667v-85.333zM896 661.333h-768c-23.552 0-42.667-19.115-42.667-42.667v-128c0-235.264 191.403-426.667 426.667-426.667s426.667 191.403 426.667 426.667v128c0 23.552-19.115 42.667-42.667 42.667v0zM512 490.667c70.592 0 128-57.408 128-128s-57.408-128-128-128c-70.592 0-128 57.408-128 128s57.408 128 128 128zM512 192c94.101 0 170.667 76.565 170.667 170.667s-76.565 170.667-170.667 170.667c-94.101 0-170.667-76.565-170.667-170.667s76.565-170.667 170.667-170.667zM512 298.667c35.349 0 64 28.651 64 64s-28.651 64-64 64c-35.349 0-64-28.651-64-64s28.651-64 64-64z" />
<glyph unicode="&#xe90e;" glyph-name="ic_cam_2" d="M853.333 320c0-23.531-19.136-42.667-42.667-42.667h-426.667c-23.531 0-42.667 19.136-42.667 42.667v256c0 23.531 19.136 42.667 42.667 42.667h426.667c23.531 0 42.667-19.136 42.667-42.667v-256zM128 339.648v216.704l128-89.579v-37.547l-128-89.579zM810.667 704h-426.667c-70.592 0-128-57.408-128-128v-57.173l-137.109 95.979c-6.507 4.565-14.997 5.141-22.080 1.451-7.040-3.669-11.477-10.965-11.477-18.923v-298.667c0-7.957 4.437-15.253 11.477-18.923 3.115-1.621 6.485-2.411 9.856-2.411 4.309 0 8.576 1.301 12.224 3.861l137.109 95.979v-57.173c0-70.592 57.408-128 128-128h426.667c70.592 0 128 57.408 128 128v256c0 70.592-57.408 128-128 128v0zM750.906 554.667c-35.328 0-64-28.672-64-64s28.672-64 64-64c35.349 0 64 28.672 64 64s-28.651 64-64 64z" />
<glyph unicode="&#xe90f;" glyph-name="ic_cam_3" d="M740.833 109.549h197.834v-45.549h-219.816c-12.156 0-21.982 10.203-21.982 22.774v145.232c-11.013-2.596-22.201-4.168-33.5-4.168-13.387 0-26.818 1.822-40.094 5.489-19.146 5.329-36.709 14.279-52.14 26.19l-37.545-22.455c-20.707-12.389-43.348-18.288-65.703-18.288-45.612 0-90.058 24.505-114.458 68.277v0.023l-51.811-125.668c-6.529-15.874-21.168-26.532-37.786-27.58-0.879-0.046-1.781-0.068-2.638-0.068-15.651 0-30.181 8.631-38.094 22.774l-131.889 236.67c-8.309 14.94-7.781 33.478 1.407 47.872 9.166 14.393 25.345 22.182 41.941 20.132l130.922-16.352c-36.336 65.271-14.684 148.989 48.293 186.658l304.599 182.194c62.999 37.714 143.803 15.213 180.161-50.012l87.926-157.78c36.336-65.248 14.706-148.989-48.272-186.658l-22.267-13.323c2.264-19.791 0.945-40.037-4.176-59.874-10.573-40.812-35.742-74.927-70.913-96.267v-140.244zM634.662 277.327c28.378-7.88 57.987-3.803 83.398 11.387 25.433 15.19 43.611 39.764 51.217 69.143 1.912 7.379 3.099 14.826 3.539 22.296l-158.575-94.855c6.463-3.302 13.299-5.99 20.421-7.971zM429.574 332.623c12.134-21.772 39.061-29.197 60.054-16.671l304.599 182.194c20.992 12.549 28.202 40.47 16.069 62.219l-87.926 157.78c-8.133 14.598-22.927 22.774-38.138 22.774-7.452 0-14.991-1.959-21.894-6.104l-304.599-182.194c-20.992-12.549-28.224-40.47-16.091-62.219l43.875-78.731c0.022-0.068 0.088-0.091 0.11-0.159 0.022-0.046 0.044-0.114 0.066-0.182l43.875-78.708zM255.304 280.971l28.796 69.803-72.759 9.087 43.963-78.89zM661.688 688.91c-11.189 0-22.509-2.961-32.884-9.155-31.544-18.88-42.358-60.648-24.158-93.329 12.222-21.909 34.401-34.161 57.174-34.161 11.189 0 22.509 2.938 32.906 9.155 31.544 18.857 42.336 60.648 24.136 93.329-12.222 21.909-34.379 34.161-57.174 34.161z" />
<glyph unicode="&#xe910;" glyph-name="ic_camera" d="M746.667 512v0c0-23.531 19.136-42.667 42.667-42.667s42.667 19.136 42.667 42.667c0 23.531-19.136 42.667-42.667 42.667s-42.667-19.136-42.667-42.667zM512 256c-94.101 0-170.667 76.565-170.667 170.667s76.565 170.667 170.667 170.667c94.101 0 170.667-76.565 170.667-170.667s-76.565-170.667-170.667-170.667v0zM512 640c-117.632 0-213.333-95.701-213.333-213.333s95.701-213.333 213.333-213.333c117.632 0 213.333 95.701 213.333 213.333s-95.701 213.333-213.333 213.333v0zM512 341.333c-47.061 0-85.333 38.272-85.333 85.333s38.272 85.333 85.333 85.333c47.061 0 85.333-38.272 85.333-85.333s-38.272-85.333-85.333-85.333v0zM512 554.667c-70.592 0-128-57.408-128-128s57.408-128 128-128c70.592 0 128 57.408 128 128s-57.408 128-128 128v0zM853.333 192h-682.667v384h128c18.368 0 34.667 11.755 40.469 29.163l32.939 98.837h279.829l32.939-98.837c5.803-17.408 22.101-29.163 40.469-29.163h128.021v-384zM183.061 661.333v40.939h42.667v-40.939h-42.667zM896 661.333h-139.947l-32.939 98.837c-5.803 17.408-22.101 29.163-40.469 29.163h-341.312c-18.368 0-34.667-11.755-40.469-29.163l-32.469-97.408v60.843c0 11.797-9.536 21.333-21.333 21.333h-85.333c-11.797 0-21.333-9.536-21.333-21.333v-62.272h-12.395c-23.552 0-42.667-19.115-42.667-42.667v-469.333c0-23.552 19.115-42.667 42.667-42.667h768c23.552 0 42.667 19.115 42.667 42.667v469.333c0 23.552-19.115 42.667-42.667 42.667v0z" />
<glyph unicode="&#xe911;" glyph-name="ic_cancel" d="M512 149.333c-164.693 0-298.667 133.973-298.667 298.667s133.973 298.667 298.667 298.667c164.693 0 298.667-133.973 298.667-298.667s-133.973-298.667-298.667-298.667zM512 832c-212.075 0-384-171.925-384-384s171.925-384 384-384c212.075 0 384 171.925 384 384s-171.925 384-384 384zM647.772 613.937l-135.765-135.765-135.787 135.765-30.165-30.165 135.787-135.765-135.787-135.787 30.165-30.165 135.787 135.787 135.765-135.787 30.165 30.165-135.765 135.787 135.765 135.765-30.165 30.165z" />
<glyph unicode="&#xe912;" glyph-name="ic_car_1" d="M381.687 476.454l20.672 146.401h39.616c18.56 0 35.221-11.524 41.429-28.674l42.667-117.728h-144.384zM441.975 664.684h-76.779l-32.469-230.059h253.781l-62.912 173.569c-12.267 33.861-44.971 56.49-81.621 56.49zM853.333 223.745h-476.971c-2.709 33.819-14.528 60.631-35.563 79.726-25.323 22.922-57.408 28.423-77.888 29.322l-20.117 100.097h2.645l9.813 72.657 32.853 242.796h264.811c0.811 0 1.557-0.502 1.856-1.255l122.475-314.198h92.267c46.208 0 83.819-36.872 83.819-82.194v-126.951zM170.667 432.889h28.651l25.195-125.424c2.176-10.75 12.437-18.028 23.637-16.711 0.341 0.084 39.253 4.371 63.893-18.196 12.117-11.085 19.243-27.523 21.525-48.814h-162.901v209.145zM938.667 350.695c0 91.605-75.733 165.852-169.152 165.852h-33.515l-101.525 260.406c-12.907 33.149-45.376 55.047-81.557 55.047h-339.584l-42.667-315.453h-85.333v-376.46h78.421c3.947-42.54 40.128-76.087 84.544-76.087s80.576 33.547 84.544 76.087h312.939c3.968-42.54 40.128-76.087 84.544-76.087s80.597 33.547 84.544 76.087h123.797v210.609zM332.736 348.359h85.333v41.829h-85.333v-41.829z" />
<glyph unicode="&#xe913;" glyph-name="ic_car_2" d="M657.862 341.333c0-35.349 28.005-64 62.512-64 34.528 0 62.512 28.651 62.512 64s-27.985 64-62.512 64c-34.507 0-62.512-28.651-62.512-64zM824.561 234.667h-625.122v165.888l69.139 311.872c3.897 19.84 21.046 34.24 40.82 34.24h405.204c19.775 0 36.924-14.4 41.029-35.328l68.93-310.784v-165.888zM883.364 520.747l55.302 15.168-10.794 41.216-53.74-14.741-36.986 166.784c-11.648 59.584-63.2 102.827-122.545 102.827h-405.204c-59.345 0-110.897-43.243-122.316-101.76l-37.216-167.851-53.74 14.741-10.794-41.216 55.302-15.168-23.505-105.963c-0.688-3.115-1.042-6.272-1.042-9.451v-213.333c0-23.552 18.67-42.667 41.675-42.667h41.675v-64c0-11.776 9.314-21.333 20.837-21.333h83.35c11.523 0 20.837 9.557 20.837 21.333v64h375.073v-64c0-11.776 9.314-21.333 20.837-21.333h83.35c11.523 0 20.837 9.557 20.837 21.333v64h41.675c23.004 0 41.675 19.115 41.675 42.667v213.333c0 3.179-0.354 6.336-1.042 9.451l-23.505 105.963zM303.626 405.333c34.507 0 62.512-28.651 62.512-64s-28.005-64-62.512-64c-34.528 0-62.512 28.651-62.512 64s27.985 64 62.512 64zM261.959 448v42.667h500.098v-42.667h-500.098z" />
<glyph unicode="&#xe914;" glyph-name="ic_case" d="M810.667 149.333h-597.333c-23.531 0-42.667 19.136-42.667 42.667v234.667h234.667v-21.333c0-35.285 28.715-64 64-64h85.333c35.285 0 64 28.715 64 64v21.333h234.667v-234.667c0-23.531-19.136-42.667-42.667-42.667v0zM448 426.667h128v-21.333c0-11.776-9.557-21.333-21.333-21.333h-85.333c-11.776 0-21.333 9.557-21.333 21.333v21.333zM213.333 661.333h597.333c23.531 0 42.667-19.136 42.667-42.667v-149.333h-682.667v149.333c0 23.531 19.136 42.667 42.667 42.667v0zM426.667 789.333h170.667c27.776 0 51.221-17.899 60.053-42.667h-290.773c8.832 24.768 32.277 42.667 60.053 42.667v0zM810.667 746.667h-108.843c-9.877 48.619-52.992 85.333-104.491 85.333h-170.667c-51.499 0-94.613-36.715-104.491-85.333h-108.843c-70.592 0-128-57.408-128-128v-426.667c0-70.592 57.408-128 128-128h597.333c70.592 0 128 57.408 128 128v426.667c0 70.592-57.408 128-128 128v0z" />
<glyph unicode="&#xe915;" glyph-name="ic_change_left_right" d="M291.354 441.291c-10.923 0-21.824 4.16-30.165 12.501l-120.683 120.683c-16.683 16.661-16.683 43.669 0 60.331l120.683 120.704c16.661 16.661 43.669 16.661 60.331 0 16.661-16.683 16.661-43.669 0-60.352l-69.184-69.184h601.003v-42.667h-601.003l69.184-69.184c16.661-16.661 16.661-43.669 0-60.331-8.341-8.341-19.243-12.501-30.165-12.501zM883.501 293.478c16.661-16.661 16.661-43.669 0-60.331l-120.683-120.683c-8.341-8.341-19.264-12.501-30.165-12.501-10.923 0-21.845 4.16-30.165 12.501-16.683 16.661-16.683 43.669 0 60.331l69.184 69.184h-601.003v42.667h601.003l-69.184 69.184c-16.683 16.661-16.683 43.669 0 60.331 16.661 16.661 43.669 16.661 60.331 0l120.683-120.683z" />
<glyph unicode="&#xe916;" glyph-name="ic_change_up_down" d="M519.301 654.626c0 10.923 4.16 21.824 12.501 30.165l120.683 120.683c16.661 16.683 43.669 16.683 60.331 0l120.704-120.683c16.661-16.661 16.661-43.669 0-60.331-16.683-16.661-43.669-16.661-60.352 0l-69.184 69.184v-601.003h-42.667v601.003l-69.184-69.184c-16.661-16.661-43.669-16.661-60.331 0-8.341 8.341-12.501 19.243-12.501 30.165zM371.489 62.479c-16.661-16.661-43.669-16.661-60.331 0l-120.683 120.683c-8.341 8.341-12.501 19.264-12.501 30.165 0 10.923 4.16 21.845 12.501 30.165 16.661 16.683 43.669 16.683 60.331 0l69.184-69.184v601.003h42.667v-601.003l69.184 69.184c16.661 16.683 43.669 16.683 60.331 0 16.661-16.661 16.661-43.669 0-60.331l-120.683-120.683z" />
<glyph unicode="&#xe917;" glyph-name="ic_chart_columns" d="M213.333 154.091h682.667v-85.333h-725.333c-23.552 0-42.667 19.115-42.667 42.667v720.576h85.333v-677.909zM344 429.050v-234.667h-42.667v256c0 11.776 9.557 21.333 21.333 21.333h85.333c11.776 0 21.333-9.557 21.333-21.333v-256h-42.667v234.667h-42.667zM514.667 685.050v-490.667h-42.667v512c0 11.776 9.557 21.333 21.333 21.333h85.333c11.776 0 21.333-9.557 21.333-21.333v-512h-42.667v490.667h-42.667zM685.333 514.383v-320h-42.667v341.333c0 11.776 9.557 21.333 21.333 21.333h85.333c11.797 0 21.333-9.557 21.333-21.333v-341.333h-42.667v320h-42.667z" />
<glyph unicode="&#xe918;" glyph-name="ic_chart_kpi" d="M981.333 469.329v-42.667h-43.755c-10.88-218.197-186.027-393.387-404.245-404.245v-43.755h-42.667v43.755c-218.219 10.859-393.365 186.048-404.245 404.245h-43.755v42.667h43.755c10.88 218.219 186.027 393.387 404.245 404.245v43.755h42.667v-43.755c218.219-10.859 393.365-186.027 404.245-404.245h43.755zM533.333 107.75c171.157 10.667 308.245 147.755 318.912 318.912h-41.579v42.667h41.579c-10.667 171.179-147.755 308.267-318.912 318.912v-41.579h-42.667v41.579c-171.157-10.645-308.245-147.733-318.912-318.912h41.579v-42.667h-41.579c10.667-171.157 147.755-308.245 318.912-318.912v41.579h42.667v-41.579zM719.23 636.271c12.352-7.125 21.163-18.624 24.853-32.384s1.792-28.139-5.333-40.469c-7.125-12.331-18.624-21.163-32.405-24.853-4.565-1.216-9.237-1.835-13.867-1.835-1.92 0-3.755 0.533-5.653 0.747l-58.048-100.544c12.16-16.533 14.229-39.36 3.328-58.261h-0.021c-9.877-17.088-27.84-26.645-46.272-26.645-9.045 0-18.197 2.283-26.581 7.125-12.331 7.125-21.163 18.624-24.832 32.384-1.749 6.528-2.155 13.184-1.408 19.712l-63.275 36.544c-5.291-3.904-11.285-6.891-17.813-8.64-4.587-1.237-9.259-1.835-13.888-1.835-1.899 0-3.733 0.533-5.632 0.747l-58.069-100.544c3.904-5.291 6.891-11.264 8.64-17.792 7.616-28.395-9.301-57.707-37.696-65.323-4.608-1.237-9.28-1.835-13.909-1.835-9.237 0-18.368 2.411-26.581 7.168-12.352 7.125-21.163 18.624-24.853 32.384s-1.792 28.139 5.333 40.469c7.125 12.331 18.624 21.163 32.405 24.832 6.507 1.749 13.184 2.155 19.712 1.429l57.856 100.203c-12.16 16.555-14.208 39.381-3.328 58.283 14.72 25.451 47.403 34.24 72.875 19.52 12.331-7.125 21.163-18.624 24.832-32.384 1.749-6.528 2.155-13.205 1.429-19.733l63.275-36.523c5.291 3.883 11.264 6.869 17.813 8.619 6.507 1.792 13.184 2.176 19.712 1.451l57.856 100.203c-3.883 5.291-6.891 11.264-8.64 17.792-7.595 28.395 9.301 57.707 37.717 65.323 13.781 3.691 28.139 1.792 40.469-5.333z" />
<glyph unicode="&#xe919;" glyph-name="ic_chart_pie" d="M512 149.333c-164.693 0-298.667 133.973-298.667 298.667s133.973 298.667 298.667 298.667c164.693 0 298.667-133.973 298.667-298.667s-133.973-298.667-298.667-298.667zM512 832c-211.733 0-384-172.267-384-384s172.267-384 384-384c211.733 0 384 172.267 384 384s-172.267 384-384 384zM512 256c-61.184 0-118.656 29.483-154.56 78.123l165.227 95.403c6.613 3.819 10.667 10.859 10.667 18.475v190.805c95.872-10.645 170.667-92.139 170.667-190.805 0-105.877-86.123-192-192-192zM511.952 682.667c-11.795 0-21.328-9.536-21.328-21.333v-201.024l-174.039-100.501c-4.906-2.837-8.489-7.488-9.939-12.949s-0.704-11.307 2.133-16.192c41.782-72.384 119.631-117.333 203.174-117.333 129.356 0 234.612 105.28 234.612 234.667s-105.255 234.667-234.612 234.667z" />
<glyph unicode="&#xe91a;" glyph-name="ic_chat" d="M853.333 874.667h-682.667c-46.933 0-85.333-38.4-85.333-85.333v-768l170.667 170.667h597.333c46.933 0 85.333 38.4 85.333 85.333v512c0 46.933-38.4 85.333-85.333 85.333v0zM256 576h512v-85.333h-512v85.333zM597.333 362.667h-341.333v85.333h341.333v-85.333zM768 618.667h-512v85.333h512v-85.333z" />
<glyph unicode="&#xe91b;" glyph-name="ic_check" d="M512 832c-212.075 0-384-171.925-384-384s171.925-384 384-384c212.075 0 384 171.925 384 384s-171.925 384-384 384zM512 746.667c164.693 0 298.667-133.973 298.667-298.667s-133.973-298.667-298.667-298.667c-164.693 0-298.667 133.973-298.667 298.667s133.973 298.667 298.667 298.667zM451.667 297.146l256.448 256.448-30.187 30.187-226.261-226.304-105.6 105.6-30.165-30.165 135.765-135.765z" />
<glyph unicode="&#xe91c;" glyph-name="ic_checkbox" d="M85.333 682.7c0 94.238 76.479 170.634 170.634 170.634h512.066c94.238 0 170.634-76.479 170.634-170.634v-512.066c0-94.238-76.479-170.634-170.634-170.634h-512.066c-94.238 0-170.634 76.479-170.634 170.634v512.066zM831.232 726.016h-141.739l-283.947-426.069-82.603 149.717h-130.176l209.664-322.347h30.251l398.549 598.699z" />
<glyph unicode="&#xe91d;" glyph-name="ic_checkbox_fill" d="M85.333 682.7c0 94.238 76.479 170.634 170.634 170.634h512.066c94.238 0 170.634-76.479 170.634-170.634v-512.066c0-94.238-76.479-170.634-170.634-170.634h-512.066c-94.238 0-170.634 76.479-170.634 170.634v512.066z" />
<glyph unicode="&#xe91e;" glyph-name="ic_checkbox_outline" d="M128 682.7v-512.066c0-70.623 57.325-127.967 127.967-127.967h512.066c70.623 0 127.967 57.325 127.967 127.967v512.066c0 70.623-57.325 127.967-127.967 127.967h-512.066c-70.623 0-127.967-57.325-127.967-127.967zM85.333 682.7c0 94.238 76.479 170.634 170.634 170.634h512.066c94.238 0 170.634-76.479 170.634-170.634v-512.066c0-94.238-76.479-170.634-170.634-170.634h-512.066c-94.238 0-170.634 76.479-170.634 170.634v512.066z" />
<glyph unicode="&#xe91f;" glyph-name="ic_clock" d="M508.871 874.667c236.916 0 422.374-188.059 422.374-420.343 0-233.436-185.458-421.521-422.374-421.521-235.856 0-423.538 188.085-423.538 421.521 0 232.284 187.682 420.343 423.538 420.343zM506.583 104.732c195.775 0 356.021 157.552 356.021 350.167 0 188.059-160.246 347.838-356.021 347.838-196.939 0-352.608-159.779-352.608-347.838 0-192.615 155.669-350.167 352.608-350.167zM498.411 711.301c-22.988 0-47.011 21.473-47.011 40.719 0 26.105 24.023 43.048 47.011 43.048 19.472 0 43.494-16.943 43.494-43.048 0-19.246-24.023-40.719-43.494-40.719zM494.895 226.179c27.436 0 43.494-19.272 43.494-46.401 0-23.802-16.058-43.048-43.494-43.048-21.799 0-43.494 19.246-43.494 43.048 0 27.129 21.695 46.401 43.494 46.401zM782.726 510.623c19.472 0 41.27-17.045 41.27-40.847 0-21.447-21.799-43.048-41.27-43.048-29.763 0-46.882 21.601-46.882 43.048 0 23.802 17.118 40.847 46.882 40.847zM205.873 510.623c26.376 0 45.847-21.473 45.847-45.249 0-17.045-19.472-40.847-45.847-40.847-19.472 0-38.917 23.802-38.917 40.847 0 23.776 19.446 45.249 38.917 45.249zM690.323 684.209c10.318-2.329 12.671-17.045 8.094-23.776l-178.657-224.402c-2.224-10.212-17.118-10.212-24.023 0l-131.646 60.093c-10.318 6.731-14.895 16.943-10.318 29.483 4.551 9.034 17.222 11.261 27.539 9.034l121.328-62.294 161.435 209.532c4.551 6.859 17.093 12.541 26.246 2.329z" />
<glyph unicode="&#xe920;" glyph-name="ic_close" d="M810.667 686.933l-59.733 59.733-238.933-238.933-238.933 238.933-59.733-59.733 238.933-238.933-238.933-238.933 59.733-59.733 238.933 238.933 238.933-238.933 59.733 59.733-238.933 238.933z" />
<glyph unicode="&#xe921;" glyph-name="ic_cloud" d="M512 661.333c-73.749 0-140.8-40.725-174.955-106.304-6.613-12.693-19.115-21.227-33.323-22.741-75.84-8.064-133.056-71.808-133.056-148.288 0-82.325 67.008-149.333 149.333-149.333h416c64.683 0 117.333 52.651 117.333 117.333 0 60.885-47.915 111.915-109.077 116.16-19.243 1.344-35.179 15.403-38.912 34.325-18.155 92.032-99.477 158.848-193.344 158.848zM736 149.333h-416c-129.387 0-234.667 105.28-234.667 234.667 0 112.597 78.955 207.659 187.051 229.717 51.456 82.539 141.376 132.949 239.616 132.949 124.224 0 233.109-81.643 269.547-198.037 90.261-20.757 157.12-101.781 157.12-196.629 0-111.744-90.923-202.667-202.667-202.667z" />
<glyph unicode="&#xe922;" glyph-name="ic_cog" d="M512.011 319.977c-67.193 0-121.836 57.404-121.836 127.99s54.643 127.99 121.836 127.99c67.172 0 121.836-57.404 121.836-127.99s-54.664-127.99-121.836-127.99zM512.011 618.62c-89.732 0-162.448-76.41-162.448-170.653s72.716-170.653 162.448-170.653c89.712 0 162.448 76.41 162.448 170.653s-72.736 170.653-162.448 170.653zM749.615 503.962c4.021-18.879 6.071-37.736 6.071-55.996s-2.051-37.117-6.071-55.996c-3.127-14.719 1.361-30.099 11.838-40.424l45.831-45.18c-8.61-19.881-18.885-38.717-30.784-56.294l-60.492 19.198c-13.686 4.373-28.672 0.789-39.252-9.429-27.088-26.217-58.075-45.159-92.108-56.294-13.727-4.501-24.144-16.276-27.454-30.974l-14.316-64.187c-21.22-2.325-40.551-2.325-61.771 0l-14.316 64.187c-3.29 14.698-13.727 26.473-27.433 30.974-34.033 11.135-65.020 30.078-92.108 56.294-10.559 10.218-25.525 13.802-39.252 9.429l-60.512-19.198c-11.879 17.577-22.154 36.413-30.764 56.294l45.831 45.18c10.458 10.325 14.966 25.705 11.838 40.424-4.041 18.815-6.051 37.672-6.051 55.996s2.010 37.181 6.051 55.996c3.127 14.719-1.381 30.099-11.838 40.424l-45.831 45.18c8.61 19.881 18.885 38.717 30.764 56.294l60.512-19.199c13.727-4.373 28.692-0.789 39.252 9.429 27.088 26.217 58.075 45.159 92.108 56.294 13.707 4.501 24.144 16.276 27.433 30.974l14.336 64.208c21.139 2.282 40.612 2.304 61.751-0.021l14.316-64.166c3.29-14.698 13.727-26.494 27.454-30.995 34.033-11.135 65.020-30.078 92.108-56.294 10.579-10.218 25.565-13.802 39.252-9.429l60.492 19.199c11.899-17.577 22.174-36.413 30.784-56.294l-45.831-45.18c-10.478-10.325-14.966-25.705-11.838-40.424v0zM833.256 397.773c2.416 16.873 3.655 33.661 3.655 50.193s-1.239 33.341-3.655 50.193l49.932 49.212c11.818 11.668 15.9 29.608 10.397 45.65-16.529 47.868-40.409 91.492-71.051 129.654-10.478 13.012-27.312 18.26-42.805 13.332l-65.934-20.926c-25.301 21.268-52.938 38.162-82.564 50.471l-15.595 69.84c-3.696 16.596-16.448 29.288-32.429 32.275-49.973 9.343-92.555 9.322-142.406 0-15.961-2.986-28.713-15.679-32.429-32.253l-15.575-69.861c-29.647-12.308-57.304-29.203-82.605-50.471l-65.934 20.926c-15.453 4.928-32.327-0.32-42.785-13.332-30.642-38.162-54.542-81.786-71.051-129.654-5.523-16.041-1.421-33.981 10.397-45.65l49.953-49.233c-2.437-16.831-3.655-33.619-3.655-50.172s1.218-33.341 3.655-50.172l-49.953-49.233c-11.818-11.668-15.92-29.608-10.397-45.65 16.509-47.868 40.409-91.492 71.051-129.654 10.458-13.012 27.332-18.26 42.785-13.332l65.934 20.926c25.301-21.268 52.958-38.162 82.605-50.471l15.575-69.861c3.716-16.596 16.488-29.288 32.469-32.275 25.058-4.65 48.349-6.911 71.173-6.911s46.074 2.261 71.152 6.911c15.981 2.986 28.753 15.679 32.449 32.275l15.595 69.861c29.647 12.308 57.283 29.203 82.585 50.471l65.934-20.926c15.493-4.928 32.327 0.32 42.805 13.332 30.642 38.162 54.522 81.786 71.051 129.654 5.503 16.041 1.421 33.981-10.397 45.65l-49.932 49.212z" />
<glyph unicode="&#xe923;" glyph-name="ic_color_2" d="M512 832c-213.333 0-384-170.667-384-384s170.667-384 384-384c34.133 0 64 29.867 64 64 0 17.067-4.267 29.867-17.067 42.667-8.533 12.8-17.067 25.6-17.067 42.667 0 34.133 29.867 64 64 64h76.8c119.467 0 213.333 93.867 213.333 213.333 0 187.733-170.667 341.333-384 341.333v0zM277.333 448c-34.133 0-64 29.867-64 64s29.867 64 64 64c34.133 0 64-29.867 64-64s-29.867-64-64-64v0zM405.333 618.667c-34.133 0-64 29.867-64 64s29.867 64 64 64c34.133 0 64-29.867 64-64s-29.867-64-64-64v0zM618.667 618.667c-34.133 0-64 29.867-64 64s29.867 64 64 64c34.133 0 64-29.867 64-64s-29.867-64-64-64v0zM746.667 448c-34.133 0-64 29.867-64 64s29.867 64 64 64c34.133 0 64-29.867 64-64s-29.867-64-64-64v0z" />
<glyph unicode="&#xe924;" glyph-name="ic_correlate" d="M810.667 106.667c-23.531 0-42.667 19.136-42.667 42.667s19.136 42.667 42.667 42.667c23.531 0 42.667-19.136 42.667-42.667s-19.136-42.667-42.667-42.667zM341.333 106.667c-94.101 0-170.667 76.565-170.667 170.667s76.565 170.667 170.667 170.667c94.101 0 170.667-76.565 170.667-170.667s-76.565-170.667-170.667-170.667zM768 789.333c47.061 0 85.333-38.272 85.333-85.333 0-47.040-38.272-85.333-85.333-85.333s-85.333 38.293-85.333 85.333c0 47.061 38.272 85.333 85.333 85.333zM170.667 704c0 23.531 19.136 42.667 42.667 42.667s42.667-19.136 42.667-42.667c0-23.531-19.136-42.667-42.667-42.667s-42.667 19.136-42.667 42.667zM810.667 277.333c-51.456 0-95.701-30.443-116.032-74.24l-101.717 27.733c2.773 15.104 4.416 30.613 4.416 46.507 0 55.893-18.133 107.456-48.512 149.568l123.456 135.808c27.285-18.539 60.245-29.376 95.723-29.376 94.251 0 170.667 76.416 170.667 170.667s-76.416 170.667-170.667 170.667c-94.251 0-170.667-76.416-170.667-170.667 0-43.392 16.341-82.88 43.008-112.981l-119.424-131.349c-46.208 45.525-109.589 73.664-179.584 73.664-18.133 0-35.797-1.941-52.864-5.525l-18.475 61.547c42.24 20.907 71.339 64.341 71.339 114.645 0 70.677-57.323 128-128 128s-128-57.323-128-128c0-70.677 57.323-128 128-128 5.355 0 10.624 0.448 15.808 1.088l18.496-61.696c-94.976-37.419-162.304-129.792-162.304-238.059 0-141.376 114.624-256 256-256 110.549 0 204.459 70.208 240.277 168.363l101.696-27.733c-0.405-4.181-0.64-8.384-0.64-12.629 0-70.677 57.323-128 128-128s128 57.323 128 128c0 70.677-57.323 128-128 128z" />
<glyph unicode="&#xe925;" glyph-name="ic_coupon" d="M580.311 576.375l-162.944-260.8 32.555-17.173 162.923 260.779-32.533 17.195zM410.5 525.271v17.643c0 8.853 2.389 16.384 7.232 22.592 4.779 6.165 11.712 9.259 20.736 9.259 9.003 0 15.957-3.093 20.843-9.259 4.907-6.208 7.339-13.739 7.339-22.592v-17.643c0-8.853-2.411-16.32-7.211-22.357-4.843-6.016-11.669-9.045-20.523-9.045-9.173 0-16.192 3.029-21.077 9.045-4.907 6.037-7.339 13.504-7.339 22.357zM492.079 476.226c12.693 12.992 19.029 29.333 19.029 49.045v17.643c0 19.861-6.336 36.331-19.029 49.387-12.693 13.077-30.549 19.605-53.611 19.605-22.784 0-40.533-6.571-53.291-19.712s-19.136-29.568-19.136-49.28v-17.643c0-19.712 6.421-36.053 19.243-49.045 12.843-12.971 30.72-19.477 53.632-19.477 22.763 0 40.469 6.507 53.163 19.477zM626.374 337.583c0-9.621-2.155-17.301-6.421-23.040-4.267-5.717-11.371-8.576-21.312-8.576-8.555 0-15.445 3.072-20.736 9.28-5.269 6.165-7.915 13.632-7.915 22.336v17.643c0 8.704 2.411 16.149 7.232 22.357 4.8 6.165 11.797 9.28 20.971 9.28 9.024 0 15.957-3.115 20.843-9.28 4.907-6.208 7.339-13.653 7.339-22.357v-17.643zM598.193 423.983c-22.784 0-40.576-6.571-53.397-19.712-12.843-13.141-19.264-29.483-19.264-49.045v-17.643c0-19.712 6.464-36.075 19.371-49.173 12.907-13.035 30.827-19.584 53.739-19.584 22.784 0 40.491 6.507 53.163 19.477 12.693 12.992 19.029 29.419 19.029 49.28v17.643c0 19.712-6.379 36.117-19.136 49.152-12.757 13.077-30.592 19.605-53.504 19.605v0zM853.333 326.187v-91.52h-682.667v91.52c55.637 16.661 96 64.96 96 121.813s-40.363 105.152-96 121.813v91.52h682.667v-91.52c-55.637-16.661-96-64.96-96-121.813s40.363-105.152 96-121.813zM896 490.667c23.552 0 42.667 19.093 42.667 42.667v170.667c0 23.552-19.115 42.667-42.667 42.667h-768c-23.552 0-42.667-19.115-42.667-42.667v-170.667c0-23.573 19.115-42.667 42.667-42.667 29.419 0 53.333-19.157 53.333-42.667 0-23.531-23.915-42.667-53.333-42.667-23.552 0-42.667-19.115-42.667-42.667v-170.667c0-23.573 19.115-42.667 42.667-42.667h768c23.552 0 42.667 19.093 42.667 42.667v170.667c0 23.552-19.115 42.667-42.667 42.667-29.419 0-53.333 19.136-53.333 42.667 0 23.509 23.915 42.667 53.333 42.667z" />
<glyph unicode="&#xe926;" glyph-name="ic_dashboard" d="M512 789.333c258.78 0 469.333-227.221 469.333-432.171 0-293.163-340.956-293.163-469.333-293.163-128.357 0-469.333 0-469.333 293.163 0 204.949 210.554 432.171 469.333 432.171zM512 149.333c269.85 0 384.985 62.144 384.985 207.829 0 157.099-171.733 346.837-384.985 346.837s-384.985-189.739-384.985-346.837c0-145.685 115.135-207.829 384.985-207.829zM542.313 311.855c19.548-10.901 32.938-31.68 32.938-55.851 0-35.349-28.299-64-63.24-64s-63.261 28.651-63.261 64c0 24.171 13.39 44.949 32.938 55.851l20.18 169.621c1.35 12.224 18.915 12.224 20.286 0l20.159-169.621zM512 554.667c-11.661 0-21.087 9.536-21.087 21.333v85.333c0 11.797 9.426 21.333 21.087 21.333s21.087-9.536 21.087-21.333v-85.333c0-11.797-9.426-21.333-21.087-21.333zM288.343 576.437l59.634-60.331c8.245-8.341 8.245-21.845 0-30.165-4.112-4.16-9.51-6.251-14.909-6.251s-10.797 2.091-14.909 6.251l-59.634 60.331c-8.245 8.341-8.245 21.824 0 30.165s21.572 8.341 29.817 0zM258.956 341.333c11.661 0 21.087-9.536 21.087-21.333s-9.426-21.333-21.087-21.333h-84.348c-11.661 0-21.087 9.536-21.087 21.333s9.426 21.333 21.087 21.333h84.348zM743.957 320c0 11.797 9.426 21.333 21.087 21.333h84.348c11.661 0 21.087-9.536 21.087-21.333s-9.426-21.333-21.087-21.333h-84.348c-11.661 0-21.087 9.536-21.087 21.333zM765.476 576.437c8.245-8.341 8.245-21.824 0-30.165l-59.634-60.331c-4.112-4.16-9.51-6.251-14.909-6.251s-10.797 2.091-14.909 6.251c-8.245 8.32-8.245 21.824 0 30.165l59.634 60.331c8.245 8.341 21.572 8.341 29.817 0z" />
<glyph unicode="&#xe927;" glyph-name="ic_data_box" d="M213.333 106.667v170.667h133.397c19.008-73.536 85.888-128 165.269-128s146.261 54.464 165.269 128h133.397v-170.667h-597.333zM303.701 746.667h416.597l64-128h-144.299c-23.552 0-42.667-19.115-42.667-42.667 0-47.061-38.272-85.333-85.333-85.333s-85.333 38.272-85.333 85.333c0 23.552-19.115 42.667-42.667 42.667h-144.299l64 128zM585.451 277.333c-14.784-25.387-41.984-42.667-73.451-42.667s-58.667 17.28-73.451 42.667h146.901zM384 362.667h-170.667v170.667h133.397c19.008-73.536 85.888-128 165.269-128s146.261 54.464 165.269 128h133.397v-170.667h-426.667zM891.499 595.093l-106.667 213.333c-7.232 14.443-21.995 23.573-38.165 23.573h-469.333c-16.171 0-30.933-9.131-38.165-23.573l-106.667-213.333c-2.965-5.931-4.501-12.459-4.501-19.093v-512c0-23.552 19.115-42.667 42.667-42.667h682.667c23.552 0 42.667 19.115 42.667 42.667v512c0 6.635-1.536 13.163-4.501 19.093v0z" />
<glyph unicode="&#xe928;" glyph-name="ic_data_download" d="M512.015 64.006c-5.696 0-11.179 2.283-15.211 6.379l-149.333 151.701c-6.016 6.123-7.787 15.275-4.459 23.211 3.328 7.915 11.072 13.077 19.669 13.077h72v189.632c0 11.776 9.557 21.333 21.333 21.333h112c11.797 0 21.333-9.557 21.333-21.333v-189.632h72c8.619 0 16.363-5.163 19.669-13.077 3.328-7.936 1.557-17.088-4.459-23.211l-149.333-151.701c-4.011-4.096-9.493-6.379-15.211-6.379zM413.626 215.708l98.389-99.968 98.411 99.968h-42.411c-11.776 0-21.333 9.536-21.333 21.333v189.632h-69.333v-189.632c0-11.797-9.536-21.333-21.333-21.333h-42.389zM767.979 237.875c-19.883 0-37.653 13.931-41.771 34.176-4.693 23.083 10.219 45.589 33.323 50.304 54.336 11.072 93.803 59.413 93.803 114.987 0 60.885-47.915 111.915-109.077 116.16-19.243 1.323-35.179 15.403-38.912 34.304-18.155 92.053-99.477 158.869-193.344 158.869-73.749 0-140.8-40.747-174.955-106.325-6.613-12.693-19.115-21.205-33.323-22.72-75.84-8.064-133.056-71.808-133.056-148.288 0-62.976 40.043-119.467 99.627-140.608 22.208-7.872 33.813-32.277 25.941-54.485-7.872-22.187-32.192-33.792-54.485-25.941-93.568 33.195-156.416 122.005-156.416 221.035 0 112.597 78.955 207.659 187.051 229.696 51.456 82.539 141.376 132.971 239.616 132.971 124.224 0 233.109-81.664 269.547-198.059 90.261-20.736 157.12-101.76 157.12-196.608 0-95.957-68.181-179.477-162.155-198.613-2.837-0.576-5.717-0.853-8.533-0.853z" />
<glyph unicode="&#xe929;" glyph-name="ic_data_export" d="M527.211 825.643l149.333-151.7c6.016-6.144 7.787-15.296 4.459-23.21-3.307-7.936-11.072-13.099-19.669-13.099h-72v-189.63c0-11.776-9.536-21.333-21.333-21.333h-112c-11.797 0-21.333 9.557-21.333 21.333v189.63h-72c-8.597 0-16.363 5.163-19.669 13.099-3.328 7.915-1.557 17.067 4.459 23.21l149.333 151.7c4.032 4.075 9.493 6.357 15.211 6.357s11.179-2.283 15.211-6.357zM568 689.367h42.389l-98.389 99.967-98.389-99.967h42.389c11.797 0 21.333-9.557 21.333-21.333v-189.63h69.333v189.63c0 11.776 9.536 21.333 21.333 21.333zM213.333 149.333h597.333v170.665h-133.397c-19.008-73.535-85.888-127.999-165.269-127.999s-146.261 54.464-165.269 127.999h-133.397v-170.665zM891.499 381.757c2.965-5.931 4.501-12.459 4.501-19.093v-255.998c0-23.552-19.115-42.666-42.667-42.666h-682.667c-23.552 0-42.667 19.115-42.667 42.666v255.998c0 6.635 1.536 13.163 4.501 19.093l106.667 213.332c10.539 21.034 36.096 29.632 57.259 19.072 21.077-10.539 29.611-36.16 19.072-57.258l-75.797-151.572h144.299c23.552 0 42.667-19.115 42.667-42.666 0-47.061 38.272-85.333 85.333-85.333s85.333 38.272 85.333 85.333c0 23.552 19.115 42.666 42.667 42.666h144.299l-75.797 151.572c-10.539 21.098-2.005 46.72 19.072 57.258 21.141 10.56 46.741 1.963 57.259-19.072l106.667-213.332z" />
<glyph unicode="&#xe92a;" glyph-name="ic_data_import" d="M496.789 433.024c4.032-4.075 9.493-6.357 15.211-6.357s11.179 2.283 15.211 6.357l149.333 151.701c6.016 6.144 7.787 15.296 4.459 23.211-3.307 7.936-11.072 13.099-19.669 13.099h-72v189.632c0 11.776-9.536 21.333-21.333 21.333h-112c-11.797 0-21.333-9.557-21.333-21.333v-189.632h-72c-8.597 0-16.363-5.163-19.669-13.099-3.328-7.915-1.557-17.067 4.459-23.211l149.333-151.701zM456 578.368c11.797 0 21.333 9.557 21.333 21.333v189.632h69.333v-189.632c0-11.776 9.536-21.333 21.333-21.333h42.389l-98.389-99.968-98.389 99.968h42.389zM213.333 149.327v170.667h133.397c19.008-73.536 85.888-128 165.269-128s146.261 54.464 165.269 128h133.397v-170.667h-597.333zM891.499 381.754l-106.667 213.333c-10.517 21.035-36.117 29.632-57.259 19.072-21.077-10.539-29.611-36.16-19.072-57.259l75.797-151.573h-144.299c-23.552 0-42.667-19.115-42.667-42.667 0-47.061-38.272-85.333-85.333-85.333s-85.333 38.272-85.333 85.333c0 23.552-19.115 42.667-42.667 42.667h-144.299l75.797 151.573c10.539 21.099 2.005 46.72-19.072 57.259-21.163 10.56-46.72 1.963-57.259-19.072l-106.667-213.333c-2.965-5.931-4.501-12.459-4.501-19.093v-256c0-23.552 19.115-42.667 42.667-42.667h682.667c23.552 0 42.667 19.115 42.667 42.667v256c0 6.635-1.536 13.163-4.501 19.093v0z" />
<glyph unicode="&#xe92b;" glyph-name="ic_data_upload" d="M568.021 63.991h-112c-11.797 0-21.333 9.536-21.333 21.333v189.632h-72c-8.597 0-16.363 5.163-19.669 13.077-3.328 7.936-1.557 17.088 4.459 23.211l149.333 151.701c8.043 8.171 22.379 8.171 30.421 0l149.333-151.701c6.016-6.123 7.787-15.275 4.459-23.211-3.307-7.915-11.072-13.077-19.669-13.077h-72v-189.632c0-11.797-9.536-21.333-21.333-21.333zM477.355 106.658h69.333v189.632c0 11.776 9.536 21.333 21.333 21.333h42.389l-98.389 99.947-98.389-99.947h42.389c11.797 0 21.333-9.557 21.333-21.333v-189.632zM767.979 237.867c-19.883 0-37.653 13.931-41.771 34.176-4.693 23.083 10.219 45.589 33.323 50.304 54.336 11.072 93.803 59.413 93.803 114.987 0 60.885-47.915 111.915-109.077 116.16-19.243 1.323-35.179 15.403-38.912 34.304-18.155 92.053-99.477 158.869-193.344 158.869-73.749 0-140.8-40.747-174.955-106.325-6.613-12.693-19.115-21.205-33.323-22.72-75.84-8.064-133.056-71.808-133.056-148.288 0-62.976 40.043-119.467 99.627-140.608 22.208-7.872 33.813-32.277 25.941-54.485-7.872-22.187-32.192-33.792-54.485-25.941-93.568 33.195-156.416 122.005-156.416 221.035 0 112.597 78.955 207.659 187.051 229.696 51.456 82.539 141.376 132.971 239.616 132.971 124.224 0 233.109-81.664 269.547-198.059 90.261-20.736 157.12-101.76 157.12-196.608 0-95.957-68.181-179.477-162.155-198.613-2.837-0.576-5.717-0.853-8.533-0.853z" />
<glyph unicode="&#xe92c;" glyph-name="ic_database" d="M512 149.333c-171.947 0-276.587 31.509-298.667 49.813v99.307c79.296-32.32 214.251-42.453 298.667-42.453s219.371 10.133 298.667 42.453v-99.307c-22.080-18.304-126.72-49.813-298.667-49.813v0zM213.333 469.12c79.296-32.32 214.251-42.453 298.667-42.453s219.371 10.133 298.667 42.453v-124.544c-41.6-20.565-143.424-45.909-298.667-45.909s-257.067 25.344-298.667 45.909v124.544zM512 597.333c84.416 0 219.371 10.133 298.667 42.453v-124.544c-41.6-20.587-143.424-45.909-298.667-45.909s-257.067 25.323-298.667 45.909v124.544c79.296-32.32 214.251-42.453 298.667-42.453v0zM213.333 696.853c22.080 18.304 126.72 49.813 298.667 49.813s276.587-31.509 298.667-49.813v-10.944c-41.6-20.587-143.424-45.909-298.667-45.909s-257.067 25.323-298.667 45.909v10.944zM512 832c-64.128 0-384-6.165-384-128v-512c0-121.835 319.872-128 384-128s384 6.165 384 128v512c0 121.835-319.872 128-384 128v0z" />
<glyph unicode="&#xe92d;" glyph-name="ic_dollar" d="M512 149.333c-164.693 0-298.667 133.973-298.667 298.667s133.973 298.667 298.667 298.667c164.693 0 298.667-133.973 298.667-298.667s-133.973-298.667-298.667-298.667zM512 832c-211.733 0-384-172.267-384-384s172.267-384 384-384c211.733 0 384 172.267 384 384s-172.267 384-384 384zM526.27 475.603c-20.992 8.832-35.2 17.088-42.624 24.747-7.424 7.68-11.136 17.92-11.136 30.763 0 13.824 3.52 24.832 10.517 32.981 6.997 8.171 18.325 12.267 33.984 12.267 14.848 0 26.389-4.885 34.624-14.635 8.256-9.749 12.395-23.701 12.395-41.877h71.232l0.512 1.259c0.491 30.827-7.744 55.872-24.747 75.115-17.003 19.264-40.512 30.955-70.507 35.136v54.251h-39.744v-53.504c-31.168-3.179-55.851-13.717-74.005-31.616-18.176-17.92-27.243-40.96-27.243-69.141 0-30.485 9.067-54.165 27.243-70.997 18.155-16.832 46.080-31.573 83.755-44.245 19.989-7.659 33.92-15.616 41.749-23.872s11.755-19.221 11.755-32.875c0-13.845-4.096-24.747-12.267-32.747s-20.416-12.011-36.736-12.011c-16.683 0-30.208 4.544-40.64 13.632-10.411 9.088-15.616 24.277-15.616 45.611h-70.997l-0.747-1.493c-0.683-35.669 9.28-62.699 29.867-81.131 20.587-18.411 46.869-29.035 78.869-31.872v-49.237h39.765v49.237c31.317 3.179 56.043 13.461 74.112 30.891 18.091 17.408 27.136 40.619 27.136 69.611 0 30.336-9.173 54.208-27.499 71.637-18.347 17.408-46.016 32.128-83.008 44.117z" />
<glyph unicode="&#xe92e;" glyph-name="ic_dollar_transaction" d="M535.663 210.1h-39.995v49.26c-32.202 2.816-58.673 13.44-79.389 31.873-20.695 18.411-30.721 45.462-30.055 81.111l0.751 1.515h71.446c0-21.334 5.238-36.545 15.736-45.633 10.476-9.088 24.109-13.632 40.875-13.632 16.445 0 28.767 4.011 36.99 12.011s12.323 18.923 12.323 32.747c0 13.675-3.95 24.619-11.829 32.875s-21.876 16.214-42.013 23.872c-37.913 12.672-65.993 27.414-84.284 44.246-18.269 16.854-27.415 40.513-27.415 71.020 0 28.161 9.145 51.201 27.415 69.121 18.291 17.92 43.108 28.459 74.473 31.617v53.505h39.995v-54.252c30.206-4.16 53.842-15.872 70.952-35.115 17.11-19.264 25.418-44.31 24.903-75.137l-0.494-1.237h-71.704c0 18.155-4.143 32.107-12.452 41.857s-19.922 14.635-34.843 14.635c-15.779 0-27.179-4.075-34.22-12.246s-10.562-19.179-10.562-33.003c0-12.843 3.735-23.083 11.185-30.763 7.471-7.659 21.769-15.915 42.893-24.747 37.247-11.99 65.092-26.71 83.533-44.118s27.672-41.302 27.672-71.617c0-29.014-9.103-52.225-27.286-69.633-18.205-17.43-43.065-27.713-74.602-30.87v-49.26zM181.271 449.251c-3.134-0.725-6.398-1.259-9.725-1.259h-0.043c-1.76 0-3.564 0.107-5.346 0.341-1.267 0.171-2.404 0.555-3.628 0.811-1.030 0.235-2.061 0.427-3.070 0.704-2.963 0.853-5.796 1.984-8.458 3.392-0.258 0.149-0.537 0.235-0.773 0.363-2.941 1.664-5.56 3.733-7.986 5.973-0.708 0.661-1.331 1.387-1.975 2.069-1.825 1.941-3.435 4.032-4.873 6.272-0.322 0.512-0.794 0.875-1.095 1.408l-85.873 147.8c-11.85 20.395-4.83 46.508 15.715 58.305 20.502 11.776 46.801 4.757 58.651-15.638l34.693-59.692c59.724 137.432 197.378 231.898 354.504 231.898 137.482 0 265.626-73.601 334.474-192.068 11.85-20.395 4.83-46.486-15.715-58.284-20.545-11.776-46.801-4.779-58.651 15.616-53.542 92.162-153.197 149.4-260.109 149.4-116.358 0-218.825-66.732-268.46-165.401l55.216 31.702c20.502 11.798 46.758 4.757 58.651-15.638 11.85-20.395 4.83-46.486-15.715-58.284l-148.732-85.335c-0.343-0.213-0.73-0.256-1.073-0.448-2.555-1.365-5.26-2.453-8.072-3.307-0.859-0.256-1.675-0.491-2.533-0.704zM975.574 278.874c11.85-20.395 4.83-46.508-15.715-58.284-6.762-3.883-14.169-5.717-21.425-5.717-14.856 0-29.283 7.637-37.247 21.334l-34.671 59.692c-59.724-137.432-197.378-231.898-354.526-231.898-137.461 0-265.626 73.601-334.474 192.068-11.85 20.395-4.809 46.486 15.736 58.284 20.502 11.798 46.758 4.779 58.651-15.616 53.52-92.162 153.197-149.4 260.087-149.4 116.358 0 218.847 66.753 268.46 165.401l-55.195-31.702c-20.545-11.734-46.801-4.757-58.673 15.638-11.829 20.395-4.809 46.486 15.736 58.284l148.732 85.335c0.279 0.171 0.601 0.256 0.88 0.405 1.524 0.832 3.113 1.472 4.723 2.112 1.052 0.427 2.082 0.896 3.156 1.237 1.438 0.427 2.941 0.704 4.465 1.003 1.288 0.256 2.555 0.533 3.843 0.661 1.31 0.149 2.619 0.107 3.929 0.107 1.567 0.021 3.134 0.043 4.702-0.128 0.343-0.021 0.708 0.021 1.095-0.021 0.902-0.107 1.696-0.405 2.576-0.576 1.524-0.299 3.006-0.597 4.508-1.024 1.352-0.427 2.641-0.939 3.929-1.472 1.245-0.512 2.49-1.024 3.671-1.664 1.31-0.683 2.512-1.451 3.714-2.24 1.116-0.725 2.211-1.472 3.22-2.304 1.138-0.896 2.168-1.899 3.199-2.923 0.945-0.939 1.889-1.856 2.769-2.901 0.966-1.173 1.803-2.389 2.641-3.648 0.515-0.768 1.159-1.429 1.632-2.24l85.873-147.8z" />
<glyph unicode="&#xe92f;" glyph-name="ic_down" d="M226.474 332.785c-17.521 17.641-17.521 46.26 0 63.879 17.498 17.641 45.922 17.641 63.443 0l199.661-201.010v636.346h44.868v-636.346l199.638 201.010c17.521 17.641 45.944 17.641 63.443 0 17.521-17.619 17.521-46.237 0-63.879l-253.793-255.537c-17.543-17.664-45.922-17.664-63.465 0l-253.793 255.537z" />
<glyph unicode="&#xe930;" glyph-name="ic_edit" d="M729.101 555.122l31.92 29.914-127.703 119.676-383.087-359.007-31.943-149.611 159.624 29.914-127.681 119.697 31.92 29.914 127.681-119.697 287.349 269.287-127.703 119.655 31.92 29.914 127.703-119.655zM851.319 585.036c0-22.425-9.526-43.961-26.457-59.827l-383.11-359.028c-12.574-11.805-28.647-19.865-46.119-23.144l-159.624-29.935c-5.892-1.079-11.829-1.629-17.721-1.629-23.703 0-46.729 8.758-63.84 24.794-21.333 19.992-30.611 48.678-24.696 76.413l31.92 149.611c3.522 16.374 12.077 31.416 24.696 43.242l383.11 359.007c17.631 16.543 40.724 24.794 63.84 24.794s46.232-8.251 63.863-24.794l127.681-119.676c16.931-15.867 26.457-37.382 26.457-59.827zM534.81 106.667v42.311h361.19v-42.311h-361.19z" />
<glyph unicode="&#xe931;" glyph-name="ic_eraser" d="M976.216 711.674c-4.978 10.58-12.372 19.057-22.173 25.427-9.801 6.375-20.621 9.566-32.438 9.566h-358.4c-18.049 0-32.982-6.839-44.804-20.529l-418.143-477.881c-7.779-8.712-12.521-18.902-14.234-30.57s-0.235-22.786 4.433-33.366c4.978-10.574 12.367-19.051 22.167-25.427s20.615-9.566 32.438-9.566h358.406c18.049 0 32.982 6.833 44.804 20.529l418.143 477.886c7.767 8.712 12.516 18.897 14.223 30.565 1.724 11.668 0.241 22.786-4.422 33.366v0zM503.473 209.066h-358.412l156.804 179.2h358.412l-156.804-179.2z" />
<glyph unicode="&#xe932;" glyph-name="ic_eye" d="M512 192c-159.893 0-299.648 106.624-339.051 256 39.403 149.376 179.157 256 339.051 256s299.648-106.624 339.051-256c-39.403-149.376-179.157-256-339.051-256zM512 789.333c-210.645 0-386.304-146.581-426.667-341.333 40.363-194.752 216.021-341.333 426.667-341.333s386.304 146.581 426.667 341.333c-40.363 194.752-216.021 341.333-426.667 341.333zM512 320c-70.592 0-128 57.408-128 128s57.408 128 128 128c70.592 0 128-57.408 128-128s-57.408-128-128-128zM512 618.667c-94.251 0-170.667-76.416-170.667-170.667s76.416-170.667 170.667-170.667c94.251 0 170.667 76.416 170.667 170.667s-76.416 170.667-170.667 170.667z" />
<glyph unicode="&#xe933;" glyph-name="ic_fan" d="M609.229 490.667c-1.579 3.584-2.88 7.232-4.864 10.667-1.963 3.435-4.501 6.379-6.805 9.536l61.611 106.731c15.701 27.2 43.968 43.456 75.648 43.541h0.235c30.549 0 56.747-14.827 72.811-42.325 22.72-39.339 37.248-83.008 42.837-128.149h-241.472zM681.591 300.821c27.179-15.701 43.477-43.968 43.563-75.605 0.064-30.677-14.784-56.96-42.347-73.067-39.36-22.741-82.987-37.248-128.149-42.859v241.067c3.605 1.6 7.211 3.264 10.667 5.269 3.456 1.984 6.379 4.501 9.536 6.805l106.731-61.611zM364.813 278.421c-15.68-27.2-43.968-43.477-75.627-43.563h-0.256c-30.528 0-56.725 14.827-72.789 42.325-22.699 39.36-37.248 83.029-42.859 128.149h241.493c1.579-3.584 2.88-7.232 4.843-10.667 1.984-3.435 4.501-6.379 6.827-9.515l-61.632-106.731zM342.413 595.179c-27.179 15.701-43.477 43.968-43.563 75.627-0.085 30.656 14.784 56.939 42.347 73.045 39.339 22.741 82.987 37.248 128.128 42.859v-241.472c-3.584-1.6-7.211-2.88-10.667-4.864-3.435-1.984-6.357-4.501-9.515-6.805l-106.731 61.611zM543.991 392.576c-30.528-17.685-69.76-7.147-87.403 23.424s-7.147 69.781 23.403 87.424c9.877 5.696 20.821 8.619 31.915 8.619 5.547 0 11.136-0.747 16.661-2.219 16.491-4.437 30.315-15.019 38.848-29.824 17.643-30.571 7.147-69.781-23.424-87.424v0zM881.762 661.483c-0.043 0.064-1.131 1.941-1.173 2.005-30.4 51.989-84.779 82.987-145.536 82.987h-0.469c-62.4-0.171-118.208-32.384-149.312-86.208l-30.613-53.013v224.747c0 23.68-18.965 42.347-43.029 42.667-74.923 0-148.587-19.669-213.099-56.896-0.064-0.043-1.941-1.152-2.005-1.195-52.139-30.443-83.157-85.035-83.008-145.984 0.171-62.4 32.405-118.229 86.229-149.312l53.013-30.613h-224.768c-23.531 0-42.645-19.093-42.667-42.624-0.064-75.072 19.605-148.907 56.896-213.525 0.043-0.064 1.152-1.941 1.195-2.005 30.379-51.989 84.757-82.987 145.515-82.987h0.491c62.4 0.171 118.229 32.384 149.312 86.229l30.592 52.992v-224.747c0.021-23.701 18.987-42.389 43.051-42.667 74.923 0 148.587 19.669 213.099 56.896 0.064 0.043 1.941 1.152 2.005 1.195 52.139 30.443 83.157 85.056 83.008 146.005-0.171 62.421-32.427 118.229-86.229 149.291l-53.013 30.613h224.747c23.552 0 42.645 19.093 42.667 42.624 0.064 75.093-19.605 148.928-56.896 213.525v0z" />
<glyph unicode="&#xe934;" glyph-name="ic_fast" d="M384 521.143l85.333-73.143-85.333-73.143v-54.857l151.833 128-151.833 128v-54.857l-213.333 182.857v-512l213.333 182.857v-182.857l298.667 256-298.667 256v-182.857zM725.333 192v512h85.333v-512h-85.333z" />
<glyph unicode="&#xe935;" glyph-name="ic_female" d="M341.333 576c0 94.101 76.565 170.667 170.667 170.667s170.667-76.565 170.667-170.667c0-94.101-76.565-170.667-170.667-170.667s-170.667 76.565-170.667 170.667zM768 576c0 141.163-114.837 256-256 256s-256-114.837-256-256c0-133.952 103.467-244.011 234.667-254.912v-35.221h-115.2c-23.573 0-42.667-19.093-42.667-42.667 0-23.552 19.093-42.667 42.667-42.667h115.2v-93.867h42.667v93.867h115.2c23.573 0 42.667 19.115 42.667 42.667 0 23.573-19.093 42.667-42.667 42.667h-115.2v35.221c131.2 10.901 234.667 120.96 234.667 254.912z" />
<glyph unicode="&#xe936;" glyph-name="ic_filter" d="M128 789.167v42.833h767.988v-42.833h-767.988zM563.206 387.969c-5.547-7.432-8.533-16.448-8.533-25.7v-186.132l-85.332 42.833v143.384c0 9.252-3.008 18.268-8.555 25.7l-204.775 274.090h511.992l-204.797-274.176zM853.335 747.811h-682.656c-16.17 0-30.954-9.166-38.165-23.687-7.232-14.499-5.675-31.868 4.032-44.846l247.463-331.208v-155.57c0-16.234 9.109-31.054 23.573-38.314l170.664-85.666c6.016-3.020 12.565-4.519 19.093-4.519 7.787 0 15.573 2.163 22.421 6.404 12.565 7.796 20.245 21.588 20.245 36.43v241.151l247.441 331.294c9.707 12.978 11.285 30.347 4.053 44.846-7.232 14.52-22.016 23.687-38.165 23.687v0z" />
<glyph unicode="&#xe937;" glyph-name="ic_fire" d="M512 106.666c-141.163 0-256 110.079-256 245.374 0 76.415 20.075 151.401 57.6 217.876 30.443-52.949 87.637-87.893 154.517-87.893 97.024 0 170.176 76.138 170.176 177.129 0 16.256-1.088 33.13-2.859 49.728 85.312-101.119 132.565-226.089 132.565-356.84 0-135.295-114.837-245.374-256-245.374zM594.069 865.764c-14.592 11.264-34.773 11.925-50.069 1.493-15.253-10.368-22.101-29.397-16.981-47.125 0.256-0.896 25.941-90.709 25.941-160.98 0-44.224-26.539-91.797-84.843-91.797-51.499 0-91.904 39.594-92.651 90.41l0.832 11.264c1.301 18.347-9.259 35.456-26.219 42.517-17.088 7.061-36.587 2.411-48.597-11.499-84.352-97.322-130.816-220.926-130.816-348.008 0-182.356 153.131-330.707 341.333-330.707s341.333 148.351 341.333 330.707c0 199.316-94.507 386.557-259.264 513.724zM501.271 208.415c-54.443 0-98.709 36.352-98.709 81.023 0 56.896 54.592 74.965 87.125 80.661 63.488 11.179 118.848 34.368 157.589 65.386 7.488-30.144 11.285-60.928 11.285-91.946 0-74.495-70.571-135.124-157.291-135.124zM677.933 482.034c-2.496 7.253-8.704 12.608-16.235 13.995-7.424 1.408-15.232-1.301-20.224-7.168-30.763-36.394-88.789-64.341-159.168-76.714-76.629-13.461-122.411-59.328-122.411-122.708 0-68.202 63.424-123.69 141.376-123.69 110.251 0 199.957 79.743 199.957 177.791 0 47.061-7.829 93.674-23.296 138.495z" />
<glyph unicode="&#xe938;" glyph-name="ic_floorplan" d="M661.333 362.667c0-11.776 9.685-21.333 21.483-21.333h127.851v-192h-213.333v213.333c0 11.776-9.536 21.333-21.333 21.333h-85.333v-42.667h64v-192h-341.333v192h128v42.667h-128v362.667h341.333v-234.667h42.667v64h213.333v-26.283c-85.376-19.477-149.333-95.872-149.333-187.051zM819.243 507.925c7.787-10.432 20.096-17.259 34.091-17.259 23.552 0 42.667 19.115 42.667 42.667v85.333c0 23.552-19.115 42.667-42.667 42.667h-213.333v128c0 23.552-19.115 42.667-42.667 42.667h-426.667c-23.552 0-42.667-19.115-42.667-42.667v-682.667c0-23.552 19.115-42.667 42.667-42.667h682.667c23.552 0 42.667 19.115 42.667 42.667v256c0 23.552-19.115 42.667-42.667 42.667-15.744 0-29.355-8.64-36.757-21.333h-111.061c8.747 60.971 54.549 110.016 113.728 123.925z" />
<glyph unicode="&#xe939;" glyph-name="ic_folder" d="M810.667 242.334c0-23.531-19.136-42.667-42.667-42.667h-512c-23.531 0-42.667 19.136-42.667 42.667v298.667c0 23.531 19.136 42.667 42.667 42.667h512c23.531 0 42.667-19.136 42.667-42.667v-298.667zM327.104 704.030l46.677-35.029h-117.781c-14.976 0-29.291-2.731-42.667-7.467v42.475l113.771 0.021zM768 669.001h-252.011l-137.707 103.296c-14.656 10.965-32.853 17.045-51.179 17.045h-113.771c-47.061 0-85.333-38.272-85.333-85.333v-461.675c0-70.592 57.408-128 128-128h512c70.592 0 128 57.408 128 128v298.667c0 70.592-57.408 128-128 128v0z" />
<glyph unicode="&#xe93a;" glyph-name="ic_folder_add" d="M810.667 452.262c31.339 6.379 60.032 19.776 84.757 38.251 0.32-3.819 0.576-7.659 0.576-11.584v-298.667c0-70.571-57.408-128-128-128h-512c-70.592 0-128 57.429-128 128v461.675c0 47.061 38.272 85.333 85.333 85.333h113.771c18.368 0 36.587-6.059 51.221-17.088l137.685-103.253h45.931c8.427-32.021 24.021-61.056 45.099-85.333h-351.040c-23.531 0-42.667-19.136-42.667-42.667v-298.667c0-23.509 19.136-42.667 42.667-42.667h512c23.531 0 42.667 19.157 42.667 42.667v272zM213.333 641.937v-42.453c13.376 4.715 27.691 7.445 42.667 7.445h117.781l-46.677 35.029-113.771-0.021zM597.333 661.333c0 94.101 76.565 170.667 170.667 170.667s170.667-76.565 170.667-170.667c0-94.101-76.565-170.667-170.667-170.667s-170.667 76.565-170.667 170.667zM896 618.667v85.333h-85.367v85.333h-85.299v-85.333h-85.333v-85.333h85.333v-91.281l85.299 5.948v85.333h85.367z" />
<glyph unicode="&#xe93b;" glyph-name="ic_folder_less" d="M768 832.004c94.101 0 170.667-76.565 170.667-170.667s-76.565-170.667-170.667-170.667c-94.101 0-170.667 76.565-170.667 170.667s76.565 170.667 170.667 170.667zM640 618.667h255.089v85.333h-255.089v-85.333zM810.667 452.262c31.339 6.379 60.032 19.776 84.757 38.251 0.32-3.819 0.576-7.659 0.576-11.584v-298.667c0-70.571-57.408-128-128-128h-512c-70.592 0-128 57.429-128 128v461.675c0 47.061 38.272 85.333 85.333 85.333h113.771c18.368 0 36.587-6.059 51.221-17.088l137.685-103.253h45.931c8.427-32.021 24.021-61.056 45.099-85.333h-351.040c-23.531 0-42.667-19.136-42.667-42.667v-298.667c0-23.509 19.136-42.667 42.667-42.667h512c23.531 0 42.667 19.157 42.667 42.667v272zM213.333 641.937v-42.453c13.376 4.715 27.691 7.445 42.667 7.445h117.781l-46.677 35.029-113.771-0.021z" />
<glyph unicode="&#xe93c;" glyph-name="ic_forward" d="M170.667 704l341.333-256.042-341.333-255.958v512zM512 704v-512l341.333 255.958-341.333 256.042z" />
<glyph unicode="&#xe93d;" glyph-name="ic_fullscreen" d="M298.667 362.667h-85.333v-213.333h213.333v85.333h-128v128zM213.333 533.333h85.333v128h128v85.333h-213.333v-213.333zM725.333 234.667h-128v-85.333h213.333v213.333h-85.333v-128zM597.333 746.667v-85.333h128v-128h85.333v213.333h-213.333z" />
<glyph unicode="&#xe93e;" glyph-name="ic_fullscreen_exit" d="M213.333 277.333h128v-128h85.333v213.333h-213.333v-85.333zM341.333 618.667h-128v-85.333h213.333v213.333h-85.333v-128zM597.333 149.333h85.333v128h128v85.333h-213.333v-213.333zM682.667 618.667v128h-85.333v-213.333h213.333v85.333h-128z" />
<glyph unicode="&#xe93f;" glyph-name="ic_globe" d="M649.429 135.787c19.861 31.424 36.501 69.717 49.131 113.088 35.093-3.2 61.739-7.125 81.835-11.072-34.475-43.904-79.317-79.189-130.965-102.016v0zM243.627 237.803c20.075 3.947 46.72 7.872 81.813 11.072 12.629-43.371 29.291-81.664 49.131-113.088-51.648 22.827-96.491 58.112-130.944 102.016v0zM374.571 760.213c-19.84-31.424-36.501-69.717-49.131-113.088-35.093 3.179-61.739 7.104-81.813 11.051 34.453 43.904 79.296 79.189 130.944 102.037v0zM780.395 658.176c-20.096-3.947-46.741-7.872-81.835-11.051-12.629 43.371-29.269 81.664-49.131 113.088 51.648-22.848 96.491-58.133 130.965-102.037v0zM724.779 469.333c-1.259 48.171-6.528 93.973-15.595 135.936 42.411 4.096 73.835 9.387 97.045 14.933 26.325-44.843 42.624-96.085 46.016-150.869h-127.467zM533.333 298.581v128.085h148.821c-1.365-46.891-7.104-91.605-16.405-132.459-37.099 2.432-80.811 4.011-132.416 4.373v0zM341.867 426.667h148.8v-128.085c-51.584-0.363-95.317-1.941-132.395-4.373-9.301 40.853-15.061 85.568-16.405 132.459v0zM171.755 426.667h127.467c1.259-48.171 6.528-93.995 15.595-135.936-42.411-4.117-73.835-9.408-97.024-14.933-26.347 44.821-42.624 96.064-46.037 150.869v0zM490.667 597.419v-128.085h-148.8c1.344 46.891 7.104 91.605 16.405 132.459 37.077-2.453 80.811-4.032 132.395-4.373v0zM533.333 597.419c51.605 0.341 95.317 1.92 132.416 4.373 9.301-40.853 15.040-85.568 16.405-132.459h-148.821v128.085zM654.592 643.84c-34.005-2.048-74.048-3.435-121.259-3.755v148.16c14.4-0.896 28.608-2.475 42.496-5.12 32.192-28.565 59.712-77.717 78.763-139.285v0zM448.171 783.125c13.888 2.645 28.096 4.224 42.496 5.12v-148.16c-47.211 0.32-87.253 1.707-121.259 3.755 19.072 61.568 46.571 110.72 78.763 139.285v0zM217.792 620.203c23.189-5.547 54.613-10.837 97.024-14.933-9.067-41.963-14.336-87.765-15.595-135.936h-127.467c3.413 54.784 19.691 106.027 46.037 150.869v0zM369.408 252.16c34.005 2.048 74.048 3.435 121.259 3.755v-148.16c-14.4 0.896-28.608 2.475-42.496 5.099-32.192 28.565-59.691 77.739-78.763 139.307v0zM575.829 112.853c-13.888-2.624-28.096-4.203-42.496-5.099v148.16c47.211-0.32 87.253-1.707 121.259-3.755-19.051-61.568-46.571-110.741-78.763-139.307v0zM806.229 275.797c-23.211 5.525-54.635 10.816-97.045 14.933 9.067 41.941 14.336 87.765 15.595 135.936h127.467c-3.392-54.805-19.691-106.048-46.016-150.869v0zM512 874.667c-235.264 0-426.667-191.403-426.667-426.667s191.403-426.667 426.667-426.667c235.264 0 426.667 191.403 426.667 426.667s-191.403 426.667-426.667 426.667v0z" />
<glyph unicode="&#xe940;" glyph-name="ic_hammer" d="M879.552 208.633l-161.049 161.055c-11.528 10.946-24.995 16.419-40.374 16.419-15.678 0-29.875-6.36-42.585-19.081l-113.574 113.58 55.91 55.905c4.139 4.144 6.213 9.17 6.213 15.090 0 5.914-2.075 10.94-6.213 15.084 0.583-0.594 2.363-2.44 5.32-5.549s4.879-4.956 5.778-5.549c0.888-0.588 2.587-2.064 5.097-4.433 2.527-2.363 4.509-3.845 5.996-4.433s3.485-1.476 6.007-2.663c2.51-1.182 4.945-1.993 7.319-2.44 2.363-0.441 5.032-0.664 7.989-0.664 11.229 0 21.292 4.139 30.163 12.421 0.893 0.888 3.551 3.327 7.989 7.324s7.466 6.802 9.094 8.43c1.628 1.628 4.073 4.362 7.33 8.207 3.251 3.845 5.549 7.101 6.878 9.764 1.323 2.657 2.652 5.914 3.992 9.759 1.329 3.845 1.988 7.689 1.988 11.534 0 11.833-4.139 21.891-12.421 30.174l-181.018 181.013c-8.283 8.283-18.341 12.421-30.169 12.421-3.845 0-7.689-0.664-11.539-1.993-3.845-1.329-7.096-2.663-9.759-3.992s-5.914-3.621-9.759-6.878c-3.845-3.256-6.578-5.696-8.207-7.324s-4.438-4.661-8.43-9.094c-3.997-4.438-6.437-7.101-7.324-7.989-8.277-8.871-12.421-18.929-12.421-30.169 0-2.957 0.223-5.62 0.67-7.983 0.447-2.369 1.258-4.808 2.44-7.324s2.069-4.514 2.663-5.99c0.588-1.476 2.064-3.48 4.433-5.996 2.369-2.51 3.845-4.215 4.438-5.103 0.588-0.893 2.44-2.81 5.544-5.772 3.109-2.957 4.961-4.738 5.549-5.326-4.139 4.144-9.17 6.213-15.084 6.213s-10.946-2.069-15.084-6.213l-154.422-154.4c-4.144-4.144-6.213-9.17-6.213-15.084 0-5.919 2.069-10.946 6.213-15.090-0.594 0.594-2.369 2.445-5.326 5.549-2.957 3.109-4.879 4.956-5.767 5.549-0.888 0.588-2.587 2.064-5.103 4.433-2.516 2.363-4.514 3.845-5.99 4.433s-3.474 1.476-5.99 2.663c-2.51 1.182-4.95 1.993-7.319 2.44-2.363 0.441-5.026 0.664-7.983 0.664-11.24 0-21.303-4.139-30.174-12.421-0.882-0.888-3.551-3.333-7.983-7.324-4.438-3.997-7.466-6.802-9.094-8.43s-4.062-4.362-7.319-8.207c-3.251-3.845-5.549-7.101-6.878-9.764-1.329-2.657-2.657-5.914-3.992-9.759-1.329-3.845-1.999-7.689-1.999-11.534 0-11.833 4.139-21.886 12.421-30.169l181.018-181.013c8.283-8.283 18.341-12.421 30.169-12.421 3.845 0 7.689 0.659 11.539 1.988 3.845 1.329 7.096 2.663 9.759 3.992s5.914 3.621 9.759 6.878c3.845 3.256 6.578 5.696 8.207 7.33 1.628 1.628 4.438 4.656 8.43 9.094 3.997 4.433 6.437 7.101 7.324 7.989 8.277 8.871 12.421 18.934 12.421 30.169 0 2.957-0.223 5.62-0.67 7.989s-1.258 4.803-2.44 7.324c-1.182 2.51-2.069 4.509-2.663 5.99-0.588 1.476-2.064 3.48-4.433 5.996-2.369 2.51-3.845 4.215-4.438 5.103-0.588 0.893-2.44 2.815-5.544 5.778-3.109 2.957-4.961 4.738-5.549 5.331 4.139-4.15 9.17-6.219 15.084-6.219s10.946 2.069 15.084 6.219l55.905 55.905 113.58-113.58c-12.721-12.721-19.081-26.907-19.081-42.585 0-15.977 5.625-29.281 16.86-39.938l161.060-161.49c10.946-10.94 24.249-16.419 39.927-16.419 15.378 0 28.835 5.478 40.374 16.419l47.47 47.922c10.946 10.946 16.424 24.249 16.424 39.927 0 15.351-5.478 28.813-16.446 40.341v0z" />
<glyph unicode="&#xe941;" glyph-name="ic_help" d="M512 149.333c164.693 0 298.667 133.973 298.667 298.667s-133.973 298.667-298.667 298.667c-164.693 0-298.667-133.973-298.667-298.667s133.973-298.667 298.667-298.667zM512 832c211.733 0 384-172.267 384-384s-172.267-384-384-384c-211.733 0-384 172.267-384 384s172.267 384 384 384zM511.979 342.251c23.531 0 42.667-19.136 42.667-42.667s-19.136-42.667-42.667-42.667c-23.531 0-42.667 19.136-42.667 42.667s19.136 42.667 42.667 42.667zM515.667 656.875c20.032-0.171 64.085 0.149 94.699-30.4 19.541-19.52 29.461-47.317 29.461-82.624 0-66.325-45.312-88.405-75.307-103.019-24.192-11.797-31.211-16.704-31.211-26.56v-27.947h-42.667v27.947c0 38.016 30.613 52.928 55.189 64.917 31.829 15.488 51.328 26.923 51.328 64.661 0 23.573-5.696 41.216-16.939 52.416-18.069 18.048-48.064 17.792-62.763 17.941-35.2 0-59.755-7.872-74.731-23.424-16.256-16.832-16.235-38.251-16.235-38.443 0.448-11.776-8.768-21.675-20.544-22.101-11.605-1.131-21.632 8.768-22.080 20.544-0.149 3.989-0.576 39.851 28.16 69.632 23.317 24.192 58.197 36.459 103.637 36.459z" />
<glyph unicode="&#xe942;" glyph-name="ic_host" d="M256 704c-23.531 0-42.667-19.136-42.667-42.667v-341.333c0-23.531 19.136-42.667 42.667-42.667h512c23.531 0 42.667 19.136 42.667 42.667v341.333c0 23.531-19.136 42.667-42.667 42.667h-512zM618.667 192h-213.333v-64h213.333v64zM661.333 192v-64h192v-42.667h-682.667v42.667h192v64h-106.667c-70.592 0-128 57.408-128 128v341.333c0 70.592 57.408 128 128 128h512c70.592 0 128-57.408 128-128v-341.333c0-70.592-57.408-128-128-128h-106.667z" />
<glyph unicode="&#xe943;" glyph-name="ic_id" d="M853.333 832c70.592 0 128-57.408 128-128v-512c0-70.592-57.408-128-128-128h-682.667c-70.592 0-128 57.408-128 128v512c0 70.592 57.408 128 128 128h682.667zM896 192v512c0 23.531-19.136 42.667-42.667 42.667h-682.667c-23.531 0-42.667-19.136-42.667-42.667v-512c0-23.531 19.136-42.667 42.667-42.667h682.667c23.531 0 42.667 19.136 42.667 42.667zM597.333 256v85.333h42.667v-128h-128v42.667h85.333zM213.333 341.333v-85.333h85.333v-42.667h-128v128h42.667zM213.333 640v-85.333h-42.667v128h128v-42.667h-85.333zM512 640v42.667h128v-128h-42.667v85.333h-85.333zM268.499 372.145c58.005 51.243 215.68 51.243 273.685 0 16.213-14.336 15.211-44.011 4.843-80.277h-283.371c-10.389 36.267-11.371 65.941 4.843 80.277zM405.333 433.459c-47.125 0-85.333 38.208-85.333 85.333s38.208 85.333 85.333 85.333c47.147 0 85.333-38.208 85.333-85.333s-38.187-85.333-85.333-85.333zM678.613 640v42.667h170.667v-42.667h-170.667zM678.613 554.667v42.667h170.667v-42.667h-170.667z" />
<glyph unicode="&#xe944;" glyph-name="ic_id_card" d="M70.619 134.92h892.195v626.127h-892.195v-626.127zM965.637 832c37.698 0 58.363-29.008 58.363-62.198v-646.577c0-34.627-20.664-59.225-58.363-59.225h-906.716c-32.207 0-58.921 24.598-58.921 59.225v646.577c0 33.19 26.715 62.198 58.921 62.198h906.716zM155.64 192c-15.699 0-27.64 16.903-27.64 31.899 0 0 0 52.403 31.439 101.205 31.397 35.712 86.843 54.352 165.42 71.255l8.309 48.76c0 0-20.417 14.997-31.397 60.113-4.76 0-12.108 11.141-12.108 22.452 0 13.090-8.35 44.947 7.348 41.304 0 18.64-7.348 39.355-7.348 50.497 7.348 35.712 43.505 77.016 98.033 84.514 63.796-7.498 83.086-48.802 90.476-84.514 0-11.141 0-22.452-7.39-39.355v-11.141c15.699 3.643 7.39-28.214 7.39-41.304 0-11.311 0-22.452-10.981-22.452-8.35-45.117-32.357-60.113-32.357-60.113l8.309-48.76h8.35c19.289-11.141 50.728-11.141 70.226-24.401 35.948-7.498 67.345-28.044 74.735-46.854 43.547-48.802 43.547-101.205 43.547-101.205 0-14.997-12.108-31.899-24.049-31.899h-460.312zM678.031 640h217.969v-64h-217.969v64zM678.031 512h217.969v-64h-217.969v64zM678.031 384h217.969v-64h-217.969v64zM678.031 256h217.969v-64h-217.969v64z" />
<glyph unicode="&#xe945;" glyph-name="ic_info" d="M512 149.333c164.693 0 298.667 133.973 298.667 298.667s-133.973 298.667-298.667 298.667c-164.693 0-298.667-133.973-298.667-298.667s133.973-298.667 298.667-298.667zM512 832c211.733 0 384-172.267 384-384s-172.267-384-384-384c-211.733 0-384 172.267-384 384s172.267 384 384 384zM480 383.425v224.575h65.702v-224.575h-65.702zM480 291.738v60.262h65.702v-60.262h-65.702z" />
<glyph unicode="&#xe946;" glyph-name="ic_key" d="M526.842 637.128l-31.272 31.272c-17.664 17.641-17.664 46.261 0 63.88l63.88 63.902c17.641 17.641 46.261 17.641 63.902 0l31.285-31.296c26.287 25.543 60.345 38.314 94.403 38.314 34.696 0 69.368-13.237 95.842-39.71 52.924-52.924 52.924-138.714 0-191.661l-184.162-184.162c24.056-90.376 0.904-190.758-70.001-261.64-52.924-52.947-122.293-79.398-191.661-79.398s-138.737 26.451-191.661 79.398c-105.848 105.826-105.871 277.474 0 383.322 52.856 52.856 122.089 79.172 191.345 79.172 23.65 0 47.3-3.072 70.295-9.193l57.807 57.8zM749.039 712.847c-6.98 0-20.42-1.717-31.94-13.237l-220.981-221.003-50.327 13.417c-15.337 4.066-31.172 6.144-47.051 6.144-48.203 0-93.47-18.726-127.443-52.721-34.153-34.131-52.947-79.488-52.947-127.759 0-48.294 18.793-93.673 52.947-127.782 34.108-34.131 79.488-52.924 127.759-52.924s93.651 18.793 127.782 52.924c45.335 45.312 63.157 112.173 46.577 174.494l-13.417 50.327 221.003 221.003c11.52 11.52 13.214 24.937 13.214 31.94s-1.694 20.42-13.214 31.94c-11.52 11.52-24.96 13.237-31.962 13.237zM399.054 408.039c23.108 0 46.261-8.832 63.902-26.473 35.283-35.283 35.283-92.499 0-127.782-17.641-17.619-40.794-26.451-63.902-26.451s-46.238 8.832-63.88 26.451c-35.305 35.283-35.305 92.499 0 127.782 17.641 17.641 40.772 26.473 63.88 26.473zM399.054 362.863c-12.062 0-23.401-4.698-31.94-13.237s-13.237-19.878-13.237-31.94c0-12.062 4.698-23.424 13.237-31.962 8.538-8.516 19.878-13.214 31.94-13.214s23.424 4.698 31.94 13.214c17.619 17.619 17.619 46.283 0 63.902-8.516 8.538-19.878 13.237-31.94 13.237z" />
<glyph unicode="&#xe947;" glyph-name="ic_kiosk" d="M384 576v170.667h256v-170.667h-256zM341.333 533.333h341.333v256h-341.333v-256zM810.667 64h-597.333v85.333h597.333v-85.333zM298.667 789.333c0 23.531 19.136 42.667 42.667 42.667h341.333c23.531 0 42.667-19.136 42.667-42.667v-554.667h-426.667v554.667zM853.333 234.667h-42.667v554.667c0 70.592-57.408 128-128 128h-341.333c-70.592 0-128-57.408-128-128v-554.667h-42.667c-23.552 0-42.667-19.115-42.667-42.667v-170.667c0-23.552 19.115-42.667 42.667-42.667h682.667c23.552 0 42.667 19.115 42.667 42.667v170.667c0 23.552-19.115 42.667-42.667 42.667v0z" />
<glyph unicode="&#xe948;" glyph-name="ic_less" d="M186.424 484.462v-72.925h651.152v72.925z" />
<glyph unicode="&#xe949;" glyph-name="ic_libra" d="M943.052 348.617l-111.334 240.321c4.265 6.959 6.775 15.261 6.775 24.224 0 24.312-18.284 44.043-40.812 44.043h-127.822c-18.182 75.842-81.95 132.129-157.859 132.129s-139.678-56.287-157.859-132.129h-127.822c-22.528 0-40.812-19.731-40.812-44.043 0-8.963 2.51-17.265 6.775-24.246l-111.334-240.299c-21.344-1.431-38.281-20.37-38.281-43.757 0-109.293 82.378-198.194 183.652-198.194s183.652 88.901 183.652 198.194c0 23.387-16.937 42.325-38.281 43.757l-102.151 220.501h84.602c18.182-75.842 81.95-132.129 157.859-132.129s139.678 56.287 157.859 132.129h84.602l-102.151-220.501c-21.344-1.431-38.281-20.37-38.281-43.757 0-109.293 82.378-198.194 183.652-198.194s183.652 88.901 183.652 198.194c0 23.387-16.937 42.325-38.281 43.757v0zM698.060 348.903l99.621 215.018 99.621-215.018h-199.242zM126.698 348.903l99.621 215.018 99.621-215.018h-199.242zM226.319 194.753c-41.75 0-77.746 27.197-93.499 66.065h186.999c-15.753-38.868-51.749-66.065-93.499-66.065v0zM512 525.075c-45.015 0-81.623 39.507-81.623 88.086s36.608 88.086 81.623 88.086c45.015 0 81.623-39.507 81.623-88.064v-0.044c0-48.557-36.608-88.064-81.623-88.064v0zM797.681 194.753c-41.75 0-77.746 27.197-93.499 66.065h186.999c-15.753-38.868-51.749-66.065-93.499-66.065v0z" />
<glyph unicode="&#xe94a;" glyph-name="ic_libra_2" d="M85.333 277.327v-42.667h402.048l-123.179-213.333h295.595l-123.179 213.333h402.048v42.667h-853.333zM512 191.994l73.899-128h-147.797l73.899 128zM128 320c-23.552 0-42.667 19.115-42.667 42.667v256c0 23.552 19.115 42.667 42.667 42.667h298.667c23.552 0 42.667-19.115 42.667-42.667v-256c0-23.552-19.115-42.667-42.667-42.667h-298.667zM170.667 405.333h213.333v170.667h-213.333v-170.667zM896 832c23.552 0 42.667-19.115 42.667-42.667v-426.667c0-23.552-19.115-42.667-42.667-42.667h-341.333c-23.552 0-42.667 19.115-42.667 42.667v426.667c0 23.552 19.115 42.667 42.667 42.667h341.333zM597.333 405.333h256v341.333h-256v-341.333z" />
<glyph unicode="&#xe94b;" glyph-name="ic_libra_3" d="M384 704v85.333h341.333v-85.333h-341.333zM341.333 618.667h426.667c23.552 0 42.667 19.115 42.667 42.667v170.667c0 23.552-19.115 42.667-42.667 42.667h-426.667c-23.552 0-42.667-19.115-42.667-42.667v-170.667c0-23.552 19.115-42.667 42.667-42.667v0zM554.667 405.333v85.333h298.667v-85.333h-298.667zM896 576h-384c-23.552 0-42.667-19.115-42.667-42.667v-170.667c0-23.552 19.115-42.667 42.667-42.667h384c23.552 0 42.667 19.115 42.667 42.667v170.667c0 23.552-19.115 42.667-42.667 42.667v0zM170.667 405.333v85.333h170.667v-85.333h-170.667zM128 320h256c23.552 0 42.667 19.115 42.667 42.667v170.667c0 23.552-19.115 42.667-42.667 42.667h-256c-23.552 0-42.667-19.115-42.667-42.667v-170.667c0-23.552 19.115-42.667 42.667-42.667v0zM585.899 64h-147.797l73.899 128 73.899-128zM85.333 234.667h402.048l-123.179-213.333h295.595l-123.179 213.333h402.048v42.667h-853.333v-42.667z" />
<glyph unicode="&#xe94c;" glyph-name="ic_lightening" d="M423.437 960l-252.77-554.977h375.242l-122.472-469.023 355.674 627.924h-299.617l238.381 396.076z" />
<glyph unicode="&#xe94d;" glyph-name="ic_list" d="M256.001 320c11.854 0 21.928-4.149 30.222-12.444 8.295-8.297 12.444-18.37 12.444-30.222s-4.149-21.927-12.444-30.224c-8.298-8.294-18.372-12.442-30.222-12.442-11.853 0-21.928 4.147-30.225 12.442-8.296 8.297-12.443 18.371-12.443 30.224 0 11.852 4.149 21.925 12.443 30.222 8.298 8.295 18.371 12.444 30.225 12.444zM341.333 490.667h469.333v-85.333h-469.333v85.333zM256.001 490.667c11.854 0 21.928-4.149 30.222-12.444 8.295-8.297 12.444-18.37 12.444-30.222s-4.149-21.927-12.444-30.224c-8.298-8.294-18.372-12.442-30.222-12.442-11.853 0-21.928 4.147-30.225 12.442-8.296 8.297-12.443 18.371-12.443 30.224 0 11.852 4.149 21.925 12.443 30.222 8.298 8.295 18.371 12.444 30.225 12.444zM341.333 320h469.333v-85.333h-469.333v85.333zM256.001 661.333c11.854 0 21.928-4.149 30.222-12.444 8.295-8.297 12.444-18.37 12.444-30.222s-4.149-21.927-12.444-30.224c-8.298-8.294-18.372-12.442-30.222-12.442-11.853 0-21.928 4.147-30.225 12.442-8.296 8.297-12.443 18.371-12.443 30.224s4.149 21.925 12.443 30.222c8.298 8.295 18.371 12.444 30.225 12.444zM341.333 661.333h469.333v-85.333h-469.333v85.333z" />
<glyph unicode="&#xe94e;" glyph-name="ic_loading_1" d="M68.595 682.667l73.901-42.667c-117.821-204.072-47.901-465.017 156.171-582.838s465.017-47.901 582.838 156.171c117.821 204.072 47.901 465.017-156.171 582.838l42.667 73.901c244.886-141.385 328.79-454.519 187.405-699.405s-454.519-328.79-699.405-187.405c-244.886 141.385-328.79 454.519-187.405 699.405zM341.333 722.27l42.667-73.901c-122.443-70.692-164.395-227.26-93.703-349.703s227.26-164.395 349.703-93.703c122.443 70.692 164.395 227.26 93.703 349.703l73.901 42.667c94.257-163.257 38.321-372.013-124.937-466.27s-372.013-38.321-466.27 124.937c-94.257 163.257-38.321 372.013 124.937 466.27zM512 597.333v-85.333c-47.128 0-85.333-38.205-85.333-85.333s38.205-85.333 85.333-85.333c47.128 0 85.333 38.205 85.333 85.333h85.333c0-94.257-76.41-170.667-170.667-170.667s-170.667 76.41-170.667 170.667c0 94.257 76.41 170.667 170.667 170.667z" />
<glyph unicode="&#xe94f;" glyph-name="ic_loading_2" d="M645.17 763.114c-1.234-70.688-59.527-126.98-130.214-125.747s-126.98 59.527-125.747 130.214c1.234 70.688 59.527 126.98 130.214 125.747s126.98-59.527 125.747-130.214zM547.936 82.041c-0.411-23.548-19.856-42.327-43.405-41.916s-42.327 19.856-41.916 43.405c0.411 23.548 19.856 42.327 43.405 41.916s42.327-19.856 41.916-43.405zM350.847 743.706c40.951-42.406 39.773-109.938-2.633-150.846-42.363-40.91-109.894-39.731-150.846 2.633-40.91 42.363-39.731 109.894 2.633 150.846 42.406 40.909 109.937 39.73 150.846-2.633zM171.441 515.344c47.097-0.822 84.653-39.713 83.831-86.81s-39.713-84.653-86.81-83.831c-47.097 0.822-84.653 39.713-83.831 86.81s39.713 84.653 86.81 83.831zM221.249 232.994c25.393 24.563 65.92 23.856 90.482-1.579s23.855-65.962-1.579-90.482c-25.435-24.563-65.962-23.855-90.482 1.579-24.563 25.393-23.856 65.92 1.579 90.482z" />
<glyph unicode="&#xe950;" glyph-name="ic_loading_3" d="M1024 426.667c0-23.564-19.103-42.667-42.667-42.667h-256c-23.564 0-42.667 19.103-42.667 42.667s19.103 42.667 42.667 42.667h256c23.564 0 42.667-19.103 42.667-42.667zM341.333 426.667c0-23.564-19.103-42.667-42.667-42.667h-256c-23.564 0-42.667 19.103-42.667 42.667s19.103 42.667 42.667 42.667h256c23.564 0 42.667-19.103 42.667-42.667zM874.039 788.705c16.662-16.662 16.662-43.677 0-60.34l-181.019-181.019c-16.662-16.662-43.677-16.662-60.34 0s-16.662 43.677 0 60.34l181.019 181.019c16.662 16.662 43.677 16.662 60.34 0zM391.32 305.987c16.662-16.662 16.662-43.677 0-60.34l-181.019-181.019c-16.662-16.662-43.677-16.662-60.34 0s-16.662 43.677 0 60.34l181.019 181.019c16.662 16.662 43.677 16.662 60.34 0zM512 938.667c23.564 0 42.667-19.103 42.667-42.667v-256c0-23.564-19.103-42.667-42.667-42.667s-42.667 19.103-42.667 42.667v256c0 23.564 19.103 42.667 42.667 42.667zM512 256c23.564 0 42.667-19.103 42.667-42.667v-256c0-23.564-19.103-42.667-42.667-42.667s-42.667 19.103-42.667 42.667v256c0 23.564 19.103 42.667 42.667 42.667zM874.039 64.628c-16.662-16.662-43.677-16.662-60.34 0l-181.019 181.019c-16.662 16.662-16.662 43.677 0 60.34s43.677 16.662 60.34 0l181.019-181.019c16.662-16.662 16.662-43.677 0-60.34zM391.32 547.346c-16.662-16.662-43.677-16.662-60.34 0l-181.019 181.019c-16.662 16.662-16.662 43.677 0 60.34s43.677 16.662 60.34 0l181.019-181.019c16.662-16.662 16.662-43.677 0-60.34z" />
<glyph unicode="&#xe951;" glyph-name="ic_location" d="M512 704c96.458 0 174.942-82.624 174.942-184.171 0-106.901-109.245-243.307-174.963-311.915-65.717 68.501-174.922 204.757-174.922 311.915 0 101.547 78.484 184.171 174.942 184.171zM485.17 117.355c7.66-7.125 17.245-10.688 26.83-10.688s19.17 3.563 26.83 10.688c9.362 8.704 229.17 215.275 229.17 402.475 0 148.608-114.838 269.504-256 269.504s-256-120.896-256-269.504c0-187.2 219.808-393.771 229.17-402.475zM456.609 519.834c0 32.149 24.864 58.304 55.383 58.304 30.538 0 55.403-26.155 55.403-58.304s-24.864-58.304-55.403-58.304c-30.518 0-55.383 26.155-55.383 58.304zM607.924 519.834c0 55.68-43.021 100.971-95.932 100.971-52.89 0-95.911-45.291-95.911-100.971s43.021-100.971 95.911-100.971c52.91 0 95.932 45.291 95.932 100.971z" />
<glyph unicode="&#xe952;" glyph-name="ic_magnifier_enlarge" d="M213.333 490.667c0-141.163 114.837-256 256-256s256 114.837 256 256c0 141.163-114.837 256-256 256s-256-114.837-256-256zM426.667 533.333v128h85.333v-128h128v-85.333h-128v-128h-85.333v128h-128v85.333h128zM883.499 136.832c16.661-16.661 16.661-43.669 0-60.331-8.341-8.341-19.243-12.501-30.165-12.501s-21.824 4.16-30.165 12.501l-144.747 144.747c-57.813-44.907-130.219-71.915-209.088-71.915-188.523 0-341.333 152.811-341.333 341.333s152.811 341.333 341.333 341.333c188.523 0 341.333-152.811 341.333-341.333 0-78.869-27.008-151.275-71.915-209.088l144.747-144.747z" />
<glyph unicode="&#xe953;" glyph-name="ic_magnifier_lessen" d="M213.333 490.667c0-141.163 114.837-256 256-256s256 114.837 256 256c0 141.163-114.837 256-256 256s-256-114.837-256-256zM883.499 136.832c16.661-16.661 16.661-43.669 0-60.331-8.341-8.341-19.243-12.501-30.165-12.501s-21.824 4.16-30.165 12.501l-144.747 144.747c-57.813-44.907-130.219-71.915-209.088-71.915-188.523 0-341.333 152.811-341.333 341.333s152.811 341.333 341.333 341.333c188.523 0 341.333-152.811 341.333-341.333 0-78.869-27.008-151.275-71.915-209.088l144.747-144.747zM298.667 533.333h341.333v-85.333h-341.333v85.333z" />
<glyph unicode="&#xe954;" glyph-name="ic_main_menu" d="M213.333 746.667h170.667v-170.667h-170.667v170.667zM426.667 746.667h170.667v-170.667h-170.667v170.667zM640 746.667h170.667v-170.667h-170.667v170.667zM213.333 533.333h170.667v-170.667h-170.667v170.667zM426.667 533.333h170.667v-170.667h-170.667v170.667zM640 533.333h170.667v-170.667h-170.667v170.667zM213.333 320h170.667v-170.667h-170.667v170.667zM426.667 320h170.667v-170.667h-170.667v170.667zM640 320h170.667v-170.667h-170.667v170.667z" />
<glyph unicode="&#xe955;" glyph-name="ic_male" d="M512 131.667c-94.101 0-170.667 76.565-170.667 170.667s76.565 170.667 170.667 170.667c94.101 0 170.667-76.565 170.667-170.667s-76.565-170.667-170.667-170.667zM533.333 557.246v132.757l85.035-85.035c8.341-8.341 19.264-12.501 30.165-12.501 10.923 0 21.845 4.16 30.165 12.501 16.683 16.661 16.683 43.648 0 60.331l-166.699 166.699-166.699-166.699c-16.683-16.683-16.683-43.669 0-60.331 16.661-16.683 43.648-16.683 60.331 0l85.035 85.035v-132.757c-131.2-10.901-234.667-120.96-234.667-254.912 0-141.163 114.837-256 256-256s256 114.837 256 256c0 133.952-103.467 244.011-234.667 254.912z" />
<glyph unicode="&#xe956;" glyph-name="ic_map" d="M936.292 94.874c3.481-6.613 3.121-14.464-0.988-20.757s-11.318-10.112-19.11-10.112h-808.41c-7.77 0-15.001 3.819-19.087 10.112-4.109 6.293-4.469 14.144-0.988 20.757l89.823 170.667c3.817 7.232 11.587 11.797 20.076 11.797h105.004c11.991-15.061 24.095-29.333 35.952-42.667h-127.055l-67.368-128h735.721l-67.368 128h-138.014c11.834 13.333 23.938 27.605 35.929 42.667h115.962c8.511 0 16.28-4.565 20.098-11.797l89.823-170.667zM506.519 149.333c-10.622 0-21.243 3.563-29.732 10.688-10.375 8.704-253.953 215.275-253.953 402.475 0 148.608 127.257 269.504 283.685 269.504s283.685-120.896 283.685-269.504c0-187.2-243.579-393.771-253.953-402.475-8.488-7.125-19.11-10.688-29.732-10.688zM506.519 746.667c-106.89 0-193.861-82.624-193.861-184.171 0-107.157 121.015-243.413 193.839-311.915 72.824 68.608 193.884 205.013 193.884 311.915 0 101.547-86.971 184.171-193.861 184.171zM506.519 461.515c-58.61 0-106.284 45.291-106.284 100.992 0 55.68 47.674 100.971 106.284 100.971s106.284-45.291 106.284-100.971c0-55.701-47.674-100.992-106.284-100.992zM506.519 620.811c-33.841 0-61.372-26.176-61.372-58.304 0-32.149 27.531-58.325 61.372-58.325s61.372 26.176 61.372 58.325c0 32.128-27.531 58.304-61.372 58.304z" />
<glyph unicode="&#xe957;" glyph-name="ic_menu" d="M213.333 320h597.333v-85.333h-597.333v85.333zM213.333 490.667h597.333v-85.333h-597.333v85.333zM213.333 661.333h597.333v-85.333h-597.333v85.333z" />
<glyph unicode="&#xe958;" glyph-name="ic_mic" d="M811.319 669.301h-84.178c-25.078 0-44.719-16.593-44.719-43.356 0-24.285 19.641-40.878 44.719-40.878v-230.75c0-5.099-2.704-14.116-2.704-24.314-5.259-13.972-10.519-24.141-13.074-40.734-9.3-11.494-17.085-30.68-28.941-40.878-7.963-16.593-25.078-30.565-35.567-40.734-24.93-16.593-42.045-24.314-64.389-26.791-9.3-6.395-19.819-11.494-34.23-11.494v73.921c5.259 5.099 11.856 5.099 11.856 5.099 13.074 2.622 27.634 7.692 39.489 19.186 7.785 5.099 18.303 12.675 22.345 16.593 7.815 12.675 15.748 21.692 15.748 31.861 11.856 24.17 19.67 48.455 19.67 73.921v423.387c0 29.384-7.815 51.076-19.67 70.262 0 8.902-7.933 21.692-15.748 30.565-4.041 7.72-14.56 15.268-22.345 26.762-11.856 2.622-26.415 7.72-39.489 11.494-17.085 7.576-34.2 7.576-54.019 7.576-19.641 0-32.863 0-47.274-7.576-17.115-3.774-27.604-8.873-42.163-11.494-7.815-11.494-14.411-19.042-22.345-26.762-5.259-8.873-17.115-21.663-17.115-30.565-17.115-19.186-19.67-40.878-19.67-70.262v-423.387c0-25.466 2.555-49.751 19.67-73.921 0-10.169 11.856-19.186 17.115-31.861 7.933-3.918 14.53-11.494 22.345-16.593 14.56-11.494 25.048-16.564 42.163-19.186 5.259 0 7.815 0 14.411-5.099v-73.921c-14.411 0-24.9 5.099-42.015 11.494-17.115 2.477-36.904 10.198-54.019 26.791-19.67 10.169-30.189 24.141-47.274 40.734-7.963 10.198-10.519 29.384-22.374 40.878-5.259 16.593-11.856 26.762-14.53 40.734 0 10.198-5.259 19.215-5.259 24.314v230.75h5.259c26.386 0 48.76 16.593 48.76 40.878 0 26.762-22.374 43.356-48.76 43.356h-74.908c-25.048 0-47.423-16.593-47.423-43.356 0-24.285 22.374-40.878 47.423-40.878v-274.134c5.259-14.087 7.815-30.68 17.115-43.356 7.815-19.186 15.748-38.257 27.604-59.92 14.411-19.215 30.189-33.187 49.978-48.455 14.411-19.215 34.2-35.779 59.13-43.356 27.604-9.017 56.574-19.215 86.882-25.61h7.815v-84.090c0 0 0-12.819 6.596-12.819 0 0-44.719-2.477-59.13-11.494-14.56 0-30.308-2.477-44.719-7.576-17.115-5.070-31.645-11.494-49.978-14.087v-24.17h380.124v24.17c-19.789 2.593-32.863 9.017-49.978 14.087-14.53 5.099-31.645 7.576-44.719 7.576-17.085 9.017-31.645 9.017-42.163 9.017h-14.411v99.387h11.856c32.863 6.395 57.793 16.593 86.763 25.61 22.345 12.647 42.163 24.141 64.508 43.356 15.778 15.268 32.863 29.24 42.045 48.455 13.193 21.663 27.604 40.734 30.308 59.92 7.815 12.675 17.085 31.861 17.085 48.455v269.036h10.519c22.374 0 42.015 16.593 42.015 40.878 0 26.762-19.641 43.356-42.015 43.356z" />
<glyph unicode="&#xe959;" glyph-name="ic_mobile" d="M298.667 106.667h426.667v128h-426.667v-128zM298.667 277.333h426.667v426.667h-426.667v-426.667zM298.667 746.667h426.667v42.667h-426.667v-42.667zM768 874.667c23.552 0 42.667-19.115 42.667-42.667v-768c0-23.552-19.115-42.667-42.667-42.667h-512c-23.552 0-42.667 19.115-42.667 42.667v768c0 23.552 19.115 42.667 42.667 42.667h512zM409.003 149.333h205.995v42.667h-205.995v-42.667z" />
<glyph unicode="&#xe95a;" glyph-name="ic_more" d="M341.333 448c0 46.933-38.4 85.333-85.333 85.333s-85.333-38.4-85.333-85.333c0-46.933 38.4-85.333 85.333-85.333s85.333 38.4 85.333 85.333zM426.667 448c0-46.933 38.4-85.333 85.333-85.333s85.333 38.4 85.333 85.333c0 46.933-38.4 85.333-85.333 85.333s-85.333-38.4-85.333-85.333zM682.667 448c0-46.933 38.4-85.333 85.333-85.333s85.333 38.4 85.333 85.333c0 46.933-38.4 85.333-85.333 85.333s-85.333-38.4-85.333-85.333z" />
<glyph unicode="&#xe95b;" glyph-name="ic_mouse" d="M853.333 196.782l-255.044 255.044 167.479 167.479-595.102 170.029 170.029-595.102 167.436 167.436 255.044-255.044z" />
<glyph unicode="&#xe95c;" glyph-name="ic_network" d="M810.667 149.333v85.333h85.333l0.064-85.333h-85.397zM554.731 149.333h-85.397v85.333h85.333l0.064-85.333zM213.397 149.333h-85.397v85.333h85.333l0.064-85.333zM426.667 789.333h170.667l0.064-170.667h-170.731v170.667zM896 320h-21.333v21.824c0 58.56-46.997 106.176-104.747 106.176h-236.587v85.333h64c47.061 0 85.333 38.272 85.333 85.333v170.667c0 47.061-38.272 85.333-85.333 85.333h-170.667c-47.061 0-85.333-38.272-85.333-85.333v-170.667c0-47.061 38.272-85.333 85.333-85.333h64v-85.333h-236.587c-57.749 0-104.747-47.616-104.747-106.176v-21.824h-21.333c-47.061 0-85.333-38.272-85.333-85.333v-85.333c0-47.061 38.272-85.333 85.333-85.333h85.333c47.061 0 85.333 38.272 85.333 85.333v85.333c0 47.061-38.272 85.333-85.333 85.333h-21.333v21.824c0 35.029 27.861 63.509 62.080 63.509h236.587v-85.333h-21.333c-47.061 0-85.333-38.272-85.333-85.333v-85.333c0-47.061 38.272-85.333 85.333-85.333h85.333c47.061 0 85.333 38.272 85.333 85.333v85.333c0 47.061-38.272 85.333-85.333 85.333h-21.333v85.333h236.587c34.219 0 62.080-28.48 62.080-63.509v-21.824h-21.333c-47.061 0-85.333-38.272-85.333-85.333v-85.333c0-47.061 38.272-85.333 85.333-85.333h85.333c47.061 0 85.333 38.272 85.333 85.333v85.333c0 47.061-38.272 85.333-85.333 85.333v0z" />
<glyph unicode="&#xe95d;" glyph-name="ic_next" d="M627.215 162.474c-17.641-17.521-46.26-17.521-63.879 0-17.641 17.498-17.641 45.922 0 63.443l201.010 199.661h-636.346v44.868h636.346l-201.010 199.638c-17.641 17.521-17.641 45.944 0 63.443 17.619 17.521 46.237 17.521 63.879 0l255.537-253.793c17.664-17.543 17.664-45.922 0-63.465l-255.537-253.793z" />
<glyph unicode="&#xe95e;" glyph-name="ic_nvr" d="M512.469 234.667h298.667v213.333h-298.667v-213.333zM171.136 234.667h298.667v213.333h-298.667v-213.333zM171.136 490.667h298.667v213.333h-298.667v-213.333zM512.469 490.667h298.667v213.333h-298.667v-213.333zM896.939 490.667v-42.667h-0.469v-213.333c0-47.125-38.208-85.333-85.333-85.333h-640c-47.125 0-85.333 38.208-85.333 85.333v213.333h-0.469v42.667h0.469v213.333c0 47.125 38.208 85.333 85.333 85.333h640c47.125 0 85.333-38.208 85.333-85.333v-213.333h0.469zM705.99 341.333l-105.067 64v-128l105.067 64zM274.825 405.333v-128l105.067 64-105.067 64zM274.825 661.333v-128l105.067 64-105.067 64zM705.99 597.333l-105.067 64v-128l105.067 64z" />
<glyph unicode="&#xe95f;" glyph-name="ic_opacity" d="M810.667 832h-597.333c-46.933 0-85.333-38.4-85.333-85.333v-597.333c0-46.933 38.4-85.333 85.333-85.333h597.333c46.933 0 85.333 38.4 85.333 85.333v597.333c0 46.933-38.4 85.333-85.333 85.333v0zM234.667 640h85.333v85.333h64v-85.333h85.333v-64h-85.333v-85.333h-64v85.333h-85.333v64zM810.667 149.333h-597.333l597.333 597.333v-597.333zM725.333 234.667v64h-213.333v-64h213.333z" />
<glyph unicode="&#xe960;" glyph-name="ic_path_arrow" d="M845.979 832h-400.169c-27.612 0-50.021-22.409-50.021-50.021s22.409-50.021 50.021-50.021h314.783l-632.593-632.593 35.365-35.365 632.593 632.593v-314.783c0-27.612 22.409-50.021 50.021-50.021s50.021 22.409 50.021 50.021v400.169c0 27.612-22.409 50.021-50.021 50.021z" />
<glyph unicode="&#xe962;" glyph-name="ic_path_direction" d="M768 661.333c-23.531 0-42.667 19.136-42.667 42.667s19.136 42.667 42.667 42.667c23.531 0 42.667-19.136 42.667-42.667s-19.136-42.667-42.667-42.667zM256 149.333c-23.531 0-42.667 19.136-42.667 42.667s19.136 42.667 42.667 42.667c23.531 0 42.667-19.136 42.667-42.667s-19.136-42.667-42.667-42.667zM768 832c-70.592 0-128-57.408-128-128 0-27.605 8.875-53.12 23.787-74.048l-151.787-151.787-183.168 183.168h97.835c23.552 0 42.667 19.115 42.667 42.667s-19.115 42.667-42.667 42.667h-170.667c-23.552 0-42.667-19.115-42.667-42.667v-170.667c0-23.552 19.115-42.667 42.667-42.667s42.667 19.115 42.667 42.667v97.835l183.168-183.168-151.787-151.787c-20.928 14.912-46.443 23.787-74.048 23.787-70.592 0-128-57.408-128-128s57.408-128 128-128c70.592 0 128 57.408 128 128 0 27.605-8.875 53.12-23.787 74.048l333.739 333.739c20.928-14.912 46.443-23.787 74.048-23.787 70.592 0 128 57.408 128 128s-57.408 128-128 128z" />
<glyph unicode="&#xe963;" glyph-name="ic_path_line" d="M768 661.333c-23.531 0-42.667 19.136-42.667 42.667s19.136 42.667 42.667 42.667c23.531 0 42.667-19.136 42.667-42.667s-19.136-42.667-42.667-42.667zM256 149.333c-23.531 0-42.667 19.136-42.667 42.667s19.136 42.667 42.667 42.667c23.531 0 42.667-19.136 42.667-42.667s-19.136-42.667-42.667-42.667zM768 832c-70.592 0-128-57.408-128-128 0-27.605 8.875-53.12 23.787-74.048l-333.739-333.739c-20.928 14.912-46.443 23.787-74.048 23.787-70.592 0-128-57.408-128-128s57.408-128 128-128c70.592 0 128 57.408 128 128 0 27.605-8.875 53.12-23.787 74.048l333.739 333.739c20.928-14.912 46.443-23.787 74.048-23.787 70.592 0 128 57.408 128 128s-57.408 128-128 128z" />
</font>
</defs>
</svg>
