<?xml version="1.0" encoding="UTF-8"?>
<svg width="24px" height="24px" viewBox="0 0 24 24" version="1.1" xmlns="http://www.w3.org/2000/svg" xmlns:xlink="http://www.w3.org/1999/xlink">
    <!-- Generator: Sketch 46.2 (44496) - http://www.bohemiancoding.com/sketch -->
    <title>icon/ic_alert_2</title>
    <desc>Created with Sketch.</desc>
    <defs>
        <path d="M12,19 C15.86,19 19,15.86 19,12 C19,8.14 15.86,5 12,5 C8.14,5 5,8.14 5,12 C5,15.86 8.14,19 12,19 Z M12,3 C16.9625,3 21,7.0375 21,12 C21,16.9625 16.9625,21 12,21 C7.0375,21 3,16.9625 3,12 C3,7.0375 7.0375,3 12,3 Z M11.25,13.5134699 L11.25,8.25 L12.7899,8.25 L12.7899,13.5134699 L11.25,13.5134699 Z M11.25,15.6623801 L11.25,14.25 L12.7899,14.25 L12.7899,15.6623801 L11.25,15.6623801 Z" id="path-1"></path>
    </defs>
    <g id="Symbols" stroke="none" stroke-width="1" fill="none" fill-rule="evenodd">
        <g id="icon/ic_alert_2">
            <mask id="mask-2" fill="white">
                <use xlink:href="#path-1"></use>
            </mask>
            <use id="Combined-Shape" fill="#000000" xlink:href="#path-1"></use>
        </g>
    </g>
</svg>