<?xml version="1.0" encoding="UTF-8"?>
<svg width="24px" height="24px" viewBox="0 0 24 24" version="1.1" xmlns="http://www.w3.org/2000/svg" xmlns:xlink="http://www.w3.org/1999/xlink">
    <!-- Generator: Sketch 46.2 (44496) - http://www.bohemiancoding.com/sketch -->
    <title>icon/ic_box_vemo</title>
    <desc>Created with Sketch.</desc>
    <defs>
        <path d="M5,19.0466101 L5,14.6514827 L19,14.6514827 L19,19.0466101 L5,19.0466101 Z M17,15.2523454 C16.1715,15.2523454 15.5,15.9081961 15.5,16.7173879 C15.5,17.5265797 16.1715,18.1824303 17,18.1824303 C17.8285,18.1824303 18.5,17.5265797 18.5,16.7173879 C18.5,15.9081961 17.8285,15.2523454 17,15.2523454 Z M6,17.6940829 L7,17.6940829 L7,15.7406929 L6,15.7406929 L6,17.6940829 Z M8,17.6940829 L9,17.6940829 L9,15.7406929 L8,15.7406929 L8,17.6940829 Z M10,17.6940829 L10,15.7406929 L11,15.7406929 L11,17.6940829 L10,17.6940829 Z M10.5,5.44173743 C10.5,4.63254565 11.1715,3.97669497 12,3.97669497 C12.8285,3.97669497 13.5,4.63254565 13.5,5.44173743 C13.5,6.25092922 12.8285,6.90677989 12,6.90677989 C11.1715,6.90677989 10.5,6.25092922 10.5,5.44173743 Z M18.632,13.6747877 L5.368,13.6747877 L7.118,10.2563553 L16.882,10.2563553 L18.632,13.6747877 Z M14.449,5.93008492 L21,5.93008492 L21,4.95338995 L14.449,4.95338995 C14.2175,3.84044602 13.2075,3 12,3 C10.7925,3 9.7825,3.84044602 9.551,4.95338995 L3,4.95338995 L3,5.93008492 L9.551,5.93008492 C9.75,6.8852926 10.522,7.63930112 11.5,7.83415177 L11.5,8.30296535 L6.5,8.30296535 C6.121,8.30296535 5.775,8.51246643 5.6055,8.84307767 L3.1055,13.7265525 C3.036,13.8623131 3,14.0117475 3,14.1631352 L3,20.023305 C3,20.562929 3.448,21 4,21 L20,21 C20.552,21 21,20.562929 21,20.023305 L21,14.1631352 C21,14.0117475 20.964,13.8623131 20.8945,13.7265525 L18.3945,8.84307767 C18.225,8.51246643 17.879,8.30296535 17.5,8.30296535 L12.5,8.30296535 L12.5,7.83415177 C13.478,7.63930112 14.25,6.8852926 14.449,5.93008492 L14.449,5.93008492 Z" id="path-1"></path>
    </defs>
    <g id="Symbols" stroke="none" stroke-width="1" fill="none" fill-rule="evenodd">
        <g id="icon/ic_box_vemo">
            <mask id="mask-2" fill="white">
                <use xlink:href="#path-1"></use>
            </mask>
            <use id="Combined-Shape" fill="#000000" xlink:href="#path-1"></use>
        </g>
    </g>
</svg>