<?xml version="1.0" encoding="UTF-8"?>
<svg width="24px" height="24px" viewBox="0 0 24 24" version="1.1" xmlns="http://www.w3.org/2000/svg" xmlns:xlink="http://www.w3.org/1999/xlink">
    <!-- Generator: Sketch 46.2 (44496) - http://www.bohemiancoding.com/sketch -->
    <title>icon/ic_box_product</title>
    <desc>Created with Sketch.</desc>
    <defs>
        <path d="M5,19 L19,19 L19,14 L5,14 L5,19 Z M4,12 L20,12 L20,9.5 L4,9.5 L4,12 Z M6.118,5 L17.882,5 L19.632,8.5 L4.368,8.5 L6.118,5 Z M21.8945,8.5525 L19.3945,3.5525 C19.225,3.214 18.879,3 18.5,3 L5.5,3 C5.121,3 4.775,3.214 4.6055,3.5525 L2.1055,8.5525 C2.036,8.6915 2,8.8445 2,9 L2,13 C2,13.552 2.448,14 3,14 L3,20 C3,20.552 3.448,21 4,21 L20,21 C20.552,21 21,20.552 21,20 L21,14 C21.552,14 22,13.552 22,13 L22,9 C22,8.8445 21.964,8.6915 21.8945,8.5525 L21.8945,8.5525 Z M6,17.615 L7,17.615 L7,15.615 L6,15.615 L6,17.615 Z M8,17.615 L9,17.615 L9,15.615 L8,15.615 L8,17.615 Z M10,17.615 L11,17.615 L11,15.615 L10,15.615 L10,17.615 Z" id="path-1"></path>
    </defs>
    <g id="Symbols" stroke="none" stroke-width="1" fill="none" fill-rule="evenodd">
        <g id="icon/ic_box_product">
            <mask id="mask-2" fill="white">
                <use xlink:href="#path-1"></use>
            </mask>
            <use id="Combined-Shape" fill="#000000" xlink:href="#path-1"></use>
        </g>
    </g>
</svg>