<?xml version="1.0" encoding="UTF-8"?>
<svg width="24px" height="24px" viewBox="0 0 24 24" version="1.1" xmlns="http://www.w3.org/2000/svg" xmlns:xlink="http://www.w3.org/1999/xlink">
    <!-- Generator: Sketch 46.2 (44496) - http://www.bohemiancoding.com/sketch -->
    <title>icon/ic_box</title>
    <desc>Created with Sketch.</desc>
    <defs>
        <path d="M5,18 L19,18 L19,13.5 L5,13.5 L5,18 Z M7.2045,7 L16.7955,7 L18.76,12.5 L5.24,12.5 L7.2045,7 Z M20.942,12.6635 C20.9805,12.7715 21,12.8855 21,13 L21,19 C21,19.552 20.552,20 20,20 L4,20 C3.448,20 3,19.552 3,19 L3,13 C3,12.8855 3.0195,12.7715 3.058,12.6635 L5.558,5.6635 C5.7,5.2655 6.077,5 6.5,5 L17.5,5 C17.923,5 18.3,5.2655 18.442,5.6635 L20.942,12.6635 Z M6,16.615 L7,16.615 L7,14.615 L6,14.615 L6,16.615 Z M8,16.615 L9,16.615 L9,14.615 L8,14.615 L8,16.615 Z M10,16.615 L11,16.615 L11,14.615 L10,14.615 L10,16.615 Z" id="path-1"></path>
    </defs>
    <g id="Symbols" stroke="none" stroke-width="1" fill="none" fill-rule="evenodd">
        <g id="icon/ic_box">
            <mask id="mask-2" fill="white">
                <use xlink:href="#path-1"></use>
            </mask>
            <use id="Combined-Shape" fill="#000000" xlink:href="#path-1"></use>
        </g>
    </g>
</svg>