<?xml version="1.0" encoding="UTF-8"?>
<svg width="24px" height="24px" viewBox="0 0 24 24" version="1.1" xmlns="http://www.w3.org/2000/svg" xmlns:xlink="http://www.w3.org/1999/xlink">
    <!-- Generator: Sketch 46.2 (44496) - http://www.bohemiancoding.com/sketch -->
    <title>icon/ic_correlate</title>
    <desc>Created with Sketch.</desc>
    <defs>
        <path d="M19,20 C18.4485,20 18,19.5515 18,19 C18,18.4485 18.4485,18 19,18 C19.5515,18 20,18.4485 20,19 C20,19.5515 19.5515,20 19,20 M8,20 C5.7945,20 4,18.2055 4,16 C4,13.7945 5.7945,12 8,12 C10.2055,12 12,13.7945 12,16 C12,18.2055 10.2055,20 8,20 M18,4 C19.103,4 20,4.897 20,6 C20,7.1025 19.103,8 18,8 C16.897,8 16,7.1025 16,6 C16,4.897 16.897,4 18,4 M4,6 C4,5.4485 4.4485,5 5,5 C5.5515,5 6,5.4485 6,6 C6,6.5515 5.5515,7 5,7 C4.4485,7 4,6.5515 4,6 M19,16 C17.794,16 16.757,16.7135 16.2805,17.74 L13.8965,17.09 C13.9615,16.736 14,16.3725 14,16 C14,14.69 13.575,13.4815 12.863,12.4945 L15.7565,9.3115 C16.396,9.746 17.1685,10 18,10 C20.209,10 22,8.209 22,6 C22,3.791 20.209,2 18,2 C15.791,2 14,3.791 14,6 C14,7.017 14.383,7.9425 15.008,8.648 L12.209,11.7265 C11.126,10.6595 9.6405,10 8,10 C7.575,10 7.161,10.0455 6.761,10.1295 L6.328,8.687 C7.318,8.197 8,7.179 8,6 C8,4.3435 6.6565,3 5,3 C3.3435,3 2,4.3435 2,6 C2,7.6565 3.3435,9 5,9 C5.1255,9 5.249,8.9895 5.3705,8.9745 L5.804,10.4205 C3.578,11.2975 2,13.4625 2,16 C2,19.3135 4.6865,22 8,22 C10.591,22 12.792,20.3545 13.6315,18.054 L16.015,18.704 C16.0055,18.802 16,18.9005 16,19 C16,20.6565 17.3435,22 19,22 C20.6565,22 22,20.6565 22,19 C22,17.3435 20.6565,16 19,16" id="path-1"></path>
    </defs>
    <g id="Symbols" stroke="none" stroke-width="1" fill="none" fill-rule="evenodd">
        <g id="icon/ic_correlate">
            <mask id="mask-2" fill="white">
                <use xlink:href="#path-1"></use>
            </mask>
            <use id="Page-1" fill="#000000" xlink:href="#path-1"></use>
        </g>
    </g>
</svg>