<?xml version="1.0" encoding="UTF-8"?>
<svg width="24px" height="24px" viewBox="0 0 24 24" version="1.1" xmlns="http://www.w3.org/2000/svg" xmlns:xlink="http://www.w3.org/1999/xlink">
    <!-- Generator: Sketch 46.2 (44496) - http://www.bohemiancoding.com/sketch -->
    <title>icon/ic_cam_2</title>
    <desc>Created with Sketch.</desc>
    <defs>
        <path d="M20,15 C20,15.5515 19.5515,16 19,16 L9,16 C8.4485,16 8,15.5515 8,15 L8,12.002 L8,12 L8,11.998 L8,9 C8,8.4485 8.4485,8 9,8 L19,8 C19.5515,8 20,8.4485 20,9 L20,15 Z M3,14.5395 L3,9.4605 L6,11.56 L6,12.44 L3,14.5395 Z M19,6 L9,6 C7.3455,6 6,7.3455 6,9 L6,10.34 L2.7865,8.0905 C2.634,7.9835 2.435,7.97 2.269,8.0565 C2.104,8.1425 2,8.3135 2,8.5 L2,15.5 C2,15.6865 2.104,15.8575 2.269,15.9435 C2.342,15.9815 2.421,16 2.5,16 C2.601,16 2.701,15.9695 2.7865,15.9095 L6,13.66 L6,15 C6,16.6545 7.3455,18 9,18 L19,18 C20.6545,18 22,16.6545 22,15 L22,9 C22,7.3455 20.6545,6 19,6 L19,6 Z M17.59935,9.5 C16.77135,9.5 16.09935,10.172 16.09935,11 C16.09935,11.828 16.77135,12.5 17.59935,12.5 C18.42785,12.5 19.09935,11.828 19.09935,11 C19.09935,10.172 18.42785,9.5 17.59935,9.5" id="path-1"></path>
    </defs>
    <g id="Symbols" stroke="none" stroke-width="1" fill="none" fill-rule="evenodd">
        <g id="icon/ic_cam_2">
            <mask id="mask-2" fill="white">
                <use xlink:href="#path-1"></use>
            </mask>
            <use id="Combined-Shape" fill="#000000" xlink:href="#path-1"></use>
        </g>
    </g>
</svg>