<?xml version="1.0" encoding="UTF-8"?>
<svg width="24px" height="24px" viewBox="0 0 24 24" version="1.1" xmlns="http://www.w3.org/2000/svg" xmlns:xlink="http://www.w3.org/1999/xlink">
    <!-- Generator: Sketch 46.2 (44496) - http://www.bohemiancoding.com/sketch -->
    <title>icon/ic_color_2</title>
    <desc>Created with Sketch.</desc>
    <defs>
        <path d="M12,3 C7,3 3,7 3,12 C3,17 7,21 12,21 C12.8,21 13.5,20.3 13.5,19.5 C13.5,19.1 13.4,18.8 13.1,18.5 C12.9,18.2 12.7,17.9 12.7,17.5 C12.7,16.7 13.4,16 14.2,16 L16,16 C18.8,16 21,13.8 21,11 C21,6.6 17,3 12,3 L12,3 Z M6.5,12 C5.7,12 5,11.3 5,10.5 C5,9.7 5.7,9 6.5,9 C7.3,9 8,9.7 8,10.5 C8,11.3 7.3,12 6.5,12 L6.5,12 Z M9.5,8 C8.7,8 8,7.3 8,6.5 C8,5.7 8.7,5 9.5,5 C10.3,5 11,5.7 11,6.5 C11,7.3 10.3,8 9.5,8 L9.5,8 Z M14.5,8 C13.7,8 13,7.3 13,6.5 C13,5.7 13.7,5 14.5,5 C15.3,5 16,5.7 16,6.5 C16,7.3 15.3,8 14.5,8 L14.5,8 Z M17.5,12 C16.7,12 16,11.3 16,10.5 C16,9.7 16.7,9 17.5,9 C18.3,9 19,9.7 19,10.5 C19,11.3 18.3,12 17.5,12 L17.5,12 Z" id="path-1"></path>
    </defs>
    <g id="Symbols" stroke="none" stroke-width="1" fill="none" fill-rule="evenodd">
        <g id="icon/ic_color_2">
            <mask id="mask-2" fill="white">
                <use xlink:href="#path-1"></use>
            </mask>
            <use id="Shape" fill="#000000" xlink:href="#path-1"></use>
        </g>
    </g>
</svg>