<?xml version="1.0" encoding="UTF-8"?>
<svg width="24px" height="24px" viewBox="0 0 24 24" version="1.1" xmlns="http://www.w3.org/2000/svg" xmlns:xlink="http://www.w3.org/1999/xlink">
    <!-- Generator: Sketch 46.2 (44496) - http://www.bohemiancoding.com/sketch -->
    <title>icon/ic_clock</title>
    <desc>Created with Sketch.</desc>
    <defs>
        <path d="M11.9266667,2 C17.4793939,2 21.8260606,6.40763632 21.8260606,11.851799 C21.8260606,17.3229545 17.4793939,21.7311907 11.9266667,21.7311907 C6.39878788,21.7311907 2,17.3229545 2,11.851799 C2,6.40763632 6.39878788,2 11.9266667,2 Z M11.8730303,20.0453358 C16.4615152,20.0453358 20.2172727,16.3527107 20.2172727,11.8383025 C20.2172727,7.43066623 16.4615152,3.68585491 11.8730303,3.68585491 C7.25727273,3.68585491 3.60878788,7.43066623 3.60878788,11.8383025 C3.60878788,16.3527107 7.25727273,20.0453358 11.8730303,20.0453358 Z M11.6815152,5.82887701 C11.1427273,5.82887701 10.579697,5.32560988 10.579697,4.87452897 C10.579697,4.2626905 11.1427273,3.86559534 11.6815152,3.86559534 C12.1378788,3.86559534 12.7009091,4.2626905 12.7009091,4.87452897 C12.7009091,5.32560988 12.1378788,5.82887701 11.6815152,5.82887701 Z M11.5990909,17.1989287 C12.2421212,17.1989287 12.6184848,17.6506094 12.6184848,18.2864416 C12.6184848,18.8442943 12.2421212,19.2953752 11.5990909,19.2953752 C11.0881818,19.2953752 10.579697,18.8442943 10.579697,18.2864416 C10.579697,17.6506094 11.0881818,17.1989287 11.5990909,17.1989287 Z M18.3451515,10.532262 C18.8015152,10.532262 19.3124242,10.9317565 19.3124242,11.4896093 C19.3124242,11.9922765 18.8015152,12.4985429 18.3451515,12.4985429 C17.6475758,12.4985429 17.2463636,11.9922765 17.2463636,11.4896093 C17.2463636,10.9317565 17.6475758,10.532262 18.3451515,10.532262 Z M4.82515152,10.532262 C5.44333333,10.532262 5.89969697,11.0355291 5.89969697,11.592782 C5.89969697,11.9922765 5.44333333,12.5501293 4.82515152,12.5501293 C4.36878788,12.5501293 3.9130303,11.9922765 3.9130303,11.592782 C3.9130303,11.0355291 4.36878788,10.532262 4.82515152,10.532262 Z M16.1794526,6.46384929 C16.4212708,6.51843488 16.4764223,6.86334382 16.3691496,7.02110217 L12.1818769,12.2805136 C12.1297556,12.5198504 11.7806647,12.5198504 11.6188465,12.2805136 L8.533392,10.8720855 C8.29157382,10.7143271 8.18430109,10.4749903 8.29157382,10.1810679 C8.39824049,9.9693238 8.69521019,9.91713757 8.93702837,9.9693238 L11.7806647,11.4293383 L15.5643011,6.51843488 C15.6709678,6.35767732 15.9649072,6.22451248 16.1794526,6.46384929 Z" id="path-1"></path>
    </defs>
    <g id="Symbols" stroke="none" stroke-width="1" fill="none" fill-rule="evenodd">
        <g id="icon/ic_clock">
            <mask id="mask-2" fill="white">
                <use xlink:href="#path-1"></use>
            </mask>
            <use id="Mask" fill="#000000" xlink:href="#path-1"></use>
        </g>
    </g>
</svg>