<?xml version="1.0" encoding="UTF-8"?>
<svg width="24px" height="24px" viewBox="0 0 24 24" version="1.1" xmlns="http://www.w3.org/2000/svg" xmlns:xlink="http://www.w3.org/1999/xlink">
    <!-- Generator: Sketch 46.2 (44496) - http://www.bohemiancoding.com/sketch -->
    <title>icon/ic_camera</title>
    <desc>Created with Sketch.</desc>
    <defs>
        <path d="M17.5,10.5 C17.5,9.9485 17.9485,9.5 18.5,9.5 C19.0515,9.5 19.5,9.9485 19.5,10.5 C19.5,11.0515 19.0515,11.5 18.5,11.5 C17.9485,11.5 17.5,11.0515 17.5,10.5 L17.5,10.5 Z M12,16.5 C9.7945,16.5 8,14.7055 8,12.5 C8,10.2945 9.7945,8.5 12,8.5 C14.2055,8.5 16,10.2945 16,12.5 C16,14.7055 14.2055,16.5 12,16.5 L12,16.5 Z M12,7.5 C9.243,7.5 7,9.743 7,12.5 C7,15.257 9.243,17.5 12,17.5 C14.757,17.5 17,15.257 17,12.5 C17,9.743 14.757,7.5 12,7.5 L12,7.5 Z M12,14.5 C10.897,14.5 10,13.603 10,12.5 C10,11.397 10.897,10.5 12,10.5 C13.103,10.5 14,11.397 14,12.5 C14,13.603 13.103,14.5 12,14.5 L12,14.5 Z M12,9.5 C10.3455,9.5 9,10.8455 9,12.5 C9,14.1545 10.3455,15.5 12,15.5 C13.6545,15.5 15,14.1545 15,12.5 C15,10.8455 13.6545,9.5 12,9.5 L12,9.5 Z M20,18 L4,18 L4,9 L7,9 C7.4305,9 7.8125,8.7245 7.9485,8.3165 L8.7205,6 L15.279,6 L16.051,8.3165 C16.187,8.7245 16.569,9 16.9995,9 L20,9 L20,18 Z M4.2905,7 L5.2905,7 L5.2905,6.0405 L4.2905,6.0405 L4.2905,7 Z M21,7 L17.72,7 L16.948,4.6835 C16.812,4.2755 16.43,4 15.9995,4 L8,4 C7.5695,4 7.1875,4.2755 7.0515,4.6835 L6.2905,6.9665 L6.2905,5.5405 C6.2905,5.264 6.067,5.0405 5.7905,5.0405 L3.7905,5.0405 C3.514,5.0405 3.2905,5.264 3.2905,5.5405 L3.2905,7 L3,7 C2.448,7 2,7.448 2,8 L2,19 C2,19.552 2.448,20 3,20 L21,20 C21.552,20 22,19.552 22,19 L22,8 C22,7.448 21.552,7 21,7 L21,7 Z" id="path-1"></path>
    </defs>
    <g id="Symbols" stroke="none" stroke-width="1" fill="none" fill-rule="evenodd">
        <g id="icon/ic_camera">
            <mask id="mask-2" fill="white">
                <use xlink:href="#path-1"></use>
            </mask>
            <use id="Page-1" fill="#000000" xlink:href="#path-1"></use>
        </g>
    </g>
</svg>