<?xml version="1.0" encoding="UTF-8"?>
<svg width="24px" height="24px" viewBox="0 0 24 24" version="1.1" xmlns="http://www.w3.org/2000/svg" xmlns:xlink="http://www.w3.org/1999/xlink">
    <!-- Generator: Sketch 46.2 (44496) - http://www.bohemiancoding.com/sketch -->
    <title>icon/ic_change_up_down</title>
    <desc>Created with Sketch.</desc>
    <defs>
        <path d="M12.171125,7.1572 C12.171125,6.9012 12.268625,6.6457 12.464125,6.4502 L15.292625,3.6217 C15.683125,3.2307 16.316125,3.2307 16.706625,3.6217 L19.535625,6.4502 C19.926125,6.8407 19.926125,7.4737 19.535625,7.8642 C19.144625,8.2547 18.512125,8.2547 18.121125,7.8642 L16.499625,6.2427 L16.499625,20.3287 L15.499625,20.3287 L15.499625,6.2427 L13.878125,7.8642 C13.487625,8.2547 12.854625,8.2547 12.464125,7.8642 C12.268625,7.6687 12.171125,7.4132 12.171125,7.1572 Z M8.706775,21.03565 C8.316275,21.42615 7.683275,21.42615 7.292775,21.03565 L4.464275,18.20715 C4.268775,18.01165 4.171275,17.75565 4.171275,17.50015 C4.171275,17.24415 4.268775,16.98815 4.464275,16.79315 C4.854775,16.40215 5.487775,16.40215 5.878275,16.79315 L7.499775,18.41465 L7.499775,4.32865 L8.499775,4.32865 L8.499775,18.41465 L10.121275,16.79315 C10.511775,16.40215 11.144775,16.40215 11.535275,16.79315 C11.925775,17.18365 11.925775,17.81665 11.535275,18.20715 L8.706775,21.03565 Z" id="path-1"></path>
    </defs>
    <g id="Symbols" stroke="none" stroke-width="1" fill="none" fill-rule="evenodd">
        <g id="icon/ic_change_up_down">
            <mask id="mask-2" fill="white">
                <use xlink:href="#path-1"></use>
            </mask>
            <use id="Combined-Shape" fill="#000000" xlink:href="#path-1"></use>
        </g>
    </g>
</svg>