<?xml version="1.0" encoding="UTF-8"?>
<svg width="24px" height="24px" viewBox="0 0 24 24" version="1.1" xmlns="http://www.w3.org/2000/svg" xmlns:xlink="http://www.w3.org/1999/xlink">
    <!-- Generator: Sketch 46.2 (44496) - http://www.bohemiancoding.com/sketch -->
    <title>icon/ic_calendar</title>
    <desc>Created with Sketch.</desc>
    <defs>
        <path d="M15.5,18.0001 L18.5,18.0001 L18.5,16.0001 L15.5,16.0001 L15.5,18.0001 Z M10.5,18.0001 L13.5,18.0001 L13.5,16.0001 L10.5,16.0001 L10.5,18.0001 Z M5.5,18.0001 L8.5,18.0001 L8.5,16.0001 L5.5,16.0001 L5.5,18.0001 Z M15.5,15.0001 L18.5,15.0001 L18.5,13.0001 L15.5,13.0001 L15.5,15.0001 Z M10.5,15.0001 L13.5,15.0001 L13.5,13.0001 L10.5,13.0001 L10.5,15.0001 Z M5.5,15.0001 L8.5,15.0001 L8.5,13.0001 L5.5,13.0001 L5.5,15.0001 Z M20,10.0006 L4,10.0006 L4,7.0001 C4,6.4486 4.4485,6.0001 5,6.0001 L6.5,6.0001 L6.5,8.0001 C6.5,8.5521 6.948,9.0001 7.5,9.0001 C8.052,9.0001 8.5,8.5521 8.5,8.0001 L8.5,6.0001 L15.5,6.0001 L15.5,8.0001 C15.5,8.5521 15.948,9.0001 16.5,9.0001 C17.052,9.0001 17.5,8.5521 17.5,8.0001 L17.5,6.0001 L19,6.0001 C19.5515,6.0001 20,6.4486 20,7.0001 L20,10.0006 Z M20,19.0001 C20,19.5516 19.5515,20.0001 19,20.0001 L5,20.0001 C4.4485,20.0001 4,19.5516 4,19.0001 L4,11.0006 L20,11.0006 L20,19.0001 Z M19,4.0001 L17.5,4.0001 L17.5,3.0001 C17.5,2.4481 17.052,2.0001 16.5,2.0001 C15.948,2.0001 15.5,2.4481 15.5,3.0001 L15.5,4.0001 L8.5,4.0001 L8.5,3.0001 C8.5,2.4481 8.052,2.0001 7.5,2.0001 C6.948,2.0001 6.5,2.4481 6.5,3.0001 L6.5,4.0001 L5,4.0001 C3.3455,4.0001 2,5.3456 2,7.0001 L2,19.0001 C2,20.6546 3.3455,22.0001 5,22.0001 L19,22.0001 C20.6545,22.0001 22,20.6546 22,19.0001 L22,7.0001 C22,5.3456 20.6545,4.0001 19,4.0001 L19,4.0001 Z" id="path-1"></path>
    </defs>
    <g id="Symbols" stroke="none" stroke-width="1" fill="none" fill-rule="evenodd">
        <g id="icon/ic_calendar">
            <mask id="mask-2" fill="white">
                <use xlink:href="#path-1"></use>
            </mask>
            <use id="Page-1" fill="#000000" xlink:href="#path-1"></use>
        </g>
    </g>
</svg>