<?xml version="1.0" encoding="UTF-8"?>
<svg width="24px" height="24px" viewBox="0 0 24 24" version="1.1" xmlns="http://www.w3.org/2000/svg" xmlns:xlink="http://www.w3.org/1999/xlink">
    <!-- Generator: Sketch 46.2 (44496) - http://www.bohemiancoding.com/sketch -->
    <title>icon/ic_cam_1</title>
    <desc>Created with Sketch.</desc>
    <defs>
        <path d="M2,6 L22,6 L22,4 L2,4 L2,6 Z M20,11 C20,15.411 16.411,19 12,19 C7.589,19 4,15.411 4,11 L4,9 L20,9 L20,11 Z M21,7 L3,7 C2.448,7 2,7.448 2,8 L2,11 C2,16.514 6.486,21 12,21 C17.514,21 22,16.514 22,11 L22,8 C22,7.448 21.552,7 21,7 L21,7 Z M12,11 C13.6545,11 15,12.3455 15,14 C15,15.6545 13.6545,17 12,17 C10.3455,17 9,15.6545 9,14 C9,12.3455 10.3455,11 12,11 M12,18 C14.2055,18 16,16.2055 16,14 C16,11.7945 14.2055,10 12,10 C9.7945,10 8,11.7945 8,14 C8,16.2055 9.7945,18 12,18 M12,15.5 C12.8285,15.5 13.5,14.8285 13.5,14 C13.5,13.1715 12.8285,12.5 12,12.5 C11.1715,12.5 10.5,13.1715 10.5,14 C10.5,14.8285 11.1715,15.5 12,15.5" id="path-1"></path>
    </defs>
    <g id="Symbols" stroke="none" stroke-width="1" fill="none" fill-rule="evenodd">
        <g id="icon/ic_cam_1">
            <mask id="mask-2" fill="white">
                <use xlink:href="#path-1"></use>
            </mask>
            <use id="Combined-Shape" fill="#000000" xlink:href="#path-1"></use>
        </g>
    </g>
</svg>