<?xml version="1.0" encoding="UTF-8"?>
<svg width="24px" height="24px" viewBox="0 0 24 24" version="1.1" xmlns="http://www.w3.org/2000/svg" xmlns:xlink="http://www.w3.org/1999/xlink">
    <!-- Generator: Sketch 46.2 (44496) - http://www.bohemiancoding.com/sketch -->
    <title>icon/ic_cancel</title>
    <desc>Created with Sketch.</desc>
    <defs>
        <path d="M12,19 C8.14,19 5,15.86 5,12 C5,8.14 8.14,5 12,5 C15.86,5 19,8.14 19,12 C19,15.86 15.86,19 12,19 M12,3 C7.0295,3 3,7.0295 3,12 C3,16.9705 7.0295,21 12,21 C16.9705,21 21,16.9705 21,12 C21,7.0295 16.9705,3 12,3 M15.18215,8.11085 L12.00015,11.29285 L8.81765,8.11085 L8.11065,8.81785 L11.29315,11.99985 L8.11065,15.18235 L8.81765,15.88935 L12.00015,12.70685 L15.18215,15.88935 L15.88915,15.18235 L12.70715,11.99985 L15.88915,8.81785 L15.18215,8.11085 Z" id="path-1"></path>
    </defs>
    <g id="Symbols" stroke="none" stroke-width="1" fill="none" fill-rule="evenodd">
        <g id="icon/ic_cancel">
            <mask id="mask-2" fill="white">
                <use xlink:href="#path-1"></use>
            </mask>
            <use id="Combined-Shape" fill="#231815" xlink:href="#path-1"></use>
        </g>
    </g>
</svg>