<?xml version="1.0" encoding="UTF-8"?>
<svg width="24px" height="24px" viewBox="0 0 24 24" version="1.1" xmlns="http://www.w3.org/2000/svg" xmlns:xlink="http://www.w3.org/1999/xlink">
    <!-- Generator: Sketch 46.2 (44496) - http://www.bohemiancoding.com/sketch -->
    <title>icon/ic_cloud</title>
    <desc>Created with Sketch.</desc>
    <defs>
        <path d="M12,7 C10.2715,7 8.7,7.9545 7.8995,9.4915 C7.7445,9.789 7.4515,9.989 7.1185,10.0245 C5.341,10.2135 4,11.7075 4,13.5 C4,15.4295 5.5705,17 7.5,17 L17.25,17 C18.766,17 20,15.766 20,14.25 C20,12.823 18.877,11.627 17.4435,11.5275 C16.9925,11.496 16.619,11.1665 16.5315,10.723 C16.106,8.566 14.2,7 12,7 M17.25,19 L7.5,19 C4.4675,19 2,16.5325 2,13.5 C2,10.861 3.8505,8.633 6.384,8.116 C7.59,6.1815 9.6975,5 12,5 C14.9115,5 17.4635,6.9135 18.3175,9.6415 C20.433,10.128 22,12.027 22,14.25 C22,16.869 19.869,19 17.25,19" id="path-1"></path>
    </defs>
    <g id="Symbols" stroke="none" stroke-width="1" fill="none" fill-rule="evenodd">
        <g id="icon/ic_cloud">
            <mask id="mask-2" fill="white">
                <use xlink:href="#path-1"></use>
            </mask>
            <use id="Page-1" fill="#000000" xlink:href="#path-1"></use>
        </g>
    </g>
</svg>