<?xml version="1.0" encoding="UTF-8"?>
<svg width="24px" height="24px" viewBox="0 0 24 24" version="1.1" xmlns="http://www.w3.org/2000/svg" xmlns:xlink="http://www.w3.org/1999/xlink">
    <!-- Generator: Sketch 46.2 (44496) - http://www.bohemiancoding.com/sketch -->
    <title>icon/ic_coupon</title>
    <desc>Created with Sketch.</desc>
    <defs>
        <path d="M13.60105,8.9912 L9.78205,15.1037 L10.54505,15.5062 L14.36355,9.3942 L13.60105,8.9912 Z M9.6211,10.18895 L9.6211,9.77545 C9.6211,9.56795 9.6771,9.39145 9.7906,9.24595 C9.9026,9.10145 10.0651,9.02895 10.2766,9.02895 C10.4876,9.02895 10.6506,9.10145 10.7651,9.24595 C10.8801,9.39145 10.9371,9.56795 10.9371,9.77545 L10.9371,10.18895 C10.9371,10.39645 10.8806,10.57145 10.7681,10.71295 C10.6546,10.85395 10.4946,10.92495 10.2871,10.92495 C10.0721,10.92495 9.9076,10.85395 9.7931,10.71295 C9.6781,10.57145 9.6211,10.39645 9.6211,10.18895 M11.5331,11.33845 C11.8306,11.03395 11.9791,10.65095 11.9791,10.18895 L11.9791,9.77545 C11.9791,9.30995 11.8306,8.92395 11.5331,8.61795 C11.2356,8.31145 10.8171,8.15845 10.2766,8.15845 C9.7426,8.15845 9.3266,8.31245 9.0276,8.62045 C8.7286,8.92845 8.5791,9.31345 8.5791,9.77545 L8.5791,10.18895 C8.5791,10.65095 8.7296,11.03395 9.0301,11.33845 C9.3311,11.64245 9.7501,11.79495 10.2871,11.79495 C10.8206,11.79495 11.2356,11.64245 11.5331,11.33845 M14.68065,14.5879 C14.68065,14.8134 14.63015,14.9934 14.53015,15.1279 C14.43015,15.2619 14.26365,15.3289 14.03065,15.3289 C13.83015,15.3289 13.66865,15.2569 13.54465,15.1114 C13.42115,14.9669 13.35915,14.7919 13.35915,14.5879 L13.35915,14.1744 C13.35915,13.9704 13.41565,13.7959 13.52865,13.6504 C13.64115,13.5059 13.80515,13.4329 14.02015,13.4329 C14.23165,13.4329 14.39415,13.5059 14.50865,13.6504 C14.62365,13.7959 14.68065,13.9704 14.68065,14.1744 L14.68065,14.5879 Z M14.02015,12.5629 C13.48615,12.5629 13.06915,12.7169 12.76865,13.0249 C12.46765,13.3329 12.31715,13.7159 12.31715,14.1744 L12.31715,14.5879 C12.31715,15.0499 12.46865,15.4334 12.77115,15.7404 C13.07365,16.0459 13.49365,16.1994 14.03065,16.1994 C14.56465,16.1994 14.97965,16.0469 15.27665,15.7429 C15.57415,15.4384 15.72265,15.0534 15.72265,14.5879 L15.72265,14.1744 C15.72265,13.7124 15.57315,13.3279 15.27415,13.0224 C14.97515,12.7159 14.55715,12.5629 14.02015,12.5629 L14.02015,12.5629 Z M20,14.855 L20,17 L4,17 L4,14.855 C5.304,14.4645 6.25,13.3325 6.25,12 C6.25,10.6675 5.304,9.5355 4,9.145 L4,7 L20,7 L20,9.145 C18.696,9.5355 17.75,10.6675 17.75,12 C17.75,13.3325 18.696,14.4645 20,14.855 M21,11 C21.552,11 22,10.5525 22,10 L22,6 C22,5.448 21.552,5 21,5 L3,5 C2.448,5 2,5.448 2,6 L2,10 C2,10.5525 2.448,11 3,11 C3.6895,11 4.25,11.449 4.25,12 C4.25,12.5515 3.6895,13 3,13 C2.448,13 2,13.448 2,14 L2,18 C2,18.5525 2.448,19 3,19 L21,19 C21.552,19 22,18.5525 22,18 L22,14 C22,13.448 21.552,13 21,13 C20.3105,13 19.75,12.5515 19.75,12 C19.75,11.449 20.3105,11 21,11" id="path-1"></path>
    </defs>
    <g id="Symbols" stroke="none" stroke-width="1" fill="none" fill-rule="evenodd">
        <g id="icon/ic_coupon">
            <mask id="mask-2" fill="white">
                <use xlink:href="#path-1"></use>
            </mask>
            <use id="Combined-Shape" fill="#000000" xlink:href="#path-1"></use>
        </g>
    </g>
</svg>