<?xml version="1.0" encoding="UTF-8"?>
<svg width="24px" height="24px" viewBox="0 0 24 24" version="1.1" xmlns="http://www.w3.org/2000/svg" xmlns:xlink="http://www.w3.org/1999/xlink">
    <!-- Generator: Sketch 46.2 (44496) - http://www.bohemiancoding.com/sketch -->
    <title>icon/ic_car_2</title>
    <desc>Created with Sketch.</desc>
    <defs>
        <path d="M15.4186365,14.5 C15.4186365,15.3285 16.0750147,16 16.8837664,16 C17.6930064,16 18.3488963,15.3285 18.3488963,14.5 C18.3488963,13.6715 17.6930064,13 16.8837664,13 C16.0750147,13 15.4186365,13.6715 15.4186365,14.5 M19.3256495,17 L4.67435046,17 L4.67435046,13.112 L6.29478414,5.8025 C6.38611057,5.3375 6.78804454,5 7.25151397,5 L16.748486,5 C17.2119555,5 17.6138894,5.3375 17.7100996,5.828 L19.3256495,13.112 L19.3256495,17 Z M20.7038484,10.295 L22,9.9395 L21.7470209,8.9735 L20.4874976,9.319 L19.620629,5.41 C19.3476265,4.0135 18.1393827,3 16.748486,3 L7.25151397,3 C5.86061731,3 4.65237351,4.0135 4.38474311,5.385 L3.51250244,9.319 L2.2529791,8.9735 L2,9.9395 L3.29615159,10.295 L2.74526275,12.7785 C2.72914632,12.8515 2.72084391,12.9255 2.72084391,13 L2.72084391,18 C2.72084391,18.552 3.15842938,19 3.69759719,19 L4.67435046,19 L4.67435046,20.5 C4.67435046,20.776 4.89265482,21 5.1627271,21 L7.11623364,21 C7.38630592,21 7.60461028,20.776 7.60461028,20.5 L7.60461028,19 L16.3953897,19 L16.3953897,20.5 C16.3953897,20.776 16.6136941,21 16.8837664,21 L18.8372729,21 C19.1073452,21 19.3256495,20.776 19.3256495,20.5 L19.3256495,19 L20.3024028,19 C20.8415706,19 21.2791561,18.552 21.2791561,18 L21.2791561,13 C21.2791561,12.9255 21.2708537,12.8515 21.2547373,12.7785 L20.7038484,10.295 Z M7.11623364,13 C7.92498535,13 8.58136355,13.6715 8.58136355,14.5 C8.58136355,15.3285 7.92498535,16 7.11623364,16 C6.30699355,16 5.65110373,15.3285 5.65110373,14.5 C5.65110373,13.6715 6.30699355,13 7.11623364,13 Z M6.13967572,12 L6.13967572,11 L17.860715,11 L17.860715,12 L6.13967572,12 Z" id="path-1"></path>
    </defs>
    <g id="Symbols" stroke="none" stroke-width="1" fill="none" fill-rule="evenodd">
        <g id="icon/ic_car_2">
            <mask id="mask-2" fill="white">
                <use xlink:href="#path-1"></use>
            </mask>
            <use id="Fill-1" fill="#000000" xlink:href="#path-1"></use>
        </g>
    </g>
</svg>