<?xml version="1.0" encoding="UTF-8"?>
<svg width="24px" height="24px" viewBox="0 0 24 24" version="1.1" xmlns="http://www.w3.org/2000/svg" xmlns:xlink="http://www.w3.org/1999/xlink">
    <!-- Generator: Sketch 46.2 (44496) - http://www.bohemiancoding.com/sketch -->
    <title>icon/ic_data_export</title>
    <desc>Created with Sketch.</desc>
    <defs>
        <path d="M12.3565,3.14899876 L15.8565,6.70446913 C15.9975,6.84846793 16.039,7.06296614 15.961,7.2484646 C15.8835,7.43446305 15.7015,7.55546204 15.5,7.55546204 L13.8125,7.55546204 L13.8125,11.999925 C13.8125,12.2759227 13.589,12.4999208 13.3125,12.4999208 L10.6875,12.4999208 C10.411,12.4999208 10.1875,12.2759227 10.1875,11.999925 L10.1875,7.55546204 L8.5,7.55546204 C8.2985,7.55546204 8.1165,7.43446305 8.039,7.2484646 C7.961,7.06296614 8.0025,6.84846793 8.1435,6.70446913 L11.6435,3.14899876 C11.738,3.05349955 11.866,3 12,3 C12.134,3 12.262,3.05349955 12.3565,3.14899876 Z M13.3125,6.34297214 L14.306,6.34297214 L12,3.99999167 L9.694,6.34297214 L10.6875,6.34297214 C10.964,6.34297214 11.1875,6.56697028 11.1875,6.84296798 L11.1875,11.2874309 L12.8125,11.2874309 L12.8125,6.84296798 C12.8125,6.56697028 13.036,6.34297214 13.3125,6.34297214 Z M5,19.0000167 L19,19.0000167 L19,15.00005 L15.8735,15.00005 C15.428,16.7235356 13.8605,18.000025 12,18.000025 C10.1395,18.000025 8.572,16.7235356 8.1265,15.00005 L5,15.00005 L5,19.0000167 Z M20.8945,13.5525621 C20.964,13.6915609 21,13.8445596 21,14.0000583 L21,20.0000083 C21,20.5520037 20.552,21 20,21 L4,21 C3.448,21 3,20.5520037 3,20.0000083 L3,14.0000583 C3,13.8445596 3.036,13.6915609 3.1055,13.5525621 L5.6055,8.55260373 C5.8525,8.05960784 6.4515,7.85810952 6.9475,8.10560745 C7.4415,8.35260539 7.6415,8.95310039 7.3945,9.44759627 L5.618,13.0000667 L9,13.0000667 C9.552,13.0000667 10,13.4480629 10,14.0000583 C10,15.1030491 10.897,16.0000417 12,16.0000417 C13.103,16.0000417 14,15.1030491 14,14.0000583 C14,13.4480629 14.448,13.0000667 15,13.0000667 L18.382,13.0000667 L16.6055,9.44759627 C16.3585,8.95310039 16.5585,8.35260539 17.0525,8.10560745 C17.548,7.85810952 18.148,8.05960784 18.3945,8.55260373 L20.8945,13.5525621 Z" id="path-1"></path>
    </defs>
    <g id="Symbols" stroke="none" stroke-width="1" fill="none" fill-rule="evenodd">
        <g id="icon/ic_data_export">
            <mask id="mask-2" fill="white">
                <use xlink:href="#path-1"></use>
            </mask>
            <use id="Combined-Shape" fill="#000000" xlink:href="#path-1"></use>
        </g>
    </g>
</svg>