<?xml version="1.0" encoding="iso-8859-1"?>
<!-- Generator: Adobe Illustrator 23.0.2, SVG Export Plug-In . SVG Version: 6.00 Build 0)  -->
<svg version="1.1" id="&#x5716;&#x5C64;_1" xmlns="http://www.w3.org/2000/svg" xmlns:xlink="http://www.w3.org/1999/xlink" x="0px"
	 y="0px" viewBox="0 0 24 24" style="enable-background:new 0 0 24 24;" xml:space="preserve">
<title>icon/ic_duplicate</title>
<desc>Created with Sketch.</desc>
<g>
	<g id="fa-file-o">
		<path style="fill-rule:evenodd;clip-rule:evenodd;" d="M19.821,6.714C20.472,6.714,21,7.242,21,7.893v11.929
			C21,20.472,20.472,21,19.821,21h-9.786c-0.651,0-1.179-0.528-1.179-1.179v-2.536H4.179C3.528,17.286,3,16.758,3,16.107v-5.25
			c0-1.3,0-2.964,0.906-3.894l3.342-3.183C8.102,2.873,10.206,3,10.857,3h3.107c0.651,0,1.179,0.528,1.179,1.179v3.027
			c0.479-0.282,1.093-0.491,1.571-0.491H19.821z M10.41,12.094l2.812-2.856V4.879H9.635v3.577c0,0.651-0.528,1.179-1.179,1.179
			H4.971v5.629h4.728V13.82C9.699,13.169,9.956,12.548,10.41,12.094z M14.609,9.113l-3.5,3.503c1.252-0.013,2.144-0.013,2.677,0
			c0.533,0.013,0.809-0.243,0.829-0.765L14.609,9.113z M18.891,18.97V8.583h-3.313v3.756c0,0.651-0.528,1.179-1.179,1.179h-3.627
			v5.452H18.891z M8.716,5.215l-3.5,3.503c1.252-0.013,2.144-0.013,2.677,0s0.809-0.243,0.829-0.765L8.716,5.215z"/>
	</g>
</g>
</svg>
