<?xml version="1.0" encoding="iso-8859-1"?>
<!-- Generator: Adobe Illustrator 23.0.2, SVG Export Plug-In . SVG Version: 6.00 Build 0)  -->
<svg version="1.1" id="&#x5716;&#x5C64;_1" xmlns="http://www.w3.org/2000/svg" xmlns:xlink="http://www.w3.org/1999/xlink" x="0px"
	 y="0px" viewBox="0 0 24 24" style="enable-background:new 0 0 24 24;" xml:space="preserve">
<title>icon/ic_data_upload_2</title>
<desc>Created with Sketch.</desc>
<g>
	<g id="Combined-Shape">
		<path style="fill-rule:evenodd;clip-rule:evenodd;" d="M18,16.925c-0.466,0-0.882-0.326-0.979-0.801
			c-0.11-0.541,0.24-1.069,0.781-1.179C19.075,14.686,20,13.552,20,12.25c0-1.427-1.123-2.623-2.556-2.722
			c-0.451-0.031-0.825-0.361-0.912-0.804C16.106,6.566,14.2,5,12,5c-1.729,0-3.3,0.955-4.101,2.492
			C7.745,7.79,7.451,7.989,7.119,8.024C5.341,8.214,4,9.708,4,11.5c0,1.476,0.938,2.8,2.335,3.295
			c0.521,0.184,0.793,0.757,0.608,1.277c-0.184,0.52-0.754,0.792-1.277,0.608C3.473,15.903,2,13.821,2,11.5
			c0-2.639,1.851-4.867,4.384-5.384C7.59,4.182,9.698,3,12,3c2.911,0,5.463,1.914,6.317,4.642C20.433,8.128,22,10.027,22,12.25
			c0,2.249-1.598,4.206-3.801,4.655C18.133,16.919,18.066,16.925,18,16.925z M12.744,9.81l3.12,3.161
			c0.411,0.413,0.411,1.084,0,1.497c-0.41,0.413-1.076,0.413-1.487,0l-1.851-1.883V21.5h-1.052v-8.914l-1.851,1.883
			c-0.411,0.413-1.077,0.413-1.487,0c-0.411-0.413-0.411-1.084,0-1.497l3.12-3.161C11.667,9.396,12.333,9.396,12.744,9.81z"/>
	</g>
</g>
</svg>
