<?xml version="1.0" encoding="UTF-8"?>
<svg width="24px" height="24px" viewBox="0 0 24 24" version="1.1" xmlns="http://www.w3.org/2000/svg" xmlns:xlink="http://www.w3.org/1999/xlink">
    <!-- Generator: Sketch 46.2 (44496) - http://www.bohemiancoding.com/sketch -->
    <title>icon/ic_dollar</title>
    <desc>Created with Sketch.</desc>
    <defs>
        <path d="M12,19 C8.14,19 5,15.86 5,12 C5,8.14 8.14,5 12,5 C15.86,5 19,8.14 19,12 C19,15.86 15.86,19 12,19 M12,3 C7.0375,3 3,7.0375 3,12 C3,16.9625 7.0375,21 12,21 C16.9625,21 21,16.9625 21,12 C21,7.0375 16.9625,3 12,3 M12.33445,11.35305 C11.84245,11.14605 11.50945,10.95255 11.33545,10.77305 C11.16145,10.59305 11.07445,10.35305 11.07445,10.05205 C11.07445,9.72805 11.15695,9.47005 11.32095,9.27905 C11.48495,9.08755 11.75045,8.99155 12.11745,8.99155 C12.46545,8.99155 12.73595,9.10605 12.92895,9.33455 C13.12245,9.56305 13.21945,9.89005 13.21945,10.31605 L14.88895,10.31605 L14.90095,10.28655 C14.91245,9.56405 14.71945,8.97705 14.32095,8.52605 C13.92245,8.07455 13.37145,7.80055 12.66845,7.70255 L12.66845,6.43105 L11.73695,6.43105 L11.73695,7.68505 C11.00645,7.75955 10.42795,8.00655 10.00245,8.42605 C9.57645,8.84605 9.36395,9.38605 9.36395,10.04655 C9.36395,10.76105 9.57645,11.31605 10.00245,11.71055 C10.42795,12.10505 11.08245,12.45055 11.96545,12.74755 C12.43395,12.92705 12.76045,13.11355 12.94395,13.30705 C13.12745,13.50055 13.21945,13.75755 13.21945,14.07755 C13.21945,14.40205 13.12345,14.65755 12.93195,14.84505 C12.74045,15.03255 12.45345,15.12655 12.07095,15.12655 C11.67995,15.12655 11.36295,15.02005 11.11845,14.80705 C10.87445,14.59405 10.75245,14.23805 10.75245,13.73805 L9.08845,13.73805 L9.07095,13.77305 C9.05495,14.60905 9.28845,15.24255 9.77095,15.67455 C10.25345,16.10605 10.86945,16.35505 11.61945,16.42155 L11.61945,17.57555 L12.55145,17.57555 L12.55145,16.42155 C13.28545,16.34705 13.86495,16.10605 14.28845,15.69755 C14.71245,15.28955 14.92445,14.74555 14.92445,14.06605 C14.92445,13.35505 14.70945,12.79555 14.27995,12.38705 C13.84995,11.97905 13.20145,11.63405 12.33445,11.35305" id="path-1"></path>
    </defs>
    <g id="Symbols" stroke="none" stroke-width="1" fill="none" fill-rule="evenodd">
        <g id="icon/ic_dollar">
            <mask id="mask-2" fill="white">
                <use xlink:href="#path-1"></use>
            </mask>
            <use id="Combined-Shape" fill="#000000" xlink:href="#path-1"></use>
        </g>
    </g>
</svg>