<?xml version="1.0" encoding="UTF-8"?>
<svg width="24px" height="24px" viewBox="0 0 24 24" version="1.1" xmlns="http://www.w3.org/2000/svg" xmlns:xlink="http://www.w3.org/1999/xlink">
    <!-- Generator: Sketch 46.2 (44496) - http://www.bohemiancoding.com/sketch -->
    <title>icon/ic_data_import</title>
    <desc>Created with Sketch.</desc>
    <defs>
        <path d="M11.6435,12.351 C11.738,12.4465 11.866,12.5 12,12.5 C12.134,12.5 12.262,12.4465 12.3565,12.351 L15.8565,8.7955 C15.9975,8.6515 16.039,8.437 15.961,8.2515 C15.8835,8.0655 15.7015,7.9445 15.5,7.9445 L13.8125,7.9445 L13.8125,3.5 C13.8125,3.224 13.589,3 13.3125,3 L10.6875,3 C10.411,3 10.1875,3.224 10.1875,3.5 L10.1875,7.9445 L8.5,7.9445 C8.2985,7.9445 8.1165,8.0655 8.039,8.2515 C7.961,8.437 8.0025,8.6515 8.1435,8.7955 L11.6435,12.351 Z M10.6875,8.9445 C10.964,8.9445 11.1875,8.7205 11.1875,8.4445 L11.1875,4 L12.8125,4 L12.8125,8.4445 C12.8125,8.7205 13.036,8.9445 13.3125,8.9445 L14.306,8.9445 L12,11.2875 L9.694,8.9445 L10.6875,8.9445 Z M5,19.00015 L5,15.00015 L8.1265,15.00015 C8.572,16.72365 10.1395,18.00015 12,18.00015 C13.8605,18.00015 15.428,16.72365 15.8735,15.00015 L19,15.00015 L19,19.00015 L5,19.00015 Z M20.8945,13.55265 L18.3945,8.55265 C18.148,8.05965 17.548,7.85815 17.0525,8.10565 C16.5585,8.35265 16.3585,8.95315 16.6055,9.44765 L18.382,13.00015 L15,13.00015 C14.448,13.00015 14,13.44815 14,14.00015 C14,15.10315 13.103,16.00015 12,16.00015 C10.897,16.00015 10,15.10315 10,14.00015 C10,13.44815 9.552,13.00015 9,13.00015 L5.618,13.00015 L7.3945,9.44765 C7.6415,8.95315 7.4415,8.35265 6.9475,8.10565 C6.4515,7.85815 5.8525,8.05965 5.6055,8.55265 L3.1055,13.55265 C3.036,13.69165 3,13.84465 3,14.00015 L3,20.00015 C3,20.55215 3.448,21.00015 4,21.00015 L20,21.00015 C20.552,21.00015 21,20.55215 21,20.00015 L21,14.00015 C21,13.84465 20.964,13.69165 20.8945,13.55265 L20.8945,13.55265 Z" id="path-1"></path>
    </defs>
    <g id="Symbols" stroke="none" stroke-width="1" fill="none" fill-rule="evenodd">
        <g id="icon/ic_data_import">
            <mask id="mask-2" fill="white">
                <use xlink:href="#path-1"></use>
            </mask>
            <use id="Combined-Shape" fill="#000000" xlink:href="#path-1"></use>
        </g>
    </g>
</svg>