<?xml version="1.0" encoding="UTF-8"?>
<svg width="24px" height="24px" viewBox="0 0 24 24" version="1.1" xmlns="http://www.w3.org/2000/svg" xmlns:xlink="http://www.w3.org/1999/xlink">
    <!-- Generator: Sketch 46.2 (44496) - http://www.bohemiancoding.com/sketch -->
    <title>icon/ic_dashboard</title>
    <desc>Created with Sketch.</desc>
    <defs>
        <path d="M12,4 C18.065148,4 23,9.3255 23,14.129 C23,21 15.0088511,21 12,21 C8.99164308,21 1,21 1,14.129 C1,9.3255 5.93485196,4 12,4 Z M12,19 C18.324617,19 21.0230939,17.5435 21.0230939,14.129 C21.0230939,10.447 16.998113,6 12,6 C7.00188705,6 2.97690614,10.447 2.97690614,14.129 C2.97690614,17.5435 5.67538303,19 12,19 Z M12.7104506,15.1909 C13.1685986,15.4464 13.4824325,15.9334 13.4824325,16.4999 C13.4824325,17.3284 12.8191805,17.9999 12.0002471,17.9999 C11.1813137,17.9999 10.5175675,17.3284 10.5175675,16.4999 C10.5175675,15.9334 10.8314014,15.4464 11.2895494,15.1909 L11.7625241,11.2154 C11.7941546,10.9289 12.2058454,10.9289 12.2379701,11.2154 L12.7104506,15.1909 Z M12,9.5 C11.7266927,9.5 11.5057735,9.2765 11.5057735,9 L11.5057735,7 C11.5057735,6.7235 11.7266927,6.5 12,6.5 C12.2733073,6.5 12.4942265,6.7235 12.4942265,7 L12.4942265,9 C12.4942265,9.2765 12.2733073,9.5 12,9.5 Z M6.75803567,8.98975 L8.15570832,10.40375 C8.34895089,10.59925 8.34895089,10.91575 8.15570832,11.11075 C8.05933414,11.20825 7.93281215,11.25725 7.80629016,11.25725 C7.67976816,11.25725 7.55324617,11.20825 7.456872,11.11075 L6.05919935,9.69675 C5.86595678,9.50125 5.86595678,9.18525 6.05919935,8.98975 C6.25244193,8.79425 6.5647931,8.79425 6.75803567,8.98975 Z M6.06928157,14.5 C6.34258885,14.5 6.56350811,14.7235 6.56350811,15 C6.56350811,15.2765 6.34258885,15.5 6.06928157,15.5 L4.09237543,15.5 C3.81906816,15.5 3.5981489,15.2765 3.5981489,15 C3.5981489,14.7235 3.81906816,14.5 4.09237543,14.5 L6.06928157,14.5 Z M17.4364919,15 C17.4364919,14.7235 17.6574112,14.5 17.9307184,14.5 L19.9076246,14.5 C20.1809318,14.5 20.4018511,14.7235 20.4018511,15 C20.4018511,15.2765 20.1809318,15.5 19.9076246,15.5 L17.9307184,15.5 C17.6574112,15.5 17.4364919,15.2765 17.4364919,15 Z M17.9408501,8.98975 C18.1340926,9.18525 18.1340926,9.50125 17.9408501,9.69675 L16.5431774,11.11075 C16.4468033,11.20825 16.3202813,11.25725 16.1937593,11.25725 C16.0672373,11.25725 15.9407153,11.20825 15.8443411,11.11075 C15.6510985,10.91575 15.6510985,10.59925 15.8443411,10.40375 L17.2420137,8.98975 C17.4352563,8.79425 17.7476075,8.79425 17.9408501,8.98975 Z" id="path-1"></path>
    </defs>
    <g id="Symbols" stroke="none" stroke-width="1" fill="none" fill-rule="evenodd">
        <g id="icon/ic_dashboard">
            <mask id="mask-2" fill="white">
                <use xlink:href="#path-1"></use>
            </mask>
            <use id="Combined-Shape" fill="#000000" xlink:href="#path-1"></use>
        </g>
    </g>
</svg>