<?xml version="1.0" encoding="iso-8859-1"?>
<!-- Generator: Adobe Illustrator 23.0.2, SVG Export Plug-In . SVG Version: 6.00 Build 0)  -->
<svg version="1.1" id="&#x5716;&#x5C64;_1" xmlns="http://www.w3.org/2000/svg" xmlns:xlink="http://www.w3.org/1999/xlink" x="0px"
	 y="0px" viewBox="0 0 24 24" style="enable-background:new 0 0 24 24;" xml:space="preserve">
<title>icon/ic_eye</title>
<desc>Created with Sketch.</desc>
<g>
	<g id="Combined-Shape">
		<path style="fill-rule:evenodd;clip-rule:evenodd;" d="M12,4c4.937,0,9.054,3.436,10,8c-0.946,4.565-5.063,8-10,8
			s-9.054-3.435-10-8C2.946,7.436,7.063,4,12,4z M12,18c3.748,0,7.023-2.499,7.947-6C19.023,8.499,15.748,6,12,6
			s-7.023,2.499-7.946,6C4.977,15.501,8.252,18,12,18z M12,8c2.209,0,4,1.791,4,4s-1.791,4-4,4s-4-1.791-4-4S9.791,8,12,8z M12,15
			c1.655,0,3-1.345,3-3s-1.345-3-3-3s-3,1.345-3,3S10.345,15,12,15z"/>
	</g>
</g>
</svg>
