<?xml version="1.0" encoding="iso-8859-1"?>
<!-- Generator: Adobe Illustrator 23.0.2, SVG Export Plug-In . SVG Version: 6.00 Build 0)  -->
<svg version="1.1" id="&#x5716;&#x5C64;_1" xmlns="http://www.w3.org/2000/svg" xmlns:xlink="http://www.w3.org/1999/xlink" x="0px"
	 y="0px" viewBox="0 0 24 24" style="enable-background:new 0 0 24 24;" xml:space="preserve">
<title>icon/ic_edit</title>
<desc>Created with Sketch.</desc>
<g>
	<g id="Combined-Shape">
		<path style="fill-rule:evenodd;clip-rule:evenodd;" d="M19.953,8.788c0,0.526-0.223,1.03-0.62,1.402l-8.979,8.415
			c-0.295,0.277-0.671,0.466-1.081,0.542l-3.741,0.702c-0.138,0.025-0.277,0.038-0.415,0.038c-0.556,0-1.095-0.205-1.496-0.581
			c-0.5-0.469-0.717-1.141-0.579-1.791l0.748-3.507c0.083-0.384,0.283-0.736,0.579-1.013l8.979-8.414C13.76,4.193,14.302,4,14.843,4
			c0.542,0,1.084,0.193,1.497,0.581l2.993,2.805C19.73,7.758,19.953,8.262,19.953,8.788z M17.088,9.489l0.748-0.701l-2.993-2.805
			l-8.979,8.414l-0.749,3.507l3.741-0.701l-2.993-2.805l0.748-0.701l2.993,2.805l6.735-6.311l-2.993-2.804l0.748-0.701L17.088,9.489
			z M12.535,20v-0.992H21V20H12.535z"/>
	</g>
</g>
</svg>
