<?xml version="1.0" encoding="UTF-8"?>
<svg width="24px" height="24px" viewBox="0 0 24 24" version="1.1" xmlns="http://www.w3.org/2000/svg" xmlns:xlink="http://www.w3.org/1999/xlink">
    <!-- Generator: Sketch 46.2 (44496) - http://www.bohemiancoding.com/sketch -->
    <title>icon/ic_floorplan</title>
    <desc>Created with Sketch.</desc>
    <defs>
        <path d="M15.5,14 C15.5,14.276 15.727,14.5 16.0035,14.5 L19,14.5 L19,19 L14,19 L14,14 C14,13.724 13.7765,13.5 13.5,13.5 L11.5,13.5 L11.5,14.5 L13,14.5 L13,19 L5,19 L5,14.5 L8,14.5 L8,13.5 L5,13.5 L5,5 L13,5 L13,8 L13,10.5 L14,10.5 L14,9 L19,9 L19,9.616 C16.999,10.0725 15.5,11.863 15.5,14 M19.201,10.5955 C19.3835,10.84 19.672,11 20,11 C20.552,11 21,10.552 21,10 L21,8 C21,7.448 20.552,7 20,7 L15,7 L15,4 C15,3.448 14.552,3 14,3 L4,3 C3.448,3 3,3.448 3,4 L3,20 C3,20.552 3.448,21 4,21 L20,21 C20.552,21 21,20.552 21,20 L21,14 C21,13.448 20.552,13 20,13 C19.631,13 19.312,13.2025 19.1385,13.5 L16.5355,13.5 C16.7405,12.071 17.814,10.9215 19.201,10.5955" id="path-1"></path>
    </defs>
    <g id="Symbols" stroke="none" stroke-width="1" fill="none" fill-rule="evenodd">
        <g id="icon/ic_floorplan">
            <mask id="mask-2" fill="white">
                <use xlink:href="#path-1"></use>
            </mask>
            <use id="Page-1" fill="#000000" xlink:href="#path-1"></use>
        </g>
    </g>
</svg>