<?xml version="1.0" encoding="UTF-8"?>
<svg width="24px" height="24px" viewBox="0 0 24 24" version="1.1" xmlns="http://www.w3.org/2000/svg" xmlns:xlink="http://www.w3.org/1999/xlink">
    <!-- Generator: Sketch 46.2 (44496) - http://www.bohemiancoding.com/sketch -->
    <title>icon/ic_folder</title>
    <desc>Created with Sketch.</desc>
    <defs></defs>
    <g id="Symbols" stroke="none" stroke-width="1" fill="none" fill-rule="evenodd">
        <g id="icon/ic_folder" fill="#000000">
            <path d="M19,16.8203 C19,17.3718 18.5515,17.8203 18,17.8203 L6,17.8203 C5.4485,17.8203 5,17.3718 5,16.8203 L5,12.9998 L5,9.8203 C5,9.2688 5.4485,8.8203 6,8.8203 L18,8.8203 C18.5515,8.8203 19,9.2688 19,9.8203 L19,16.8203 Z M7.6665,5.9993 L8.7605,6.8203 L6,6.8203 C5.649,6.8203 5.3135,6.8843 5,6.9953 L5,5.9998 L7.6665,5.9993 Z M18,6.8203 L12.0935,6.8203 L8.866,4.3993 C8.5225,4.1423 8.096,3.9998 7.6665,3.9998 L5,3.9998 C3.897,3.9998 3,4.8968 3,5.9998 L3,9.8203 L3,12.9998 L3,16.8203 C3,18.4748 4.3455,19.8203 6,19.8203 L18,19.8203 C19.6545,19.8203 21,18.4748 21,16.8203 L21,9.8203 C21,8.1658 19.6545,6.8203 18,6.8203 L18,6.8203 Z" id="Page-1"></path>
        </g>
    </g>
</svg>