<?xml version="1.0" encoding="utf-8"?>
<!-- Generator: Adobe Illustrator 25.0.0, SVG Export Plug-In . SVG Version: 6.00 Build 0)  -->
<svg version="1.1" id="圖層_1" xmlns="http://www.w3.org/2000/svg" xmlns:xlink="http://www.w3.org/1999/xlink" x="0px" y="0px"
	 viewBox="0 0 24 24" style="enable-background:new 0 0 24 24;" xml:space="preserve">
<path d="M19,17v3c0,0.5-0.5,1-1,1H6c-0.5,0-1-0.5-1-1v-3h2v2h10v-2H19z M19,4v7h-2V5h-5.5v4c0,0.3-0.2,0.5-0.5,0.5H7V11H5V9
	c0-0.3,0.1-0.5,0.3-0.7l5-5C10.5,3.1,10.7,3,11,3h7C18.5,3,19,3.4,19,4z M10.5,5.2L7.2,8.5h3.3V5.2z M8.1,12.1h-1l1.2,2.1l-1.3,2.2
	h1l0.8-1.5l0.8,1.5h1l-1.3-2.2l1.2-2.1h-1l-0.8,1.5L8.1,12.1z M11.8,12.1h-0.9v4.3h2.7v-0.7h-1.9V12.1z M15.9,15.6
	c-0.1,0.1-0.3,0.1-0.5,0.1c-0.6,0-0.8-0.2-0.8-0.7h-0.9c0,0.3,0.1,0.5,0.2,0.7s0.3,0.4,0.6,0.5s0.6,0.2,0.9,0.2
	c0.5,0,0.8-0.1,1.1-0.3s0.4-0.5,0.4-0.9c0-0.3-0.1-0.6-0.3-0.8S16,14,15.5,13.8c-0.3-0.1-0.5-0.2-0.6-0.3s-0.2-0.2-0.2-0.3
	c0-0.1,0.1-0.3,0.2-0.4s0.3-0.1,0.5-0.1c0.2,0,0.4,0.1,0.5,0.2s0.2,0.3,0.2,0.5h0.9c0-0.3-0.1-0.5-0.2-0.7s-0.3-0.4-0.6-0.5
	S15.7,12,15.4,12c-0.3,0-0.6,0.1-0.8,0.2s-0.4,0.2-0.6,0.4s-0.2,0.4-0.2,0.6c0,0.4,0.2,0.8,0.7,1.1c0.2,0.1,0.4,0.2,0.7,0.3
	s0.5,0.2,0.6,0.3S16,15,16,15.2C16,15.4,16,15.5,15.9,15.6z"/>
</svg>
