<?xml version="1.0" encoding="utf-8"?>
<!-- Generator: Adobe Illustrator 24.1.2, SVG Export Plug-In . SVG Version: 6.00 Build 0)  -->
<svg version="1.1" id="圖層_1" xmlns="http://www.w3.org/2000/svg" xmlns:xlink="http://www.w3.org/1999/xlink" x="0px" y="0px"
	 viewBox="0 0 24 24" style="enable-background:new 0 0 24 24;" xml:space="preserve">
<style type="text/css">
	.st0{fill-rule:evenodd;clip-rule:evenodd;}
</style>
<desc>Created with Sketch.</desc>
<g id="icon_x2F_ic_x5F_file_x5F_less_x5F_mobile">
	<path id="Combined-Shape" class="st0" d="M11.5,2c-0.5,0.5-0.8,1.1-1.1,1.7L10.4,4H5v16h10v-8.1c0.3,0.1,0.7,0.1,1,0.1
		c0.2,0,0.5,0,0.7,0l0.3,0V21c0,0.5-0.4,0.9-0.9,1L16,22H4c-0.5,0-0.9-0.4-1-0.9L3,21V3c0-0.5,0.4-0.9,0.9-1L4,2H11.5z M12.4,18v1
		H7.6v-1H12.4z M16,1c2.8,0,5,2.2,5,5c0,2.4-1.7,4.4-4,4.9C16.7,11,16.3,11,16,11c-0.3,0-0.7,0-1-0.1c-2.3-0.5-4-2.5-4-4.9
		c0-0.7,0.2-1.4,0.4-2c0.3-0.8,0.9-1.5,1.6-2C13.8,1.4,14.9,1,16,1z M19,5h-6v2h6V5z"/>
</g>
</svg>
