<?xml version="1.0" encoding="iso-8859-1"?>
<!-- Generator: Adobe Illustrator 23.0.2, SVG Export Plug-In . SVG Version: 6.00 Build 0)  -->
<svg version="1.1" id="&#x5716;&#x5C64;_1" xmlns="http://www.w3.org/2000/svg" xmlns:xlink="http://www.w3.org/1999/xlink" x="0px"
	 y="0px" viewBox="0 0 24 24" style="enable-background:new 0 0 24 24;" xml:space="preserve">
<title>icon/ic_folder_2</title>
<desc>Created with Sketch.</desc>
<g>
	<g id="Combined-Shape">
		<path style="fill-rule:evenodd;clip-rule:evenodd;fill:#020202;" d="M19.2,8C20.4,8.047,21,8.597,21,9.65c0,1.579,0,7.387,0,8.3
			c0,0.913-0.3,2.05-2.15,2.05S5.737,20,5,20s-2-0.6-2-2.05C3,16.5,3,6.8,3,6.8s0.2-2.164,2.1-2.164s3.8,0,3.8,0
			c0.546,0,1.207,0.301,1.982,0.902l3.674,2.461L19.2,8z M18.154,10l-4.04-0.001L9.718,6.947c-0.267-0.207-0.62-0.31-1.058-0.31
			c0,0-2.127,0-2.956,0S5.001,7.326,5,7.326s0,8.322,0,9.316S5.356,18,6.092,18s10.65,0,11.708,0c1.058,0,1.2-0.225,1.2-1.138
			c0-0.913,0-5.044,0-5.975C19,10.266,18.718,9.971,18.154,10z M12.675,9l1.439,0.999L5,10V9H12.675z M12.675,9l1.439,0.999
			L12.675,9z"/>
	</g>
</g>
</svg>
