<?xml version="1.0" encoding="iso-8859-1"?>
<!-- Generator: Adobe Illustrator 23.0.2, SVG Export Plug-In . SVG Version: 6.00 Build 0)  -->
<svg version="1.1" id="&#x5716;&#x5C64;_1" xmlns="http://www.w3.org/2000/svg" xmlns:xlink="http://www.w3.org/1999/xlink" x="0px"
	 y="0px" viewBox="0 0 24 24" style="enable-background:new 0 0 24 24;" xml:space="preserve">
<title>icon/ic_filter</title>
<desc>Created with Sketch.</desc>
<g>
	<g id="Combined-Shape">
		<path style="fill-rule:evenodd;clip-rule:evenodd;" d="M20,4.973c0.378,0,0.725,0.215,0.894,0.555
			c0.169,0.34,0.132,0.747-0.095,1.051L15,14.344v5.652c0,0.348-0.18,0.671-0.474,0.854C14.365,20.949,14.183,21,14,21
			c-0.153,0-0.306-0.035-0.447-0.106l-4-2.008C9.214,18.716,9,18.369,9,17.988v-3.646L3.2,6.579
			C2.973,6.275,2.936,5.868,3.106,5.528C3.275,5.188,3.621,4.973,4,4.973H20z M13.2,13.407L18,6.981H6l4.799,6.424
			c0.13,0.174,0.2,0.385,0.2,0.602v3.361l2,1.004v-4.362C13,13.792,13.07,13.581,13.2,13.407z M3,4.004V3h18v1.004H3z"/>
	</g>
</g>
</svg>
