<?xml version="1.0" encoding="UTF-8"?>
<svg width="24px" height="24px" viewBox="0 0 24 24" version="1.1" xmlns="http://www.w3.org/2000/svg" xmlns:xlink="http://www.w3.org/1999/xlink">
    <!-- Generator: Sketch 47.1 (45422) - http://www.bohemiancoding.com/sketch -->
    <title>icon/ic_folder_less</title>
    <desc>Created with Sketch.</desc>
    <defs></defs>
    <g id="Icon-Library" stroke="none" stroke-width="1" fill="none" fill-rule="evenodd">
        <g id="icon/ic_folder_less" fill="#000000">
            <path d="M19,11.9002 C19.7345,11.7507 20.407,11.4367 20.9865,11.0037 C20.994,11.0932 21,11.1832 21,11.2752 L21,18.2752 C21,19.9292 19.6545,21.2752 18,21.2752 L6,21.2752 C4.3455,21.2752 3,19.9292 3,18.2752 L3,14.4547 L3,11.2752 L3,7.4547 C3,6.3517 3.897,5.4547 5,5.4547 L7.6665,5.4547 C8.097,5.4547 8.524,5.5967 8.867,5.8552 L12.094,8.2752 L13.1705,8.2752 C13.368,9.0257 13.7335,9.7062 14.2275,10.2752 L6,10.2752 C5.4485,10.2752 5,10.7237 5,11.2752 L5,14.4547 L5,18.2752 C5,18.8262 5.4485,19.2752 6,19.2752 L18,19.2752 C18.5515,19.2752 19,18.8262 19,18.2752 L19,11.9002 Z M5,7.4547 L5,8.4497 C5.3135,8.3392 5.649,8.2752 6,8.2752 L8.7605,8.2752 L7.6665,7.4542 L5,7.4547 Z M18,3 C20.2055,3 22,4.7945 22,7 C22,9.2055 20.2055,11 18,11 C15.7945,11 14,9.2055 14,7 C14,4.7945 15.7945,3 18,3 Z M15,8.0001 L20.9786386,8.0001 L20.9786386,6.0001 L15,6.0001 L15,8.0001 Z" id="Fill-4"></path>
        </g>
    </g>
</svg>