<?xml version="1.0" encoding="utf-8"?>
<!-- Generator: Adobe Illustrator 23.0.2, SVG Export Plug-In . SVG Version: 6.00 Build 0)  -->
<svg version="1.1" id="圖層_1" xmlns="http://www.w3.org/2000/svg" xmlns:xlink="http://www.w3.org/1999/xlink" x="0px" y="0px"
	 viewBox="0 0 24 24" style="enable-background:new 0 0 24 24;" xml:space="preserve">
<style type="text/css">
	.st0{fill-rule:evenodd;clip-rule:evenodd;}
</style>
<title>icon/ic_file_csv</title>
<desc>Created with Sketch.</desc>
<g>
	<g id="icon">
		<g id="Combined-Shape">
			<path class="st0" d="M8,13c-0.1,0.2-0.2,0.5-0.2,1v0.3c0,0.5,0.1,0.8,0.2,1c0.1,0.2,0.4,0.3,0.7,0.3c0.3,0,0.5-0.1,0.6-0.2
				c0.1-0.1,0.2-0.3,0.2-0.6h0.9c0,0.5-0.2,0.8-0.5,1.1c-0.3,0.3-0.7,0.4-1.2,0.4c-0.5,0-1-0.2-1.3-0.6C7,15.5,6.9,15,6.9,14.3v-0.3
				c0-0.4,0.1-0.8,0.2-1.1c0.1-0.3,0.4-0.6,0.6-0.7C8,12.1,8.3,12,8.6,12c0.5,0,0.9,0.1,1.2,0.4c0.3,0.3,0.5,0.6,0.5,1.1H9.5
				c0-0.3-0.1-0.5-0.2-0.6c-0.1-0.1-0.3-0.2-0.6-0.2C8.3,12.7,8.1,12.8,8,13z M12.2,15.7c0.2,0,0.4,0,0.5-0.1
				c0.1-0.1,0.2-0.2,0.2-0.4c0-0.2-0.1-0.3-0.2-0.4c-0.1-0.1-0.3-0.2-0.6-0.3s-0.5-0.2-0.7-0.3c-0.5-0.3-0.7-0.6-0.7-1.1
				c0-0.2,0.1-0.4,0.2-0.6c0.1-0.2,0.3-0.3,0.6-0.4c0.2-0.1,0.5-0.2,0.8-0.2c0.3,0,0.6,0.1,0.8,0.2c0.2,0.1,0.4,0.3,0.6,0.5
				c0.1,0.2,0.2,0.4,0.2,0.7h-0.9c0-0.2-0.1-0.3-0.2-0.5c-0.1-0.1-0.3-0.2-0.5-0.2c-0.2,0-0.4,0-0.5,0.1c-0.1,0.1-0.2,0.2-0.2,0.4
				c0,0.1,0.1,0.3,0.2,0.3c0.1,0.1,0.3,0.2,0.6,0.3c0.5,0.2,0.9,0.3,1.1,0.6c0.2,0.2,0.3,0.5,0.3,0.8c0,0.4-0.1,0.7-0.4,0.9
				c-0.3,0.2-0.7,0.3-1.1,0.3c-0.3,0-0.6-0.1-0.9-0.2c-0.3-0.1-0.5-0.3-0.6-0.5c-0.1-0.2-0.2-0.5-0.2-0.7h0.9
				C11.3,15.5,11.6,15.7,12.2,15.7z M16,16.3h-0.9l-1.5-4.3h1l1,3.2l1-3.2h1L16,16.3z M17,19v-2h2v3c0,0.5-0.5,1-1,1H6
				c-0.6,0-1-0.5-1-1v-3h2v2H17z M10.5,8.5V5.2L7.2,8.5H10.5z M18,3c0.5,0,1,0.5,1,1v7h-2V5h-5.5v4c0,0.3-0.2,0.5-0.5,0.5H7V11H5V9
				c0-0.3,0.1-0.5,0.3-0.7l5-5C10.5,3.1,10.7,3,11,3H18z"/>
		</g>
	</g>
</g>
</svg>
