<?xml version="1.0" encoding="iso-8859-1"?>
<!-- Generator: Adobe Illustrator 23.0.2, SVG Export Plug-In . SVG Version: 6.00 Build 0)  -->
<svg version="1.1" id="&#x5716;&#x5C64;_1" xmlns="http://www.w3.org/2000/svg" xmlns:xlink="http://www.w3.org/1999/xlink" x="0px"
	 y="0px" viewBox="0 0 24 24" style="enable-background:new 0 0 24 24;" xml:space="preserve">
<title>icon/ic_folder_3</title>
<desc>Created with Sketch.</desc>
<g>
	<g id="Combined-Shape">
		<path style="fill-rule:evenodd;clip-rule:evenodd;fill:#020202;" d="M12.675,6.364L9.718,4.31C9.451,4.103,9.098,4,8.659,4H5.703
			C4.874,4,5.001,4.689,5,4.689s0,7.322,0,8.316s0.356,1.358,1.092,1.358H10v2h4v-2h3.8c1.058,0,1.2-0.225,1.2-1.138V8.25
			c0-0.621-0.282-0.916-0.846-0.887l-4.04-0.001L5,7.364v-1H12.675z M12.526,16.364v3.414l1.144-1.176
			c0.411-0.413,1.077-0.413,1.487,0c0.411,0.413,0.411,1.084,0,1.497l-2.413,2.454c-0.411,0.414-1.076,0.414-1.487,0l-2.413-2.454
			c-0.411-0.413-0.411-1.084,0-1.497c0.41-0.413,1.076-0.413,1.487,0l1.143,1.176v-3.414H5c-0.737,0-2-0.6-2-2.05V4.164
			C3,4.164,3.2,2,5.1,2h3.8c0.546,0,1.207,0.301,1.982,0.902l3.674,2.461L19.2,5.364c1.2,0.047,1.8,0.597,1.8,1.65v7.3
			c0,0.913-0.3,2.05-2.15,2.05H12.526z M12.526,16.364v-6.5h-1.052v6.5H12.526z"/>
	</g>
</g>
</svg>
