<?xml version="1.0" encoding="UTF-8"?>
<svg width="24px" height="24px" viewBox="0 0 24 24" version="1.1" xmlns="http://www.w3.org/2000/svg" xmlns:xlink="http://www.w3.org/1999/xlink">
    <!-- Generator: Sketch 47.1 (45422) - http://www.bohemiancoding.com/sketch -->
    <title>icon/ic_folder_add</title>
    <desc>Created with Sketch.</desc>
    <defs></defs>
    <g id="Icon-Library" stroke="none" stroke-width="1" fill="none" fill-rule="evenodd">
        <g id="icon/ic_folder_add" fill="#000000">
            <path d="M19,11.9001 C19.7345,11.7506 20.407,11.4366 20.9865,11.0036 C20.994,11.0931 21,11.1831 21,11.2751 L21,18.2751 C21,19.9291 19.6545,21.2751 18,21.2751 L6,21.2751 C4.3455,21.2751 3,19.9291 3,18.2751 L3,14.4546 L3,11.2751 L3,7.4546 C3,6.3516 3.897,5.4546 5,5.4546 L7.6665,5.4546 C8.097,5.4546 8.524,5.5966 8.867,5.8551 L12.094,8.2751 L13.1705,8.2751 C13.368,9.0256 13.7335,9.7061 14.2275,10.2751 L6,10.2751 C5.4485,10.2751 5,10.7236 5,11.2751 L5,14.4546 L5,18.2751 C5,18.8261 5.4485,19.2751 6,19.2751 L18,19.2751 C18.5515,19.2751 19,18.8261 19,18.2751 L19,11.9001 Z M5,7.4546 L5,8.4496 C5.3135,8.3391 5.649,8.2751 6,8.2751 L8.7605,8.2751 L7.6665,7.4541 L5,7.4546 Z M14,7 C14,4.7945 15.7945,3 18,3 C20.2055,3 22,4.7945 22,7 C22,9.2055 20.2055,11 18,11 C15.7945,11 14,9.2055 14,7 Z M21,8 L21,6 L18.9992023,6 L18.9992023,4 L17,4 L17,6 L15,6 L15,8 L17,8 L17,10.1393947 L18.9992023,10 L18.9992023,8 L21,8 Z" id="Mask"></path>
        </g>
    </g>
</svg>