<?xml version="1.0" encoding="utf-8"?>
<!-- Generator: Adobe Illustrator 23.0.2, SVG Export Plug-In . SVG Version: 6.00 Build 0)  -->
<svg version="1.1" id="圖層_1" xmlns="http://www.w3.org/2000/svg" xmlns:xlink="http://www.w3.org/1999/xlink" x="0px" y="0px"
	 viewBox="0 0 24 24" style="enable-background:new 0 0 24 24;" xml:space="preserve">
<style type="text/css">
	.st0{fill-rule:evenodd;clip-rule:evenodd;}
</style>
<title>icon/ic_file_xml</title>
<desc>Created with Sketch.</desc>
<g>
	<g id="icon">
		<g id="Combined-Shape">
			<path class="st0" d="M7.3,16.3h-1l1.3-2.2l-1.2-2.1h1l0.8,1.5l0.8-1.5h1l-1.2,2.1l1.3,2.2h-1l-0.8-1.5L7.3,16.3z M13.7,16.3v-1.2
				l0.1-2l-1.2,3.2H12l-1.1-3.2l0.1,2v1.2h-0.9v-4.3h1.1l1.1,3.1l1.1-3.1h1.2v4.3H13.7z M15.1,12.1h0.9v3.6h1.9v0.7h-2.7V12.1z
				 M17,19v-2h2v3c0,0.5-0.5,1-1,1H6c-0.6,0-1-0.5-1-1v-3h2v2H17z M10.5,8.5V5.2L7.2,8.5H10.5z M18,3c0.5,0,1,0.5,1,1v7h-2V5h-5.5v4
				c0,0.3-0.2,0.5-0.5,0.5H7V11H5V9c0-0.3,0.1-0.5,0.3-0.7l5-5C10.5,3.1,10.7,3,11,3H18z"/>
		</g>
	</g>
</g>
</svg>
