<?xml version="1.0" encoding="UTF-8"?>
<svg width="24px" height="24px" viewBox="0 0 24 24" version="1.1" xmlns="http://www.w3.org/2000/svg" xmlns:xlink="http://www.w3.org/1999/xlink">
    <!-- Generator: Sketch 46.2 (44496) - http://www.bohemiancoding.com/sketch -->
    <title>icon/ic_host</title>
    <desc>Created with Sketch.</desc>
    <defs>
        <path d="M6,6 C5.4485,6 5,6.4485 5,7 L5,15 C5,15.5515 5.4485,16 6,16 L18,16 C18.5515,16 19,15.5515 19,15 L19,7 C19,6.4485 18.5515,6 18,6 L6,6 Z M14.5,18 L9.5,18 L9.5,19.5 L14.5,19.5 L14.5,18 Z M15.5,18 L15.5,19.5 L20,19.5 L20,20.5 L4,20.5 L4,19.5 L8.5,19.5 L8.5,18 L6,18 C4.3455,18 3,16.6545 3,15 L3,7 C3,5.3455 4.3455,4 6,4 L18,4 C19.6545,4 21,5.3455 21,7 L21,15 C21,16.6545 19.6545,18 18,18 L15.5,18 Z" id="path-1"></path>
    </defs>
    <g id="Symbols" stroke="none" stroke-width="1" fill="none" fill-rule="evenodd">
        <g id="icon/ic_host">
            <mask id="mask-2" fill="white">
                <use xlink:href="#path-1"></use>
            </mask>
            <use id="Combined-Shape" fill="#000000" xlink:href="#path-1"></use>
        </g>
    </g>
</svg>