<?xml version="1.0" encoding="UTF-8"?>
<svg width="24px" height="24px" viewBox="0 0 24 24" version="1.1" xmlns="http://www.w3.org/2000/svg" xmlns:xlink="http://www.w3.org/1999/xlink">
    <!-- Generator: Sketch 46.2 (44496) - http://www.bohemiancoding.com/sketch -->
    <title>icon/ic_help</title>
    <desc>Created with Sketch.</desc>
    <defs>
        <path d="M12,19 C15.86,19 19,15.86 19,12 C19,8.14 15.86,5 12,5 C8.14,5 5,8.14 5,12 C5,15.86 8.14,19 12,19 Z M12,3 C16.9625,3 21,7.0375 21,12 C21,16.9625 16.9625,21 12,21 C7.0375,21 3,16.9625 3,12 C3,7.0375 7.0375,3 12,3 Z M11.9995,14.4785 C12.551,14.4785 12.9995,14.927 12.9995,15.4785 C12.9995,16.03 12.551,16.4785 11.9995,16.4785 C11.448,16.4785 10.9995,16.03 10.9995,15.4785 C10.9995,14.927 11.448,14.4785 11.9995,14.4785 Z M12.08595,7.1045 C12.55545,7.1085 13.58795,7.101 14.30545,7.817 C14.76345,8.2745 14.99595,8.926 14.99595,9.7535 C14.99595,11.308 13.93395,11.8255 13.23095,12.168 C12.66395,12.4445 12.49945,12.5595 12.49945,12.7905 L12.49945,13.4455 L11.49945,13.4455 L11.49945,12.7905 C11.49945,11.8995 12.21695,11.55 12.79295,11.269 C13.53895,10.906 13.99595,10.638 13.99595,9.7535 C13.99595,9.201 13.86245,8.7875 13.59895,8.525 C13.17545,8.102 12.47245,8.108 12.12795,8.1045 C11.30295,8.1045 10.72745,8.289 10.37645,8.6535 C9.99545,9.048 9.99595,9.55 9.99595,9.5545 C10.00645,9.8305 9.79045,10.0625 9.51445,10.0725 C9.24245,10.099 9.00745,9.867 8.99695,9.591 C8.99345,9.4975 8.98345,8.657 9.65695,7.959 C10.20345,7.392 11.02095,7.1045 12.08595,7.1045 Z" id="path-1"></path>
    </defs>
    <g id="Symbols" stroke="none" stroke-width="1" fill="none" fill-rule="evenodd">
        <g id="icon/ic_help">
            <mask id="mask-2" fill="white">
                <use xlink:href="#path-1"></use>
            </mask>
            <use id="Combined-Shape" fill="#000000" xlink:href="#path-1"></use>
        </g>
    </g>
</svg>