<?xml version="1.0" encoding="UTF-8"?>
<svg width="24px" height="24px" viewBox="0 0 24 24" version="1.1" xmlns="http://www.w3.org/2000/svg" xmlns:xlink="http://www.w3.org/1999/xlink">
    <!-- Generator: Sketch 46.2 (44496) - http://www.bohemiancoding.com/sketch -->
    <title>icon/ic_hammer</title>
    <desc>Created with Sketch.</desc>
    <defs>
        <path d="M20.6144946,17.6101645 L16.8399053,13.8354477 C16.5697084,13.5789073 16.2540744,13.4506371 15.8936416,13.4506371 C15.526189,13.4506371 15.1934523,13.5997113 14.8955592,13.8978597 L12.2336659,11.2358388 L13.5440638,9.92556847 C13.6410641,9.82844051 13.6896919,9.71063616 13.6896919,9.57190016 C13.6896919,9.43329179 13.6410641,9.31548744 13.5440638,9.21835947 C13.5577204,9.23227136 13.5994561,9.27553861 13.6687603,9.3484165 C13.7380644,9.42129438 13.7831185,9.46456163 13.8041778,9.47847352 C13.8249818,9.49225778 13.864803,9.52684605 13.9236414,9.58236598 C13.9828626,9.63775828 14.0293207,9.67247419 14.0641642,9.68625844 C14.0990078,9.7000427 14.1458487,9.72084672 14.2049424,9.7486705 C14.2637807,9.77636665 14.3208322,9.79538382 14.3764798,9.80584964 C14.4318721,9.81618784 14.4944118,9.82142075 14.5637159,9.82142075 C14.8268932,9.82142075 15.0627571,9.72442042 15.2706697,9.53029212 C15.2916013,9.5094881 15.3538858,9.45230896 15.4579059,9.35862706 C15.561926,9.26494516 15.6328894,9.19921467 15.6710513,9.1610527 C15.7092133,9.12289072 15.7665201,9.05881945 15.842844,8.96871125 C15.9190403,8.87860304 15.972901,8.8022791 16.0040433,8.73986704 C16.0350578,8.67758262 16.0662,8.60125867 16.0975975,8.51115047 C16.1287397,8.42104226 16.1441832,8.33093406 16.1441832,8.24082586 C16.1441832,7.96348149 16.0471829,7.72774515 15.8530546,7.53361685 L11.6104387,3.29112863 C11.4163104,3.09700033 11.1805741,3 10.9033574,3 C10.8132491,3 10.7231409,3.01557111 10.6329051,3.04671332 C10.5427969,3.07785553 10.4666006,3.10912537 10.4041885,3.14026759 C10.3417765,3.1714098 10.2655802,3.22514288 10.175472,3.30146682 C10.0853638,3.37779077 10.0212925,3.43496991 9.98313051,3.47313188 C9.94496854,3.51129386 9.87911042,3.58238489 9.78555615,3.68627735 C9.69187425,3.79029745 9.63469511,3.8527095 9.61389109,3.87351352 C9.41989042,4.08142607 9.32276246,4.31716241 9.32276246,4.58059489 C9.32276246,4.64989908 9.32799537,4.71231113 9.3384612,4.76770343 C9.34892702,4.82322335 9.36794419,4.8804025 9.39564034,4.93936849 C9.42333649,4.99833448 9.44414051,5.04517543 9.4580524,5.07976371 C9.47183666,5.11435198 9.50642493,5.16132057 9.56194486,5.22028656 C9.61746479,5.27912492 9.65205306,5.31907374 9.66596495,5.33987776 C9.67974921,5.36080941 9.7231441,5.40573588 9.79589435,5.47516769 C9.86877223,5.54447188 9.91216711,5.58620755 9.92595137,5.59999181 C9.82895104,5.50286384 9.71101905,5.45436368 9.57241068,5.45436368 C9.43380231,5.45436368 9.31587033,5.50286384 9.21887,5.59999181 L5.59960891,9.21874237 C5.50248095,9.31587033 5.45398078,9.43367468 5.45398078,9.57228305 C5.45398078,9.71101905 5.50248095,9.82882341 5.59960891,9.92595137 C5.58569702,9.91203948 5.54408898,9.86864459 5.4747848,9.79589435 C5.40548061,9.72301646 5.36042651,9.67974921 5.33962249,9.66583732 C5.31881847,9.65205306 5.27899728,9.61746479 5.22003129,9.56194486 C5.1610653,9.50655256 5.11422435,9.47183666 5.07963608,9.4580524 C5.0450478,9.44426814 4.99820685,9.42346412 4.93924086,9.39564034 C4.8804025,9.36794419 4.82322335,9.34892702 4.76770343,9.3384612 C4.71231113,9.32812301 4.64989908,9.32289009 4.58059489,9.32289009 C4.31716241,9.32289009 4.08129844,9.41989042 3.87338589,9.61401872 C3.8527095,9.63482274 3.79016981,9.69212952 3.68627735,9.78568378 C3.58225726,9.87936568 3.51129386,9.94509617 3.47313188,9.98325815 C3.43496991,10.0214201 3.3779184,10.0854914 3.30159445,10.1755996 C3.22539814,10.2657078 3.17153743,10.3420317 3.14039522,10.4044438 C3.10925301,10.4667282 3.07811079,10.5430522 3.04684095,10.6331604 C3.01569874,10.7232686 3,10.8133768 3,10.903485 C3,11.1808294 3.09700033,11.4164381 3.29112863,11.6105664 L7.53374449,15.8530546 C7.72787278,16.0471829 7.96360912,16.1441832 8.24082586,16.1441832 C8.33093406,16.1441832 8.42104226,16.1287397 8.5112781,16.0975975 C8.6013863,16.0664553 8.67758262,16.0351855 8.73999467,16.0040433 C8.80240673,15.972901 8.87860304,15.919168 8.96871125,15.842844 C9.05881945,15.7665201 9.12289072,15.7093409 9.1610527,15.6710513 C9.19921467,15.6328894 9.26507279,15.561926 9.35862706,15.4579059 C9.45230896,15.3540134 9.5094881,15.2914737 9.53029212,15.2706697 C9.72429278,15.0627571 9.82142075,14.8268932 9.82142075,14.5635883 C9.82142075,14.4942841 9.81618784,14.4318721 9.80572201,14.3763521 C9.79525619,14.3208322 9.77623901,14.2637807 9.74854287,14.2046871 C9.72084672,14.1458487 9.7000427,14.0990078 9.68613081,14.0642919 C9.67234655,14.0297036 9.63775828,13.982735 9.58223835,13.923769 C9.52671842,13.8649307 9.49213015,13.8249818 9.47821826,13.8041778 C9.464434,13.7832462 9.42103911,13.7381921 9.34828886,13.6687603 C9.27541098,13.5994561 9.2320161,13.5577204 9.21823184,13.5438085 C9.31523217,13.6410641 9.43316415,13.6895643 9.57177252,13.6895643 C9.71038089,13.6895643 9.82831288,13.6410641 9.92531321,13.5438085 L11.2355835,12.2335382 L13.8976045,14.8955592 C13.5994561,15.1937076 13.4503819,15.526189 13.4503819,15.8936416 C13.4503819,16.2681139 13.5822257,16.5799189 13.8455306,16.8296948 L17.6203751,20.6146222 C17.8769155,20.8710349 18.1887205,20.9994327 18.5561731,20.9994327 C18.9166059,20.9994327 19.2319846,20.8710349 19.5024368,20.6146222 L20.6150051,19.4914605 C20.8715455,19.2349201 20.9999433,18.9231151 20.9999433,18.5556625 C20.9999433,18.1958679 20.8715455,17.8803615 20.6144946,17.6101645 L20.6144946,17.6101645 Z" id="path-1"></path>
    </defs>
    <g id="Symbols" stroke="none" stroke-width="1" fill="none" fill-rule="evenodd">
        <g id="icon/ic_hammer">
            <mask id="mask-2" fill="white">
                <use xlink:href="#path-1"></use>
            </mask>
            <use id="Shape" fill="#000000" xlink:href="#path-1"></use>
        </g>
    </g>
</svg>