<?xml version="1.0" encoding="UTF-8"?>
<svg width="24px" height="24px" viewBox="0 0 24 24" version="1.1" xmlns="http://www.w3.org/2000/svg" xmlns:xlink="http://www.w3.org/1999/xlink">
    <!-- Generator: Sketch 46.2 (44496) - http://www.bohemiancoding.com/sketch -->
    <title>icon/ic_kiosk</title>
    <desc>Created with Sketch.</desc>
    <defs>
        <path d="M9,9 L15,9 L15,5 L9,5 L9,9 Z M8,10 L16,10 L16,4 L8,4 L8,10 Z M19,21 L5,21 L5,19 L6,19 L18,19 L19,19 L19,21 Z M7,4 C7,3.4485 7.4485,3 8,3 L16,3 C16.5515,3 17,3.4485 17,4 L17,17 L7,17 L7,4 Z M20,17 L19,17 L19,4 C19,2.3455 17.6545,1 16,1 L8,1 C6.3455,1 5,2.3455 5,4 L5,17 L4,17 C3.448,17 3,17.448 3,18 L3,22 C3,22.552 3.448,23 4,23 L20,23 C20.552,23 21,22.552 21,22 L21,18 C21,17.448 20.552,17 20,17 L20,17 Z" id="path-1"></path>
    </defs>
    <g id="Symbols" stroke="none" stroke-width="1" fill="none" fill-rule="evenodd">
        <g id="icon/ic_kiosk">
            <mask id="mask-2" fill="white">
                <use xlink:href="#path-1"></use>
            </mask>
            <use id="Page-1" fill="#000000" xlink:href="#path-1"></use>
        </g>
    </g>
</svg>