<?xml version="1.0" encoding="UTF-8"?>
<svg width="24px" height="24px" viewBox="0 0 24 24" version="1.1" xmlns="http://www.w3.org/2000/svg" xmlns:xlink="http://www.w3.org/1999/xlink">
    <!-- Generator: Sketch 46.2 (44496) - http://www.bohemiancoding.com/sketch -->
    <title>icon/ic_libra_3</title>
    <desc>Created with Sketch.</desc>
    <defs>
        <path d="M9,6 L17,6 L17,4 L9,4 L9,6 Z M8,8 L18,8 C18.552,8 19,7.552 19,7 L19,3 C19,2.448 18.552,2 18,2 L8,2 C7.448,2 7,2.448 7,3 L7,7 C7,7.552 7.448,8 8,8 L8,8 Z M13,13 L20,13 L20,11 L13,11 L13,13 Z M21,9 L12,9 C11.448,9 11,9.448 11,10 L11,14 C11,14.552 11.448,15 12,15 L21,15 C21.552,15 22,14.552 22,14 L22,10 C22,9.448 21.552,9 21,9 L21,9 Z M4,13 L8,13 L8,11 L4,11 L4,13 Z M3,15 L9,15 C9.552,15 10,14.552 10,14 L10,10 C10,9.448 9.552,9 9,9 L3,9 C2.448,9 2,9.448 2,10 L2,14 C2,14.552 2.448,15 3,15 L3,15 Z M13.732,21 L10.268,21 L12,18 L13.732,21 Z M2,17 L11.423,17 L8.536,22 L15.464,22 L12.577,17 L22,17 L22,16 L2,16 L2,17 Z" id="path-1"></path>
    </defs>
    <g id="Symbols" stroke="none" stroke-width="1" fill="none" fill-rule="evenodd">
        <g id="icon/ic_libra_3">
            <mask id="mask-2" fill="white">
                <use xlink:href="#path-1"></use>
            </mask>
            <use id="Page-1" fill="#000000" xlink:href="#path-1"></use>
        </g>
    </g>
</svg>