<?xml version="1.0" encoding="UTF-8"?>
<svg width="24px" height="24px" viewBox="0 0 24 24" version="1.1" xmlns="http://www.w3.org/2000/svg" xmlns:xlink="http://www.w3.org/1999/xlink">
    <!-- Generator: Sketch 46.2 (44496) - http://www.bohemiancoding.com/sketch -->
    <title>icon/ic_location</title>
    <desc>Created with Sketch.</desc>
    <defs>
        <path d="M12,6 C14.2607457,6 16.1002137,7.9365 16.1002137,10.3165 C16.1002137,12.822 13.5397768,16.019 11.9995251,17.627 C10.4592733,16.0215 7.89978627,12.828 7.89978627,10.3165 C7.89978627,7.9365 9.73925433,6 12,6 Z M11.3711707,19.7495 C11.5507005,19.9165 11.7753503,20 12,20 C12.2246497,20 12.4492995,19.9165 12.6288293,19.7495 C12.8482546,19.5455 18,14.704 18,10.3165 C18,6.8335 15.3084778,4 12,4 C8.6915222,4 6,6.8335 6,10.3165 C6,14.704 11.1517454,19.5455 11.3711707,19.7495 Z M10.701781,10.3164 C10.701781,9.5629 11.2845405,8.9499 11.99981,8.9499 C12.7155545,8.9499 13.2983139,9.5629 13.2983139,10.3164 C13.2983139,11.0699 12.7155545,11.6829 11.99981,11.6829 C11.2845405,11.6829 10.701781,11.0699 10.701781,10.3164 M14.2482071,10.3164 C14.2482071,9.0114 13.2398955,7.9499 11.99981,7.9499 C10.7601995,7.9499 9.75188791,9.0114 9.75188791,10.3164 C9.75188791,11.6214 10.7601995,12.6829 11.99981,12.6829 C13.2398955,12.6829 14.2482071,11.6214 14.2482071,10.3164" id="path-1"></path>
    </defs>
    <g id="Symbols" stroke="none" stroke-width="1" fill="none" fill-rule="evenodd">
        <g id="icon/ic_location">
            <mask id="mask-2" fill="white">
                <use xlink:href="#path-1"></use>
            </mask>
            <use id="Combined-Shape" fill="#000000" xlink:href="#path-1"></use>
        </g>
    </g>
</svg>