<?xml version="1.0" encoding="UTF-8"?>
<svg width="24px" height="24px" viewBox="0 0 24 24" version="1.1" xmlns="http://www.w3.org/2000/svg" xmlns:xlink="http://www.w3.org/1999/xlink">
    <!-- Generator: Sketch 50.2 (55047) - http://www.bohemiancoding.com/sketch -->
    <title>icon/ic_move</title>
    <desc>Created with Sketch.</desc>
    <defs>
        <path d="M21.7071213,11.2929331 L18.878586,8.4644154 C18.4880811,8.07391296 17.8550732,8.07391296 17.4645683,8.4644154 C17.0735634,8.85491784 17.0735634,9.4879218 17.4645683,9.87842424 L19.0860886,11.4999344 L12.5000063,11.4999344 L12.5000063,4.91389321 L14.1215265,6.53540335 C14.317029,6.73090457 14.5725322,6.82840518 14.8285354,6.82840518 C15.0845386,6.82840518 15.3405418,6.73090457 15.5355442,6.53540335 C15.9260491,6.14490091 15.9260491,5.51189695 15.5355442,5.12139451 L12.7070088,2.29287683 C12.316504,1.90237439 11.683496,1.90237439 11.2929912,2.29287683 L8.46445581,5.12139451 C8.07345092,5.51189695 8.07345092,6.14490091 8.46445581,6.53540335 C8.85496069,6.92640579 9.4879686,6.92640579 9.87847348,6.53540335 L11.4999937,4.91389321 L11.4999937,11.4999344 L4.91391142,11.4999344 L6.53543169,9.87842424 C6.92593657,9.4879218 6.92593657,8.85491784 6.53543169,8.4644154 C6.14492681,8.07391296 5.5119189,8.07391296 5.12141402,8.4644154 L2.29287866,11.2929331 C1.90237378,11.6834355 1.90237378,12.3164395 2.29287866,12.7069419 L5.12141402,15.5354596 C5.31691646,15.7309608 5.57241966,15.8284614 5.82842286,15.8284614 C6.08442606,15.8284614 6.34042926,15.7309608 6.53543169,15.5354596 C6.92593657,15.1449572 6.92593657,14.5119532 6.53543169,14.1214508 L4.91391142,12.4999406 L11.4999937,12.4999406 L11.4999937,19.0859818 L9.87847348,17.4644717 C9.4879686,17.0739692 8.85496069,17.0739692 8.46445581,17.4644717 C8.07345092,17.8549741 8.07345092,18.487978 8.46445581,18.8784805 L11.2929912,21.7069982 C11.4884936,21.9024994 11.7439968,22 12,22 C12.2560032,22 12.5115064,21.9024994 12.7070088,21.7069982 L15.5355442,18.8784805 C15.9260491,18.487978 15.9260491,17.8549741 15.5355442,17.4644717 C15.1450393,17.0739692 14.5120314,17.0739692 14.1215265,17.4644717 L12.5000063,19.0859818 L12.5000063,12.4999406 L19.0860886,12.4999406 L17.4645683,14.1214508 C17.0735634,14.5119532 17.0735634,15.1449572 17.4645683,15.5354596 C17.6595707,15.7309608 17.9155739,15.8284614 18.1715771,15.8284614 C18.4270803,15.8284614 18.6830835,15.7309608 18.878586,15.5354596 L21.7071213,12.7069419 C22.0976262,12.3164395 22.0976262,11.6834355 21.7071213,11.2929331" id="path-1"></path>
    </defs>
    <g id="icon/ic_move" stroke="none" stroke-width="1" fill="none" fill-rule="evenodd">
        <mask id="mask-2" fill="white">
            <use xlink:href="#path-1"></use>
        </mask>
        <use id="Fill-1" fill="#000000" xlink:href="#path-1"></use>
    </g>
</svg>