<svg id="abfe24a1-4265-4bb1-ab8e-e818d9f3c278" data-name="圖層 9" xmlns="http://www.w3.org/2000/svg" viewBox="0 0 48 48"><title>工作區域 56</title><path d="M43.66,4.34a8,8,0,0,0-11.32,0,7.76,7.76,0,0,0-1.23,1.6A14,14,0,0,0,10,18V30a14,14,0,0,0,28,0V18A8,8,0,0,0,43.66,4.34ZM32.76,7.09a5.8,5.8,0,0,1,1-1.33,6,6,0,0,1,7.71-.65l-8.36,8.36A6,6,0,0,1,32.76,7.09ZM34,30a10,10,0,0,1-20,0V18a10,10,0,0,1,16-8h0a8,8,0,0,0,2.34,5.65,7.76,7.76,0,0,0,1.6,1.23A10,10,0,0,1,34,18Zm8.24-15.76A6,6,0,0,1,37.86,16a5.89,5.89,0,0,1-3.33-1.1l2.36-2.36,6-6A6,6,0,0,1,42.24,14.24Z"/><rect x="21" y="26.64" width="6" height="2"/><path d="M26,22V18a2,2,0,0,0-4,0v4a2,2,0,0,0,4,0Z"/><polygon points="25 9 23 9 23 11 21 11 21 13 23 13 23 15 25 15 25 13 27 13 27 11 25 11 25 9"/></svg>