<?xml version="1.0" encoding="UTF-8"?>
<svg width="24px" height="24px" viewBox="0 0 24 24" version="1.1" xmlns="http://www.w3.org/2000/svg" xmlns:xlink="http://www.w3.org/1999/xlink">
    <!-- Generator: Sketch 46.2 (44496) - http://www.bohemiancoding.com/sketch -->
    <title>icon/ic_mobile</title>
    <desc>Created with Sketch.</desc>
    <defs>
        <path d="M7,20 L17,20 L17,17 L7,17 L7,20 Z M7,16 L17,16 L17,6 L7,6 L7,16 Z M7,5 L17,5 L17,4 L7,4 L7,5 Z M18,2 C18.552,2 19,2.448 19,3 L19,21 C19,21.552 18.552,22 18,22 L6,22 C5.448,22 5,21.552 5,21 L5,3 C5,2.448 5.448,2 6,2 L18,2 Z M9.586,19 L14.414,19 L14.414,18 L9.586,18 L9.586,19 Z" id="path-1"></path>
    </defs>
    <g id="Symbols" stroke="none" stroke-width="1" fill="none" fill-rule="evenodd">
        <g id="icon/ic_mobile">
            <mask id="mask-2" fill="white">
                <use xlink:href="#path-1"></use>
            </mask>
            <use id="Combined-Shape" fill="#000000" xlink:href="#path-1"></use>
        </g>
    </g>
</svg>