<?xml version="1.0" encoding="UTF-8"?>
<svg width="24px" height="24px" viewBox="0 0 24 24" version="1.1" xmlns="http://www.w3.org/2000/svg" xmlns:xlink="http://www.w3.org/1999/xlink">
    <!-- Generator: Sketch 46.2 (44496) - http://www.bohemiancoding.com/sketch -->
    <title>icon/mic_off</title>
    <desc>Created with Sketch.</desc>
    <defs>
        <path d="M17.3,12 L19,12 C19,13.2 18.7,14.3 18.1,15.2 L16.9,14 C17.1,13.4 17.3,12.7 17.3,12 Z M15,12 L15,12.2 L9,6.2 L9,6 C9,4.3 10.3,3 12,3 C13.7,3 15,4.3 15,6 L15,12 Z M3,5.3 L4.3,4 L21,20.7 L19.7,22 L15.5,17.8 C14.8,18.2 13.9,18.6 13,18.7 L13,22 L11,22 L11,18.7 C7.7,18.2 5,15.4 5,12 L6.8,12 C6.8,15 9.3,17.1 12.1,17.1 C12.9,17.1 13.7,16.9 14.4,16.6 L12.7,14.9 C12.4,15 12.2,15 12,15 C10.3,15 9,13.7 9,12 L9,11.3 L3,5.3 Z" id="path-1"></path>
    </defs>
    <g id="Symbols" stroke="none" stroke-width="1" fill="none" fill-rule="evenodd">
        <g id="icon/mic_off">
            <mask id="mask-2" fill="white">
                <use xlink:href="#path-1"></use>
            </mask>
            <use id="Combined-Shape" fill="#000000" xlink:href="#path-1"></use>
        </g>
    </g>
</svg>