<?xml version="1.0" encoding="UTF-8"?>
<svg width="24px" height="24px" viewBox="0 0 24 24" version="1.1" xmlns="http://www.w3.org/2000/svg" xmlns:xlink="http://www.w3.org/1999/xlink">
    <!-- Generator: Sketch 46.2 (44496) - http://www.bohemiancoding.com/sketch -->
    <title>icon/ic_main_menu</title>
    <desc>Created with Sketch.</desc>
    <defs>
        <path d="M5,5 L9,5 L9,9 L5,9 L5,5 Z M10,5 L14,5 L14,9 L10,9 L10,5 Z M15,5 L19,5 L19,9 L15,9 L15,5 Z M5,10 L9,10 L9,14 L5,14 L5,10 Z M10,10 L14,10 L14,14 L10,14 L10,10 Z M15,10 L19,10 L19,14 L15,14 L15,10 Z M5,15 L9,15 L9,19 L5,19 L5,15 Z M10,15 L14,15 L14,19 L10,19 L10,15 Z M15,15 L19,15 L19,19 L15,19 L15,15 Z" id="path-1"></path>
    </defs>
    <g id="Symbols" stroke="none" stroke-width="1" fill="none" fill-rule="evenodd">
        <g id="icon/ic_main_menu">
            <mask id="mask-2" fill="white">
                <use xlink:href="#path-1"></use>
            </mask>
            <use id="Combined-Shape" fill="#000000" xlink:href="#path-1"></use>
        </g>
    </g>
</svg>