<?xml version="1.0" encoding="UTF-8"?>
<svg width="24px" height="24px" viewBox="0 0 24 24" version="1.1" xmlns="http://www.w3.org/2000/svg" xmlns:xlink="http://www.w3.org/1999/xlink">
    <!-- Generator: Sketch 46.2 (44496) - http://www.bohemiancoding.com/sketch -->
    <title>icon/mic</title>
    <desc>Created with Sketch.</desc>
    <defs>
        <path d="M12,15 C13.7,15 15,13.7 15,12 L15,6 C15,4.3 13.7,3 12,3 C10.3,3 9,4.3 9,6 L9,12 C9,13.7 10.3,15 12,15 L12,15 Z M17.3,12 C17.3,15 14.8,17.1 12,17.1 C9.2,17.1 6.7,15 6.7,12 L5,12 C5,15.4 7.7,18.2 11,18.7 L11,22 L13,22 L13,18.7 C16.3,18.2 19,15.4 19,12 L17.3,12 L17.3,12 Z" id="path-1"></path>
    </defs>
    <g id="Symbols" stroke="none" stroke-width="1" fill="none" fill-rule="evenodd">
        <g id="icon/mic">
            <mask id="mask-2" fill="white">
                <use xlink:href="#path-1"></use>
            </mask>
            <use id="Shape" fill="#000000" xlink:href="#path-1"></use>
        </g>
    </g>
</svg>