<?xml version="1.0" encoding="UTF-8"?>
<svg width="24px" height="24px" viewBox="0 0 24 24" version="1.1" xmlns="http://www.w3.org/2000/svg" xmlns:xlink="http://www.w3.org/1999/xlink">
    <!-- Generator: Sketch 46.2 (44496) - http://www.bohemiancoding.com/sketch -->
    <title>icon/ic_nvr</title>
    <desc>Created with Sketch.</desc>
    <defs>
        <path d="M12.011,17 L19.011,17 L19.011,12 L12.011,12 L12.011,17 Z M4.011,17 L11.011,17 L11.011,12 L4.011,12 L4.011,17 Z M4.011,11 L11.011,11 L11.011,6 L4.011,6 L4.011,11 Z M12.011,11 L19.011,11 L19.011,6 L12.011,6 L12.011,11 Z M21.022,11 L21.022,12 L21.011,12 L21.011,17 C21.011,18.1045 20.1155,19 19.011,19 L4.011,19 C2.9065,19 2.011,18.1045 2.011,17 L2.011,12 L2,12 L2,11 L2.011,11 L2.011,6 C2.011,4.8955 2.9065,4 4.011,4 L11.011,4 L12.011,4 L19.011,4 C20.1155,4 21.011,4.8955 21.011,6 L21.011,11 L21.022,11 Z M16.54665,14.5 L14.08415,13 L14.08415,16 L16.54665,14.5 Z M6.4412,13 L6.4412,16 L8.9037,14.5 L6.4412,13 Z M6.4412,7 L6.4412,10 L8.9037,8.5 L6.4412,7 Z M16.54665,8.5 L14.08415,7 L14.08415,10 L16.54665,8.5 Z" id="path-1"></path>
    </defs>
    <g id="Symbols" stroke="none" stroke-width="1" fill="none" fill-rule="evenodd">
        <g id="icon/ic_nvr">
            <mask id="mask-2" fill="white">
                <use xlink:href="#path-1"></use>
            </mask>
            <use id="Combined-Shape" fill="#000000" xlink:href="#path-1"></use>
        </g>
    </g>
</svg>