<?xml version="1.0" encoding="UTF-8"?>
<svg width="24px" height="24px" viewBox="0 0 24 24" version="1.1" xmlns="http://www.w3.org/2000/svg" xmlns:xlink="http://www.w3.org/1999/xlink">
    <!-- Generator: Sketch 48.1 (47250) - http://www.bohemiancoding.com/sketch -->
    <title>icon/ic_printer</title>
    <desc>Created with Sketch.</desc>
    <defs></defs>
    <g id="Symbols" stroke="none" stroke-width="1" fill="none" fill-rule="evenodd">
        <g id="icon/ic_printer" fill="#000000">
            <path d="M19,6.5 C20.655,6.5 22,7.845 22,9.5 L22,15.5 C22,16.05 21.55,16.5 21,16.5 L18,16.5 L18,17.5 C18,17.545 17.995,17.59 17.98,17.63 C17.97,17.67 17.955,17.71 17.935,17.745 C17.925,17.765 17.915,17.785 17.9,17.8 C17.89,17.82 17.87,17.835 17.855,17.855 L13.855,21.855 C13.84,21.87 13.82,21.89 13.8,21.9 C13.785,21.915 13.765,21.925 13.745,21.935 C13.71,21.955 13.67,21.97 13.63,21.98 C13.59,21.995 13.545,22 13.5,22 L6.5,22 C6.225,22 6,21.775 6,21.5 L6,16.5 L3,16.5 C2.45,16.5 2,16.05 2,15.5 L2,9.5 C2,7.845 3.345,6.5 5,6.5 L6,6.5 L6,3.5 C6,3.225 6.225,3 6.5,3 L17.5,3 C17.775,3 18,3.225 18,3.5 L18,6.5 L19,6.5 Z M18.5,9.5 C18.5,9.775 18.275,10 18,10 C17.725,10 17.5,9.775 17.5,9.5 C17.5,9.225 17.725,9 18,9 C18.275,9 18.5,9.225 18.5,9.5 Z M20,14.5 L20,9.5 C20,8.95 19.55,8.5 19,8.5 L5,8.5 C4.45,8.5 4,8.95 4,9.5 L4,14.5 L6,14.5 L6,11.5 C6,11.225 6.225,11 6.5,11 L17.5,11 C17.775,11 18,11.225 18,11.5 L18,14.5 L20,14.5 Z M8.5,15.5 L8.5,14.5 L15.5,14.5 L15.5,15.5 L8.5,15.5 Z M8.5,18.5 L8.5,17.5 L11.5,17.5 L11.5,18.5 L8.5,18.5 Z M17,17 L17,12 L7,12 L7,21 L13,21 L13,17.5 C13,17.225 13.225,17 13.5,17 L17,17 Z M14,20.295 L16.295,18 L14,18 L14,20.295 Z M7,7 L17,7 L17,4 L7,4 L7,7 Z" id="Page-1"></path>
        </g>
    </g>
</svg>