<?xml version="1.0" encoding="UTF-8"?>
<svg width="24px" height="24px" viewBox="0 0 24 24" version="1.1" xmlns="http://www.w3.org/2000/svg" xmlns:xlink="http://www.w3.org/1999/xlink">
    <!-- Generator: Sketch 46.2 (44496) - http://www.bohemiancoding.com/sketch -->
    <title>icon/ic_pin_1</title>
    <desc>Created with Sketch.</desc>
    <defs>
        <path d="M12,4.91153826 C14.38,4.91153826 16.3165,6.76238517 16.3165,9.0371157 C16.3165,11.4317953 13.621,14.4873892 11.9995,16.0242659 C10.378,14.4897786 7.6835,11.4375299 7.6835,9.0371157 C7.6835,6.76238517 9.62,4.91153826 12,4.91153826 Z M11.338,18.0528859 C11.107,17.857909 5.6835,13.2305528 5.6835,9.0371157 C5.6835,5.70817183 8.517,3 12,3 C15.483,3 18.3165,5.70817183 18.3165,9.0371157 C18.3165,13.2305528 12.893,17.857909 12.662,18.0528859 C12.473,18.2124993 12.2365,18.2923061 12,18.2923061 C11.7635,18.2923061 11.527,18.2124993 11.338,18.0528859 Z M5,21 L5,19.0884617 L19,19.0884617 L19,21 L5,21 Z M10.6333,9.03702012 C10.6333,8.31684809 11.2468,7.73096161 11.9998,7.73096161 C12.7533,7.73096161 13.3668,8.31684809 13.3668,9.03702012 C13.3668,9.75719216 12.7533,10.3430786 11.9998,10.3430786 C11.2468,10.3430786 10.6333,9.75719216 10.6333,9.03702012 M14.3668,9.03702012 C14.3668,7.78974141 13.3053,6.77519248 11.9998,6.77519248 C10.6948,6.77519248 9.6333,7.78974141 9.6333,9.03702012 C9.6333,10.2842988 10.6948,11.2988478 11.9998,11.2988478 C13.3053,11.2988478 14.3668,10.2842988 14.3668,9.03702012" id="path-1"></path>
    </defs>
    <g id="Symbols" stroke="none" stroke-width="1" fill="none" fill-rule="evenodd">
        <g id="icon/ic_pin_1">
            <mask id="mask-2" fill="white">
                <use xlink:href="#path-1"></use>
            </mask>
            <use id="Combined-Shape" fill="#000000" xlink:href="#path-1"></use>
        </g>
    </g>
</svg>