<?xml version="1.0" encoding="UTF-8"?>
<svg width="24px" height="24px" viewBox="0 0 24 24" version="1.1" xmlns="http://www.w3.org/2000/svg" xmlns:xlink="http://www.w3.org/1999/xlink">
    <!-- Generator: Sketch 46.2 (44496) - http://www.bohemiancoding.com/sketch -->
    <title>icon/ic_path_pen</title>
    <desc>Created with Sketch.</desc>
    <defs>
        <path d="M17.0882994,9.48932109 L14.0952529,6.68491317 L13.3471236,7.38601515 L16.34017,10.1904231 L9.60541869,16.5018284 L6.61290132,13.6964288 L5.86477197,14.3975308 L8.85728935,17.2029303 L5.11611354,17.9040323 L5.86477197,14.3975308 L14.8433823,5.98331536 L17.8364287,8.78821911 L17.0882994,9.48932109 Z M19.9527776,8.78821911 C19.9527776,9.31379768 19.7295028,9.81855144 19.3326874,10.1904231 L10.353548,18.6051343 C10.0588464,18.8818068 9.68213634,19.0707176 9.27262282,19.1475711 L5.53144702,19.8491689 C5.39335525,19.8744561 5.25420531,19.8873477 5.11611354,19.8873477 C4.56057195,19.8873477 4.02090298,19.6820745 3.61985486,19.3062363 C3.11986742,18.837678 2.90241257,18.1653341 3.04103343,17.5153025 L3.78916277,14.008801 C3.87170038,13.6250294 4.07222444,13.2724951 4.3679842,12.9953268 L13.3471236,4.5811114 C13.7603407,4.19337325 14.3015969,4 14.8433823,4 C15.3851676,4 15.9269529,4.19337325 16.34017,4.5811114 L19.3326874,7.38601515 C19.7295028,7.75788678 19.9527776,8.26214471 19.9527776,8.78821911 Z M12.5346043,20 L12.5346043,19.0083423 L21,19.0083423 L21,20 L12.5346043,20 Z" id="path-1"></path>
    </defs>
    <g id="Symbols" stroke="none" stroke-width="1" fill="none" fill-rule="evenodd">
        <g id="icon/ic_path_pen">
            <mask id="mask-2" fill="white">
                <use xlink:href="#path-1"></use>
            </mask>
            <use id="Combined-Shape" fill="#000000" xlink:href="#path-1"></use>
        </g>
    </g>
</svg>