<?xml version="1.0" encoding="UTF-8"?>
<svg width="24px" height="24px" viewBox="0 0 24 24" version="1.1" xmlns="http://www.w3.org/2000/svg" xmlns:xlink="http://www.w3.org/1999/xlink">
    <!-- Generator: Sketch 46.2 (44496) - http://www.bohemiancoding.com/sketch -->
    <title>icon/ic_path_region</title>
    <desc>Created with Sketch.</desc>
    <defs>
        <path d="M18,17 C18.5515,17 19,17.4485 19,18 C19,18.5515 18.5515,19 18,19 C17.4485,19 17,18.5515 17,18 C17,17.4485 17.4485,17 18,17 M18,5 C18.5515,5 19,5.4485 19,6 C19,6.5515 18.5515,7 18,7 C17.4485,7 17,6.5515 17,6 C17,5.4485 17.4485,5 18,5 M6,7 C5.4485,7 5,6.5515 5,6 C5,5.4485 5.4485,5 6,5 C6.5515,5 7,5.4485 7,6 C7,6.5515 6.5515,7 6,7 M6.5,15.045 L6.5,8.955 C7.7535,8.743 8.743,7.7535 8.955,6.5 L15.045,6.5 C15.257,7.7535 16.2465,8.743 17.5,8.955 L17.5,15.045 C16.2465,15.257 15.257,16.2465 15.045,17.5 L8.955,17.5 C8.743,16.2465 7.7535,15.257 6.5,15.045 M6,19 C5.4485,19 5,18.5515 5,18 C5,17.4485 5.4485,17 6,17 C6.5515,17 7,17.4485 7,18 C7,18.5515 6.5515,19 6,19 M18.5,15.045 L18.5,8.955 C19.9165,8.716 21,7.4835 21,6 C21,4.3455 19.6545,3 18,3 C16.5165,3 15.284,4.0835 15.045,5.5 L8.955,5.5 C8.716,4.0835 7.4835,3 6,3 C4.3455,3 3,4.3455 3,6 C3,7.4835 4.0835,8.716 5.5,8.955 L5.5,15.045 C4.0835,15.284 3,16.5165 3,18 C3,19.6545 4.3455,21 6,21 C7.4835,21 8.716,19.9165 8.955,18.5 L15.045,18.5 C15.284,19.9165 16.5165,21 18,21 C19.6545,21 21,19.6545 21,18 C21,16.5165 19.9165,15.284 18.5,15.045" id="path-1"></path>
    </defs>
    <g id="Symbols" stroke="none" stroke-width="1" fill="none" fill-rule="evenodd">
        <g id="icon/ic_path_region">
            <mask id="mask-2" fill="white">
                <use xlink:href="#path-1"></use>
            </mask>
            <use id="Page-1" fill="#000000" xlink:href="#path-1"></use>
        </g>
    </g>
</svg>