<?xml version="1.0" encoding="UTF-8"?>
<svg width="24px" height="24px" viewBox="0 0 24 24" version="1.1" xmlns="http://www.w3.org/2000/svg" xmlns:xlink="http://www.w3.org/1999/xlink">
    <!-- Generator: Sketch 46.2 (44496) - http://www.bohemiancoding.com/sketch -->
    <title>icon/ic_ppl_entrance</title>
    <desc>Created with Sketch.</desc>
    <defs>
        <path d="M19.1002433,17.418 L13.4009734,18.8390526 L13.4009734,6.58152632 L19.1002433,5.16047368 L19.1002433,17.418 Z M8.17664256,9.49136842 C8.17664256,10.2748421 7.53737445,10.9124211 6.75182507,10.9124211 C5.96627569,10.9124211 5.32700758,10.2748421 5.32700758,9.49136842 C5.32700758,8.70742105 5.96627569,8.07031579 6.75182507,8.07031579 C7.53737445,8.07031579 8.17664256,8.70742105 8.17664256,9.49136842 L8.17664256,9.49136842 Z M6.75182507,19.5348947 C4.9380324,16.7690526 3.44387379,13.5901579 4.04419689,13.0610526 C4.60082559,12.5707895 5.67608786,12.3254211 6.75182507,12.3254211 C7.82708734,12.3254211 8.90234961,12.5707895 9.45945325,13.0610526 C10.0593014,13.5901579 8.56561774,16.7690526 6.75182507,19.5348947 L6.75182507,19.5348947 Z M20.6342968,3.20036842 C20.4656934,3.06868421 20.2590949,3.00094737 20.0496467,3.00094737 L20.0496467,3 L6.75182507,3 C6.22701729,3 5.80194674,3.42394737 5.80194674,3.94736842 L5.80194674,7.32331579 C4.96462899,7.69042105 4.37712925,8.52268421 4.37712925,9.49136842 C4.37712925,10.3345263 4.82452194,11.0711053 5.49181147,11.4903158 C4.65829323,11.6328947 3.90741441,11.9175789 3.41537744,12.3514737 C1.81815703,13.7583158 5.26574042,19.0621579 6.36000026,20.6542105 C6.44881388,20.7830526 6.59509514,20.8602632 6.75182507,20.8602632 C6.90855499,20.8602632 7.05483626,20.7830526 7.14364988,20.6542105 C8.23790971,19.0621579 11.6854931,13.7583158 10.0882727,12.3514737 C9.59623572,11.9175789 8.84535691,11.6328947 8.01183867,11.4903158 C8.6791282,11.0711053 9.12652089,10.3345263 9.12652089,9.49136842 C9.12652089,8.52268421 8.53902114,7.68994737 7.7017034,7.32331579 L7.7017034,4.89473684 L12.33426,4.89473684 L12.2212245,4.92268421 C11.7980537,5.02831579 11.5012167,5.40726316 11.5012167,5.84210526 L11.5012167,17.7315789 L10.5513384,17.7315789 C10.0270055,17.7315789 9.60146006,18.156 9.60146006,18.6789474 C9.60146006,19.2023684 10.0270055,19.6263158 10.5513384,19.6263158 L11.5012167,19.6263158 L11.5012167,20.0526316 C11.5012167,20.3444211 11.6360994,20.6196316 11.8669199,20.7991579 C12.0355233,20.9303684 12.2416469,21 12.451095,21 C12.5285101,21 12.6054503,20.9905263 12.6814405,20.9715789 L20.2804672,19.0768421 C20.703163,18.9712105 21,18.5922632 21,18.1578947 L21,3.94736842 C21,3.65510526 20.8651173,3.37989474 20.6342968,3.20036842 L20.6342968,3.20036842 Z" id="path-1"></path>
    </defs>
    <g id="Symbols" stroke="none" stroke-width="1" fill="none" fill-rule="evenodd">
        <g id="icon/ic_ppl_entrance">
            <mask id="mask-2" fill="white">
                <use xlink:href="#path-1"></use>
            </mask>
            <use id="Fill-1" fill="#000000" xlink:href="#path-1"></use>
        </g>
    </g>
</svg>