<?xml version="1.0" encoding="UTF-8"?>
<svg width="24px" height="24px" viewBox="0 0 24 24" version="1.1" xmlns="http://www.w3.org/2000/svg" xmlns:xlink="http://www.w3.org/1999/xlink">
    <!-- Generator: Sketch 46.2 (44496) - http://www.bohemiancoding.com/sketch -->
    <title>icon/ic_ppl_face_1</title>
    <desc>Created with Sketch.</desc>
    <defs>
        <path d="M12,5.00002778 C13.6545,5.00002778 15,6.34554647 15,8.00006945 C15,9.65459242 13.6545,11.0001111 12,11.0001111 C10.3455,11.0001111 9,9.65459242 9,8.00006945 C9,6.34554647 10.3455,5.00002778 12,5.00002778 M12,13.0001389 C9.243,13.0001389 7,10.7571077 7,8.00006945 C7,5.24303115 9.243,3 12,3 C14.757,3 17,5.24303115 17,8.00006945 C17,10.7571077 14.757,13.0001389 12,13.0001389 Z M18,17.4999514 L17,17.4999514 L17,15.9999306 L16,15.9999306 L16,18.4999653 L16,18.9999722 L8,18.9999722 L8,18.4999653 L8,15.9999306 L7,15.9999306 L7,17.4999514 L6,17.4999514 L6,15.6454256 C6,14.5519104 7.5645,14.163405 8.2675,14.0439034 L11.4155,16.3119349 C11.764,16.5629384 12.236,16.5629384 12.5845,16.3119349 L15.7325,14.0439034 C16.437,14.163405 18,14.5524105 18,15.6454256 L18,17.4999514 Z M15.5435,12.002875 C15.31,11.9858748 15.077,12.0513757 14.886,12.1883776 L12,14.2679065 L9.114,12.1883776 C8.923,12.0513757 8.6915,11.9858748 8.4565,12.002875 C6.8015,12.1233767 4,13.0263893 4,15.6454256 L4,18.4999653 C4,19.0519729 4.448,19.4999792 5,19.4999792 L6,19.4999792 L6,19.9999861 C6,20.5524938 6.448,21 7,21 L17,21 C17.552,21 18,20.5524938 18,19.9999861 L18,19.4999792 L19,19.4999792 C19.552,19.4999792 20,19.0519729 20,18.4999653 L20,15.6454256 C20,13.0263893 17.1985,12.1233767 15.5435,12.002875 L15.5435,12.002875 Z" id="path-1"></path>
    </defs>
    <g id="Symbols" stroke="none" stroke-width="1" fill="none" fill-rule="evenodd">
        <g id="icon/ic_ppl_face_1">
            <mask id="mask-2" fill="white">
                <use xlink:href="#path-1"></use>
            </mask>
            <use id="Combined-Shape" fill="#000000" xlink:href="#path-1"></use>
        </g>
    </g>
</svg>