<?xml version="1.0" encoding="UTF-8"?>
<svg width="24px" height="24px" viewBox="0 0 24 24" version="1.1" xmlns="http://www.w3.org/2000/svg" xmlns:xlink="http://www.w3.org/1999/xlink">
    <!-- Generator: Sketch 46.2 (44496) - http://www.bohemiancoding.com/sketch -->
    <title>icon/ic_path_mask</title>
    <desc>Created with Sketch.</desc>
    <defs>
        <path d="M4,17 L20,17 L20,7 L4,7 L4,17 Z M21,5 L3,5 C2.448,5 2,5.448 2,6 L2,18 C2,18.552 2.448,19 3,19 L21,19 C21.552,19 22,18.552 22,18 L22,6 C22,5.448 21.552,5 21,5 L21,5 Z M12,15 C11.8575,15 11.714,14.9895 11.574,14.97 L11.434,15.9605 C11.451,15.963 11.469,15.965 11.486,15.9675 L11.4865,15.9675 C11.4895,15.968 11.4915,15.968 11.4945,15.9685 L11.495,15.9685 L11.4985,15.9685 L11.4995,15.9685 C11.5005,15.969 11.502,15.969 11.5035,15.969 L11.504,15.9695 L11.5075,15.9695 C11.508,15.97 11.508,15.97 11.5085,15.97 C11.5095,15.97 11.5105,15.97 11.5115,15.9705 L11.512,15.9705 C11.5135,15.9705 11.5145,15.9705 11.516,15.971 L11.5175,15.971 C11.5185,15.971 11.519,15.971 11.52,15.9715 L11.5215,15.9715 C11.5225,15.9715 11.5235,15.9715 11.5245,15.972 L11.527,15.972 C11.5275,15.972 11.528,15.9725 11.529,15.9725 L11.531,15.9725 C11.5315,15.9725 11.5315,15.9725 11.532,15.973 C11.5335,15.973 11.535,15.973 11.536,15.9735 L11.5375,15.9735 L11.54,15.9735 C11.5405,15.9735 11.541,15.974 11.5415,15.974 L11.5435,15.974 L11.5445,15.974 C11.5465,15.9745 11.548,15.9745 11.5495,15.975 L11.5505,15.975 L11.5525,15.975 L11.5535,15.9755 C11.5565,15.9755 11.5595,15.976 11.5625,15.9765 L11.563,15.9765 C11.567,15.977 11.5715,15.977 11.575,15.9775 C11.5785,15.978 11.5815,15.9785 11.5845,15.9785 L11.585,15.9785 C11.652,15.986 11.7195,15.9905 11.7875,15.9945 L11.788,15.9945 C11.792,15.9945 11.7965,15.995 11.8005,15.995 L11.801,15.995 C11.8035,15.995 11.8065,15.9955 11.8095,15.9955 L11.8105,15.9955 L11.813,15.9955 L11.814,15.9955 C11.816,15.9955 11.818,15.996 11.82,15.996 L11.823,15.996 L11.823,15.996 C11.826,15.996 11.829,15.9965 11.832,15.9965 L11.833,15.9965 L11.8355,15.9965 L11.8365,15.9965 C11.8385,15.9965 11.84,15.997 11.842,15.997 L11.8425,15.997 L11.8445,15.997 L11.846,15.997 L11.8485,15.997 L11.849,15.997 C11.8505,15.997 11.8525,15.997 11.854,15.9975 L11.8555,15.9975 L11.858,15.9975 L11.8595,15.9975 L11.864,15.9975 L11.8645,15.9975 C11.865,15.9975 11.866,15.998 11.867,15.998 L11.8685,15.998 L11.8705,15.998 L11.8725,15.998 L11.876,15.998 L11.878,15.998 L11.88,15.998 L11.882,15.998 C11.883,15.998 11.8835,15.9985 11.884,15.9985 L11.887,15.9985 L11.889,15.9985 L11.891,15.9985 L11.893,15.9985 L11.8955,15.9985 L11.898,15.9985 C11.8985,15.9985 11.8995,15.9985 11.9005,15.999 L11.9025,15.999 L11.9045,15.999 L11.9065,15.999 L11.9095,15.999 L11.911,15.999 L11.9135,15.999 L11.9155,15.999 L11.918,15.999 L11.9195,15.999 L11.923,15.999 C11.9235,15.999 11.924,15.9995 11.925,15.9995 L11.927,15.9995 L11.9285,15.9995 L11.932,15.9995 L11.9335,15.9995 L11.9365,15.9995 L11.938,15.9995 L11.941,15.9995 L11.942,15.9995 L11.946,15.9995 L11.947,15.9995 L11.9495,15.9995 L11.951,15.9995 C11.952,15.9995 11.9535,15.9995 11.955,16 L11.9555,16 L11.959,16 L11.96,16 L11.9635,16 L11.9645,16 L11.9685,16 L11.969,16 L11.972,16 L11.9735,16 L11.9775,16 L11.978,16 L11.9815,16 L11.9825,16 L11.986,16 L11.987,16 L11.9905,16 L11.991,16 L11.995,16 L11.996,16 L12,16 L12.003,16 L12.004,16 L12.006,16 L12.007,16 L12.0095,16 L12.01,16 L12.0125,16 L12.0135,16 L12.0155,16 L12.016,16 L12.019,16 L12.0195,16 L12.0225,16 L12.023,16 L12.0255,16 L12.0265,16 L12.0285,16 L12.0295,16 L12.032,16 L12.035,16 L12.036,16 L12.038,16 L12.039,16 L12.0415,16 L12.042,16 L12.045,16 C12.0455,16 12.046,15.9995 12.046,15.9995 L12.048,15.9995 L12.049,15.9995 L12.051,15.9995 L12.052,15.9995 L12.0545,15.9995 L12.0555,15.9995 L12.0575,15.9995 L12.0585,15.9995 L12.061,15.9995 L12.0615,15.9995 L12.0675,15.9995 L12.0685,15.9995 L12.0705,15.9995 L12.0715,15.9995 L12.0735,15.9995 L12.074,15.9995 C12.075,15.9995 12.076,15.999 12.077,15.999 L12.078,15.999 L12.08,15.999 L12.081,15.999 L12.0835,15.999 L12.084,15.999 L12.087,15.999 L12.088,15.999 L12.09,15.999 L12.091,15.999 L12.093,15.999 L12.0935,15.999 L12.0965,15.999 L12.0995,15.999 C12.1,15.999 12.1005,15.9985 12.1005,15.9985 L12.1025,15.9985 L12.1035,15.9985 L12.106,15.9985 L12.1065,15.9985 L12.1095,15.9985 L12.1105,15.9985 L12.1125,15.9985 L12.1135,15.9985 L12.115,15.9985 L12.116,15.9985 C12.117,15.9985 12.118,15.998 12.119,15.998 L12.1195,15.998 L12.122,15.998 L12.123,15.998 L12.1255,15.998 L12.126,15.998 L12.129,15.998 L12.132,15.998 L12.133,15.998 C12.1335,15.998 12.1345,15.998 12.135,15.9975 L12.1355,15.9975 L12.138,15.9975 L12.1385,15.9975 L12.1415,15.9975 L12.142,15.9975 L12.1445,15.9975 L12.1455,15.9975 C12.146,15.9975 12.147,15.9975 12.148,15.997 L12.1485,15.997 L12.1515,15.997 L12.152,15.997 L12.1545,15.997 L12.1555,15.997 L12.157,15.997 L12.158,15.997 C12.16,15.997 12.162,15.9965 12.164,15.9965 L12.1645,15.9965 L12.167,15.9965 L12.1675,15.9965 C12.17,15.9965 12.172,15.9965 12.174,15.996 L12.1745,15.996 L12.177,15.996 L12.177,15.996 L12.1795,15.996 L12.1805,15.996 L12.1835,15.996 C12.1845,15.9955 12.1855,15.9955 12.1865,15.9955 L12.187,15.9955 L12.1895,15.9955 L12.19,15.9955 C12.192,15.9955 12.194,15.995 12.1965,15.995 L12.197,15.995 L12.199,15.995 L12.2025,15.995 C12.2035,15.995 12.2045,15.9945 12.2055,15.9945 L12.2065,15.9945 L12.2085,15.9945 L12.2095,15.9945 L12.212,15.9945 L12.2125,15.9945 C12.2135,15.994 12.2145,15.994 12.2155,15.994 L12.2185,15.994 L12.2185,15.994 L12.2215,15.994 L12.222,15.994 C12.224,15.9935 12.226,15.9935 12.228,15.9935 L12.2285,15.9935 L12.231,15.9935 L12.2315,15.993 L12.238,15.993 C12.239,15.993 12.2395,15.993 12.2405,15.9925 L12.241,15.9925 L12.244,15.9925 C12.246,15.9925 12.248,15.992 12.25,15.992 L12.251,15.992 L12.2535,15.992 L12.254,15.992 C12.256,15.992 12.258,15.9915 12.26,15.9915 L12.2605,15.9915 L12.2625,15.9915 L12.2635,15.991 L12.2695,15.991 L12.27,15.991 C12.2705,15.991 12.272,15.9905 12.2725,15.9905 L12.273,15.9905 L12.276,15.9905 C12.278,15.99 12.2805,15.99 12.282,15.99 C12.2835,15.99 12.2845,15.99 12.285,15.9895 L12.2855,15.9895 L12.292,15.9895 L12.295,15.9895 L12.2955,15.9895 C12.2975,15.9895 12.2995,15.989 12.3015,15.989 L12.302,15.989 L12.304,15.989 L12.3045,15.989 C12.3055,15.9885 12.3065,15.9885 12.3075,15.9885 C12.31,15.9885 12.312,15.988 12.314,15.988 L12.3145,15.988 L12.3175,15.988 C12.3195,15.9875 12.3215,15.9875 12.3235,15.9875 C12.3245,15.987 12.3255,15.987 12.3265,15.987 L12.327,15.987 C12.329,15.987 12.331,15.9865 12.333,15.9865 L12.3335,15.9865 L12.336,15.9865 L12.3365,15.986 C12.34,15.986 12.3425,15.9855 12.3455,15.9855 C12.3465,15.9855 12.348,15.985 12.349,15.985 C12.351,15.985 12.353,15.9845 12.3555,15.9845 L12.3585,15.9845 C12.361,15.984 12.363,15.984 12.3645,15.9835 L12.3675,15.9835 L12.368,15.9835 C12.369,15.9835 12.37,15.983 12.371,15.983 C12.373,15.983 12.375,15.9825 12.3775,15.9825 C12.3785,15.9825 12.3795,15.9825 12.3805,15.982 L12.381,15.982 C12.383,15.982 12.385,15.982 12.3865,15.9815 L12.387,15.9815 L12.3895,15.9815 L12.39,15.9815 C12.392,15.981 12.394,15.981 12.3965,15.9805 L12.3995,15.9805 C12.403,15.98 12.406,15.9795 12.4085,15.9795 L12.409,15.9795 C12.41,15.979 12.411,15.979 12.412,15.979 C12.414,15.979 12.416,15.9785 12.4185,15.9785 C12.4195,15.978 12.4205,15.978 12.4215,15.978 L12.422,15.978 C12.425,15.9775 12.4275,15.9775 12.431,15.977 C12.434,15.9765 12.4375,15.9765 12.4405,15.976 C12.445,15.9755 12.4485,15.975 12.453,15.9745 C12.4635,15.9735 12.474,15.972 12.4845,15.9705 C12.9355,15.9165 13.364,15.787 13.756,15.5945 C13.76,15.5935 13.763,15.5915 13.7665,15.59 L13.767,15.5895 C13.7695,15.5885 13.7725,15.587 13.775,15.5855 C13.776,15.585 13.777,15.585 13.778,15.5845 L13.778,15.584 C13.78,15.5835 13.7815,15.5825 13.783,15.5815 C13.784,15.581 13.7845,15.5805 13.7855,15.58 L13.786,15.58 C13.7885,15.5785 13.791,15.5775 13.794,15.576 L13.797,15.5745 C13.7985,15.5735 13.8005,15.573 13.802,15.5725 L13.802,15.572 C13.803,15.5715 13.8035,15.5715 13.8045,15.571 C13.8065,15.57 13.8085,15.569 13.81,15.568 L13.8105,15.568 C13.811,15.5675 13.812,15.567 13.8125,15.5665 L13.813,15.5665 C13.8145,15.5655 13.8165,15.5645 13.8185,15.564 L13.8185,15.5635 C13.8195,15.5635 13.82,15.563 13.821,15.5625 C13.821,15.5625 13.8215,15.5625 13.8215,15.562 C13.8225,15.562 13.823,15.5615 13.823,15.561 L13.8235,15.561 C13.8245,15.5605 13.825,15.56 13.826,15.5595 L13.8265,15.5595 C13.8275,15.559 13.828,15.5585 13.8285,15.5585 L13.8295,15.558 C13.83,15.5575 13.8305,15.5575 13.831,15.557 L13.832,15.5565 C13.833,15.556 13.8335,15.5555 13.8345,15.5555 C13.8355,15.555 13.836,15.5545 13.837,15.554 L13.8375,15.5535 C13.8385,15.5535 13.839,15.553 13.8395,15.5525 L13.84,15.5525 C13.841,15.552 13.8415,15.552 13.8425,15.5515 L13.845,15.55 L13.8455,15.55 C13.846,15.5495 13.8465,15.549 13.8475,15.549 L13.848,15.5485 C13.8485,15.548 13.8495,15.548 13.85,15.5475 L13.8505,15.547 C13.8515,15.5465 13.8525,15.546 13.853,15.546 C13.8535,15.546 13.8535,15.5455 13.854,15.5455 C13.8545,15.545 13.855,15.545 13.8555,15.5445 C13.856,15.5445 13.856,15.544 13.8565,15.544 C13.857,15.544 13.8575,15.5435 13.858,15.5435 C13.858,15.5435 13.859,15.543 13.859,15.5425 C13.8595,15.5425 13.8605,15.542 13.861,15.542 C13.8615,15.5415 13.862,15.541 13.8625,15.541 C13.863,15.541 13.8635,15.5405 13.8635,15.5405 C13.864,15.54 13.8645,15.54 13.8645,15.5395 C13.865,15.5395 13.8655,15.539 13.866,15.539 C13.866,15.5385 13.8665,15.5385 13.867,15.5385 C13.8675,15.538 13.868,15.538 13.8685,15.5375 C13.869,15.5375 13.8695,15.537 13.87,15.537 C13.8705,15.5365 13.871,15.536 13.8715,15.536 C13.872,15.5355 13.8725,15.5355 13.8725,15.5355 C13.873,15.535 13.8735,15.535 13.874,15.5345 C13.8745,15.5345 13.875,15.534 13.8755,15.534 C13.8755,15.534 13.876,15.5335 13.8765,15.5335 L13.8775,15.5325 C13.878,15.5325 13.879,15.532 13.8795,15.5315 C13.88,15.5315 13.8805,15.531 13.881,15.531 L13.882,15.531 C13.8825,15.5305 13.883,15.53 13.8835,15.53 C13.884,15.5295 13.884,15.5295 13.8845,15.5295 C13.885,15.529 13.8855,15.529 13.8855,15.5285 L13.886,15.5285 L13.889,15.527 L13.89,15.526 C13.8905,15.526 13.891,15.5255 13.8915,15.5255 L13.892,15.525 C13.893,15.5245 13.8935,15.5245 13.894,15.524 C13.894,15.524 13.8945,15.524 13.8945,15.5235 L13.8975,15.522 L13.8985,15.522 C13.899,15.5215 13.8995,15.521 13.9,15.521 L13.9005,15.5205 C13.901,15.5205 13.9015,15.52 13.9025,15.5195 L13.908,15.5165 C13.908,15.516 13.908,15.516 13.9085,15.516 C13.909,15.516 13.9095,15.5155 13.91,15.515 L13.9105,15.515 C13.913,15.5135 13.916,15.512 13.9185,15.5105 L13.919,15.5105 C13.9215,15.5095 13.924,15.508 13.927,15.5065 C13.927,15.506 13.928,15.5055 13.9285,15.505 C13.9305,15.504 13.9325,15.503 13.935,15.502 C13.9355,15.5015 13.936,15.501 13.937,15.5005 C13.943,15.497 13.949,15.4935 13.955,15.49 C13.958,15.489 13.9605,15.4875 13.9635,15.486 C13.966,15.4845 13.969,15.483 13.971,15.4815 C14.079,15.42 14.1835,15.354 14.285,15.2835 L13.713,14.4635 C13.2095,14.8145 12.617,15 12,15 M15,12 C15,12.7205 14.7405,13.4175 14.27,13.962 L15.026,14.616 L15.0265,14.6155 L15.027,14.6145 L15.0285,14.6135 L15.029,14.613 L15.0305,14.6115 C15.0305,14.611 15.031,14.611 15.031,14.6105 L15.0315,14.6095 L15.0325,14.6085 C15.0325,14.6085 15.0335,14.6075 15.0335,14.607 L15.0345,14.606 C15.035,14.6055 15.035,14.605 15.035,14.605 C15.036,14.6045 15.036,14.604 15.036,14.604 C15.037,14.6035 15.037,14.603 15.0375,14.6025 L15.0385,14.6015 C15.039,14.601 15.039,14.6005 15.0395,14.6005 C15.04,14.5995 15.0405,14.599 15.041,14.5985 L15.042,14.5975 C15.0425,14.597 15.0425,14.5965 15.043,14.596 L15.044,14.595 C15.0445,14.5945 15.0445,14.594 15.045,14.594 C15.0455,14.5935 15.0455,14.5935 15.046,14.5935 C15.046,14.593 15.0465,14.5925 15.047,14.592 L15.0475,14.5915 C15.048,14.5905 15.0485,14.59 15.049,14.59 C15.049,14.5895 15.0495,14.589 15.0495,14.589 C15.05,14.5885 15.0505,14.588 15.0505,14.5875 L15.0515,14.5865 L15.052,14.5855 C15.0525,14.585 15.0525,14.5845 15.0525,14.5845 C15.0535,14.584 15.0535,14.5835 15.054,14.583 C15.0545,14.583 15.0545,14.5825 15.055,14.582 C15.055,14.5815 15.0555,14.5815 15.056,14.581 L15.0565,14.5805 C15.058,14.5785 15.0595,14.577 15.0605,14.575 C15.061,14.575 15.061,14.5745 15.0615,14.5745 C15.0615,14.574 15.062,14.5735 15.0625,14.573 L15.063,14.573 C15.0635,14.572 15.064,14.5715 15.0645,14.5715 L15.065,14.5705 L15.0665,14.569 C15.0665,14.5685 15.0665,14.5685 15.067,14.568 L15.068,14.567 L15.0685,14.5665 C15.0695,14.5655 15.0695,14.565 15.07,14.5645 L15.0705,14.564 L15.072,14.5625 C15.072,14.562 15.0725,14.562 15.0725,14.5615 C15.073,14.561 15.073,14.5605 15.073,14.56 C15.073,14.56 15.0735,14.5595 15.074,14.5595 C15.074,14.559 15.0745,14.5585 15.075,14.558 C15.077,14.556 15.0785,14.554 15.08,14.552 L15.0805,14.552 C15.081,14.5515 15.0815,14.551 15.0815,14.5505 L15.0825,14.5495 C15.083,14.549 15.083,14.5485 15.0835,14.548 C15.084,14.548 15.084,14.5475 15.084,14.5475 L15.0855,14.546 L15.086,14.5455 C15.0865,14.5445 15.087,14.544 15.0875,14.5435 L15.088,14.543 C15.088,14.5425 15.0885,14.542 15.089,14.5415 L15.0895,14.541 C15.09,14.5405 15.0905,14.5395 15.091,14.539 L15.0915,14.539 C15.092,14.538 15.0925,14.5375 15.093,14.537 C15.0945,14.534 15.097,14.5315 15.099,14.529 L15.0995,14.5285 L15.101,14.527 L15.101,14.5265 L15.1025,14.525 L15.103,14.5245 C15.1035,14.5235 15.104,14.523 15.1045,14.5225 L15.105,14.522 C15.1055,14.5215 15.106,14.521 15.106,14.5205 L15.1065,14.52 C15.107,14.5195 15.1075,14.5185 15.108,14.518 C15.108,14.518 15.1085,14.518 15.1085,14.5175 L15.11,14.516 L15.11,14.5155 C15.1135,14.5115 15.1165,14.508 15.1195,14.5035 C15.1195,14.5035 15.12,14.5035 15.12,14.503 L15.1215,14.5015 L15.122,14.501 C15.1225,14.5005 15.123,14.5 15.123,14.499 C15.1235,14.499 15.1235,14.499 15.1235,14.4985 L15.125,14.497 L15.1255,14.4965 L15.127,14.495 L15.127,14.4945 C15.1305,14.4905 15.134,14.4865 15.1365,14.4825 L15.1365,14.482 C15.1375,14.4815 15.138,14.4805 15.1385,14.48 C15.139,14.479 15.1395,14.4785 15.14,14.478 L15.1405,14.4775 C15.141,14.477 15.1415,14.4765 15.142,14.4755 C15.1425,14.475 15.143,14.474 15.1435,14.4735 L15.144,14.4735 C15.148,14.4685 15.1515,14.4635 15.1555,14.4585 C15.156,14.458 15.156,14.457 15.157,14.4565 L15.157,14.456 C15.1575,14.4555 15.158,14.455 15.1585,14.454 L15.1605,14.452 C15.165,14.4465 15.1695,14.4405 15.174,14.435 L15.174,14.4345 C15.1745,14.434 15.175,14.4335 15.1755,14.4325 L15.177,14.4305 L15.1905,14.413 L15.1935,14.4085 C15.199,14.402 15.2045,14.3945 15.21,14.387 C15.2165,14.3785 15.2225,14.3695 15.2295,14.361 C15.2335,14.355 15.238,14.349 15.242,14.3435 C15.3785,14.1555 15.4985,13.9545 15.601,13.7435 C15.614,13.7175 15.626,13.691 15.638,13.6645 C15.6385,13.664 15.638,13.664 15.6385,13.664 C15.65,13.639 15.661,13.6145 15.672,13.589 C15.6725,13.588 15.673,13.5875 15.673,13.5865 L15.6735,13.5865 C15.6735,13.5855 15.674,13.5845 15.6745,13.584 L15.6745,13.5835 C15.6815,13.567 15.6885,13.55 15.696,13.533 L15.696,13.5325 C15.6965,13.532 15.6965,13.5315 15.697,13.5305 C15.6975,13.5295 15.6975,13.529 15.698,13.528 C15.7005,13.521 15.703,13.5145 15.706,13.508 L15.706,13.5075 C15.7065,13.507 15.707,13.506 15.707,13.505 L15.7075,13.505 C15.7075,13.504 15.708,13.5035 15.708,13.5025 L15.7085,13.5025 C15.7085,13.5015 15.709,13.5005 15.7095,13.5 C15.7095,13.4995 15.7095,13.5 15.7095,13.5 C15.712,13.4935 15.714,13.488 15.7165,13.482 L15.717,13.482 C15.717,13.481 15.7175,13.48 15.7175,13.4795 L15.718,13.4795 C15.718,13.4785 15.7185,13.4775 15.7185,13.477 L15.7185,13.4765 C15.7185,13.4755 15.719,13.475 15.7195,13.474 C15.722,13.4685 15.724,13.4625 15.7265,13.456 C15.727,13.455 15.7275,13.4545 15.7275,13.4535 C15.728,13.4525 15.7285,13.452 15.7285,13.451 L15.729,13.4505 C15.729,13.45 15.7295,13.449 15.7295,13.4485 C15.7295,13.4485 15.7295,13.448 15.73,13.448 C15.73,13.4475 15.7305,13.447 15.7305,13.446 L15.731,13.446 C15.733,13.4405 15.735,13.4355 15.737,13.4305 L15.737,13.43 C15.737,13.4295 15.7375,13.4285 15.7375,13.428 L15.738,13.4275 C15.738,13.427 15.7385,13.4265 15.7385,13.4255 L15.739,13.425 C15.739,13.4245 15.7395,13.424 15.7395,13.423 C15.74,13.422 15.74,13.421 15.7405,13.4205 L15.7405,13.4195 C15.741,13.419 15.741,13.4185 15.7415,13.4175 L15.7415,13.417 C15.743,13.413 15.745,13.4085 15.7465,13.405 L15.7465,13.4045 C15.7465,13.404 15.747,13.403 15.747,13.4025 L15.7475,13.402 C15.7475,13.4015 15.748,13.4005 15.748,13.4 C15.748,13.4 15.7485,13.3995 15.7485,13.399 C15.7485,13.3985 15.749,13.398 15.749,13.397 C15.749,13.397 15.7495,13.397 15.7495,13.3965 C15.7495,13.396 15.75,13.395 15.75,13.3945 C15.7505,13.3945 15.7505,13.394 15.7505,13.394 C15.7505,13.393 15.751,13.3925 15.7515,13.3915 L15.7515,13.391 C15.7515,13.3905 15.752,13.3895 15.7525,13.389 L15.7525,13.3885 C15.7545,13.384 15.756,13.3785 15.758,13.3735 L15.758,13.373 C15.7585,13.3725 15.759,13.3715 15.759,13.371 L15.759,13.3705 C15.7595,13.37 15.76,13.369 15.76,13.3685 L15.76,13.368 C15.7605,13.367 15.7605,13.3665 15.7605,13.3655 L15.7605,13.365 C15.761,13.3645 15.7615,13.364 15.7615,13.3635 L15.7615,13.363 C15.7635,13.358 15.7655,13.3525 15.767,13.3475 L15.7675,13.347 C15.7675,13.3465 15.768,13.3455 15.768,13.345 C15.768,13.3445 15.7685,13.3445 15.7685,13.3445 C15.7685,13.344 15.769,13.3435 15.769,13.3425 L15.7695,13.342 C15.7695,13.3415 15.77,13.3405 15.77,13.34 C15.77,13.3395 15.7705,13.3395 15.7705,13.339 C15.7705,13.3385 15.771,13.338 15.771,13.3375 L15.7715,13.3365 C15.7715,13.336 15.772,13.335 15.772,13.3345 L15.772,13.334 C15.7725,13.333 15.7725,13.3325 15.773,13.3315 C15.7745,13.328 15.7755,13.3245 15.7765,13.322 C15.7765,13.322 15.7765,13.3215 15.777,13.3215 C15.777,13.3205 15.7775,13.32 15.7775,13.319 L15.778,13.3185 C15.778,13.318 15.7785,13.317 15.7785,13.3165 C15.7785,13.316 15.7785,13.316 15.779,13.3155 C15.779,13.315 15.7795,13.3145 15.7795,13.3135 L15.7795,13.313 C15.78,13.3125 15.78,13.3115 15.7805,13.311 L15.7805,13.3105 C15.781,13.3095 15.781,13.309 15.781,13.308 L15.781,13.3075 C15.7815,13.307 15.7815,13.306 15.782,13.3055 L15.782,13.305 C15.783,13.302 15.7845,13.299 15.7855,13.2955 L15.7855,13.295 C15.786,13.294 15.786,13.2935 15.7865,13.2925 C15.787,13.2915 15.787,13.291 15.7875,13.29 L15.7875,13.2895 C15.788,13.289 15.788,13.288 15.788,13.2875 L15.7885,13.287 C15.7885,13.286 15.789,13.2855 15.789,13.2845 C15.789,13.2845 15.789,13.284 15.7895,13.284 C15.7895,13.2835 15.79,13.2825 15.79,13.2815 C15.7905,13.281 15.791,13.2805 15.791,13.2795 L15.791,13.279 C15.7925,13.2745 15.794,13.2705 15.7955,13.266 C15.796,13.265 15.796,13.2645 15.7965,13.264 L15.7965,13.263 C15.797,13.2625 15.797,13.2615 15.797,13.261 L15.7975,13.2605 C15.7975,13.26 15.798,13.2595 15.798,13.259 L15.7985,13.258 C15.7985,13.257 15.799,13.2565 15.799,13.256 C15.799,13.2555 15.799,13.2555 15.7995,13.255 C15.7995,13.2545 15.8,13.254 15.8,13.2535 C15.8,13.253 15.8,13.2525 15.8005,13.252 C15.8005,13.2515 15.8005,13.251 15.801,13.2505 L15.801,13.2495 C15.802,13.2455 15.8035,13.241 15.805,13.2375 L15.805,13.237 C15.805,13.2365 15.8055,13.2355 15.8055,13.235 C15.8055,13.235 15.8055,13.2345 15.806,13.2345 C15.806,13.2335 15.8065,13.233 15.8065,13.232 L15.8065,13.2315 C15.807,13.231 15.807,13.23 15.8075,13.2295 L15.8075,13.229 C15.808,13.228 15.808,13.2275 15.8085,13.2265 L15.8085,13.226 C15.8085,13.2255 15.809,13.2245 15.809,13.224 L15.8095,13.2235 C15.8095,13.2225 15.81,13.222 15.81,13.221 L15.81,13.2205 C15.8115,13.2175 15.8125,13.214 15.8135,13.211 L15.8135,13.2105 C15.814,13.21 15.814,13.209 15.8145,13.208 C15.8145,13.207 15.815,13.2065 15.815,13.2055 L15.8155,13.205 C15.8155,13.204 15.816,13.2035 15.816,13.203 L15.816,13.2025 C15.8165,13.2015 15.8165,13.2005 15.817,13.2 L15.817,13.1995 C15.8175,13.1985 15.8175,13.198 15.818,13.1975 L15.818,13.197 C15.818,13.1965 15.8185,13.1955 15.8185,13.195 L15.819,13.1945 C15.82,13.19 15.8215,13.186 15.823,13.1815 L15.823,13.181 L15.823,13.179 L15.8235,13.178 C15.8235,13.1775 15.824,13.177 15.824,13.1765 L15.824,13.176 C15.8245,13.175 15.8245,13.1745 15.825,13.174 L15.825,13.173 C15.8255,13.1725 15.8255,13.172 15.8255,13.171 C15.826,13.171 15.826,13.1705 15.826,13.17 C15.826,13.1695 15.8265,13.169 15.8265,13.1685 C15.8265,13.168 15.827,13.1675 15.827,13.167 C15.827,13.1665 15.827,13.166 15.8275,13.1655 L15.8275,13.1645 C15.828,13.164 15.828,13.1635 15.8285,13.1625 L15.8285,13.162 C15.829,13.1595 15.83,13.157 15.8305,13.155 L15.831,13.155 C15.831,13.154 15.831,13.1535 15.8315,13.153 L15.8315,13.152 C15.832,13.1515 15.832,13.1505 15.832,13.15 C15.8325,13.1495 15.8325,13.1495 15.8325,13.149 C15.8325,13.1485 15.833,13.148 15.833,13.1475 C15.833,13.147 15.833,13.1465 15.8335,13.146 C15.8335,13.1455 15.8335,13.145 15.834,13.1445 L15.834,13.1435 C15.8345,13.143 15.8345,13.142 15.835,13.1415 L15.835,13.1405 C15.835,13.14 15.8355,13.1395 15.8355,13.1385 L15.836,13.138 C15.836,13.137 15.836,13.1365 15.8365,13.136 L15.8365,13.1355 C15.8375,13.133 15.838,13.131 15.839,13.1285 L15.839,13.128 C15.839,13.1275 15.839,13.127 15.8395,13.126 C15.8395,13.126 15.8395,13.1255 15.84,13.125 L15.84,13.1235 C15.8405,13.123 15.8405,13.1225 15.8405,13.1225 C15.841,13.1215 15.841,13.121 15.841,13.1205 C15.841,13.12 15.8415,13.12 15.8415,13.1195 C15.8415,13.119 15.842,13.118 15.842,13.1175 L15.842,13.1165 C15.8425,13.116 15.8425,13.1155 15.843,13.115 L15.843,13.114 C15.843,13.1135 15.8435,13.113 15.8435,13.1125 L15.8435,13.1115 C15.8435,13.1105 15.8435,13.11 15.844,13.1095 L15.844,13.1085 C15.8445,13.108 15.8445,13.1075 15.8445,13.1065 C15.8445,13.1065 15.845,13.106 15.845,13.1055 C15.8455,13.1035 15.8465,13.1015 15.847,13.099 L15.847,13.098 C15.8475,13.0975 15.8475,13.097 15.8475,13.0965 C15.848,13.096 15.848,13.0955 15.848,13.0955 C15.848,13.095 15.8485,13.094 15.8485,13.094 C15.8485,13.094 15.8485,13.093 15.849,13.093 C15.849,13.0925 15.849,13.092 15.8495,13.0915 L15.8495,13.09 C15.85,13.0895 15.85,13.089 15.85,13.0885 C15.85,13.088 15.8505,13.0875 15.8505,13.087 C15.8505,13.0865 15.8505,13.086 15.851,13.0855 C15.851,13.085 15.851,13.0845 15.8515,13.084 L15.8515,13.0825 C15.852,13.082 15.852,13.082 15.852,13.081 C15.852,13.0805 15.8525,13.0805 15.8525,13.08 C15.8525,13.079 15.8525,13.079 15.853,13.0785 C15.853,13.078 15.853,13.0775 15.8535,13.077 C15.8535,13.0765 15.8535,13.0755 15.854,13.075 C15.854,13.0745 15.854,13.0735 15.8545,13.073 C15.8545,13.073 15.8545,13.072 15.855,13.0715 C15.855,13.071 15.855,13.0705 15.8555,13.07 L15.8555,13.069 C15.856,13.0685 15.856,13.068 15.856,13.0675 C15.8565,13.0665 15.8565,13.0665 15.8565,13.066 C15.8565,13.0655 15.857,13.065 15.857,13.0645 C15.857,13.064 15.857,13.0635 15.8575,13.063 L15.8575,13.0615 C15.858,13.061 15.858,13.0605 15.858,13.06 C15.858,13.0595 15.8585,13.059 15.8585,13.0585 C15.8585,13.0585 15.859,13.0575 15.859,13.057 C15.859,13.0565 15.859,13.056 15.8595,13.0555 L15.8595,13.0545 C15.86,13.054 15.86,13.0535 15.86,13.0525 L15.8605,13.052 C15.8605,13.0515 15.8605,13.051 15.861,13.0505 L15.861,13.0495 C15.8615,13.047 15.8625,13.045 15.863,13.043 L15.863,13.042 C15.8635,13.0415 15.8635,13.0405 15.8635,13.0405 C15.8635,13.0395 15.864,13.0395 15.864,13.039 C15.864,13.0385 15.8645,13.038 15.8645,13.0375 L15.8645,13.036 L15.8645,13.0345 C15.865,13.034 15.865,13.0335 15.865,13.033 C15.865,13.0325 15.8655,13.032 15.8655,13.0315 C15.8655,13.0315 15.8655,13.031 15.866,13.0305 L15.866,13.029 C15.8665,13.0285 15.8665,13.028 15.8665,13.028 C15.8665,13.027 15.867,13.0265 15.867,13.026 L15.867,13.0255 C15.8675,13.0245 15.8675,13.024 15.868,13.023 L15.868,13.022 C15.868,13.0215 15.8685,13.021 15.8685,13.0205 L15.8685,13.0195 L15.87,13.015 C15.87,13.014 15.8705,13.0135 15.8705,13.013 C15.8705,13.0125 15.8705,13.012 15.871,13.012 L15.871,13.0105 C15.8715,13.01 15.8715,13.01 15.8715,13.0095 C15.8715,13.009 15.872,13.008 15.872,13.0075 L15.872,13.007 C15.8725,13.006 15.8725,13.0055 15.8725,13.0045 C15.8725,13.0045 15.873,13.004 15.873,13.0035 C15.873,13.003 15.8735,13.0025 15.8735,13.002 C15.8735,13.0015 15.8735,13.001 15.874,13.001 L15.874,12.999 C15.8745,12.9985 15.8745,12.998 15.8745,12.998 C15.8745,12.997 15.875,12.9965 15.875,12.996 C15.875,12.9955 15.875,12.995 15.8755,12.9945 L15.8755,12.993 C15.876,12.993 15.876,12.9925 15.876,12.992 C15.876,12.9915 15.8765,12.991 15.8765,12.99 C15.877,12.989 15.877,12.9875 15.8775,12.986 L15.878,12.9855 C15.878,12.9845 15.878,12.984 15.8785,12.9835 L15.8785,12.982 C15.879,12.9815 15.879,12.981 15.879,12.9805 C15.879,12.98 15.8795,12.9795 15.8795,12.9795 C15.8795,12.9785 15.8795,12.978 15.88,12.9775 L15.88,12.9765 C15.88,12.9755 15.8805,12.9755 15.8805,12.9745 C15.8805,12.974 15.8805,12.974 15.881,12.9735 L15.881,12.9715 C15.8815,12.9715 15.8815,12.971 15.8815,12.9705 C15.8815,12.97 15.882,12.9695 15.882,12.969 L15.882,12.968 C15.8825,12.9675 15.8825,12.967 15.8825,12.9665 C15.8825,12.9665 15.883,12.966 15.883,12.9655 C15.883,12.965 15.8835,12.964 15.8835,12.9635 L15.8835,12.9625 C15.884,12.9605 15.8845,12.958 15.8855,12.956 L15.8855,12.955 L15.8855,12.953 L15.8855,12.952 C15.886,12.9515 15.886,12.951 15.886,12.95 C15.8865,12.95 15.8865,12.9495 15.8865,12.949 C15.8865,12.9485 15.8865,12.948 15.887,12.948 L15.887,12.9465 C15.8875,12.946 15.8875,12.9455 15.8875,12.945 C15.8875,12.945 15.888,12.944 15.888,12.9435 C15.888,12.943 15.888,12.9425 15.8885,12.942 L15.8885,12.941 C15.8885,12.94 15.889,12.9395 15.889,12.939 C15.889,12.9385 15.889,12.9385 15.8895,12.938 L15.8895,12.936 C15.8895,12.936 15.89,12.9355 15.89,12.935 C15.89,12.9345 15.8905,12.934 15.8905,12.933 L15.8905,12.932 C15.891,12.931 15.8915,12.9295 15.8915,12.9285 L15.8915,12.928 C15.892,12.927 15.892,12.927 15.892,12.9265 C15.8925,12.926 15.8925,12.9255 15.8925,12.9255 C15.8925,12.9245 15.8925,12.924 15.893,12.9235 L15.893,12.922 C15.8935,12.9215 15.8935,12.921 15.8935,12.9205 C15.8935,12.92 15.894,12.9195 15.894,12.919 L15.894,12.9175 C15.8945,12.917 15.8945,12.9165 15.8945,12.916 C15.8945,12.9155 15.895,12.915 15.895,12.9145 C15.895,12.914 15.895,12.914 15.8955,12.913 L15.8955,12.9115 C15.8955,12.911 15.896,12.911 15.896,12.9105 C15.896,12.91 15.896,12.9095 15.8965,12.909 L15.8965,12.907 C15.8965,12.907 15.897,12.9065 15.897,12.906 C15.897,12.906 15.897,12.9055 15.8975,12.905 C15.8975,12.9035 15.898,12.902 15.8985,12.9005 L15.8985,12.899 C15.8985,12.8985 15.899,12.898 15.899,12.8975 L15.899,12.8965 C15.8995,12.8955 15.8995,12.895 15.8995,12.8945 C15.8995,12.894 15.9,12.8935 15.9,12.893 L15.9005,12.8915 L15.9005,12.89 C15.901,12.8895 15.901,12.889 15.901,12.8885 C15.901,12.888 15.901,12.888 15.9015,12.8875 L15.9015,12.8855 C15.902,12.8855 15.902,12.885 15.902,12.885 C15.902,12.8845 15.902,12.884 15.9025,12.8835 L15.9025,12.882 C15.903,12.881 15.903,12.881 15.903,12.8805 C15.903,12.88 15.903,12.8795 15.9035,12.879 L15.9035,12.8775 C15.904,12.877 15.904,12.8765 15.904,12.876 C15.904,12.8755 15.904,12.875 15.9045,12.8745 C15.9045,12.8735 15.9045,12.8725 15.905,12.8715 C15.905,12.871 15.905,12.8705 15.9055,12.87 L15.9055,12.8685 C15.9055,12.8685 15.906,12.8675 15.906,12.867 L15.906,12.8655 L15.906,12.8645 C15.906,12.864 15.9065,12.8635 15.9065,12.863 C15.9065,12.8625 15.9065,12.862 15.907,12.862 L15.907,12.86 C15.907,12.8595 15.9075,12.8595 15.9075,12.859 C15.9075,12.858 15.9075,12.8575 15.908,12.857 L15.908,12.856 C15.908,12.8555 15.9085,12.855 15.9085,12.854 L15.9085,12.853 C15.909,12.8525 15.909,12.852 15.909,12.8515 C15.909,12.8505 15.909,12.8505 15.9095,12.85 L15.9095,12.8485 C15.91,12.848 15.91,12.8475 15.91,12.847 C15.91,12.8465 15.91,12.846 15.9105,12.8455 L15.9105,12.8445 C15.911,12.8435 15.911,12.8425 15.9115,12.8415 L15.9115,12.84 C15.9115,12.8395 15.912,12.839 15.912,12.8385 L15.912,12.837 C15.9125,12.8365 15.9125,12.836 15.9125,12.8355 C15.9125,12.835 15.9125,12.8345 15.913,12.834 L15.913,12.8325 C15.913,12.832 15.9135,12.8315 15.9135,12.8315 C15.9135,12.8305 15.9135,12.83 15.914,12.8295 L15.914,12.828 C15.914,12.8275 15.9145,12.827 15.9145,12.8265 L15.9145,12.825 C15.915,12.8245 15.915,12.824 15.915,12.8235 C15.915,12.823 15.915,12.823 15.9155,12.8225 L15.9155,12.8215 C15.916,12.8205 15.916,12.8205 15.916,12.8195 C15.916,12.819 15.916,12.8185 15.9165,12.818 L15.9165,12.817 C15.917,12.815 15.9175,12.813 15.918,12.8105 L15.918,12.8095 C15.918,12.809 15.9185,12.808 15.9185,12.8075 L15.9185,12.8065 C15.919,12.806 15.919,12.8055 15.919,12.8045 L15.919,12.804 C15.9195,12.803 15.9195,12.8025 15.9195,12.802 C15.9195,12.802 15.92,12.8015 15.92,12.801 L15.92,12.7995 C15.9205,12.799 15.9205,12.7985 15.9205,12.798 C15.9205,12.7975 15.9205,12.797 15.921,12.7965 L15.921,12.795 C15.921,12.7945 15.9215,12.794 15.9215,12.7935 C15.9215,12.793 15.9215,12.7925 15.922,12.792 L15.922,12.7905 C15.922,12.79 15.922,12.7895 15.9225,12.7885 L15.9225,12.7875 C15.923,12.7865 15.923,12.786 15.923,12.785 L15.9235,12.7835 C15.9235,12.783 15.9235,12.782 15.924,12.7815 L15.924,12.781 C15.924,12.7805 15.9245,12.7795 15.9245,12.779 L15.9245,12.7785 C15.925,12.7775 15.925,12.7765 15.925,12.776 L15.925,12.775 C15.9255,12.7745 15.9255,12.7735 15.9255,12.773 C15.9255,12.7725 15.926,12.772 15.926,12.772 L15.926,12.77 C15.926,12.77 15.9265,12.769 15.9265,12.7685 L15.9265,12.767 C15.9265,12.767 15.927,12.7665 15.927,12.766 L15.927,12.764 L15.927,12.763 C15.927,12.7625 15.9275,12.7615 15.9275,12.761 L15.9275,12.7605 C15.9275,12.76 15.928,12.759 15.928,12.7585 C15.928,12.758 15.928,12.7575 15.9285,12.757 C15.9285,12.756 15.9285,12.755 15.929,12.7545 L15.929,12.7535 C15.929,12.7525 15.929,12.752 15.9295,12.7515 L15.9295,12.75 C15.9295,12.7495 15.93,12.749 15.93,12.7485 L15.93,12.747 C15.9305,12.7465 15.9305,12.746 15.9305,12.7455 L15.9305,12.744 C15.931,12.7435 15.931,12.743 15.931,12.7425 C15.931,12.742 15.931,12.7415 15.9315,12.741 L15.9315,12.7395 L15.932,12.739 L15.932,12.7365 C15.9325,12.7365 15.9325,12.736 15.9325,12.736 C15.9325,12.735 15.9325,12.734 15.933,12.7335 L15.933,12.7325 C15.933,12.732 15.9335,12.731 15.9335,12.7305 L15.9335,12.7295 C15.934,12.7275 15.9345,12.7255 15.9345,12.7235 L15.9345,12.723 C15.935,12.722 15.935,12.721 15.935,12.7205 L15.9355,12.7195 L15.9355,12.718 L15.936,12.717 C15.936,12.716 15.936,12.7155 15.9365,12.715 L15.9365,12.7135 C15.9365,12.713 15.9365,12.7125 15.937,12.712 L15.937,12.7105 C15.937,12.71 15.9375,12.7095 15.9375,12.709 L15.9375,12.7075 C15.9375,12.707 15.938,12.7065 15.938,12.706 L15.938,12.7045 C15.9385,12.704 15.9385,12.7035 15.9385,12.703 L15.9385,12.7015 C15.939,12.701 15.939,12.7 15.939,12.6995 L15.939,12.6985 C15.9395,12.698 15.9395,12.697 15.9395,12.696 C15.94,12.6955 15.94,12.6955 15.94,12.695 C15.94,12.6945 15.94,12.6935 15.9405,12.693 L15.9405,12.6925 C15.9405,12.6915 15.9405,12.6905 15.941,12.69 L15.941,12.689 C15.941,12.688 15.941,12.6875 15.9415,12.687 L15.9415,12.686 C15.9415,12.685 15.9415,12.6845 15.942,12.684 L15.942,12.6825 C15.942,12.682 15.9425,12.6815 15.9425,12.681 L15.9425,12.6795 C15.9425,12.679 15.943,12.6785 15.943,12.678 L15.943,12.677 C15.943,12.6765 15.9435,12.676 15.9435,12.675 L15.9435,12.6745 C15.9435,12.6735 15.944,12.6725 15.944,12.672 L15.944,12.671 C15.9445,12.67 15.9445,12.669 15.9445,12.668 C15.945,12.667 15.945,12.666 15.945,12.665 C15.945,12.6645 15.9455,12.6645 15.9455,12.664 L15.9455,12.662 C15.9455,12.6615 15.946,12.661 15.946,12.661 L15.946,12.659 C15.946,12.6585 15.9465,12.658 15.9465,12.658 L15.9465,12.656 C15.9465,12.656 15.947,12.6555 15.947,12.655 L15.947,12.6535 C15.9475,12.653 15.9475,12.6525 15.9475,12.652 L15.9475,12.65 C15.9475,12.65 15.948,12.6495 15.948,12.649 L15.948,12.647 L15.948,12.646 L15.948,12.644 C15.948,12.6435 15.9485,12.6435 15.9485,12.643 C15.9485,12.642 15.9485,12.6415 15.949,12.6405 L15.949,12.64 C15.949,12.639 15.949,12.638 15.9495,12.637 L15.9495,12.6365 C15.9495,12.636 15.9495,12.635 15.95,12.6345 L15.95,12.633 C15.95,12.6325 15.95,12.632 15.9505,12.6315 L15.9505,12.63 C15.9505,12.6295 15.9505,12.629 15.951,12.628 L15.951,12.627 L15.951,12.625 C15.951,12.625 15.9515,12.6245 15.9515,12.624 L15.9515,12.622 C15.952,12.622 15.952,12.6215 15.952,12.621 L15.952,12.619 L15.9525,12.618 L15.9525,12.616 C15.953,12.6155 15.953,12.615 15.953,12.615 L15.953,12.6135 C15.953,12.613 15.9535,12.6125 15.9535,12.612 L15.9535,12.6105 C15.9535,12.61 15.954,12.609 15.954,12.6085 C15.954,12.6075 15.954,12.607 15.9545,12.606 L15.9545,12.605 L15.9545,12.603 C15.9545,12.603 15.955,12.6025 15.955,12.602 L15.955,12.6 C15.955,12.6 15.9555,12.5995 15.9555,12.599 L15.9555,12.597 C15.9555,12.5965 15.956,12.5965 15.956,12.5955 L15.956,12.594 C15.956,12.594 15.956,12.5935 15.9565,12.593 L15.9565,12.5915 C15.9565,12.5915 15.9565,12.5905 15.957,12.59 L15.957,12.5885 L15.957,12.587 C15.9575,12.5865 15.9575,12.586 15.9575,12.5855 L15.9575,12.584 C15.958,12.5835 15.958,12.5825 15.958,12.582 L15.958,12.581 C15.958,12.58 15.9585,12.579 15.9585,12.578 L15.9585,12.5775 C15.9585,12.5765 15.959,12.576 15.959,12.575 L15.959,12.574 C15.959,12.5735 15.9595,12.573 15.9595,12.5725 L15.9595,12.571 C15.9595,12.5705 15.96,12.57 15.96,12.5695 L15.96,12.568 C15.96,12.5675 15.96,12.567 15.9605,12.5665 L15.9605,12.565 L15.9605,12.563 C15.961,12.5625 15.961,12.5625 15.961,12.562 L15.961,12.56 C15.961,12.56 15.9615,12.5595 15.9615,12.559 L15.9615,12.557 C15.9615,12.5565 15.9615,12.556 15.962,12.556 L15.962,12.5535 L15.962,12.553 C15.9625,12.552 15.9625,12.5515 15.9625,12.5505 L15.9625,12.55 C15.963,12.549 15.963,12.548 15.963,12.547 L15.963,12.5465 C15.963,12.5455 15.9635,12.545 15.9635,12.544 L15.9635,12.543 C15.9635,12.5425 15.964,12.5415 15.964,12.541 L15.964,12.54 L15.964,12.538 C15.9645,12.5375 15.9645,12.537 15.9645,12.5365 L15.9645,12.535 C15.9645,12.5345 15.965,12.534 15.965,12.534 L15.965,12.532 L15.965,12.531 C15.9655,12.5305 15.9655,12.53 15.9655,12.529 L15.9655,12.5285 C15.966,12.5275 15.966,12.5265 15.966,12.526 L15.966,12.5255 C15.966,12.524 15.966,12.5235 15.9665,12.523 L15.9665,12.522 C15.967,12.5195 15.967,12.518 15.967,12.5155 C15.9675,12.5155 15.9675,12.515 15.9675,12.515 L15.9675,12.5125 C15.9675,12.512 15.968,12.512 15.968,12.5115 L15.968,12.51 L15.968,12.509 C15.9685,12.508 15.9685,12.5075 15.9685,12.507 L15.9685,12.5055 L15.9685,12.504 L15.9685,12.5025 L15.9685,12.501 C15.9685,12.5005 15.969,12.5 15.969,12.4995 L15.969,12.498 C15.969,12.4975 15.969,12.497 15.9695,12.4965 L15.9695,12.4945 L15.9695,12.4935 C15.9695,12.493 15.97,12.492 15.97,12.491 L15.97,12.4905 C15.97,12.4895 15.9705,12.489 15.9705,12.488 L15.9705,12.487 L15.9705,12.4845 C15.971,12.4845 15.971,12.484 15.971,12.4835 L15.971,12.4815 C15.971,12.4815 15.971,12.481 15.9715,12.4805 L15.9715,12.4785 L15.9715,12.4775 C15.9715,12.4765 15.972,12.476 15.972,12.4755 L15.972,12.4745 L15.972,12.4725 C15.9725,12.472 15.9725,12.4715 15.9725,12.4715 L15.9725,12.469 L15.9725,12.4685 C15.973,12.468 15.973,12.467 15.973,12.4665 L15.973,12.466 C15.973,12.465 15.9735,12.464 15.9735,12.463 L15.9735,12.4625 L15.9735,12.46 C15.9735,12.46 15.974,12.4595 15.974,12.459 L15.974,12.456 L15.974,12.4555 C15.9745,12.4545 15.9745,12.454 15.9745,12.453 L15.9745,12.452 C15.9745,12.451 15.9745,12.4505 15.975,12.45 L15.975,12.449 L15.975,12.4475 C15.975,12.447 15.9755,12.4465 15.9755,12.446 L15.9755,12.4445 L15.9755,12.443 C15.9755,12.4425 15.976,12.442 15.976,12.4415 L15.976,12.44 L15.976,12.438 C15.9765,12.4375 15.9765,12.4375 15.9765,12.437 L15.9765,12.435 L15.9765,12.434 C15.9765,12.433 15.977,12.4325 15.977,12.432 L15.977,12.431 C15.977,12.4295 15.977,12.4285 15.9775,12.4275 L15.9775,12.425 C15.9775,12.4245 15.9775,12.424 15.978,12.424 L15.978,12.422 L15.978,12.4205 C15.978,12.42 15.9785,12.4195 15.9785,12.419 L15.9785,12.4175 L15.9785,12.416 C15.9785,12.4155 15.9785,12.415 15.979,12.4145 L15.979,12.413 L15.979,12.4115 C15.979,12.411 15.979,12.41 15.9795,12.41 L15.9795,12.408 L15.9795,12.4065 L15.9795,12.4055 C15.98,12.405 15.98,12.4045 15.98,12.404 L15.98,12.4025 L15.98,12.4005 C15.9805,12.4005 15.9805,12.4 15.9805,12.3995 L15.9805,12.3965 L15.9805,12.3955 C15.981,12.3945 15.981,12.394 15.981,12.3935 L15.981,12.3925 C15.981,12.3915 15.981,12.391 15.9815,12.3905 L15.9815,12.389 L15.9815,12.387 L15.9815,12.386 C15.9815,12.3855 15.982,12.385 15.982,12.3845 L15.982,12.383 L15.982,12.3815 C15.982,12.381 15.982,12.3805 15.9825,12.38 L15.9825,12.378 L15.9825,12.377 L15.9825,12.375 C15.983,12.3745 15.983,12.3745 15.983,12.374 L15.983,12.3715 L15.983,12.371 C15.9835,12.369 15.9835,12.367 15.9835,12.3645 C15.9835,12.3645 15.9835,12.3645 15.984,12.364 L15.984,12.362 L15.984,12.361 C15.984,12.36 15.984,12.3595 15.9845,12.359 L15.9845,12.3575 L15.9845,12.356 L15.9845,12.3545 C15.9845,12.354 15.9845,12.3535 15.985,12.3525 L15.985,12.3515 L15.985,12.3495 L15.985,12.3485 C15.985,12.3475 15.9855,12.347 15.9855,12.3465 L15.9855,12.345 L15.9855,12.3435 L15.9855,12.343 C15.986,12.342 15.986,12.341 15.986,12.3405 L15.986,12.34 L15.986,12.3365 L15.9865,12.336 L15.9865,12.3335 L15.9865,12.332 L15.9865,12.33 C15.987,12.33 15.987,12.3295 15.987,12.329 L15.987,12.327 L15.987,12.326 C15.987,12.325 15.987,12.3245 15.9875,12.324 L15.9875,12.323 L15.9875,12.3215 L15.9875,12.32 L15.9875,12.318 C15.988,12.3175 15.988,12.3175 15.988,12.317 L15.988,12.315 L15.988,12.3145 C15.988,12.313 15.988,12.3125 15.9885,12.312 L15.9885,12.311 L15.9885,12.3085 L15.9885,12.307 C15.9885,12.306 15.9885,12.3055 15.989,12.3045 L15.989,12.3035 L15.989,12.302 L15.989,12.301 C15.989,12.3 15.989,12.2995 15.9895,12.299 L15.9895,12.2975 L15.9895,12.2955 L15.9895,12.2945 L15.9895,12.2925 L15.9895,12.2915 L15.9895,12.2895 L15.9895,12.288 L15.9895,12.286 C15.9895,12.286 15.9895,12.2855 15.99,12.285 L15.99,12.283 L15.99,12.282 L15.99,12.2795 C15.99,12.278 15.9905,12.277 15.9905,12.276 L15.9905,12.2755 L15.9905,12.273 L15.9905,12.272 C15.9905,12.2715 15.991,12.2705 15.991,12.27 L15.991,12.2685 L15.991,12.2665 L15.991,12.2655 L15.991,12.2635 L15.9915,12.2625 L15.9915,12.2605 L15.9915,12.2595 L15.9915,12.258 L15.9915,12.2565 C15.992,12.256 15.992,12.2555 15.992,12.255 L15.992,12.2535 L15.992,12.2515 L15.992,12.2505 L15.992,12.248 L15.9925,12.247 L15.9925,12.244 L15.9925,12.2435 L15.9925,12.241 L15.9925,12.24 C15.993,12.2395 15.993,12.239 15.993,12.2385 L15.993,12.237 L15.993,12.235 L15.993,12.234 L15.993,12.232 C15.993,12.2315 15.9935,12.231 15.9935,12.2305 L15.9935,12.229 L15.9935,12.2275 L15.9935,12.226 L15.9935,12.2245 C15.9935,12.224 15.9935,12.2235 15.994,12.2225 L15.994,12.2215 L15.994,12.2195 L15.994,12.2185 L15.994,12.2155 L15.994,12.215 C15.994,12.214 15.9945,12.2135 15.9945,12.2125 L15.9945,12.212 L15.9945,12.2095 L15.9945,12.208 L15.9945,12.2065 L15.9945,12.205 C15.995,12.2045 15.995,12.2035 15.995,12.2035 L15.995,12.2015 L15.995,12.2 L15.995,12.1985 L15.995,12.197 L15.995,12.1965 C15.995,12.1955 15.995,12.1945 15.9955,12.194 L15.9955,12.193 L15.9955,12.1905 L15.9955,12.1895 L15.9955,12.1865 C15.9955,12.1855 15.9955,12.1845 15.996,12.1835 L15.996,12.183 L15.996,12.1805 L15.996,12.1795 L15.996,12.177 L15.996,12.1765 L15.996,12.1745 L15.996,12.173 C15.996,12.1725 15.9965,12.172 15.9965,12.1715 L15.9965,12.17 L15.9965,12.168 L15.9965,12.167 L15.9965,12.165 L15.9965,12.164 L15.9965,12.1615 L15.997,12.161 L15.997,12.1585 L15.997,12.1575 L15.997,12.1555 L15.997,12.1545 L15.997,12.1515 L15.997,12.151 L15.997,12.1485 L15.997,12.1475 C15.9975,12.1465 15.9975,12.146 15.9975,12.1455 L15.9975,12.144 L15.9975,12.1425 L15.9975,12.141 L15.9975,12.139 L15.9975,12.138 L15.9975,12.136 L15.9975,12.135 C15.998,12.1345 15.998,12.134 15.998,12.133 L15.998,12.1325 L15.998,12.13 L15.998,12.129 L15.998,12.126 L15.998,12.1255 L15.998,12.1195 L15.998,12.1185 C15.998,12.1175 15.9985,12.117 15.9985,12.116 L15.9985,12.115 L15.9985,12.1135 L15.9985,12.1125 L15.9985,12.1105 L15.9985,12.109 L15.9985,12.1075 L15.9985,12.106 L15.9985,12.104 L15.9985,12.1025 L15.9985,12.101 C15.9985,12.1005 15.999,12.1 15.999,12.0995 L15.999,12.0975 L15.999,12.0965 L15.999,12.0935 L15.999,12.0905 L15.999,12.09 L15.999,12.0875 L15.999,12.087 L15.999,12.0845 L15.999,12.083 L15.999,12.081 L15.999,12.08 L15.999,12.078 L15.999,12.0765 C15.9995,12.076 15.9995,12.0755 15.9995,12.075 L15.9995,12.0735 L15.9995,12.072 L15.9995,12.071 L15.9995,12.069 L15.9995,12.0675 L15.9995,12.0655 L15.9995,12.0645 L15.9995,12.0615 L15.9995,12.061 L15.9995,12.058 L15.9995,12.057 L15.9995,12.055 L15.9995,12.0535 L15.9995,12.052 L15.9995,12.0515 L15.9995,12.049 L15.9995,12.0485 C15.9995,12.0475 15.9995,12.0465 16,12.046 L16,12.0445 L16,12.043 L16,12.0415 L16,12.0395 L16,12.0385 L16,12.0365 L16,12.035 L16,12.033 L16,12.032 L16,12.0295 L16,12.0285 L16,12.0265 L16,12.025 L16,12.023 L16,12.022 L16,12.02 L16,12.0185 L16,12.0165 L16,12.0155 L16,12.0135 L16,12.012 L16,12.0105 L16,12.0095 L16,12.0075 L16,12.0065 L16,12.004 L16,12.003 L16,12 L16,11.997 L16,11.996 L16,11.994 L16,11.993 L16,11.99 L16,11.988 L16,11.987 L16,11.9845 L16,11.984 L16,11.981 L16,11.98 L16,11.978 L16,11.977 L16,11.9745 L16,11.9735 L16,11.9715 L16,11.9705 L16,11.9685 L16,11.9675 L16,11.965 L16,11.9635 L16,11.962 L16,11.9605 L16,11.9595 L16,11.9565 L16,11.9555 C16,11.955 16,11.9545 15.9995,11.9535 L15.9995,11.953 L15.9995,11.947 L15.9995,11.9465 C15.999,11.9145 15.9985,11.8835 15.997,11.8515 L14.998,11.888 C14.9995,11.9255 15,11.9625 15,12 M8,12.01365 L8,12.01515 L8,12.01665 L8,12.01865 L8,12.01965 L8,12.02265 L8,12.02565 L8,12.02615 L8,12.02865 L8,12.02965 L8,12.03165 L8,12.03315 L8,12.03465 L8,12.03615 L8,12.03815 L8,12.03915 L8,12.04115 L8,12.04265 L8,12.04465 L8,12.04515 C8.0005,12.04615 8.0005,12.04715 8.0005,12.04815 L8.0005,12.04915 L8.0005,12.05115 L8.0005,12.05265 L8.0005,12.05465 L8.0005,12.05565 L8.0005,12.05765 L8.0005,12.05915 L8.0005,12.06065 L8.0005,12.06215 L8.0005,12.06365 L8.0005,12.06515 L8.0005,12.06665 L8.0005,12.06765 L8.0005,12.06965 L8.0005,12.07215 L8.0005,12.07415 L8.0005,12.07565 C8.0005,12.07615 8.001,12.07665 8.001,12.07715 L8.001,12.07865 L8.001,12.08015 L8.001,12.08165 L8.001,12.08315 L8.001,12.08465 L8.001,12.08665 L8.001,12.08765 L8.001,12.08915 L8.001,12.09065 L8.001,12.09215 L8.001,12.09315 L8.001,12.09665 L8.001,12.09815 L8.001,12.09965 C8.001,12.10015 8.0015,12.10065 8.0015,12.10115 L8.0015,12.10265 L8.0015,12.10465 L8.0015,12.10565 L8.0015,12.10715 L8.0015,12.10865 L8.0015,12.11015 L8.0015,12.11165 L8.0015,12.11315 L8.0015,12.11465 L8.0015,12.11615 L8.0015,12.11715 C8.002,12.11865 8.002,12.11965 8.002,12.12115 L8.002,12.12165 L8.002,12.12415 L8.002,12.12515 L8.002,12.12715 L8.002,12.12815 L8.002,12.12965 L8.002,12.13115 L8.002,12.13265 L8.002,12.13365 C8.0025,12.13465 8.0025,12.13515 8.0025,12.13565 L8.0025,12.13715 L8.0025,12.13915 L8.0025,12.13965 L8.0025,12.14665 L8.0025,12.14765 C8.003,12.14865 8.003,12.14915 8.003,12.14915 L8.003,12.15015 L8.003,12.15215 L8.003,12.15365 L8.003,12.15565 L8.003,12.15665 L8.003,12.15865 L8.003,12.15915 C8.003,12.16015 8.003,12.16115 8.0035,12.16165 L8.0035,12.16215 L8.0035,12.16965 L8.0035,12.17015 L8.0035,12.17215 C8.004,12.17215 8.004,12.17265 8.004,12.17265 L8.004,12.17515 L8.004,12.17565 L8.004,12.17815 L8.004,12.17865 L8.004,12.18115 L8.004,12.18215 L8.004,12.18415 C8.0045,12.18415 8.0045,12.18465 8.0045,12.18465 C8.0045,12.18815 8.0045,12.19115 8.005,12.19515 L8.005,12.19765 L8.005,12.19865 L8.005,12.20065 L8.005,12.20115 L8.005,12.20365 L8.005,12.20415 C8.0055,12.20965 8.006,12.21465 8.006,12.22065 C8.006,12.22165 8.006,12.22265 8.0065,12.22315 L8.0065,12.22365 L8.0065,12.22615 L8.0065,12.22665 L8.0065,12.22915 L8.0065,12.22965 C8.007,12.23365 8.007,12.23865 8.0075,12.24315 L8.0075,12.24615 C8.0075,12.24715 8.0075,12.24815 8.008,12.24865 L8.008,12.24915 L8.008,12.25165 C8.0085,12.25715 8.0085,12.26265 8.009,12.26865 L8.009,12.27115 L8.0095,12.27165 L8.0095,12.27415 L8.0095,12.27415 L8.0105,12.29365 L8.0105,12.29415 L8.0105,12.29615 C8.011,12.30315 8.0115,12.30965 8.012,12.31565 C8.0165,12.37115 8.022,12.42565 8.0285,12.48015 C8.029,12.48115 8.029,12.48215 8.029,12.48215 L8.029,12.48265 C8.0295,12.48815 8.0305,12.49365 8.031,12.49915 L8.031,12.50215 L8.031,12.50415 L8.0315,12.50465 L8.0315,12.50715 L8.0315,12.50765 C8.032,12.51215 8.033,12.51665 8.0335,12.52115 L8.0335,12.52165 C8.0335,12.52215 8.0335,12.52315 8.034,12.52365 L8.034,12.52415 L8.034,12.52615 L8.034,12.52715 C8.0345,12.52765 8.0345,12.52815 8.0345,12.52915 L8.0345,12.52965 C8.0345,12.53065 8.035,12.53115 8.035,12.53215 L8.035,12.53265 C8.035,12.53365 8.035,12.53415 8.0355,12.53515 L8.0355,12.53565 C8.0355,12.53815 8.036,12.54015 8.0365,12.54265 L8.0365,12.54365 L8.0365,12.54465 C8.037,12.54515 8.037,12.54565 8.037,12.54615 L8.037,12.54765 L8.037,12.54865 C8.0375,12.54965 8.0375,12.55015 8.0375,12.55065 L8.0375,12.55215 C8.038,12.55265 8.038,12.55315 8.038,12.55365 L8.038,12.55515 C8.038,12.55565 8.0385,12.55615 8.0385,12.55665 L8.0385,12.55815 C8.0385,12.55865 8.0385,12.55915 8.039,12.55965 L8.039,12.56065 C8.039,12.56165 8.039,12.56315 8.0395,12.56415 L8.0395,12.56565 C8.0395,12.56565 8.04,12.56615 8.04,12.56665 L8.04,12.56815 L8.04,12.56965 C8.0405,12.57015 8.0405,12.57065 8.0405,12.57115 L8.0405,12.57265 C8.0405,12.57315 8.041,12.57365 8.041,12.57415 L8.041,12.57565 C8.041,12.57615 8.041,12.57665 8.0415,12.57715 L8.0415,12.57865 C8.0415,12.57915 8.0415,12.58015 8.042,12.58065 L8.042,12.58165 C8.042,12.58215 8.042,12.58315 8.0425,12.58415 L8.0425,12.58465 C8.0425,12.58565 8.0425,12.58665 8.043,12.58715 L8.043,12.58765 C8.043,12.58865 8.043,12.58915 8.0435,12.59015 L8.0435,12.59065 C8.0435,12.59165 8.0435,12.59215 8.044,12.59315 L8.044,12.59415 L8.044,12.59615 C8.044,12.59665 8.0445,12.59665 8.0445,12.59715 L8.0445,12.59915 L8.045,12.60015 L8.045,12.60265 L8.045,12.60315 C8.0455,12.60615 8.046,12.60915 8.0465,12.61215 C8.047,12.61315 8.047,12.61415 8.047,12.61515 L8.047,12.61565 C8.0475,12.61665 8.0475,12.61715 8.0475,12.61815 L8.0475,12.61865 C8.048,12.61965 8.048,12.62065 8.048,12.62165 C8.0525,12.65165 8.0575,12.68215 8.0635,12.71215 L9.0475,12.53565 C9.016,12.36015 9,12.18015 9,12.00015 C9,11.42215 9.164,10.86215 9.4745,10.37915 L8.634,9.83815 C8.583,9.91765 8.5345,9.99865 8.4895,10.08115 C8.487,10.08615 8.4845,10.09015 8.482,10.09465 C8.481,10.09665 8.48,10.09815 8.479,10.10015 L8.479,10.10065 C8.4785,10.10115 8.4785,10.10165 8.478,10.10215 L8.478,10.10265 C8.477,10.10415 8.476,10.10615 8.475,10.10715 C8.475,10.10765 8.4745,10.10815 8.4745,10.10815 C8.4745,10.10865 8.474,10.10915 8.4735,10.10965 C8.473,10.11115 8.4725,10.11215 8.4715,10.11315 L8.4715,10.11365 C8.4715,10.11415 8.471,10.11465 8.4705,10.11515 L8.4705,10.11565 C8.4695,10.11765 8.4685,10.11965 8.468,10.12115 C8.468,10.12165 8.468,10.12165 8.4675,10.12215 C8.4675,10.12215 8.467,10.12265 8.467,10.12315 C8.467,10.12365 8.4665,10.12415 8.4665,10.12415 C8.466,10.12515 8.4655,10.12615 8.465,10.12665 C8.465,10.12715 8.465,10.12715 8.4645,10.12765 C8.4645,10.12815 8.464,10.12815 8.464,10.12865 L8.4635,10.12965 C8.463,10.12965 8.463,10.13065 8.4625,10.13065 L8.4625,10.13165 C8.462,10.13265 8.4615,10.13315 8.461,10.13415 C8.4605,10.13465 8.4605,10.13465 8.4605,10.13515 C8.46,10.13565 8.46,10.13615 8.4595,10.13665 C8.4595,10.13715 8.459,10.13715 8.459,10.13715 C8.459,10.13815 8.4585,10.13865 8.458,10.13915 C8.458,10.13965 8.4575,10.14015 8.4575,10.14115 L8.4565,10.14215 C8.4565,10.14265 8.4565,10.14265 8.456,10.14315 C8.456,10.14315 8.4555,10.14415 8.4555,10.14465 C8.455,10.14515 8.455,10.14565 8.4545,10.14615 C8.4545,10.14665 8.454,10.14715 8.4535,10.14815 C8.4535,10.14815 8.4535,10.14865 8.453,10.14915 C8.453,10.14915 8.4525,10.14915 8.4525,10.14965 C8.452,10.15015 8.452,10.15065 8.452,10.15065 C8.4515,10.15115 8.4515,10.15165 8.451,10.15215 C8.451,10.15315 8.4505,10.15365 8.45,10.15415 C8.45,10.15465 8.4495,10.15515 8.4495,10.15565 C8.449,10.15615 8.449,10.15615 8.449,10.15665 C8.449,10.15665 8.4485,10.15765 8.448,10.15765 L8.448,10.15915 C8.4475,10.15965 8.4475,10.16015 8.447,10.16065 C8.447,10.16165 8.4465,10.16165 8.4465,10.16265 C8.4465,10.16265 8.446,10.16315 8.446,10.16365 C8.4455,10.16415 8.4455,10.16465 8.445,10.16515 L8.4445,10.16565 C8.444,10.16665 8.4435,10.16765 8.4435,10.16815 C8.4435,10.16815 8.443,10.16865 8.443,10.16915 C8.4425,10.16965 8.4425,10.16965 8.442,10.17015 C8.442,10.17015 8.442,10.17065 8.4415,10.17115 C8.4415,10.17165 8.441,10.17215 8.4405,10.17315 L8.4405,10.17365 C8.44,10.17415 8.4395,10.17515 8.439,10.17565 C8.439,10.17565 8.439,10.17665 8.4385,10.17665 C8.4385,10.17715 8.438,10.17765 8.438,10.17815 L8.4375,10.17915 C8.437,10.18015 8.4365,10.18065 8.4365,10.18165 C8.436,10.18165 8.436,10.18215 8.436,10.18215 C8.4355,10.18265 8.4355,10.18315 8.435,10.18415 L8.4345,10.18465 C8.4345,10.18565 8.434,10.18615 8.4335,10.18715 C8.433,10.18815 8.4325,10.18915 8.432,10.18965 L8.432,10.19015 C8.4315,10.19065 8.431,10.19115 8.4305,10.19215 L8.429,10.19515 C8.4285,10.19615 8.4285,10.19665 8.428,10.19765 L8.4275,10.19815 C8.427,10.19915 8.427,10.19965 8.427,10.20015 L8.427,10.20065 C8.4265,10.20165 8.426,10.20215 8.4255,10.20315 L8.4255,10.20365 C8.425,10.20415 8.4245,10.20515 8.424,10.20565 L8.424,10.20615 C8.423,10.20815 8.422,10.20965 8.4215,10.21165 L8.421,10.21165 C8.4205,10.21215 8.4205,10.21315 8.42,10.21365 L8.42,10.21415 C8.4195,10.21465 8.419,10.21565 8.4185,10.21665 C8.418,10.21765 8.4175,10.21865 8.417,10.21915 L8.417,10.21965 C8.4165,10.22065 8.416,10.22115 8.416,10.22215 L8.4155,10.22215 C8.415,10.22315 8.415,10.22415 8.4145,10.22465 L8.414,10.22515 C8.414,10.22615 8.4135,10.22665 8.413,10.22765 C8.412,10.22965 8.411,10.23165 8.4105,10.23265 L8.41,10.23315 C8.409,10.23465 8.4085,10.23665 8.4075,10.23815 L8.4075,10.23865 C8.407,10.23965 8.4065,10.24015 8.406,10.24115 C8.4055,10.24315 8.405,10.24515 8.404,10.24665 C8.4025,10.24965 8.401,10.25215 8.4,10.25465 C8.2,10.66615 8.069,11.11615 8.0205,11.59065 L8.0205,11.59115 C8.02,11.59615 8.0195,11.60165 8.019,11.60715 C8.0185,11.60965 8.0185,11.61265 8.018,11.61615 C8.0175,11.62515 8.0165,11.63265 8.0155,11.64165 C8.0155,11.64365 8.0155,11.64565 8.015,11.64815 C8.015,11.64965 8.015,11.65165 8.0145,11.65415 L8.0145,11.65715 C8.014,11.65965 8.014,11.66165 8.014,11.66365 C8.0135,11.66715 8.0135,11.67015 8.013,11.67265 L8.013,11.67315 C8.013,11.67515 8.0125,11.67715 8.0125,11.67965 C8.0125,11.68065 8.0125,11.68165 8.012,11.68265 C8.012,11.68515 8.012,11.68715 8.0115,11.68915 L8.0115,11.68965 L8.0115,11.69215 C8.0115,11.69415 8.011,11.69615 8.011,11.69815 L8.011,11.69865 C8.0105,11.70415 8.0105,11.70915 8.0105,11.71415 C8.01,11.71665 8.01,11.71865 8.01,11.72065 C8.01,11.72215 8.0095,11.72265 8.0095,11.72415 C8.0095,11.72615 8.0095,11.72815 8.009,11.73015 L8.009,11.73065 L8.009,11.73665 L8.0085,11.73665 L8.0085,11.73965 C8.0085,11.74215 8.008,11.74415 8.008,11.74615 L8.008,11.74665 L8.008,11.74965 C8.008,11.75065 8.008,11.75165 8.0075,11.75265 L8.0075,11.75315 L8.0075,11.75565 C8.0075,11.75815 8.007,11.75965 8.007,11.76215 L8.007,11.76515 L8.007,11.76565 L8.007,11.76865 C8.0065,11.76965 8.0065,11.77065 8.0065,11.77165 L8.0065,11.77215 C8.0065,11.77415 8.0065,11.77565 8.006,11.77815 L8.006,11.78115 L8.006,11.78165 C8.006,11.78365 8.006,11.78565 8.0055,11.78765 L8.0055,11.78815 L8.0055,11.79115 L8.0055,11.79415 L8.0055,11.79465 C8.0055,11.79515 8.005,11.79615 8.005,11.79665 L8.005,11.79715 L8.005,11.80365 L8.005,11.80415 C8.005,11.80465 8.005,11.80565 8.0045,11.80665 L8.0045,11.80715 L8.0045,11.81015 L8.0045,11.81065 L8.0045,11.81315 L8.0045,11.81365 C8.0045,11.81565 8.004,11.81715 8.004,11.81915 L8.004,11.82015 L8.004,11.82265 L8.004,11.82615 C8.004,11.82715 8.0035,11.82815 8.0035,11.82915 L8.0035,11.82965 L8.0035,11.83265 L8.0035,11.83565 L8.0035,11.83615 L8.0035,11.83815 C8.0035,11.83865 8.003,11.83865 8.003,11.83865 L8.003,11.84515 L8.003,11.84565 L8.003,11.84815 L8.003,11.84865 L8.003,11.85165 L8.003,11.85215 C8.0025,11.85315 8.0025,11.85415 8.0025,11.85465 L8.0025,11.85565 L8.0025,11.86115 L8.0025,11.86165 L8.0025,11.86415 L8.0025,11.86465 C8.002,11.86565 8.002,11.86665 8.002,11.86765 L8.002,11.86815 L8.002,11.87065 L8.002,11.87165 L8.002,11.87415 L8.002,11.87765 L8.002,11.87815 L8.002,11.88015 L8.002,11.88065 C8.002,11.88165 8.0015,11.88265 8.0015,11.88365 L8.0015,11.88415 L8.0015,11.88665 L8.0015,11.88715 L8.0015,11.88965 L8.0015,11.89065 L8.0015,11.89365 L8.0015,11.89415 L8.0015,11.89615 L8.0015,11.89715 C8.0015,11.89815 8.0015,11.89915 8.001,11.89965 L8.001,11.90015 L8.001,11.90265 L8.001,11.90365 L8.001,11.90565 L8.001,11.90665 L8.001,11.90915 L8.001,11.91015 L8.001,11.91265 L8.001,11.91315 L8.001,11.91615 L8.001,11.91915 L8.001,11.92015 L8.001,11.92165 L8.001,11.92265 C8.0005,11.92365 8.0005,11.92465 8.0005,11.92565 L8.0005,11.92865 L8.0005,11.92915 L8.0005,11.93165 L8.0005,11.93215 L8.0005,11.93515 L8.0005,11.93615 L8.0005,11.93815 L8.0005,11.93915 L8.0005,11.94165 L8.0005,11.94465 L8.0005,11.94515 L8.0005,11.94765 L8.0005,11.94815 L8.0005,11.95115 L8.0005,11.95215 C8.0005,11.95265 8.0005,11.95365 8,11.95415 L8,11.95515 L8,11.95765 L8,11.95815 L8,11.96115 L8,11.96165 L8,11.96365 L8,11.96465 L8,11.96765 L8,11.96815 L8,11.97015 L8,11.97115 L8,11.97365 L8,11.97415 L8,11.97715 L8,11.97815 L8,11.98015 L8,11.98115 L8,11.98365 L8,11.98665 L8,11.98715 L8,11.98965 L8,11.99015 L8,11.99315 L8,11.99415 L8,11.99615 L8,11.99715 L8,12.00015 L8,12.00315 L8,12.00365 L8,12.00565 L8,12.00715 L8,12.00915 L8,12.01015 L8,12.01215 L8,12.01365 Z M9.2705,13.24755 L8.3615,13.66405 C8.6425,14.27805 9.075,14.80855 9.6105,15.20805 C9.6115,15.20905 9.612,15.20955 9.613,15.21005 C9.614,15.21055 9.614,15.21105 9.6145,15.21155 C9.6145,15.21155 9.615,15.21155 9.615,15.21205 C9.616,15.21255 9.6165,15.21305 9.617,15.21355 L9.6175,15.21355 C9.618,15.21405 9.619,15.21455 9.6195,15.21505 L9.62,15.21555 C9.6205,15.21605 9.6215,15.21655 9.622,15.21655 L9.6225,15.21655 C9.623,15.21755 9.6235,15.21755 9.6245,15.21805 C9.6245,15.21805 9.6245,15.21855 9.625,15.21855 C9.6255,15.21905 9.626,15.21955 9.627,15.22005 L9.627,15.22055 C9.628,15.22105 9.6285,15.22155 9.629,15.22205 L9.6295,15.22205 C9.6305,15.22255 9.631,15.22305 9.6315,15.22355 C9.632,15.22355 9.632,15.22405 9.632,15.22405 C9.6325,15.22455 9.6335,15.22505 9.634,15.22555 L9.6345,15.22555 C9.635,15.22605 9.6355,15.22655 9.636,15.22705 L9.636,15.22755 C9.637,15.22805 9.6375,15.22855 9.6385,15.22905 L9.639,15.22905 C9.6395,15.22955 9.6405,15.23055 9.641,15.23055 L9.641,15.23105 C9.642,15.23155 9.6425,15.23205 9.6435,15.23255 C9.645,15.23405 9.6465,15.23505 9.648,15.23605 L9.6485,15.23605 C9.65,15.23705 9.6515,15.23805 9.653,15.23905 L9.6535,15.23905 C9.6575,15.24255 9.6625,15.24605 9.667,15.24955 C9.668,15.25005 9.6685,15.25055 9.6695,15.25155 C9.67,15.25205 9.671,15.25255 9.6715,15.25255 C9.6715,15.25305 9.672,15.25305 9.672,15.25305 C9.673,15.25355 9.6735,15.25405 9.674,15.25455 L9.6745,15.25505 C9.675,15.25555 9.6755,15.25605 9.6765,15.25605 L9.6765,15.25655 C9.677,15.25705 9.6775,15.25755 9.6785,15.25805 L9.679,15.25805 C9.6795,15.25855 9.68,15.25905 9.6805,15.25905 C9.6805,15.25905 9.681,15.25955 9.6815,15.25955 C9.682,15.26005 9.6825,15.26055 9.6835,15.26105 L9.684,15.26155 C9.6845,15.26205 9.685,15.26255 9.6855,15.26255 C9.686,15.26305 9.686,15.26305 9.6865,15.26305 L9.688,15.26455 C9.688,15.26455 9.6885,15.26505 9.689,15.26505 C9.6895,15.26555 9.69,15.26555 9.6905,15.26605 C9.6905,15.26655 9.691,15.26655 9.6915,15.26655 L9.693,15.26805 L9.6935,15.26855 C9.6945,15.26905 9.695,15.26905 9.6955,15.26955 C9.6955,15.27005 9.696,15.27005 9.6965,15.27055 C9.697,15.27055 9.6975,15.27105 9.6975,15.27155 C9.6975,15.27155 9.698,15.27155 9.698,15.27205 L9.7,15.27305 C9.7,15.27355 9.7005,15.27355 9.701,15.27355 C9.7015,15.27405 9.702,15.27455 9.702,15.27505 C9.7025,15.27505 9.703,15.27505 9.703,15.27555 C9.7035,15.27605 9.704,15.27605 9.7045,15.27655 C9.7045,15.27655 9.7055,15.27705 9.706,15.27755 C9.706,15.27755 9.7065,15.27805 9.707,15.27805 C9.7075,15.27855 9.708,15.27855 9.708,15.27855 C9.708,15.27855 9.709,15.27905 9.7095,15.27955 C9.71,15.27955 9.7105,15.28005 9.711,15.28055 C9.711,15.28055 9.7115,15.28105 9.712,15.28105 L9.713,15.28205 C9.7135,15.28255 9.714,15.28255 9.7145,15.28305 C9.715,15.28305 9.7155,15.28355 9.716,15.28405 C9.716,15.28405 9.7165,15.28455 9.717,15.28455 C9.7175,15.28505 9.718,15.28505 9.718,15.28555 C9.7185,15.28605 9.7185,15.28605 9.719,15.28655 C9.7195,15.28655 9.72,15.28705 9.7205,15.28705 C9.7205,15.28755 9.721,15.28805 9.721,15.28805 C9.722,15.28855 9.7225,15.28855 9.7225,15.28905 C9.723,15.28905 9.7235,15.28955 9.724,15.29005 C9.7245,15.29005 9.725,15.29055 9.725,15.29055 C9.7255,15.29105 9.726,15.29155 9.7265,15.29155 C9.727,15.29205 9.7275,15.29205 9.728,15.29255 C9.7285,15.29305 9.7285,15.29305 9.729,15.29305 L9.7305,15.29455 C9.731,15.29455 9.731,15.29505 9.7315,15.29505 C9.732,15.29555 9.7325,15.29555 9.733,15.29605 C9.733,15.29605 9.7335,15.29655 9.734,15.29655 L9.7355,15.29805 C9.736,15.29805 9.736,15.29805 9.7365,15.29855 C9.737,15.29905 9.7375,15.29905 9.738,15.29955 L9.739,15.29955 L9.74,15.30105 L9.7405,15.30105 C9.7415,15.30155 9.742,15.30205 9.7425,15.30255 C9.743,15.30255 9.743,15.30305 9.7435,15.30305 C9.746,15.30505 9.7485,15.30655 9.751,15.30855 L9.7515,15.30855 C9.752,15.30905 9.753,15.30955 9.7535,15.31005 C9.754,15.31005 9.754,15.31055 9.7545,15.31055 C9.755,15.31105 9.7555,15.31155 9.756,15.31155 L9.7565,15.31205 C9.7575,15.31255 9.758,15.31305 9.7585,15.31355 C9.759,15.31355 9.759,15.31405 9.7595,15.31405 C9.76,15.31455 9.76,15.31455 9.7605,15.31505 C9.7605,15.31505 9.7615,15.31555 9.7615,15.31605 C9.762,15.31605 9.7625,15.31655 9.763,15.31705 C9.7635,15.31705 9.764,15.31755 9.764,15.31755 C9.7645,15.31805 9.7655,15.31855 9.7655,15.31855 C9.7655,15.31855 9.766,15.31905 9.7665,15.31905 C9.767,15.31955 9.768,15.32005 9.7685,15.32055 L9.769,15.32055 C9.7695,15.32055 9.77,15.32105 9.771,15.32155 L9.7715,15.32205 C9.772,15.32255 9.7725,15.32305 9.7735,15.32305 L9.774,15.32355 C9.7745,15.32405 9.7755,15.32455 9.776,15.32505 L9.7765,15.32555 C9.7775,15.32605 9.778,15.32605 9.7785,15.32655 L9.779,15.32705 C9.78,15.32755 9.7805,15.32805 9.781,15.32855 L9.781,15.32905 C9.782,15.32905 9.7825,15.32955 9.783,15.33005 C9.7835,15.33005 9.7835,15.33055 9.7835,15.33055 C9.7845,15.33105 9.785,15.33155 9.7855,15.33155 L9.786,15.33205 C9.787,15.33255 9.7875,15.33305 9.788,15.33355 C9.788,15.33355 9.7885,15.33355 9.789,15.33405 C9.7895,15.33405 9.79,15.33455 9.791,15.33505 C9.791,15.33505 9.791,15.33555 9.7915,15.33555 C9.792,15.33605 9.7925,15.33655 9.7935,15.33705 L9.794,15.33705 C9.7945,15.33755 9.7955,15.33805 9.796,15.33855 L9.7965,15.33905 C9.797,15.33905 9.798,15.34005 9.7985,15.34005 L9.799,15.34055 C9.7995,15.34105 9.8005,15.34105 9.801,15.34155 L9.8015,15.34155 C9.8015,15.34205 9.8025,15.34255 9.803,15.34305 L9.8035,15.34355 C9.8045,15.34405 9.805,15.34455 9.806,15.34505 C9.807,15.34555 9.8075,15.34605 9.8085,15.34655 C9.8105,15.34805 9.812,15.34905 9.8135,15.35005 C10.0205,15.48555 10.2405,15.60205 10.4715,15.69755 L10.854,14.77355 C10.1505,14.48255 9.588,13.94055 9.2705,13.24755 M14.87795,11.1499 L15.83745,10.8674 C15.67995,10.3319 15.41295,9.8434 15.06295,9.4274 L15.06245,9.4269 C15.04545,9.4064 15.02745,9.3859 15.00995,9.3654 C15.00845,9.3639 15.00745,9.3624 15.00595,9.3609 C15.00495,9.3599 15.00445,9.3594 15.00395,9.3584 C15.00345,9.3579 15.00245,9.3574 15.00195,9.3564 C15.00145,9.3554 15.00045,9.3549 14.99995,9.3539 C14.99945,9.3534 14.99895,9.3524 14.99795,9.3519 C14.98245,9.3344 14.96745,9.3174 14.95095,9.3004 L14.95095,9.2999 L14.94745,9.2959 C14.94645,9.2944 14.94495,9.2929 14.94345,9.2914 C14.94295,9.2904 14.94245,9.2899 14.94145,9.2894 L14.94145,9.2889 C14.94095,9.2884 14.94045,9.2879 14.93945,9.2874 L14.93945,9.2869 C14.93895,9.2859 14.93795,9.2854 14.93745,9.2854 C14.93695,9.2844 14.93595,9.2839 14.93545,9.2834 L14.93545,9.2829 L14.93345,9.2809 L14.93145,9.2789 L14.93145,9.2784 C14.93045,9.2779 14.92995,9.2774 14.92995,9.2764 L14.92595,9.2724 L14.92595,9.2719 C14.92495,9.2714 14.92445,9.2709 14.92395,9.2699 L14.92345,9.2699 C14.90995,9.2559 14.89695,9.2419 14.88395,9.2279 C14.88295,9.2269 14.88245,9.2264 14.88195,9.2254 C14.88145,9.2254 14.88195,9.2254 14.88195,9.2254 C14.88095,9.2249 14.88045,9.2244 14.87945,9.2234 C14.87895,9.2229 14.87845,9.2224 14.87795,9.2219 L14.87745,9.2219 C14.87695,9.2209 14.87645,9.2204 14.87595,9.2199 C14.87545,9.2199 14.87545,9.2194 14.87545,9.2194 C14.87495,9.2189 14.87395,9.2184 14.87345,9.2179 L14.87345,9.2174 C14.87245,9.2169 14.87195,9.2159 14.87145,9.2154 L14.86945,9.2134 L14.86745,9.2114 L14.86745,9.2109 L14.86545,9.2089 C14.86495,9.2084 14.86445,9.2074 14.86345,9.2069 C14.86295,9.2059 14.86195,9.2054 14.86145,9.2049 L14.86145,9.2044 C14.86095,9.2039 14.85995,9.2034 14.85945,9.2029 L14.85945,9.2024 C14.85845,9.2019 14.85795,9.2014 14.85745,9.2009 L14.85545,9.1989 L14.85495,9.1989 C14.85445,9.1979 14.85395,9.1974 14.85295,9.1969 L14.85295,9.1964 C14.85245,9.1959 14.85145,9.1954 14.85095,9.1944 L14.84895,9.1924 L14.81845,9.1614 C14.81695,9.1604 14.81545,9.1589 14.81445,9.1574 L14.81395,9.1574 L14.81195,9.1554 L14.80995,9.1534 L14.80795,9.1514 L14.80745,9.1509 L14.80595,9.1494 C14.80545,9.1494 14.80545,9.1494 14.80545,9.1489 C14.80495,9.1484 14.80495,9.1479 14.80395,9.1474 L14.80395,9.1469 C14.80345,9.1464 14.80245,9.1459 14.80195,9.1454 L14.80195,9.1449 C14.80095,9.1444 14.80045,9.1434 14.79995,9.1429 L14.79795,9.1409 L14.79745,9.1404 C14.79695,9.1399 14.79645,9.1394 14.79545,9.1394 L14.79545,9.1389 C14.79495,9.1384 14.79395,9.1379 14.79345,9.1374 C14.79345,9.1374 14.79345,9.1369 14.79295,9.1369 L14.79145,9.1354 L14.79095,9.1349 L14.78895,9.1329 C14.78845,9.1319 14.78745,9.1314 14.78695,9.1309 L14.78495,9.1289 L14.78445,9.1284 L14.78345,9.1269 L14.78295,9.1264 C14.78245,9.1259 14.78195,9.1254 14.78095,9.1249 L14.78095,9.1244 C14.77995,9.1239 14.77945,9.1234 14.77895,9.1224 C14.77795,9.1219 14.77745,9.1214 14.77695,9.1204 L14.77645,9.1204 C14.77595,9.1199 14.77545,9.1189 14.77445,9.1189 C14.76545,9.1099 14.75645,9.1009 14.74695,9.0929 C14.74645,9.0919 14.74545,9.0914 14.74495,9.0909 L14.74495,9.0904 C14.74395,9.0899 14.74345,9.0894 14.74295,9.0889 L14.74245,9.0884 C14.74245,9.0879 14.74195,9.0874 14.74095,9.0869 L14.74095,9.0864 C14.74045,9.0859 14.73945,9.0854 14.73895,9.0844 C14.73795,9.0839 14.73745,9.0834 14.73695,9.0824 L14.73645,9.0824 L14.73495,9.0809 L14.73445,9.0804 L14.73245,9.0784 C14.73145,9.0779 14.73095,9.0769 14.73045,9.0769 L14.72995,9.0769 C14.72945,9.0759 14.72895,9.0754 14.72845,9.0749 L14.72795,9.0749 L14.72595,9.0729 L14.72545,9.0724 L14.72395,9.0709 C14.72395,9.0709 14.72345,9.0709 14.72345,9.0704 C14.72295,9.0699 14.72245,9.0694 14.72195,9.0689 L14.72195,9.0684 C14.72095,9.0679 14.72045,9.0674 14.71995,9.0669 L14.71945,9.0664 L14.71795,9.0649 L14.71745,9.0644 C14.71695,9.0639 14.71595,9.0634 14.71545,9.0629 L14.71545,9.0624 C14.71445,9.0619 14.71395,9.0614 14.71345,9.0609 L14.71295,9.0604 C14.71245,9.0599 14.71145,9.0594 14.71095,9.0589 L14.71095,9.0584 C14.70995,9.0579 14.70945,9.0574 14.70895,9.0569 L14.70845,9.0564 C14.70795,9.0559 14.70745,9.0559 14.70645,9.0549 C14.70595,9.0544 14.70495,9.0539 14.70445,9.0529 C14.70295,9.0514 14.70145,9.0504 14.70045,9.0489 C14.69195,9.0409 14.68295,9.0334 14.67495,9.0259 L14.67445,9.0254 L14.67245,9.0234 C14.67145,9.0229 14.67095,9.0224 14.67045,9.0214 L14.66995,9.0214 C14.66945,9.0209 14.66895,9.0204 14.66795,9.0199 L14.66795,9.0194 C14.66695,9.0189 14.66645,9.0184 14.66595,9.0179 L14.66545,9.0174 L14.66395,9.0159 L14.66345,9.0154 C14.66295,9.0149 14.66195,9.0144 14.66145,9.0144 L14.66095,9.0139 L14.65945,9.0124 L14.65945,9.0119 C14.65845,9.0114 14.65795,9.0109 14.65745,9.0104 C14.65745,9.0099 14.65745,9.0099 14.65695,9.0099 L14.65545,9.0084 L14.65495,9.0079 C14.65395,9.0074 14.65345,9.0069 14.65295,9.0064 C14.65295,9.0059 14.65245,9.0059 14.65245,9.0059 L14.65095,9.0044 C14.65045,9.0044 14.65045,9.0039 14.65045,9.0039 C14.64945,9.0034 14.64895,9.0029 14.64845,9.0024 L14.64795,9.0019 L14.64645,9.0004 C14.64595,8.9999 14.64595,8.9999 14.64545,8.9999 L14.64395,8.9984 L14.64345,8.9979 L14.64195,8.9964 L14.64095,8.9959 L14.63945,8.9944 L14.63895,8.9939 L14.63795,8.9929 C14.63795,8.9929 14.63745,8.9924 14.63695,8.9924 L14.63545,8.9909 L14.63495,8.9904 L14.63345,8.9889 C14.63295,8.9889 14.63295,8.9884 14.63295,8.9884 C14.63195,8.9879 14.63145,8.9874 14.63095,8.9869 L14.63045,8.9864 L14.62895,8.9849 C14.62895,8.9849 14.62845,8.9849 14.62845,8.9844 C14.62745,8.9839 14.62695,8.9834 14.62645,8.9829 L14.62595,8.9829 C14.61895,8.9764 14.61195,8.9704 14.60445,8.9639 C14.60345,8.9634 14.60295,8.9629 14.60195,8.9619 C14.60045,8.9609 14.59895,8.9594 14.59745,8.9584 L14.59745,8.9579 C14.59695,8.9574 14.59695,8.9569 14.59595,8.9564 L14.59545,8.9559 L14.59395,8.9544 C14.59395,8.9544 14.59345,8.9544 14.59345,8.9539 C14.59295,8.9534 14.59195,8.9529 14.59145,8.9524 L14.59095,8.9524 C14.59045,8.9519 14.58995,8.9514 14.58945,8.9514 L14.58895,8.9509 C14.58795,8.9504 14.58745,8.9499 14.58695,8.9494 L14.58645,8.9489 L14.58495,8.9474 C14.58445,8.9474 14.58445,8.9469 14.58395,8.9469 L14.58245,8.9454 L14.58195,8.9449 C14.58145,8.9444 14.58095,8.9439 14.57995,8.9434 C14.57995,8.9434 14.57995,8.9429 14.57945,8.9429 L14.57795,8.9414 L14.57745,8.9409 C14.57645,8.9404 14.57595,8.9399 14.57595,8.9394 C14.57595,8.9394 14.57545,8.9394 14.57545,8.9389 L14.57395,8.9374 C14.57395,8.9374 14.57345,8.9374 14.57295,8.9369 C14.57245,8.9364 14.57195,8.9364 14.57145,8.9359 C14.57145,8.9354 14.57095,8.9354 14.57095,8.9354 L14.56945,8.9339 L14.56845,8.9334 L14.56695,8.9319 L14.56645,8.9314 C14.56545,8.9314 14.56495,8.9309 14.56445,8.9304 C14.56445,8.9304 14.56445,8.9299 14.56395,8.9299 C14.56345,8.9294 14.56295,8.9289 14.56195,8.9284 L14.56195,8.9279 C14.56145,8.9274 14.56045,8.9269 14.55995,8.9264 L14.55945,8.9259 C14.55895,8.9254 14.55845,8.9249 14.55745,8.9244 C14.55645,8.9239 14.55595,8.9234 14.55545,8.9224 L14.55495,8.9224 C14.55395,8.9214 14.55245,8.9199 14.55095,8.9189 C14.54195,8.9114 14.53345,8.9044 14.52395,8.8969 L14.52395,8.8964 C14.52345,8.8959 14.52245,8.8954 14.52195,8.8949 C14.52195,8.8949 14.52145,8.8949 14.52145,8.8944 C14.52095,8.8939 14.52045,8.8934 14.51945,8.8929 C14.51845,8.8924 14.51795,8.8914 14.51745,8.8909 L14.51695,8.8909 C14.51645,8.8904 14.51545,8.8899 14.51495,8.8894 L14.51445,8.8894 C14.51395,8.8889 14.51345,8.8884 14.51295,8.8879 L14.51095,8.8859 C14.51045,8.8859 14.51045,8.8859 14.51045,8.8854 C14.50995,8.8849 14.50895,8.8844 14.50845,8.8839 L14.50795,8.8839 C14.50745,8.8834 14.50695,8.8829 14.50595,8.8824 L14.50545,8.8819 L14.50395,8.8804 L14.50345,8.8799 C14.50245,8.8794 14.50195,8.8789 14.50145,8.8784 L14.50095,8.8779 C14.50045,8.8774 14.49995,8.8769 14.49895,8.8769 C14.49895,8.8764 14.49895,8.8764 14.49845,8.8759 C14.49795,8.8759 14.49745,8.8754 14.49695,8.8749 C14.49695,8.8749 14.49645,8.8744 14.49595,8.8744 L14.49445,8.8729 L14.49395,8.8724 C14.49345,8.8719 14.49245,8.8714 14.49245,8.8709 L14.49195,8.8704 L14.49045,8.8689 L14.48995,8.8689 C14.48895,8.8689 14.48845,8.8684 14.48795,8.8679 L14.48745,8.8674 C14.48695,8.8669 14.48595,8.8664 14.48545,8.8659 L14.48495,8.8654 C14.48445,8.8649 14.48395,8.8644 14.48295,8.8639 C14.48195,8.8634 14.48145,8.8624 14.48095,8.8619 L14.48045,8.8619 C14.47995,8.8614 14.47895,8.8609 14.47845,8.8604 L14.47795,8.8599 C14.47745,8.8594 14.47695,8.8589 14.47595,8.8584 C14.46645,8.8504 14.45595,8.8429 14.44645,8.8349 C14.44595,8.8344 14.44495,8.8339 14.44445,8.8334 L14.44395,8.8329 C14.44345,8.8324 14.44295,8.8319 14.44195,8.8314 L14.44145,8.8314 C14.44095,8.8309 14.44045,8.8299 14.43945,8.8299 L14.43945,8.8294 C14.43845,8.8289 14.43795,8.8284 14.43745,8.8279 C14.43695,8.8279 14.43695,8.8274 14.43695,8.8274 C14.43645,8.8269 14.43545,8.8269 14.43495,8.8264 L14.43445,8.8264 C14.43395,8.8259 14.43345,8.8254 14.43245,8.8249 C14.43245,8.8249 14.43245,8.8244 14.43195,8.8244 C14.43145,8.8239 14.43095,8.8234 14.42995,8.8229 L14.42995,8.8224 C14.42945,8.8219 14.42895,8.8214 14.42845,8.8209 L14.42795,8.8209 C14.42695,8.8204 14.42645,8.8199 14.42595,8.8194 L14.42545,8.8189 C14.42495,8.8184 14.42395,8.8179 14.42345,8.8174 L14.42295,8.8169 C14.42245,8.8164 14.42195,8.8159 14.42095,8.8154 L14.42045,8.8154 L14.41895,8.8139 C14.41845,8.8134 14.41845,8.8134 14.41795,8.8134 L14.41645,8.8119 L14.41595,8.8114 C14.41545,8.8114 14.41445,8.8104 14.41395,8.8104 L14.41345,8.8099 C14.41295,8.8094 14.41195,8.8089 14.41145,8.8084 L14.41095,8.8079 C14.41045,8.8074 14.40995,8.8069 14.40945,8.8064 C14.40845,8.8064 14.40795,8.8059 14.40745,8.8054 L14.40695,8.8049 C14.40595,8.8044 14.40545,8.8039 14.40495,8.8034 L14.40445,8.8029 C14.40345,8.8024 14.40295,8.8019 14.40245,8.8014 L14.40195,8.8014 C14.40145,8.8009 14.40045,8.8004 14.39995,8.7999 L14.39945,8.7994 C14.39895,8.7989 14.39845,8.7984 14.39745,8.7979 C14.38795,8.7899 14.37745,8.7829 14.36745,8.7754 C14.36595,8.7739 14.36445,8.7729 14.36295,8.7719 L14.36245,8.7719 L14.36045,8.7699 L14.35995,8.7699 C14.35945,8.7694 14.35895,8.7689 14.35795,8.7684 L14.35745,8.7679 C14.35695,8.7674 14.35645,8.7669 14.35545,8.7664 C14.35445,8.7659 14.35395,8.7654 14.35345,8.7649 L14.35295,8.7649 C14.35195,8.7644 14.35145,8.7639 14.35095,8.7639 L14.35045,8.7634 C14.34945,8.7629 14.34895,8.7624 14.34845,8.7619 L14.34795,8.7614 C14.34695,8.7609 14.34695,8.7604 14.34645,8.7599 L14.34595,8.7599 C14.34545,8.7594 14.34445,8.7589 14.34395,8.7584 L14.34345,8.7579 C14.34295,8.7574 14.34195,8.7569 14.34145,8.7564 L14.34095,8.7564 C14.34045,8.7559 14.33995,8.7554 14.33895,8.7549 L14.33895,8.7544 C14.33795,8.7539 14.33745,8.7534 14.33645,8.7529 C14.33545,8.7524 14.33495,8.7519 14.33395,8.7514 L14.33395,8.7509 C14.33295,8.7504 14.33245,8.7499 14.33195,8.7494 L14.33145,8.7494 C14.33095,8.7489 14.32995,8.7484 14.32945,8.7479 L14.32895,8.7474 C14.32795,8.7469 14.32745,8.7464 14.32695,8.7459 L14.32645,8.7459 C14.32595,8.7454 14.32545,8.7449 14.32495,8.7444 L14.32445,8.7439 C14.32395,8.7439 14.32295,8.7434 14.32245,8.7429 C14.32145,8.7424 14.32095,8.7419 14.31995,8.7414 L14.31995,8.7409 C14.30495,8.7304 14.28945,8.7199 14.27445,8.7089 C14.27395,8.7084 14.27295,8.7079 14.27245,8.7074 L14.27195,8.7074 C14.27095,8.7069 14.27045,8.7064 14.26995,8.7059 L14.26945,8.7054 C14.26895,8.7049 14.26795,8.7044 14.26745,8.7039 L14.26695,8.7039 C14.26645,8.7034 14.26545,8.7029 14.26495,8.7024 L14.26445,8.7024 C14.26395,8.7019 14.26345,8.7014 14.26295,8.7014 L14.26245,8.7009 C14.26195,8.7004 14.26095,8.6999 14.26045,8.6994 L14.25995,8.6994 C14.25945,8.6989 14.25845,8.6984 14.25795,8.6979 L14.25795,8.6974 C14.25695,8.6969 14.25595,8.6964 14.25545,8.6959 L14.25495,8.6959 C14.25445,8.6954 14.25395,8.6949 14.25295,8.6944 C14.25195,8.6934 14.25095,8.6934 14.25045,8.6924 C14.24945,8.6919 14.24845,8.6914 14.24795,8.6909 C14.24695,8.6904 14.24645,8.6899 14.24545,8.6894 C14.24445,8.6884 14.24395,8.6884 14.24295,8.6874 C14.22695,8.6769 14.21095,8.6659 14.19445,8.6554 C14.19395,8.6549 14.19295,8.6544 14.19195,8.6539 L14.19195,8.6534 C14.19145,8.6529 14.19045,8.6524 14.18945,8.6519 C14.18895,8.6514 14.18795,8.6509 14.18695,8.6504 C14.18645,8.6499 14.18545,8.6494 14.18445,8.6489 C14.18395,8.6484 14.18295,8.6479 14.18195,8.6474 L14.18195,8.6469 C14.18145,8.6464 14.18045,8.6459 14.17995,8.6454 C14.17895,8.6449 14.17845,8.6444 14.17745,8.6439 C14.17695,8.6434 14.17595,8.6429 14.17495,8.6424 C14.17395,8.6414 14.17345,8.6409 14.17245,8.6404 C14.17195,8.6399 14.17095,8.6394 14.16995,8.6394 C14.16895,8.6389 14.16845,8.6384 14.16745,8.6379 C14.16645,8.6374 14.16595,8.6369 14.16495,8.6364 C14.12245,8.6084 14.07895,8.5819 14.03545,8.5564 L13.52595,9.4164 C14.18295,9.8059 14.66345,10.4214 14.87795,11.1499 M12,9 C12.2865,9 12.5695,9.04 12.841,9.119 L13.1205,8.159 C12.8135,8.07 12.4905,8.016 12.1575,8.003 C12.1525,8.003 12.1475,8.0025 12.142,8.0025 L12.1415,8.0025 L12.1355,8.0025 C12.1335,8.002 12.1315,8.002 12.129,8.002 L12.126,8.002 L12.1255,8.002 L12.1195,8.002 L12.119,8.002 C12.118,8.002 12.117,8.0015 12.116,8.0015 L12.1135,8.0015 L12.113,8.0015 L12.11,8.0015 L12.1095,8.0015 L12.1065,8.0015 L12.1035,8.0015 L12.103,8.0015 C12.101,8.0015 12.099,8.001 12.097,8.001 L12.0965,8.001 L12.0935,8.001 L12.0935,8.001 L12.0905,8.001 L12.09,8.001 L12.0875,8.001 L12.087,8.001 L12.084,8.001 L12.081,8.001 L12.0805,8.001 L12.0775,8.001 C12.0765,8.0005 12.075,8.0005 12.0745,8.0005 L12.0735,8.0005 L12.0715,8.0005 L12.068,8.0005 L12.0675,8.0005 L12.065,8.0005 L12.0645,8.0005 L12.0615,8.0005 L12.061,8.0005 L12.0585,8.0005 L12.0575,8.0005 L12.055,8.0005 L12.0545,8.0005 L12.052,8.0005 L12.0515,8.0005 L12.049,8.0005 L12.0485,8.0005 C12.0475,8.0005 12.0465,8 12.0455,8 L12.045,8 L12.0425,8 L12.0415,8 L12.039,8 L12.0385,8 L12.0355,8 L12.035,8 L12.0325,8 L12.032,8 L12.0295,8 L12.0285,8 L12.0265,8 L12.0255,8 L12.0225,8 L12.02,8 L12.019,8 L12.0165,8 L12.016,8 L12.013,8 L12.012,8 L12.0105,8 L12.01,8 L12.007,8 L12.006,8 L12.004,8 L12.003,8 L12,8 L11.997,8 L11.9955,8 L11.9935,8 L11.992,8 L11.9905,8 L11.9895,8 L11.9875,8 L11.986,8 L11.9845,8 L11.983,8 L11.981,8 L11.9795,8 L11.978,8 L11.9765,8 L11.9745,8 L11.973,8 L11.9715,8 L11.97,8 L11.9685,8 L11.967,8 L11.9655,8 L11.964,8 L11.962,8 L11.9605,8 L11.959,8 L11.9575,8 L11.956,8 L11.954,8 C11.9535,8 11.953,8.0005 11.9525,8.0005 L11.951,8.0005 L11.949,8.0005 L11.948,8.0005 L11.9465,8.0005 L11.945,8.0005 L11.944,8.0005 L11.9415,8.0005 L11.94,8.0005 L11.9385,8.0005 L11.9365,8.0005 L11.9355,8.0005 L11.932,8.0005 L11.9315,8.0005 L11.929,8.0005 L11.9275,8.0005 L11.926,8.0005 L11.925,8.0005 C11.924,8.0005 11.9235,8.0005 11.923,8.001 L11.9215,8.001 L11.9195,8.001 L11.918,8.001 L11.9165,8.001 L11.915,8.001 L11.913,8.001 L11.912,8.001 L11.91,8.001 L11.9085,8.001 L11.907,8.001 L11.906,8.001 L11.904,8.001 L11.9025,8.001 L11.901,8.001 C11.9005,8.001 11.9,8.001 11.8995,8.0015 L11.8975,8.0015 L11.896,8.0015 L11.8945,8.0015 L11.893,8.0015 L11.891,8.0015 L11.8895,8.0015 L11.888,8.0015 L11.8865,8.0015 L11.8855,8.0015 L11.8835,8.0015 C11.883,8.0015 11.8825,8.0015 11.882,8.002 L11.8805,8.002 L11.8785,8.002 L11.878,8.002 L11.8755,8.002 L11.874,8.002 L11.8725,8.002 L11.871,8.002 L11.869,8.002 L11.8675,8.002 C11.8665,8.002 11.8655,8.002 11.8645,8.0025 L11.8635,8.0025 L11.8615,8.0025 L11.86,8.0025 L11.8585,8.0025 L11.857,8.0025 L11.8555,8.0025 L11.854,8.0025 C11.8535,8.0025 11.8525,8.0025 11.852,8.003 L11.851,8.003 L11.849,8.003 L11.8475,8.003 L11.8455,8.003 L11.844,8.003 L11.843,8.003 L11.8415,8.003 L11.84,8.003 C11.839,8.003 11.8385,8.0035 11.838,8.0035 L11.8365,8.0035 L11.835,8.0035 L11.8335,8.0035 L11.832,8.0035 L11.83,8.0035 L11.8285,8.0035 C11.828,8.0035 11.8275,8.0035 11.827,8.004 L11.8255,8.004 L11.8235,8.004 L11.8225,8.004 L11.821,8.004 L11.8195,8.004 L11.8175,8.004 L11.8165,8.004 C11.8155,8.004 11.815,8.0045 11.8145,8.0045 L11.813,8.0045 L11.8115,8.0045 L11.81,8.0045 L11.808,8.0045 L11.8065,8.0045 C11.8055,8.0045 11.805,8.005 11.804,8.005 L11.8035,8.005 L11.801,8.005 L11.8,8.005 L11.7975,8.005 L11.796,8.005 C11.7955,8.005 11.795,8.0055 11.7945,8.0055 L11.7925,8.0055 L11.791,8.0055 L11.7895,8.0055 L11.788,8.0055 L11.7865,8.0055 C11.786,8.006 11.7855,8.006 11.785,8.006 L11.783,8.006 L11.7815,8.006 L11.7805,8.006 L11.779,8.006 L11.7775,8.006 L11.776,8.0065 L11.774,8.0065 L11.7725,8.0065 L11.771,8.0065 L11.7695,8.0065 C11.769,8.0065 11.7685,8.007 11.7675,8.007 L11.766,8.007 L11.7645,8.007 L11.763,8.007 L11.7615,8.007 L11.76,8.007 C11.7595,8.0075 11.759,8.0075 11.7585,8.0075 L11.757,8.0075 L11.7555,8.0075 L11.754,8.0075 L11.7525,8.0075 C11.7515,8.008 11.7515,8.008 11.751,8.008 L11.749,8.008 L11.7475,8.008 L11.746,8.008 L11.745,8.008 C11.744,8.008 11.7435,8.0085 11.7425,8.0085 L11.742,8.0085 L11.7395,8.0085 C11.7375,8.0085 11.7345,8.009 11.732,8.009 L11.7305,8.009 L11.7285,8.009 C11.7285,8.0095 11.728,8.0095 11.7275,8.0095 L11.7255,8.0095 L11.724,8.0095 L11.7225,8.0095 C11.722,8.0095 11.7215,8.01 11.7215,8.01 L11.7195,8.01 L11.7185,8.01 L11.7165,8.01 L11.715,8.01 C11.7145,8.0105 11.714,8.0105 11.7135,8.0105 L11.712,8.0105 L11.7105,8.0105 L11.709,8.0105 L11.707,8.0105 L11.7055,8.0105 L11.704,8.0105 L11.7025,8.0105 C11.702,8.0105 11.7015,8.0105 11.701,8.011 L11.6995,8.011 L11.698,8.011 L11.6965,8.011 C11.696,8.011 11.6955,8.011 11.695,8.0115 L11.6935,8.0115 L11.6915,8.0115 L11.6905,8.0115 L11.6885,8.0115 C11.688,8.012 11.6875,8.012 11.687,8.012 L11.6855,8.012 L11.684,8.012 L11.6825,8.012 C11.682,8.0125 11.6815,8.0125 11.681,8.0125 L11.679,8.0125 L11.678,8.0125 L11.6765,8.0125 L11.6755,8.013 C11.6715,8.013 11.668,8.0135 11.6645,8.0135 L11.664,8.0135 C11.663,8.014 11.6625,8.014 11.662,8.014 L11.661,8.014 L11.659,8.014 C11.6585,8.014 11.658,8.0145 11.6575,8.0145 L11.6565,8.0145 L11.655,8.0145 L11.653,8.0145 C11.6525,8.0145 11.652,8.015 11.6515,8.015 L11.65,8.015 L11.6485,8.015 C11.648,8.015 11.6475,8.015 11.6465,8.0155 L11.6455,8.0155 L11.6435,8.0155 L11.6425,8.0155 C11.6415,8.0155 11.641,8.0155 11.6405,8.016 L11.6395,8.016 L11.637,8.016 L11.636,8.016 C11.6355,8.0165 11.6355,8.0165 11.6345,8.0165 L11.633,8.0165 L11.6315,8.0165 C11.631,8.0165 11.6305,8.0165 11.63,8.017 L11.628,8.017 L11.627,8.017 C11.6265,8.017 11.626,8.017 11.625,8.0175 L11.624,8.0175 L11.622,8.0175 L11.6205,8.0175 C11.62,8.0175 11.6195,8.018 11.619,8.018 L11.618,8.018 L11.6155,8.018 L11.615,8.018 C11.6145,8.0185 11.6135,8.0185 11.613,8.0185 L11.6125,8.0185 L11.61,8.0185 L11.609,8.019 C11.605,8.019 11.6015,8.0195 11.598,8.02 L11.5975,8.02 L11.595,8.02 L11.5945,8.0205 L11.5925,8.0205 L11.592,8.0205 C11.591,8.0205 11.59,8.0205 11.5895,8.021 L11.5885,8.021 L11.5865,8.021 L11.5855,8.021 C11.585,8.0215 11.584,8.0215 11.5835,8.0215 L11.5825,8.0215 C11.5815,8.0215 11.581,8.0215 11.58,8.022 L11.579,8.022 L11.577,8.022 L11.576,8.022 C11.5755,8.0225 11.5745,8.0225 11.574,8.0225 L11.573,8.0225 L11.5715,8.0225 C11.571,8.023 11.5705,8.023 11.57,8.023 L11.568,8.023 L11.567,8.023 C11.5665,8.0235 11.566,8.0235 11.565,8.0235 L11.564,8.0235 L11.562,8.0235 C11.5615,8.024 11.561,8.024 11.561,8.024 L11.559,8.024 L11.558,8.024 C11.557,8.0245 11.5565,8.0245 11.5555,8.0245 L11.555,8.0245 C11.554,8.0245 11.553,8.0245 11.5525,8.025 L11.552,8.025 L11.55,8.025 C11.55,8.025 11.5495,8.025 11.549,8.0255 L11.547,8.0255 L11.5465,8.0255 C11.5415,8.026 11.5365,8.0265 11.5315,8.0275 L11.5295,8.0275 L11.5285,8.0275 C11.528,8.0275 11.527,8.028 11.5265,8.028 L11.5255,8.028 C11.525,8.028 11.524,8.028 11.5235,8.0285 L11.523,8.0285 L11.5205,8.0285 L11.5195,8.0285 C11.5185,8.029 11.518,8.029 11.5175,8.029 L11.5165,8.029 C11.5155,8.029 11.515,8.0295 11.514,8.0295 L11.5135,8.0295 L11.511,8.0295 L11.5105,8.03 L11.5085,8.03 C11.5085,8.03 11.5075,8.03 11.5075,8.0305 L11.5055,8.0305 L11.5045,8.0305 C11.5035,8.0305 11.503,8.031 11.502,8.031 L11.501,8.031 C11.5005,8.031 11.5,8.031 11.499,8.0315 L11.498,8.0315 L11.496,8.0315 L11.495,8.0315 L11.493,8.0315 L11.492,8.0315 C11.4915,8.032 11.4905,8.032 11.4895,8.032 L11.4895,8.032 C11.489,8.032 11.488,8.032 11.487,8.0325 L11.4865,8.0325 C11.486,8.0325 11.485,8.0325 11.484,8.033 C11.478,8.0335 11.472,8.0345 11.4665,8.035 L11.466,8.035 C11.465,8.0355 11.4645,8.0355 11.4635,8.0355 L11.463,8.0355 C11.462,8.0355 11.4615,8.036 11.4605,8.036 L11.46,8.036 C11.459,8.036 11.4585,8.036 11.4575,8.0365 L11.457,8.0365 C11.456,8.0365 11.4555,8.0365 11.4545,8.037 L11.4535,8.037 L11.4515,8.037 L11.4505,8.0375 L11.4485,8.0375 L11.448,8.0375 C11.4475,8.038 11.4465,8.038 11.4455,8.038 L11.445,8.038 C11.444,8.038 11.4435,8.0385 11.4425,8.0385 L11.442,8.0385 C11.441,8.0385 11.4405,8.039 11.4395,8.039 L11.439,8.039 C11.438,8.039 11.4375,8.039 11.4365,8.0395 L11.4355,8.0395 C11.435,8.0395 11.434,8.0395 11.4335,8.04 L11.433,8.04 L11.4305,8.04 L11.43,8.04 C11.429,8.0405 11.428,8.0405 11.427,8.0405 L11.427,8.0405 C11.4265,8.041 11.4255,8.041 11.4245,8.041 C11.423,8.0415 11.4225,8.0415 11.4215,8.0415 C11.4205,8.0415 11.4195,8.042 11.4185,8.042 L11.418,8.042 C11.412,8.043 11.4065,8.044 11.4005,8.0445 C11.4,8.045 11.399,8.045 11.398,8.045 L11.3975,8.045 C11.397,8.045 11.396,8.0455 11.395,8.0455 L11.3945,8.0455 C11.3935,8.0455 11.3925,8.046 11.392,8.046 L11.3915,8.046 C11.3905,8.046 11.39,8.0465 11.389,8.0465 L11.3885,8.0465 C11.3875,8.0465 11.3865,8.047 11.386,8.047 L11.3855,8.047 C11.385,8.047 11.384,8.047 11.3835,8.0475 L11.383,8.0475 C11.382,8.0475 11.381,8.048 11.3805,8.048 L11.38,8.048 C11.379,8.048 11.378,8.048 11.3775,8.0485 L11.3765,8.0485 C11.376,8.0485 11.375,8.0485 11.374,8.049 L11.3735,8.049 C11.373,8.049 11.372,8.049 11.371,8.0495 L11.3705,8.0495 C11.3695,8.0495 11.369,8.0495 11.368,8.05 L11.3675,8.05 C11.367,8.05 11.366,8.05 11.365,8.0505 L11.3645,8.0505 C11.364,8.0505 11.3635,8.0505 11.3625,8.051 L11.362,8.051 L11.3595,8.051 L11.3595,8.0515 C11.349,8.0525 11.34,8.054 11.33,8.0555 L11.3295,8.0555 C11.3285,8.056 11.328,8.056 11.327,8.056 L11.3265,8.0565 L11.324,8.0565 C11.324,8.0565 11.3235,8.0565 11.3235,8.057 L11.3215,8.057 L11.321,8.0575 L11.3185,8.0575 L11.318,8.058 C11.317,8.058 11.316,8.058 11.3155,8.0585 L11.315,8.0585 C11.314,8.0585 11.313,8.0585 11.3125,8.059 L11.312,8.059 C11.311,8.059 11.31,8.059 11.309,8.0595 C11.308,8.0595 11.307,8.0595 11.306,8.06 C11.305,8.06 11.304,8.0605 11.303,8.0605 C11.302,8.0605 11.3015,8.0605 11.3005,8.061 C11.2885,8.063 11.277,8.065 11.265,8.0675 C11.263,8.068 11.261,8.068 11.2595,8.0685 C11.2585,8.069 11.2575,8.069 11.2565,8.069 C11.2555,8.0695 11.2545,8.0695 11.2535,8.0695 C11.2525,8.07 11.2515,8.07 11.2505,8.0705 C11.2495,8.0705 11.2485,8.0705 11.2475,8.071 C11.2465,8.071 11.2455,8.071 11.2445,8.0715 C11.2435,8.0715 11.2425,8.072 11.2415,8.072 C11.2395,8.0725 11.238,8.073 11.236,8.073 C11.2185,8.076 11.2005,8.0795 11.1835,8.0835 C11.165,8.0875 11.1465,8.0915 11.1285,8.095 C11.1275,8.0955 11.1265,8.0955 11.1255,8.0955 C10.42,8.2535 9.784,8.597 9.274,9.073 L9.9555,9.8045 C10.512,9.2855 11.2385,9 12,9" id="path-1"></path>
    </defs>
    <g id="Symbols" stroke="none" stroke-width="1" fill="none" fill-rule="evenodd">
        <g id="icon/ic_path_mask">
            <mask id="mask-2" fill="white">
                <use xlink:href="#path-1"></use>
            </mask>
            <use id="Combined-Shape" fill="#000000" xlink:href="#path-1"></use>
        </g>
    </g>
</svg>