<?xml version="1.0" encoding="UTF-8"?>
<svg width="24px" height="24px" viewBox="0 0 24 24" version="1.1" xmlns="http://www.w3.org/2000/svg" xmlns:xlink="http://www.w3.org/1999/xlink">
    <!-- Generator: Sketch 46.2 (44496) - http://www.bohemiancoding.com/sketch -->
    <title>icon/ic_review</title>
    <desc>Created with Sketch.</desc>
    <defs>
        <path d="M16,17 L16,12.121 L18,10.121 L18,17 C18,18.1045 17.1045,19 16,19 L6,19 C4.8955,19 4,18.1045 4,17 L4,7 C4,5.8955 4.8955,5 6,5 L16,5 C16.78,5 17.448,5.4505 17.7775,6.101 L16,7.879 L16,7 L6,7 L6,17 L16,17 Z M20.3535,5.6465 C20.549,5.842 20.549,6.158 20.3535,6.3535 L11.868,14.839 C11.7745,14.9325 11.6475,14.9855 11.5145,14.9855 C11.382,14.9855 11.255,14.9325 11.161,14.839 L8.333,12.0105 C8.1375,11.815 8.1375,11.4985 8.333,11.303 C8.5285,11.108 8.8445,11.108 9.04,11.303 L11.5145,13.7785 L19.6465,5.6465 C19.842,5.451 20.158,5.451 20.3535,5.6465 Z" id="path-1"></path>
    </defs>
    <g id="Symbols" stroke="none" stroke-width="1" fill="none" fill-rule="evenodd">
        <g id="icon/ic_review">
            <mask id="mask-2" fill="white">
                <use xlink:href="#path-1"></use>
            </mask>
            <use id="Combined-Shape" fill="#000000" xlink:href="#path-1"></use>
        </g>
    </g>
</svg>