<?xml version="1.0" encoding="UTF-8"?>
<svg width="24px" height="24px" viewBox="0 0 24 24" version="1.1" xmlns="http://www.w3.org/2000/svg" xmlns:xlink="http://www.w3.org/1999/xlink">
    <!-- Generator: Sketch 46.2 (44496) - http://www.bohemiancoding.com/sketch -->
    <title>icon/ic_store</title>
    <desc>Created with Sketch.</desc>
    <defs>
        <path d="M19,18.0606061 L11,18.0606061 L11,13.2121212 L12,13.2121212 L12,16.1212121 L18,16.1212121 L18,13.2121212 L19,13.2121212 L19,18.0606061 Z M5,18.0606061 L6,18.0606061 L6,13.2121212 L5,13.2121212 L5,18.0606061 Z M4,11.2727273 L6.5,11.2727273 L6.5,5.93939394 L4,5.93939394 L4,11.2727273 Z M8.5,11.2727273 L11,11.2727273 L11,5.93939394 L8.5,5.93939394 L8.5,11.2727273 Z M13,11.2727273 L15.5,11.2727273 L15.5,5.93939394 L13,5.93939394 L13,11.2727273 Z M7,18.0606061 L10,18.0606061 L10,13.2121212 L7,13.2121212 L7,18.0606061 Z M13,15.1515152 L17,15.1515152 L17,13.2121212 L13,13.2121212 L13,15.1515152 Z M17.5,11.2727273 L20,11.2727273 L20,5.93939394 L17.5,5.93939394 L17.5,11.2727273 Z M22,5.93939394 C22,4.86836364 21.1045,4 20,4 L4,4 C2.8955,4 2,4.86836364 2,5.93939394 L2,13.2121212 L3,13.2121212 L3,19.030303 C3,19.5655758 3.448,20 4,20 L20,20 C20.552,20 21,19.5655758 21,19.030303 L21,13.2121212 L22,13.2121212 L22,5.93939394 Z" id="path-1"></path>
    </defs>
    <g id="Symbols" stroke="none" stroke-width="1" fill="none" fill-rule="evenodd">
        <g id="icon/ic_store">
            <mask id="mask-2" fill="white">
                <use xlink:href="#path-1"></use>
            </mask>
            <use id="Page-1" fill="#000000" xlink:href="#path-1"></use>
        </g>
    </g>
</svg>