<?xml version="1.0" encoding="UTF-8"?>
<svg width="24px" height="24px" viewBox="0 0 24 24" version="1.1" xmlns="http://www.w3.org/2000/svg" xmlns:xlink="http://www.w3.org/1999/xlink">
    <!-- Generator: Sketch 50.2 (55047) - http://www.bohemiancoding.com/sketch -->
    <title>icon/ic_select_round</title>
    <desc>Created with Sketch.</desc>
    <defs>
        <path d="M7.48036585,5.08148413 C7.30786716,5.08148413 7.14036844,4.99248481 7.04786915,4.83298603 C6.90887021,4.59398785 6.98986959,4.28849018 7.22836777,4.14949124 C8.51235798,3.40199694 9.9798468,3.00449997 11.4723354,3 L11.4738354,3 C11.7493333,3 11.9728316,3.2224983 11.9738316,3.4984962 C11.9748316,3.7744941 11.7518333,3.99899239 11.4753354,3.99999238 C10.1583454,4.00399235 8.8638553,4.35448968 7.73136394,5.01348465 C7.65236454,5.0594843 7.5658652,5.08148413 7.48036585,5.08148413 Z M15.2269068,4.98918484 C14.9874086,4.85218588 14.9044093,4.54618821 15.0424082,4.30669004 C15.1789072,4.06719187 15.4849048,3.98469249 15.724903,4.12219145 C17.0158932,4.8626858 18.0948849,5.93417764 18.8448792,7.21966784 C18.9843782,7.45766602 18.9038788,7.76416369 18.6653806,7.90316263 C18.5863812,7.94966227 18.4993819,7.97166211 18.4138825,7.97166211 C18.2418838,7.97166211 18.0743851,7.88266278 17.9818858,7.723664 C17.3193909,6.58867265 16.3663981,5.64367985 15.2269068,4.98918484 Z M7.75871373,18.0012857 C7.99771191,18.1387846 8.08021128,18.4452823 7.94171233,18.6837805 C7.84971303,18.8447792 7.68121432,18.9342785 7.50821564,18.9342785 C7.42321629,18.9342785 7.33771694,18.9127787 7.25921754,18.8672791 C5.96972736,18.1242847 4.89273557,17.0507929 4.14474127,15.7628027 C4.00574233,15.5243045 4.08724171,15.2188069 4.32623989,15.0798079 C4.56273809,14.941309 4.87023574,15.0213084 5.00923469,15.2613065 C5.66972965,16.3972979 6.6207224,17.3452907 7.75871373,18.0012857 Z M4.8099862,7.08241888 C5.04948438,7.21991784 5.13198375,7.5259155 4.9939848,7.76541368 C4.34348976,8.89540506 3.99999238,10.1868952 3.99999238,11.4993852 C3.99999238,11.7758831 3.77649408,12.0078813 3.49999619,12.0078813 C3.2234983,12.0078813 3,11.792383 3,11.5158851 L3,11.4993852 C3,10.0118966 3.38949703,8.54840771 4.12699141,7.26641748 C4.26499036,7.0279193 4.57048803,6.94591992 4.8099862,7.08241888 Z M22.1349542,17.7266378 C22.4329519,17.9721359 22.5634509,18.3661329 22.4704516,18.74013 C22.3774523,19.1146272 22.0779546,19.401625 21.6999575,19.4786244 L18.9284786,20.0461201 L17.0514929,22.1631039 C16.8589944,22.3801023 16.5854964,22.4991014 16.3034986,22.4991014 C16.2114993,22.4991014 16.118,22.4866015 16.0265007,22.4601017 C15.6565035,22.3536025 15.3800056,22.0436048 15.3170061,21.6636077 L14.9205091,19.2786259 C13.8505173,19.7486223 12.6880262,19.9986204 11.5085351,19.9996204 L11.5080352,19.9996204 C11.2325373,19.9996204 11.008539,19.7761221 11.008039,19.5001242 C11.007539,19.2241263 11.2315373,19.000128 11.5075352,18.999628 C12.6345266,18.9981281 13.7440181,18.74263 14.7510104,18.2581337 L13.9155168,13.235172 C13.8470173,12.8241751 14.0410158,12.4136782 14.4015131,12.2051798 C14.7625103,11.9961814 15.2145069,12.0336811 15.5370044,12.2986791 L18.3284832,14.5951616 C18.7669798,13.627669 18.999978,12.571677 18.999978,11.4991852 C18.999978,11.2231873 19.2234763,10.9821892 19.4994742,10.9821892 C19.7754721,10.9821892 19.9994704,11.1886876 19.9994704,11.4651855 L19.9994704,11.4786854 C19.9999704,12.8021753 19.6994727,14.0906655 19.1279771,15.2526566 L22.1349542,17.7266378 Z M18.2014841,18.1536345 L19.2454762,17.9396361 L16.3254984,15.5376544 L16.9459937,19.267626 L17.6534883,18.4696321 C17.7969872,18.3081333 17.9889858,18.1966342 18.2014841,18.1536345 Z" id="path-1"></path>
    </defs>
    <g id="icon/ic_select_round" stroke="none" stroke-width="1" fill="none" fill-rule="evenodd">
        <mask id="mask-2" fill="white">
            <use xlink:href="#path-1"></use>
        </mask>
        <use id="Combined-Shape" fill="#231815" xlink:href="#path-1"></use>
    </g>
</svg>