<?xml version="1.0" encoding="UTF-8"?>
<svg width="24px" height="24px" viewBox="0 0 24 24" version="1.1" xmlns="http://www.w3.org/2000/svg" xmlns:xlink="http://www.w3.org/1999/xlink">
    <!-- Generator: Sketch 46.2 (44496) - http://www.bohemiancoding.com/sketch -->
    <title>icon/ic_signage_1</title>
    <desc>Created with Sketch.</desc>
    <defs>
        <path d="M18,3 C19.6545,3 21,4.38186486 21,6.08108108 L21,13.2702703 C21,14.9694865 19.6545,16.3513514 18,16.3513514 L6,16.3513514 C4.3455,16.3513514 3,14.9694865 3,13.2702703 L3,6.08108108 C3,4.38186486 4.3455,3 6,3 L18,3 Z M19,13.2702703 L19,6.08108108 C19,5.51467568 18.5515,5.05405405 18,5.05405405 L6,5.05405405 C5.4485,5.05405405 5,5.51467568 5,6.08108108 L5,13.2702703 C5,13.8366757 5.4485,14.2972973 6,14.2972973 L18,14.2972973 C18.5515,14.2972973 19,13.8366757 19,13.2702703 Z M15.52635,20.972973 C14.69835,20.972973 14.02635,20.2833243 14.02635,19.4324324 C14.02635,18.5815405 14.69835,17.8918919 15.52635,17.8918919 C16.35435,17.8918919 17.02585,18.5815405 17.02635,19.4319189 L17.02635,19.4329459 C17.02585,20.2838378 16.35435,20.972973 15.52635,20.972973 Z M10.3181818,11.9258405 L10.3181818,7.42540811 L14.7001818,9.67562432 L10.3181818,11.9258405 Z M16.0416818,9.21654324 C16.2111818,9.30332703 16.3181818,9.4810027 16.3181818,9.67562432 C16.3181818,9.87024595 16.2111818,10.0479216 16.0416818,10.1352189 L10.0416818,13.2163 C9.97118182,13.2522459 9.89468182,13.2702189 9.81818182,13.2702189 C9.72668182,13.2702189 9.63568182,13.2445432 9.55568182,13.1937054 C9.40818182,13.1002459 9.31818182,12.9348946 9.31818182,12.7567054 L9.31818182,6.59454324 C9.31818182,6.41635405 9.40818182,6.25151622 9.55568182,6.15805676 C9.70268182,6.06408378 9.88718182,6.05586757 10.0416818,6.13546216 L16.0416818,9.21654324 Z M15.52635,16.8648649 C16.73385,16.8648649 17.74385,17.7486216 17.97585,18.9189189 L20.99985,18.9189189 L20.99985,19.9459459 L17.97585,19.9459459 C17.74385,21.1162432 16.73385,22 15.52635,22 C14.31935,22 13.30885,21.1162432 13.07735,19.9459459 L3.02585,19.9459459 L3.02585,18.9189189 L13.07735,18.9189189 C13.30885,17.7486216 14.31935,16.8648649 15.52635,16.8648649 Z" id="path-1"></path>
    </defs>
    <g id="Symbols" stroke="none" stroke-width="1" fill="none" fill-rule="evenodd">
        <g id="icon/ic_signage_1">
            <mask id="mask-2" fill="white">
                <use xlink:href="#path-1"></use>
            </mask>
            <use id="Combined-Shape" fill="#000000" xlink:href="#path-1"></use>
        </g>
    </g>
</svg>