<?xml version="1.0" encoding="UTF-8"?>
<svg width="24px" height="24px" viewBox="0 0 24 24" version="1.1" xmlns="http://www.w3.org/2000/svg" xmlns:xlink="http://www.w3.org/1999/xlink">
    <!-- Generator: Sketch 46.2 (44496) - http://www.bohemiancoding.com/sketch -->
    <title>icon/ic_signage_ad</title>
    <desc>Created with Sketch.</desc>
    <defs>
        <path d="M19.0072723,13.2702703 C19.0072723,13.8366757 18.5604031,14.2972973 18.0109084,14.2972973 L6.05454213,14.2972973 C5.50504747,14.2972973 5.05817828,13.8366757 5.05817828,13.2702703 L5.05817828,6.08108108 C5.05817828,5.51467568 5.50504747,5.05405405 6.05454213,5.05405405 L18.0109084,5.05405405 C18.5604031,5.05405405 19.0072723,5.51467568 19.0072723,6.08108108 L19.0072723,13.2702703 Z M18.0109084,3 C19.6593924,3 21,4.38186486 21,6.08108108 L21,13.2702703 C21,14.9694865 19.6593924,16.3513514 18.0109084,16.3513514 L6.05454213,16.3513514 C4.40605813,16.3513514 3.06545056,14.9694865 3.06545056,13.2702703 L3.06545056,6.08108108 C3.06545056,4.38186486 4.40605813,3 6.05454213,3 L18.0109084,3 Z M15.4730631,20.972973 C14.6468804,20.972973 13.9763554,20.2833243 13.9763554,19.4324324 C13.9763554,18.5815405 14.6468804,17.8918919 15.4730631,17.8918919 C16.2992457,17.8918919 16.9692718,18.5815405 16.9697707,19.4319189 L16.9697707,19.4329459 C16.9692718,20.2833243 16.2992457,20.972973 15.4730631,20.972973 Z M15.4730631,16.8648649 C14.2687123,16.8648649 13.2604302,17.7486216 13.0294383,18.9189189 L3,18.9189189 L3,19.9459459 L13.0294383,19.9459459 C13.2604302,21.1162432 14.2687123,22 15.4730631,22 C16.6779127,22 17.6856959,21.1162432 17.9171867,19.9459459 L20.9345494,19.9459459 L20.9345494,18.9189189 L17.9171867,18.9189189 C17.6856959,17.7486216 16.6779127,16.8648649 15.4730631,16.8648649 M9.06279551,10.3581865 L9.72287613,8.30002432 L9.7468601,8.30002432 L10.4027696,10.3581865 L9.06279551,10.3581865 Z M9.12796934,6.69529459 L7.12791462,12.5365108 L8.37038866,12.5365108 L8.76977393,11.2768622 L10.6921414,11.2768622 L11.0951765,12.5365108 L12.3376505,12.5365108 L10.345938,6.69529459 L9.12796934,6.69529459 Z M16.2807719,10.1014297 C16.2807719,10.5507541 16.1613735,10.9194568 15.9225765,11.2065108 C15.6832582,11.4940784 15.3683382,11.6378622 14.9772952,11.6378622 L14.0977091,11.6378622 L14.0977091,7.59805135 L14.9772952,7.59805135 C15.3683382,7.59805135 15.6832582,7.74080811 15.9225765,8.02734865 C16.1613735,8.31388919 16.2807719,8.67951081 16.2807719,9.12678108 L16.2807719,10.1014297 Z M14.9772952,6.69529459 L12.9078955,6.69529459 L12.9078955,12.5365108 L14.9772952,12.5365108 C15.7025497,12.5365108 16.299542,12.3100514 16.769315,11.8566189 C17.2396094,11.4031865 17.4742353,10.8182946 17.4742353,10.1014297 L17.4742353,9.13448378 C17.4742353,8.4207 17.2396094,7.83529459 16.769315,7.37929459 C16.299542,6.92380811 15.7025497,6.69529459 14.9772952,6.69529459 L14.9772952,6.69529459 Z" id="path-1"></path>
    </defs>
    <g id="Symbols" stroke="none" stroke-width="1" fill="none" fill-rule="evenodd">
        <g id="icon/ic_signage_ad">
            <mask id="mask-2" fill="white">
                <use xlink:href="#path-1"></use>
            </mask>
            <use id="Combined-Shape" fill="#000000" xlink:href="#path-1"></use>
        </g>
    </g>
</svg>