<?xml version="1.0" encoding="UTF-8"?>
<svg width="24px" height="24px" viewBox="0 0 24 24" version="1.1" xmlns="http://www.w3.org/2000/svg" xmlns:xlink="http://www.w3.org/1999/xlink">
    <!-- Generator: Sketch 46.2 (44496) - http://www.bohemiancoding.com/sketch -->
    <title>icon/ic_sliders</title>
    <desc>Created with Sketch.</desc>
    <defs>
        <path d="M10.1143725,16.8331474 C10.1143725,17.902312 9.23836032,18.7696906 8.16346154,18.7696906 C7.0840081,18.7696906 6.20951417,17.902312 6.20951417,16.8331474 C6.20951417,15.7639829 7.0840081,14.8966043 8.16346154,14.8966043 C9.23836032,14.8966043 10.1143725,15.7639829 10.1143725,16.8331474 M8.16346154,14.1587302 C9.38866397,14.1587302 10.416498,14.9794269 10.7398785,16.0952733 L21,16.0952733 L21,17.5710216 L10.7398785,17.5710216 C10.416498,18.686868 9.38866397,19.5075647 8.16346154,19.5075647 C6.93522267,19.5075647 5.90738866,18.686868 5.58248988,17.5710216 L3,17.5710216 L3,16.0952733 L5.58248988,16.0952733 C5.90738866,14.9794269 6.93522267,14.1587302 8.16346154,14.1587302 Z M15.8380567,9.07936508 C17.0647773,9.07936508 18.0926113,9.91642478 18.4175101,11.0488273 L21,11.0488273 L21,12.5484955 L18.4175101,12.5484955 C18.0926113,13.680898 17.0647773,14.5179577 15.8380567,14.5179577 C14.6082996,14.5179577 13.5819838,13.680898 13.257085,12.5484955 L3,12.5484955 L3,11.0488273 L13.257085,11.0488273 C13.5819838,9.91642478 14.6082996,9.07936508 15.8380567,9.07936508 Z M17.7889676,11.7986614 C17.7889676,10.7121671 16.9129555,9.82919918 15.8380567,9.82919918 C14.7616397,9.82919918 13.8841093,10.7121671 13.8841093,11.7986614 C13.8841093,12.8836254 14.7616397,13.7681236 15.8380567,13.7681236 C16.9129555,13.7681236 17.7889676,12.8836254 17.7889676,11.7986614 Z M8.16346154,4 C9.38866397,4 10.416498,4.82220261 10.7398785,5.93804901 L21,5.93804901 L21,7.41229142 L10.7398785,7.41229142 C10.416498,8.52813781 9.38866397,9.34883456 8.16346154,9.34883456 C6.93522267,9.34883456 5.90738866,8.52813781 5.58248988,7.41229142 L3,7.41229142 L3,5.93804901 L5.58248988,5.93804901 C5.90738866,4.82220261 6.93522267,4 8.16346154,4 Z M10.1143725,6.67291141 C10.1143725,5.60525271 9.23836032,4.73787414 8.16346154,4.73787414 C7.0840081,4.73787414 6.20951417,5.60525271 6.20951417,6.67291141 C6.20951417,7.74207598 7.0840081,8.61096042 8.16346154,8.61096042 C9.23836032,8.61096042 10.1143725,7.74207598 10.1143725,6.67291141 Z" id="path-1"></path>
    </defs>
    <g id="Symbols" stroke="none" stroke-width="1" fill="none" fill-rule="evenodd">
        <g id="icon/ic_sliders">
            <mask id="mask-2" fill="white">
                <use xlink:href="#path-1"></use>
            </mask>
            <use id="Mask" fill="#000000" xlink:href="#path-1"></use>
        </g>
    </g>
</svg>