<?xml version="1.0" encoding="UTF-8"?>
<svg width="24px" height="24px" viewBox="0 0 24 24" version="1.1" xmlns="http://www.w3.org/2000/svg" xmlns:xlink="http://www.w3.org/1999/xlink">
    <!-- Generator: Sketch 46.2 (44496) - http://www.bohemiancoding.com/sketch -->
    <title>icon/ic_save</title>
    <desc>Created with Sketch.</desc>
    <defs>
        <path d="M17.0372446,3 L16.2448404,3 L7.05373891,3 L3,3 L3,22 L6.39723166,22 L17.2296012,22 L21,22 L21,6.99841575 L17.0372446,3 Z M15,5 L15,9 L8,9 L8,5 L15,5 Z M7,20 L7,14 L17,14 L17,20 L7,20 Z M19.0018311,20 L18,20 L18,13 L6,13 L6,20 L5.00183105,20 L5.00183105,5 L7,5 L7,10 L16,10 L15.9982988,5 L17,5 L19.0018311,7.00071568 L19.0018311,20 Z M14,8 L13,8 L13,6 L14,6 L14,8 Z" id="path-1"></path>
    </defs>
    <g id="Symbols" stroke="none" stroke-width="1" fill="none" fill-rule="evenodd">
        <g id="icon/ic_save">
            <mask id="mask-2" fill="white">
                <use xlink:href="#path-1"></use>
            </mask>
            <use id="Mask" fill="#000000" fill-rule="nonzero" xlink:href="#path-1"></use>
        </g>
    </g>
</svg>