<?xml version="1.0" encoding="UTF-8"?>
<svg width="24px" height="24px" viewBox="0 0 24 24" version="1.1" xmlns="http://www.w3.org/2000/svg" xmlns:xlink="http://www.w3.org/1999/xlink">
    <!-- Generator: Sketch 46.2 (44496) - http://www.bohemiancoding.com/sketch -->
    <title>icon/ic_shopping_cart</title>
    <desc>Created with Sketch.</desc>
    <defs>
        <path d="M7.58293945,18.3196337 C8.40635292,18.3196337 9.07373028,18.9200357 9.07373028,19.6598168 C9.07373028,20.4000447 8.40635292,21 7.58293945,21 C6.76002292,21 6.09214863,20.4000447 6.09214863,19.6598168 C6.09214863,18.9200357 6.76002292,18.3196337 7.58293945,18.3196337 Z M16.5276844,18.3196337 C17.3510979,18.3196337 18.0184752,18.9200357 18.0184752,19.6598168 C18.0184752,20.4000447 17.3510979,21 16.5276844,21 C15.7047679,21 15.0368936,20.4000447 15.0368936,19.6598168 C15.0368936,18.9200357 15.7047679,18.3196337 16.5276844,18.3196337 Z M18.2756366,8.93790485 L15.956463,12.5117266 L8.40560752,12.5117266 L7.64778885,8.93790485 L18.2756366,8.93790485 Z M16.526939,14.2986375 C16.8802564,14.2986375 17.2077335,14.1297744 17.3856345,13.8554836 L20.8646434,8.49475095 C21.0440352,8.21867322 21.045029,7.87692651 20.8681219,7.5995086 C20.6907178,7.32209069 20.3617499,7.15099397 20.0059478,7.15099397 L7.26912798,7.15099397 L6.96699438,5.72637927 C6.87754693,5.3046683 6.46757945,5 5.99052639,5 L3.99386055,5 C3.4447526,5 3,5.39982131 3,5.89345544 C3,6.38664284 3.4447526,6.78691088 3.99386055,6.78691088 L5.16810679,6.78691088 L6.60671993,13.5722582 C6.64448663,13.7500558 6.74039417,13.9037302 6.87108684,14.0247934 L6.12072212,16.4018316 C6.07848305,16.5354032 6.10829886,16.6796962 6.2007279,16.7909314 C6.29365386,16.9026134 6.4387575,16.9691758 6.59330281,16.9700692 L18.5101877,17.0830914 L18.5206233,16.1896359 L7.25422008,16.082868 L7.81724208,14.2986375 L16.526939,14.2986375 Z" id="path-1"></path>
    </defs>
    <g id="Symbols" stroke="none" stroke-width="1" fill="none" fill-rule="evenodd">
        <g id="icon/ic_shopping_cart">
            <mask id="mask-2" fill="white">
                <use xlink:href="#path-1"></use>
            </mask>
            <use id="Combined-Shape" fill="#000000" xlink:href="#path-1"></use>
        </g>
    </g>
</svg>