<?xml version="1.0" encoding="UTF-8"?>
<svg width="24px" height="24px" viewBox="0 0 24 24" version="1.1" xmlns="http://www.w3.org/2000/svg" xmlns:xlink="http://www.w3.org/1999/xlink">
    <!-- Generator: Sketch 46.2 (44496) - http://www.bohemiancoding.com/sketch -->
    <title>icon/ic_stopwatch</title>
    <desc>Created with Sketch.</desc>
    <defs>
        <path d="M12,19 C8.62662745,19 5.88235294,16.5327917 5.88235294,13.5 C5.88235294,10.4672083 8.62662745,8 12,8 C15.3733725,8 18.1176471,10.4672083 18.1176471,13.5 C18.1176471,16.5327917 15.3733725,19 12,19 M18.3145,8.90578125 C19.367,10.1760937 20,11.7670313 20,13.5 C20,17.641875 16.4185,21 12,21 C7.5815,21 4,17.641875 4,13.5 C4,9.35765625 7.5815,6 12,6 C13.8485,6 15.5455,6.5934375 16.9005,7.58015625 L18.241,6.32296875 L19.6555,7.6490625 L18.3145,8.90578125 Z M8.70588235,5 L8.70588235,3 L15.2941176,3 L15.2941176,5 L8.70588235,5 Z M11.5294118,14 L12.4705882,14 L12.4705882,10 L11.5294118,10 L11.5294118,14 Z" id="path-1"></path>
    </defs>
    <g id="Symbols" stroke="none" stroke-width="1" fill="none" fill-rule="evenodd">
        <g id="icon/ic_stopwatch">
            <mask id="mask-2" fill="white">
                <use xlink:href="#path-1"></use>
            </mask>
            <use id="Combined-Shape" fill="#000000" xlink:href="#path-1"></use>
        </g>
    </g>
</svg>