<?xml version="1.0" encoding="UTF-8"?>
<svg width="24px" height="24px" viewBox="0 0 24 24" version="1.1" xmlns="http://www.w3.org/2000/svg" xmlns:xlink="http://www.w3.org/1999/xlink">
    <!-- Generator: Sketch 46.2 (44496) - http://www.bohemiancoding.com/sketch -->
    <title>icon/ic_search</title>
    <desc>Created with Sketch.</desc>
    <defs>
        <path d="M5,11 C5,7.6915 7.6915,5 11,5 C14.3085,5 17,7.6915 17,11 C17,14.3085 14.3085,17 11,17 C7.6915,17 5,14.3085 5,11 M20.707,19.293 L17.3145,15.9005 C18.367,14.5455 19,12.8485 19,11 C19,6.5815 15.4185,3 11,3 C6.5815,3 3,6.5815 3,11 C3,15.4185 6.5815,19 11,19 C12.8485,19 14.5455,18.367 15.9005,17.3145 L19.293,20.707 C19.4885,20.9025 19.744,21 20,21 C20.256,21 20.5115,20.9025 20.707,20.707 C21.0975,20.3165 21.0975,19.6835 20.707,19.293" id="path-1"></path>
    </defs>
    <g id="Symbols" stroke="none" stroke-width="1" fill="none" fill-rule="evenodd">
        <g id="icon/ic_search">
            <mask id="mask-2" fill="white">
                <use xlink:href="#path-1"></use>
            </mask>
            <use id="Page-1" fill="#000000" xlink:href="#path-1"></use>
        </g>
    </g>
</svg>