<?xml version="1.0" encoding="UTF-8"?>
<svg width="24px" height="24px" viewBox="0 0 24 24" version="1.1" xmlns="http://www.w3.org/2000/svg" xmlns:xlink="http://www.w3.org/1999/xlink">
    <!-- Generator: Sketch 50.2 (55047) - http://www.bohemiancoding.com/sketch -->
    <title>icon/ic_select_rectangle</title>
    <desc>Created with Sketch.</desc>
    <defs>
        <path d="M13.1664016,17.9998497 C13.4428986,17.9998497 13.6663962,18.2233473 13.6663962,18.4998443 C13.6663962,18.7763413 13.4428986,18.9998389 13.1664016,18.9998389 L9.83293737,18.9998389 C9.55644034,18.9998389 9.33294274,18.7763413 9.33294274,18.4998443 C9.33294274,18.2233473 9.55644034,17.9998497 9.83293737,17.9998497 L13.1664016,17.9998497 Z M6.49997316,17.9998497 C6.77647019,17.9998497 6.99996779,18.2233473 6.99996779,18.4998443 C6.99996779,18.7763413 6.77647019,18.9998389 6.49997316,18.9998389 L4.49999463,18.9998389 C4.2234976,18.9998389 4,18.7763413 4,18.4998443 L4,16.4998658 C4,16.2233688 4.2234976,15.9998712 4.49999463,15.9998712 C4.77649166,15.9998712 4.99998926,16.2233688 4.99998926,16.4998658 L4.99998926,17.9998497 L6.49997316,17.9998497 Z M4.49999463,13.6663962 C4.2234976,13.6663962 4,13.4428986 4,13.1664016 L4,9.83293737 C4,9.55644034 4.2234976,9.33294274 4.49999463,9.33294274 C4.77649166,9.33294274 4.99998926,9.55644034 4.99998926,9.83293737 L4.99998926,13.1664016 C4.99998926,13.4428986 4.77649166,13.6663962 4.49999463,13.6663962 Z M6.49997316,4 C6.77647019,4 6.99996779,4.2234976 6.99996779,4.49999463 C6.99996779,4.77649166 6.77647019,4.99998926 6.49997316,4.99998926 L4.99998926,4.99998926 L4.99998926,6.49997316 C4.99998926,6.77647019 4.77649166,6.99996779 4.49999463,6.99996779 C4.2234976,6.99996779 4,6.77647019 4,6.49997316 L4,4.49999463 C4,4.2234976 4.2234976,4 4.49999463,4 L6.49997316,4 Z M13.1669016,4 C13.4433986,4 13.6668962,4.2234976 13.6668962,4.49999463 C13.6668962,4.77649166 13.4433986,4.99998926 13.1669016,4.99998926 L9.83343737,4.99998926 C9.55694034,4.99998926 9.33344274,4.77649166 9.33344274,4.49999463 C9.33344274,4.2234976 9.55694034,4 9.83343737,4 L13.1669016,4 Z M16.4998658,4.99998926 C16.2233688,4.99998926 15.9998712,4.77649166 15.9998712,4.49999463 C15.9998712,4.2234976 16.2233688,4 16.4998658,4 L18.4998443,4 C18.7763413,4 18.9998389,4.2234976 18.9998389,4.49999463 L18.9998389,6.49997316 C18.9998389,6.77647019 18.7763413,6.99996779 18.4998443,6.99996779 C18.2233473,6.99996779 17.9998497,6.77647019 17.9998497,6.49997316 L17.9998497,4.99998926 L16.4998658,4.99998926 Z M18.4998443,9.33344274 C18.7763413,9.33344274 18.9998389,9.55694034 18.9998389,9.83343737 L18.9998389,13.1669016 C18.9998389,13.4433986 18.7763413,13.6668962 18.4998443,13.6668962 C18.2233473,13.6668962 17.9998497,13.4433986 17.9998497,13.1669016 L17.9998497,9.83343737 C17.9998497,9.55694034 18.2233473,9.33344274 18.4998443,9.33344274 Z M22.1349553,17.7271526 C22.4329521,17.97265 22.5634507,18.3666457 22.4704517,18.7406417 C22.3774527,19.1151377 22.0779559,19.4021346 21.69996,19.4791338 L18.9284897,20.0466277 L17.0515099,22.163605 C16.8590119,22.3806026 16.5855149,22.4996014 16.3035179,22.4996014 C16.2115189,22.4996014 16.1180199,22.4871015 16.0265209,22.4606018 C15.6565248,22.3541029 15.3800278,22.0441063 15.3170285,21.6641103 L13.9155435,13.2357008 C13.8470443,12.8247053 14.0410422,12.4142097 14.4015383,12.2057119 C14.7625344,11.9967141 15.2145296,12.0342137 15.5370261,12.2992109 L22.1349553,17.7271526 Z M18.2014975,18.154148 L19.2454863,17.9401503 L16.3255177,15.5381761 L16.946011,19.2681361 L17.6535034,18.4701446 C17.7970019,18.3086464 17.9889998,18.1971476 18.2014975,18.154148 Z" id="path-1"></path>
    </defs>
    <g id="icon/ic_select_rectangle" stroke="none" stroke-width="1" fill="none" fill-rule="evenodd">
        <mask id="mask-2" fill="white">
            <use xlink:href="#path-1"></use>
        </mask>
        <use id="Combined-Shape" fill="#231815" xlink:href="#path-1"></use>
    </g>
</svg>