<?xml version="1.0" encoding="UTF-8"?>
<svg width="24px" height="24px" viewBox="0 0 24 24" version="1.1" xmlns="http://www.w3.org/2000/svg" xmlns:xlink="http://www.w3.org/1999/xlink">
    <!-- Generator: Sketch 46.2 (44496) - http://www.bohemiancoding.com/sketch -->
    <title>icon/ic_tv_wall</title>
    <desc>Created with Sketch.</desc>
    <defs>
        <path d="M10.7256,13.1909 L10.7256,10.8089 L13.1076,11.9999 L10.7256,13.1909 Z M10.4491,9.5529 C10.2941,9.4754 10.1106,9.4834 9.9631,9.5749 C9.8156,9.6659 9.7256,9.8264 9.7256,9.9999 L9.7256,13.9999 C9.7256,14.1734 9.8156,14.3339 9.9631,14.4254 C10.0431,14.4749 10.1341,14.4999 10.2256,14.4999 C10.3021,14.4999 10.3786,14.4824 10.4491,14.4474 L14.4491,12.4474 C14.6186,12.3624 14.7256,12.1894 14.7256,11.9999 C14.7256,11.8104 14.6186,11.6379 14.4491,11.5529 L10.4491,9.5529 Z M20.0001,18.9999 L17.2501,18.9999 L17.2501,16.2499 L21.0001,16.2499 L21.0001,17.9999 C21.0001,18.5514 20.5511,18.9999 20.0001,18.9999 L20.0001,18.9999 Z M3.0001,17.9999 L3.0001,16.2499 L6.7501,16.2499 L6.7501,18.9999 L4.0001,18.9999 C3.4486,18.9999 3.0001,18.5514 3.0001,17.9999 L3.0001,17.9999 Z M4.0001,4.9999 L6.7501,4.9999 L6.7501,7.7499 L3.0001,7.7499 L3.0001,5.9999 C3.0001,5.4489 3.4486,4.9999 4.0001,4.9999 L4.0001,4.9999 Z M17.2501,15.2499 L21.0001,15.2499 L21.0001,8.7499 L17.2501,8.7499 L17.2501,15.2499 Z M7.7501,7.7499 L16.2501,7.7499 L16.2501,4.9999 L7.7501,4.9999 L7.7501,7.7499 Z M3.0001,15.2499 L6.7501,15.2499 L6.7501,8.7499 L3.0001,8.7499 L3.0001,15.2499 Z M7.7501,18.9999 L16.2501,18.9999 L16.2501,16.2499 L7.7501,16.2499 L7.7501,18.9999 Z M7.7501,15.2499 L16.2501,15.2499 L16.2501,8.7499 L7.7501,8.7499 L7.7501,15.2499 Z M21.0001,5.9999 L21.0001,7.7499 L17.2501,7.7499 L17.2501,4.9999 L20.0001,4.9999 C20.5511,4.9999 21.0001,5.4489 21.0001,5.9999 L21.0001,5.9999 Z M4.0001,2.9999 C2.3456,2.9999 1.0001,4.3459 1.0001,5.9999 L1.0001,17.9999 C1.0001,19.6544 2.3456,20.9999 4.0001,20.9999 L20.0001,20.9999 C21.6541,20.9999 23.0001,19.6544 23.0001,17.9999 L23.0001,5.9999 C23.0001,4.3459 21.6541,2.9999 20.0001,2.9999 L4.0001,2.9999 Z" id="path-1"></path>
    </defs>
    <g id="Symbols" stroke="none" stroke-width="1" fill="none" fill-rule="evenodd">
        <g id="icon/ic_tv_wall">
            <mask id="mask-2" fill="white">
                <use xlink:href="#path-1"></use>
            </mask>
            <use id="Fill-1" fill="#000000" xlink:href="#path-1"></use>
        </g>
    </g>
</svg>