<?xml version="1.0" encoding="iso-8859-1"?>
<!-- Generator: Adobe Illustrator 23.0.2, SVG Export Plug-In . SVG Version: 6.00 Build 0)  -->
<svg version="1.1" id="&#x5716;&#x5C64;_1" xmlns="http://www.w3.org/2000/svg" xmlns:xlink="http://www.w3.org/1999/xlink" x="0px"
	 y="0px" viewBox="0 0 24 24" style="enable-background:new 0 0 24 24;" xml:space="preserve">
<title>icon/ic_telephone_2</title>
<desc>Created with Sketch.</desc>
<g>
	<g id="Mask">
		<path d="M8.932,3.48C7.64,4.518,6.218,6.143,5.998,6.741C5.983,7.202,6.123,8.181,6.433,9.313
			c0.449,1.639,1.186,3.414,2.193,5.152c1.047,1.768,2.189,3.284,3.31,4.461c0.868,0.911,1.653,1.533,1.941,1.665
			c0.496,0.194,2.728-0.203,4.383-0.875L16.57,16.74c-1.579,0.831-2.735,1.046-4.003,0.299c-0.844-0.469-1.455-1.3-2.714-3.279
			l-0.082-0.141c-0.867-1.644-1.266-2.622-1.3-3.654c-0.124-1.142,0.431-2.022,1.334-2.78c0.281-0.236,0.575-0.446,0.934-0.671
			L8.932,3.48z M17.785,14.831l2.76,4.857c0.41,0.472,0.142,1.072-0.269,1.26c-2.144,1.295-5.912,1.981-7.127,1.506
			c-1.198-0.536-3.817-2.868-6.245-6.97c-2.413-4.164-3.028-7.855-2.886-9.082C4.287,5.139,6.841,2.277,8.796,1.14
			c0.473-0.281,1.072-0.126,1.277,0.349l2.949,4.951c0.205,0.475,0.063,0.947-0.41,1.292c-1.073,0.601-2.271,1.327-2.145,2.083
			c0,0.727,0.473,1.734,1.072,2.871c0.742,1.166,1.546,2.364,2.019,2.616c0.678,0.41,1.877-0.187,2.886-0.788
			C16.981,14.23,17.517,14.388,17.785,14.831z"/>
	</g>
</g>
</svg>
