<?xml version="1.0" encoding="UTF-8"?>
<svg width="24px" height="24px" viewBox="0 0 24 24" version="1.1" xmlns="http://www.w3.org/2000/svg" xmlns:xlink="http://www.w3.org/1999/xlink">
    <!-- Generator: Sketch 46.2 (44496) - http://www.bohemiancoding.com/sketch -->
    <title>icon/ic_update</title>
    <desc>Created with Sketch.</desc>
    <defs>
        <path d="M6.69272195,17.3075694 C7.38040818,17.995755 8.18146027,18.5356162 9.07440362,18.9131694 C9.99781092,19.3037073 10.9786503,19.5019727 11.9899536,19.5019727 L11.9899536,20.5007907 C10.8443092,20.5007907 9.73212532,20.2755573 8.68486458,19.8330809 C7.67356129,19.4050873 6.76563566,18.7933112 5.98655757,18.0137337 C5.20747948,17.2346557 4.59520401,16.32673 4.16721047,15.3154267 C3.72473406,14.2686654 3.5,13.1569809 3.5,12.0108372 C3.5,10.8646934 3.72473406,9.75250953 4.16721047,8.70524879 C4.59520401,7.69444491 5.20698007,6.78701869 5.98655757,6.00744119 C6.36361139,5.63038737 6.77212798,5.2942851 7.20611443,4.99763613 L4.88436184,4.99763613 C4.33251486,4.99763613 3.88554377,4.55016564 3.88554377,3.99881807 C3.88554377,3.44697108 4.33251486,3 4.88436184,3 L8.8796341,3 C9.43098167,3 9.87845216,3.44697108 9.87845216,3.99881807 L9.87845216,7.99409033 C9.87845216,8.5454379 9.43098167,8.99290839 8.8796341,8.99290839 C8.32778712,8.99290839 7.88081603,8.5454379 7.88081603,7.99409033 L7.88081603,5.74874732 C7.45581895,6.02841637 7.05729054,6.34903697 6.69272195,6.71360557 C6.0045363,7.4012918 5.46467513,8.2028433 5.08712191,9.09478783 C4.69658404,10.0176957 4.49881807,10.9985351 4.49881807,12.0108372 C4.49881807,13.0226399 4.69658404,14.0034792 5.08712191,14.9258877 C5.46467513,15.818831 6.00503571,16.6198831 6.69272195,17.3075694 Z M19.0638328,19.0023639 C19.6151804,19.0023639 20.0626509,19.4498344 20.0626509,20.0011819 C20.0626509,20.5525295 19.6151804,21 19.0638328,21 L15.0685605,21 C14.517213,21 14.0697425,20.5525295 14.0697425,20.0011819 L14.0697425,16.0059097 C14.0697425,15.4545621 14.517213,15.0070916 15.0685605,15.0070916 C15.6199081,15.0070916 16.0673786,15.4545621 16.0673786,16.0059097 L16.0673786,18.2507533 C16.4923757,17.9715836 16.8904047,17.650963 17.2554727,17.285895 C17.9436583,16.5987082 18.4835195,15.7971567 18.8610727,14.9052122 C19.2511112,13.9818049 19.4493766,13.0009655 19.4493766,11.9891628 C19.4493766,10.9773601 19.2511112,9.99652078 18.8610727,9.07361289 C18.4835195,8.18116895 17.9431589,7.38011686 17.2554727,6.69243062 C16.567287,6.00424498 15.766235,5.46438381 14.873791,5.08683058 C13.9503837,4.69629272 12.9695444,4.49802733 11.9582411,4.49802733 L11.9582411,3.49920927 C13.1038854,3.49920927 14.2155699,3.72394333 15.2633301,4.16691915 C16.2746334,4.59441328 17.182559,5.20668875 17.9616371,5.98626625 C18.7407152,6.76484493 19.3529906,7.67277055 19.7809842,8.68457325 C20.2234606,9.73133459 20.4481946,10.8425197 20.4481946,11.9891628 C20.4481946,13.1353066 20.2234606,14.2474905 19.7809842,15.2942518 C19.3529906,16.3055551 18.7412146,17.2129813 17.9616371,17.9925588 C17.5845832,18.3691132 17.1760667,18.7052155 16.7420802,19.0023639 L19.0638328,19.0023639 Z" id="path-1"></path>
    </defs>
    <g id="Symbols" stroke="none" stroke-width="1" fill="none" fill-rule="evenodd">
        <g id="icon/ic_update">
            <mask id="mask-2" fill="white">
                <use xlink:href="#path-1"></use>
            </mask>
            <use id="Combined-Shape" fill="#000000" xlink:href="#path-1"></use>
        </g>
    </g>
</svg>