<?xml version="1.0" encoding="UTF-8"?>
<svg width="24px" height="24px" viewBox="0 0 24 24" version="1.1" xmlns="http://www.w3.org/2000/svg" xmlns:xlink="http://www.w3.org/1999/xlink">
    <!-- Generator: Sketch 46.2 (44496) - http://www.bohemiancoding.com/sketch -->
    <title>icon/ic_poople_group</title>
    <desc>Created with Sketch.</desc>
    <defs>
        <path d="M16,11 C17.7,11 19,9.7 19,8 C19,6.3 17.7,5 16,5 C14.3,5 13,6.3 13,8 C13,9.7 14.3,11 16,11 L16,11 Z M8,11 C9.7,11 11,9.7 11,8 C11,6.3 9.7,5 8,5 C6.3,5 5,6.3 5,8 C5,9.7 6.3,11 8,11 L8,11 Z M8,13 C5.7,13 1,14.2 1,16.5 L1,19 L15,19 L15,16.5 C15,14.2 10.3,13 8,13 L8,13 Z M16,13 C15.7,13 15.4,13 15,13.1 C16.2,13.9 17,15.1 17,16.5 L17,19 L23,19 L23,16.5 C23,14.2 18.3,13 16,13 L16,13 Z" id="path-1"></path>
    </defs>
    <g id="Symbols" stroke="none" stroke-width="1" fill="none" fill-rule="evenodd">
        <g id="icon/ic_poople_group">
            <mask id="mask-2" fill="white">
                <use xlink:href="#path-1"></use>
            </mask>
            <use id="Shape" fill="#000000" xlink:href="#path-1"></use>
        </g>
    </g>
</svg>