<?xml version="1.0" encoding="UTF-8"?>
<svg width="24px" height="24px" viewBox="0 0 24 24" version="1.1" xmlns="http://www.w3.org/2000/svg" xmlns:xlink="http://www.w3.org/1999/xlink">
    <!-- Generator: Sketch 46.2 (44496) - http://www.bohemiancoding.com/sketch -->
    <title>icon/ic_poople_invite</title>
    <desc>Created with Sketch.</desc>
    <defs>
        <path d="M15.0909091,12 C16.9909091,12 18.5454545,10.425 18.5454545,8.5 C18.5454545,6.575 16.9909091,5 15.0909091,5 C13.1909091,5 11.6363636,6.575 11.6363636,8.5 C11.6363636,10.425 13.1909091,12 15.0909091,12 L15.0909091,12 Z M7.31818182,10.25 L7.31818182,7.625 L5.59090909,7.625 L5.59090909,10.25 L3,10.25 L3,12 L5.59090909,12 L5.59090909,14.625 L7.31818182,14.625 L7.31818182,12 L9.90909091,12 L9.90909091,10.25 L7.31818182,10.25 L7.31818182,10.25 Z M15.0909091,13.75 C12.7590909,13.75 8.18181818,14.8875 8.18181818,17.25 L8.18181818,19 L22,19 L22,17.25 C22,14.8875 17.4227273,13.75 15.0909091,13.75 L15.0909091,13.75 Z" id="path-1"></path>
    </defs>
    <g id="Symbols" stroke="none" stroke-width="1" fill="none" fill-rule="evenodd">
        <g id="icon/ic_poople_invite">
            <mask id="mask-2" fill="white">
                <use xlink:href="#path-1"></use>
            </mask>
            <use id="Shape-Copy-3" fill="#000000" xlink:href="#path-1"></use>
        </g>
    </g>
</svg>