<?xml version="1.0" encoding="UTF-8"?>
<svg width="24px" height="24px" viewBox="0 0 24 24" version="1.1" xmlns="http://www.w3.org/2000/svg" xmlns:xlink="http://www.w3.org/1999/xlink">
    <!-- Generator: Sketch 46.2 (44496) - http://www.bohemiancoding.com/sketch -->
    <title>icon/volume_off</title>
    <desc>Created with Sketch.</desc>
    <defs>
        <path d="M16.5,12 C16.5,10.2 15.5,8.7 14,8 L14,10.2 L16.5,12.7 L16.5,12 L16.5,12 Z M19,12 C19,12.9 18.8,13.8 18.5,14.6 L20,16.1 C20.7,14.9 21,13.4 21,11.9 C21,7.6 18,4 14,3.1 L14,5.2 C16.9,6.2 19,8.8 19,12 L19,12 Z M3,4.3 L7.7,9 L3,9 L3,15 L7,15 L12,20 L12,13.3 L16.3,17.6 C15.6,18.1 14.9,18.5 14,18.8 L14,20.9 C15.4,20.6 16.6,20 17.7,19.1 L19.7,21.1 L21,19.8 L12,10.8 L4.3,3 L3,4.3 Z M12,4 L9.9,6.1 L12,8.2 L12,4 L12,4 Z" id="path-1"></path>
    </defs>
    <g id="Symbols" stroke="none" stroke-width="1" fill="none" fill-rule="evenodd">
        <g id="icon/volume_off">
            <mask id="mask-2" fill="white">
                <use xlink:href="#path-1"></use>
            </mask>
            <use id="Shape" fill="#000000" xlink:href="#path-1"></use>
        </g>
    </g>
</svg>