<?xml version="1.0" encoding="UTF-8"?>
<svg width="24px" height="24px" viewBox="0 0 24 24" version="1.1" xmlns="http://www.w3.org/2000/svg" xmlns:xlink="http://www.w3.org/1999/xlink">
    <!-- Generator: Sketch 46.2 (44496) - http://www.bohemiancoding.com/sketch -->
    <title>icon/ic_video_analytics</title>
    <desc>Created with Sketch.</desc>
    <defs>
        <path d="M8.868,18 C9.399,18.7775 10.0665,19.4515 10.8315,20 L5,20 C3.3455,20 2,18.6545 2,17 L2,6 C2,4.3455 3.3455,3 5,3 L19,3 C20.654,3 22,4.3455 22,6 L22,8.8845 C21.4535,8.1145 20.7775,7.443 20,6.9075 L20,6 C20,5.4485 19.551,5 19,5 L5,5 C4.4485,5 4,5.4485 4,6 L4,17 C4,17.5515 4.4485,18 5,18 L8.868,18 Z M20.97435,17.82 L22.33085,19.1765 C22.52635,19.3715 22.52635,19.688 22.33085,19.8835 C22.23335,19.981 22.10535,20.03 21.97735,20.03 C21.84935,20.03 21.72135,19.981 21.62385,19.8835 L20.30035,18.56 C19.04385,19.759 17.34685,20.5 15.47735,20.5 C11.61735,20.5 8.47735,17.36 8.47735,13.5 C8.47735,9.64 11.61735,6.5 15.47735,6.5 C19.33735,6.5 22.47735,9.64 22.47735,13.5 C22.47735,15.1305 21.91235,16.6285 20.97435,17.82 Z M15.47735,19.5 C18.78585,19.5 21.47735,16.8085 21.47735,13.5 C21.47735,10.1915 18.78585,7.5 15.47735,7.5 C12.16885,7.5 9.47735,10.1915 9.47735,13.5 C9.47735,16.8085 12.16885,19.5 15.47735,19.5 Z M14.0145,16.5 L14.0145,10.5 L18.94,13.5 L14.0145,16.5 Z" id="path-1"></path>
    </defs>
    <g id="Symbols" stroke="none" stroke-width="1" fill="none" fill-rule="evenodd">
        <g id="icon/ic_video_analytics">
            <mask id="mask-2" fill="white">
                <use xlink:href="#path-1"></use>
            </mask>
            <use id="Combined-Shape" fill="#000000" xlink:href="#path-1"></use>
        </g>
    </g>
</svg>