<?xml version="1.0" encoding="UTF-8"?>
<svg width="24px" height="24px" viewBox="0 0 24 24" version="1.1" xmlns="http://www.w3.org/2000/svg" xmlns:xlink="http://www.w3.org/1999/xlink">
    <!-- Generator: Sketch 46.2 (44496) - http://www.bohemiancoding.com/sketch -->
    <title>icon/videocam_off</title>
    <desc>Created with Sketch.</desc>
    <defs>
        <path d="M21,6.5 L17,10.5 L17,7 C17,6.4 16.6,6 16,6 L9.8,6 L21,17.2 L21,6.5 L21,6.5 Z M3.3,2 L2,3.3 L4.7,6 L4,6 C3.4,6 3,6.4 3,7 L3,17 C3,17.6 3.4,18 4,18 L16,18 C16.2,18 16.4,17.9 16.5,17.8 L19.7,21 L21,19.7 L3.3,2 L3.3,2 Z" id="path-1"></path>
    </defs>
    <g id="Symbols" stroke="none" stroke-width="1" fill="none" fill-rule="evenodd">
        <g id="icon/videocam_off">
            <mask id="mask-2" fill="white">
                <use xlink:href="#path-1"></use>
            </mask>
            <use id="Shape" fill="#000000" xlink:href="#path-1"></use>
        </g>
    </g>
</svg>