<?xml version="1.0" encoding="UTF-8"?>
<svg width="24px" height="24px" viewBox="0 0 24 24" version="1.1" xmlns="http://www.w3.org/2000/svg" xmlns:xlink="http://www.w3.org/1999/xlink">
    <!-- Generator: Sketch 46.2 (44496) - http://www.bohemiancoding.com/sketch -->
    <title>icon/ic_wifi_beacon_2</title>
    <desc>Created with Sketch.</desc>
    <defs>
        <path d="M12.3788526,16.4525842 L15.2209579,20.2420579 C15.3289579,20.3855842 15.3460105,20.5774263 15.2659579,20.7380053 C15.1854316,20.8985842 15.0215368,20.9999526 14.8420105,20.9999526 L9.1578,20.9999526 C8.97827368,20.9999526 8.81485263,20.8985842 8.73432632,20.7380053 C8.65427368,20.5774263 8.67132632,20.3855842 8.77885263,20.2420579 L11.6209579,16.4525842 C11.7995368,16.2138474 12.2002737,16.2138474 12.3788526,16.4525842 Z M12,3 C16.9627895,3 21,7.03721053 21,12 C21,14.5010526 19.9905789,16.8254211 18.1583684,18.5453684 L17.5098947,17.8547368 C19.1497895,16.3157368 20.0526316,14.2367368 20.0526316,12 C20.0526316,7.55968421 16.4403158,3.94736842 12,3.94736842 C7.55968421,3.94736842 3.94736842,7.55968421 3.94736842,12 C3.94736842,14.2367368 4.85021053,16.3157368 6.49010526,17.8547368 L5.84163158,18.5453684 C4.00942105,16.8254211 3,14.5010526 3,12 C3,7.03721053 7.03721053,3 12,3 Z M12,5.84210526 C15.3953684,5.84210526 18.1578947,8.60463158 18.1578947,12 C18.1578947,13.5830526 17.5548947,15.0879474 16.4592632,16.2366316 L15.7738421,15.5829474 C16.7003684,14.6109474 17.2105263,13.3386316 17.2105263,12 C17.2105263,9.12710526 14.8728947,6.78947368 12,6.78947368 C9.12710526,6.78947368 6.78947368,9.12710526 6.78947368,12 C6.78947368,13.3386316 7.29963158,14.6109474 8.22615789,15.5829474 L7.54073684,16.2366316 C6.44510526,15.0879474 5.84210526,13.5830526 5.84210526,12 C5.84210526,8.60463158 8.60463158,5.84210526 12,5.84210526 Z M11.0526316,12 C11.0526316,11.4775263 11.4775263,11.0526316 12,11.0526316 C12.5224737,11.0526316 12.9473684,11.4775263 12.9473684,12 C12.9473684,12.5224737 12.5224737,12.9473684 12,12.9473684 C11.4775263,12.9473684 11.0526316,12.5224737 11.0526316,12 Z M14.8421053,12 C14.8421053,10.4306842 13.5693158,9.15789474 12,9.15789474 C10.4306842,9.15789474 9.15789474,10.4306842 9.15789474,12 C9.15789474,13.5693158 10.4306842,14.8421053 12,14.8421053 C13.5693158,14.8421053 14.8421053,13.5693158 14.8421053,12" id="path-1"></path>
    </defs>
    <g id="Symbols" stroke="none" stroke-width="1" fill="none" fill-rule="evenodd">
        <g id="icon/ic_wifi_beacon_2">
            <mask id="mask-2" fill="white">
                <use xlink:href="#path-1"></use>
            </mask>
            <use id="Combined-Shape" fill="#000000" xlink:href="#path-1"></use>
        </g>
    </g>
</svg>