<?xml version="1.0" encoding="utf-8"?>
<!-- Generator: Adobe Illustrator 24.3.0, SVG Export Plug-In . SVG Version: 6.00 Build 0)  -->
<svg version="1.1" id="圖層_1" xmlns="http://www.w3.org/2000/svg" xmlns:xlink="http://www.w3.org/1999/xlink" x="0px" y="0px"
	 viewBox="0 0 24 24" style="enable-background:new 0 0 24 24;" xml:space="preserve" width="35px">
<style type="text/css">
	.st0{fill-rule:evenodd;clip-rule:evenodd;}
</style>
<desc>Created with Sketch.</desc>
<g id="icon_x2F_ic_x5F_host">
	<g id="icon" transform="translate(3.000000, 4.000000)">
		<path id="Mask" class="st0" d="M15,0c1.7,0,3,1.3,3,3v8c0,1.7-1.3,3-3,3h-2.5v1.5H17v1H1v-1h4.5V14H3c-1.7,0-3-1.3-3-3V3
			c0-1.7,1.3-3,3-3H15z M11.5,14h-5v1.5h5V14z M15,2H3C2.4,2,2,2.4,2,3v8c0,0.6,0.4,1,1,1h12c0.6,0,1-0.4,1-1V3C16,2.4,15.6,2,15,2z
			" style="fill:#FFF"/>
	</g>
</g>
</svg>
