<?xml version="1.0" encoding="utf-8"?>
<!-- Generator: Adobe Illustrator 24.3.0, SVG Export Plug-In . SVG Version: 6.00 Build 0)  -->
<svg version="1.1" id="圖層_1" xmlns="http://www.w3.org/2000/svg" xmlns:xlink="http://www.w3.org/1999/xlink" x="0px" y="0px"
	 viewBox="0 0 24 24" style="enable-background:new 0 0 24 24;" xml:space="preserve">
<style type="text/css">
	.st0{fill-rule:evenodd;clip-rule:evenodd;}
</style>
<desc>Created with Sketch.</desc>
<g id="icon_x2F_ic_x5F_ip_x5F_private">
	<g id="Fill-1">
		<path id="path-1_1_" class="st0" d="M12.2,12.8h0.9c0.3,0,0.5,0.1,0.6,0.2c0.1,0.2,0.2,0.3,0.2,0.6c0,0.2-0.1,0.4-0.2,0.5
			c-0.1,0.1-0.3,0.2-0.6,0.2h-0.9V12.8z M11.2,17h1v-1.8h0.9c0.6,0,1.1-0.1,1.4-0.4c0.3-0.3,0.5-0.7,0.5-1.2c0-0.3-0.1-0.6-0.2-0.9
			c-0.2-0.3-0.4-0.4-0.7-0.6c-0.3-0.1-0.6-0.2-1-0.2h-1.9V17z M9.5,17h1v-5h-1V17z M16.5,14.4c0,2.5-2,4.5-4.5,4.5s-4.5-2-4.5-4.5
			s2-4.5,4.5-4.5S16.5,11.9,16.5,14.4L16.5,14.4z M10.5,5c0-0.8,0.7-1.5,1.5-1.5s1.5,0.7,1.5,1.5S12.8,6.5,12,6.5S10.5,5.8,10.5,5
			L10.5,5z M20,6V4h-5.7C13.9,3.1,13,2.5,12,2.5S10.1,3.1,9.7,4H4v2h5.7c0.3,0.7,1,1.3,1.8,1.4V8c-3.4,0.3-6,3.1-6,6.5
			c0,3.6,2.9,6.5,6.5,6.5s6.5-2.9,6.5-6.5c0-3.4-2.6-6.2-6-6.5V7.4C13.3,7.3,14,6.7,14.3,6H20z"/>
	</g>
</g>
</svg>
