<?xml version="1.0" encoding="utf-8"?>
<!-- Generator: Adobe Illustrator 24.3.0, SVG Export Plug-In . SVG Version: 6.00 Build 0)  -->
<svg version="1.1" id="圖層_1" xmlns="http://www.w3.org/2000/svg" xmlns:xlink="http://www.w3.org/1999/xlink" x="0px" y="0px"
	 viewBox="0 0 24 24" style="enable-background:new 0 0 24 24;" xml:space="preserve">
<style type="text/css">
	.st0{fill-rule:evenodd;clip-rule:evenodd;}
</style>
<desc>Created with Sketch.</desc>
<g id="icon" transform="translate(2.000000, 3.000000)">
	<g id="Combined-Shape">
		<path id="path-1_1_" class="st0" d="M10.1,0h0.3c4.2,0.1,7.7,3.6,7.7,7.8c0,2.3,0,4.6,0,6.9c0,1.6,0.5,2.4,1.9,3l0,0H0
			c0.2-0.1,0.3-0.1,0.4-0.2c1.1-0.5,1.7-1.3,1.7-2.6c0-2.4,0-4.7,0-7.1c0-4.6,3.7-8.1,8.3-8L10.1,0z M14.8,6.5
			c-0.9-1.6-3.3-1.6-4.2,0C10.4,7,10.2,7.5,10,8C9.9,7.6,9.8,7.2,9.7,6.8c-0.4-1-1.2-1.5-2.3-1.5S5.6,5.9,5.2,6.8S4.6,8.6,4.8,9.6
			c0.1,0.9,0.5,1.6,1.4,2.1C6,11.8,5.7,12,5.5,12.1c-1.1,1-1.1,2.3,0,3.3c0.4,0.3,0.8,0.6,1.3,0.8c1.8,0.8,3.6,0.9,5.5,0.4
			c0.9-0.2,1.8-0.6,2.5-1.3c0.9-0.9,0.9-2.1,0-3c-0.2-0.3-0.5-0.5-0.8-0.7c0.6-0.2,1-0.7,1.2-1.3C15.6,9,15.5,7.7,14.8,6.5z M8,13.5
			h4c0.4,0,0.7,0.3,0.7,0.7c0,0.3-0.2,0.6-0.6,0.7H12H8c-0.4,0-0.7-0.3-0.7-0.7C7.4,13.8,7.6,13.5,8,13.5L8,13.5h4H8z M7.4,8
			c0.5,0,0.9,0.6,0.9,1.3s-0.4,1.3-0.9,1.3S6.5,10,6.5,9.3S6.9,8,7.4,8z M12.7,8c0.5,0,0.9,0.6,0.9,1.3s-0.4,1.3-0.9,1.4
			c-0.5,0-0.9-0.6-0.9-1.4C11.9,8.6,12.3,8,12.7,8z M12.8,1.7c-0.5,0-0.9,0.3-0.8,0.9c0.1,0.6,0.7,1.2,1.3,1.3s0.9-0.2,0.9-0.8
			C14.2,2.4,13.5,1.7,12.8,1.7z"/>
	</g>
</g>
</svg>
