<?xml version="1.0" encoding="utf-8"?>
<!-- Generator: Adobe Illustrator 24.3.0, SVG Export Plug-In . SVG Version: 6.00 Build 0)  -->
<svg version="1.1" id="圖層_1" xmlns="http://www.w3.org/2000/svg" xmlns:xlink="http://www.w3.org/1999/xlink" x="0px" y="0px"
	 viewBox="0 0 24 24" style="enable-background:new 0 0 24 24;" xml:space="preserve">
<style type="text/css">
	.st0{fill-rule:evenodd;clip-rule:evenodd;}
</style>
<desc>Created with Sketch.</desc>
<g id="icon_x2F_ic_x5F_net_x5F_mac">
	<g id="icon" transform="translate(4.000000, 4.000000)">
		<g id="Combined-Shape">
			<path id="path-1_1_" class="st0" d="M2,12v1c0,0.5,0.4,0.9,0.9,1L3,14h10c0.5,0,0.9-0.4,1-0.9l0-0.1v-1h2v1c0,1.6-1.3,2.9-2.8,3
				L13,16H3c-1.6,0-2.9-1.3-3-2.8L0,13v-1H2z M14.7,5.2c0.7,0,1.3,0.4,1.7,0.7l-0.5,0.6C15.6,6.2,15.2,6,14.7,6
				c-1,0-1.7,0.8-1.7,2.2c0,1.4,0.7,2.3,1.7,2.3c0.5,0,1-0.2,1.3-0.6l0.5,0.6c-0.5,0.5-1.1,0.8-1.8,0.8c-1.5,0-2.6-1.1-2.6-3
				C12,6.3,13.2,5.2,14.7,5.2z M1.1,5.3l1.1,3C2.3,8.6,2.4,9,2.6,9.4h0C2.7,9,2.9,8.6,3,8.2l1.1-3h1.1v5.9H4.3V8.2
				c0-0.5,0.1-1.3,0.1-1.8h0L3.9,7.8l-1,2.8H2.3l-1-2.8L0.8,6.4h0c0,0.5,0.1,1.3,0.1,1.8v2.9H0V5.3H1.1z M9.3,5.3l2,5.9h-1L9.8,9.5
				h-2l-0.5,1.7H6.3l2-5.9H9.3z M8.8,6L8.8,6C8.6,6.7,8.4,7.3,8.2,8L8,8.7h1.6L9.3,8C9.1,7.3,9,6.7,8.8,6z M13,0
				c1.6,0,2.9,1.3,3,2.8L16,3v1h-2V3c0-0.5-0.4-0.9-0.9-1L13,2H3C2.5,2,2.1,2.4,2,2.9L2,3v1H0V3c0-1.6,1.3-2.9,2.8-3L3,0H13z"/>
		</g>
	</g>
</g>
</svg>
