<?xml version="1.0" encoding="utf-8"?>
<!-- Generator: Adobe Illustrator 24.3.0, SVG Export Plug-In . SVG Version: 6.00 Build 0)  -->
<svg version="1.1" id="圖層_1" xmlns="http://www.w3.org/2000/svg" xmlns:xlink="http://www.w3.org/1999/xlink" x="0px" y="0px"
	 viewBox="0 0 24 24" style="enable-background:new 0 0 24 24;" xml:space="preserve">
<style type="text/css">
	.st0{fill-rule:evenodd;clip-rule:evenodd;}
</style>
<desc>Created with Sketch.</desc>
<g id="icon_x2F_ic_x5F_net_x5F_hmd">
	<g id="Combined-Shape">
		<path id="path-1_1_" class="st0" d="M6,16v1c0,0.5,0.4,0.9,0.9,1L7,18h10c0.5,0,0.9-0.4,1-0.9l0-0.1v-1h2v1c0,1.6-1.3,2.9-2.8,3
			L17,20H7c-1.6,0-2.9-1.3-3-2.8L4,17v-1H6z M4.6,9.1v2.5h2.7V9.1h0.7V15H7.4v-2.8H4.6V15H3.9V9.1H4.6z M10.6,9.1l1.1,3.1
			c0.1,0.4,0.3,0.8,0.4,1.2h0c0.1-0.4,0.3-0.8,0.4-1.2l1.1-3.1h0.9V15h-0.7v-3.2c0-0.5,0.1-1.2,0.1-1.7h0l-0.5,1.3l-1.1,3h-0.5
			l-1.1-3L10.3,10h0c0,0.5,0.1,1.2,0.1,1.7V15H9.7V9.1H10.6z M17.7,9.1c1.8,0,2.8,1,2.8,2.9c0,1.9-1,3-2.7,3h-1.5V9.1H17.7z
			 M17.6,9.7H17v4.7h0.7c1.4,0,2.1-0.9,2.1-2.3C19.7,10.6,19,9.7,17.6,9.7z M7,4h10c1.6,0,2.9,1.3,3,2.8L20,7v1h-2V7
			c0-0.5-0.4-0.9-0.9-1L17,6H7C6.5,6,6.1,6.4,6,6.9L6,7v1H4V7c0-1.6,1.3-2.9,2.8-3L7,4h10H7z"/>
	</g>
</g>
</svg>
