<?xml version="1.0" encoding="utf-8"?>
<!-- Generator: Adobe Illustrator 26.0.3, SVG Export Plug-In . SVG Version: 6.00 Build 0)  -->
<svg version="1.1" id="圖層_1" xmlns="http://www.w3.org/2000/svg" xmlns:xlink="http://www.w3.org/1999/xlink" x="0px" y="0px"
	 viewBox="0 0 24 24" style="enable-background:new 0 0 24 24;" xml:space="preserve">
<desc>Created with Sketch.</desc>
<path d="M12,10.9c0.3,0,0.5-0.2,0.5-0.5V7.7c0-0.3-0.2-0.5-0.5-0.5c-0.3,0-0.5,0.2-0.5,0.5v2.6C11.5,10.6,11.7,10.9,12,10.9z
	 M10.2,9.5L9.6,8.7c-1.8,1.3-2.1,3.8-0.8,5.6s3.8,2.1,5.6,0.8s2.1-3.8,0.8-5.6c-0.2-0.3-0.5-0.6-0.8-0.8l-0.6,0.8
	c1.3,1,1.6,2.9,0.6,4.2s-2.9,1.6-4.2,0.6s-1.6-2.9-0.6-4.2C9.8,9.8,10,9.6,10.2,9.5z M12,3v2c3.9,0,7,3.1,7,7s-3.1,7-7,7s-7-3.1-7-7
	c0-2.2,1.1-4.4,2.9-5.7V7c0,0.6,0.4,1,1,1c0.6,0,1-0.4,1-1V4c0-0.6-0.4-1-1-1h-3c-0.6,0-1,0.4-1,1s0.4,1,1,1h0.4
	C2.5,8.1,1.9,13.8,5,17.7s8.8,4.5,12.7,1.3c3.9-3.1,4.5-8.8,1.3-12.7C17.3,4.2,14.7,3,12,3z"/>
</svg>
